M48
;Layer_Color=9474304
;FILE_FORMAT=2:4
INCH
;TYPE=PLATED
T1F00S00C0.0118
T2F00S00C0.0157
T5F00S00C0.0433
T6F00S00C0.0531
T7F00S00C0.1260
;TYPE=NON_PLATED
T8F00S00C0.0256
%
T01
X042520Y073228
X044882
X042520Y075591
X043296Y076663
X042520Y077953
X040157
Y075591
X045852Y077671
X049222Y077661
X050402Y077671
X051969Y077953
X053532Y077608
X051969Y075591
Y073228
X054331
X056693
X059055
X062233Y074380
X061417Y075591
X062351Y076663
X061417Y077953
X059055
X057194Y076703
X056693Y075591
X048217Y076427
X047244Y075591
Y073228
X049606
X063780
X066142
X068572Y073199
X068504Y075591
Y077953
X066592Y078091
X066879Y077333
X065872Y077441
X065522
X077953Y077953
X087402Y075591
Y082677
Y085039
Y087402
X085039
Y085039
Y082677
X084162Y081585
Y081191
X082677Y082677
X080186Y081427
X079792
X080315Y087402
X082677
X081872Y089681
X080315Y089764
X081212Y090701
X082677Y092126
X085039
X077953Y089764
Y087402
Y085039
Y082677
Y080315
X074123Y081191
X073926Y081624
X073228Y082677
X075591
Y085039
Y087402
Y089764
Y092126
X070866
Y089764
Y087402
X068504
Y089764
Y092126
X066142
X065132Y093361
X063142Y093121
X063060Y092333
X062981Y088750
X064595
X066142Y089764
Y087402
Y082677
X068504
X070866
X069950Y081624
X070147Y081270
X068504Y080315
X066142
X073282Y086511
Y087241
X061417Y087402
X060501Y088120
X060265Y088553
Y089183
X059792Y089301
X060632Y089801
X060658Y088789
X062351Y088711
X061879Y091230
X061192Y093691
X059320Y090561
X058808Y090758
X058296Y090561
X057784Y090837
X057273Y090797
X056839
X056446
X056013
Y090364
X056446
X056918
X057351
X054556Y090443
Y089970
X054517Y089301
X055225Y089380
Y088986
Y088514
Y088081
X054872Y086271
X053422Y083641
X054331Y080315
X053702Y079421
X053375Y078986
X054652Y078221
X055934Y078711
X059055Y080315
X061417
Y082677
X059055
X051969Y080315
X051170Y078396
X049932Y078221
X048982Y079421
X047162Y079851
X047244Y082677
Y085039
X047802Y085521
X047812Y088171
X047292Y088181
X046922Y088161
X047244Y089764
X051328Y090364
X052666Y091309
X053178
X053650
X054162Y091270
X054477Y090915
X054123Y090561
X053650Y090758
X054331Y092126
X044882
Y089764
X046322Y087131
X044882Y085039
Y082677
Y080315
X044212Y079421
X043690Y078986
X045242Y078211
X046446Y078593
X046742Y079431
X042520Y080315
Y082677
X040157
Y080315
X042520Y092126
X040157Y094488
Y096850
Y099213
X042520Y101575
X047115Y102333
X048257Y102175
X049502Y102011
X050142Y101871
X050934Y102215
X052469Y102490
Y101939
X052502Y101221
X054331Y101575
X055265Y100718
X055934Y100561
X054331Y099213
X053808Y098593
X054882Y097511
X056742Y097521
X058972Y097441
X059322Y097451
X059989Y097884
X060442Y098651
X060872Y098941
X061222
X061212Y098341
X060872
X060992Y099861
X060973Y101309
X060422Y101152
X059713Y100364
X059055Y101575
X058212Y101391
X058650Y103711
X058532Y098711
X058982Y095231
X059332
X057862Y094741
X054331Y094488
X051969
X050580Y099301
X050028
X049162Y099341
X050212Y100791
X062273Y100797
X062351Y097805
X062902Y096703
X063532Y096701
X065742Y096491
X065772Y095621
X067452Y095581
Y095931
X067036Y097018
X065973Y097805
X066013Y100718
X068702Y101461
X068552Y099581
X068182Y099281
X070182Y100471
X071603Y100758
X072351Y100600
X070866Y101575
X069202Y103750
X071502Y097781
X070866Y094488
X068912Y095301
X068512Y095311
X075591Y096850
X077953
Y094488
X075591Y101575
X080315
X085039
X087402Y099213
Y096850
Y094488
X085039
Y096850
X082677
X081772Y098231
X082677Y099213
Y094488
X080315
Y096850
T02
X051892Y088581
X047342Y096531
X076612Y098241
T05
X088572Y083699
Y084699
Y085699
Y086699
Y087699
Y088699
Y089699
Y090699
Y091699
Y092699
X039753
Y091699
Y090699
Y089699
Y088699
Y087699
Y086699
Y085699
Y084699
Y083699
X077917Y102189
X079917
X082641
X084641
T06
X072725Y074577
X071347Y076624
X075284
X076662Y074577
X080599
X079221Y076624
X083158
X084536Y074577
X078568Y085911
Y086911
Y087911
Y088911
X049757Y088911
Y089911
Y090911
Y091911
Y092911
Y087911
Y086911
Y085911
Y084911
Y083911
Y082911
Y081911
Y080911
Y093911
T07
X040147Y074026
X088178
X040147Y102372
X088178
T08
X048458Y101711
X050733
M30
