G04*
G04 #@! TF.GenerationSoftware,Altium Limited,Altium Designer,22.8.2 (66)*
G04*
G04 Layer_Color=65535*
%FSAX25Y25*%
%MOIN*%
G70*
G04*
G04 #@! TF.SameCoordinates,CD0932C5-B174-4F7F-AF8C-C675B02BC22C*
G04*
G04*
G04 #@! TF.FilePolarity,Positive*
G04*
G01*
G75*
%ADD10C,0.01181*%
%ADD11C,0.00500*%
%ADD12C,0.00787*%
%ADD13C,0.00394*%
%ADD14R,0.00900X0.08700*%
%ADD15R,0.01760X0.04469*%
D10*
X0567607Y0770374D02*
G03*
X0567607Y0770374I-0000591J0000000D01*
G01*
X0614851D02*
G03*
X0614851Y0770374I-0000591J0000000D01*
G01*
X0662095D02*
G03*
X0662095Y0770374I-0000591J0000000D01*
G01*
D11*
X0473154Y0984608D02*
G03*
X0473154Y0984608I-0003937J0000000D01*
G01*
X0410954Y0976808D02*
G03*
X0410954Y0976808I-0003937J0000000D01*
G01*
X0415954Y0952308D02*
G03*
X0415954Y0952308I-0003937J0000000D01*
G01*
X0874454Y0952008D02*
G03*
X0874454Y0952008I-0003937J0000000D01*
G01*
X0602117Y1007108D02*
Y1010708D01*
X0779678Y0901488D02*
X0780678D01*
X0780578Y0892688D02*
X0780678Y0892788D01*
X0779678Y0892688D02*
X0780578D01*
X0779678D02*
Y0901388D01*
X0780678Y0902972D02*
X0791406D01*
X0780678Y0859626D02*
Y0902972D01*
Y0859626D02*
X0791406D01*
Y0902972D01*
X0497568Y0952972D02*
X0503473D01*
Y0810177D02*
Y0952972D01*
X0491662Y0810177D02*
X0503473D01*
X0491662D02*
Y0946988D01*
X0628836Y0783760D02*
Y0795256D01*
Y0783760D02*
X0631198D01*
Y0795256D01*
X0628836D02*
X0631198D01*
X0622734Y0795315D02*
X0627458D01*
X0573828Y0852951D02*
X0600217D01*
X0573828Y0840746D02*
X0600206D01*
Y0852951D01*
X0573828Y0840746D02*
Y0852951D01*
X0600217D02*
Y0862649D01*
X0614417Y0915827D02*
Y0917008D01*
X0619417Y0915827D02*
Y0917008D01*
X0639817Y0916527D02*
Y0917708D01*
X0644817Y0916527D02*
Y0917708D01*
X0637217Y0907808D02*
Y0909908D01*
X0627937Y0915935D02*
X0632898D01*
X0627937Y0906880D02*
X0632898D01*
X0484142Y0727264D02*
X0523512D01*
X0531190Y0742224D02*
Y0757185D01*
X0476465Y0742224D02*
Y0757185D01*
X0523512D02*
X0531190D01*
X0476465D02*
X0484142D01*
X0486327Y0763724D02*
X0489827D01*
X0539260Y0726673D02*
X0578631D01*
X0539260Y0754134D02*
Y0761713D01*
Y0726673D02*
Y0736220D01*
X0570264Y0761713D02*
X0578631D01*
X0562390D02*
X0563375D01*
X0554516D02*
X0555501D01*
X0539260D02*
X0547627D01*
X0578631Y0761024D02*
Y0761713D01*
Y0754134D02*
Y0754921D01*
Y0726673D02*
Y0736220D01*
X0586505Y0726673D02*
X0625875D01*
X0586505Y0754134D02*
Y0761713D01*
Y0726673D02*
Y0736220D01*
X0617509Y0761713D02*
X0625875D01*
X0609634D02*
X0610619D01*
X0601760D02*
X0602745D01*
X0586505D02*
X0594871D01*
X0625875Y0761024D02*
Y0761713D01*
Y0754134D02*
Y0754921D01*
Y0726673D02*
Y0736220D01*
X0633749Y0726673D02*
X0673119D01*
X0633749Y0754134D02*
Y0761713D01*
Y0726673D02*
Y0736220D01*
X0664753Y0761713D02*
X0673119D01*
X0656879D02*
X0657863D01*
X0649005D02*
X0649989D01*
X0633749D02*
X0642115D01*
X0673119Y0761024D02*
Y0761713D01*
Y0754134D02*
Y0754921D01*
Y0726673D02*
Y0736220D01*
X0687417Y0788720D02*
Y0789508D01*
X0684417Y0788708D02*
Y0789495D01*
X0673936Y0783960D02*
Y0795456D01*
Y0783960D02*
X0676298D01*
Y0795456D01*
X0673936D02*
X0676298D01*
X0667834Y0795515D02*
X0672558D01*
X0581886Y0981708D02*
X0583068D01*
X0581886Y0986708D02*
X0583068D01*
X0581886Y0975945D02*
X0583068D01*
X0581886Y0980945D02*
X0583068D01*
X0514255Y1000833D02*
X0520810D01*
X0514255Y1003983D02*
X0518979D01*
X0489224Y1003083D02*
X0495779D01*
X0491055Y0999933D02*
X0495779D01*
X0500255D02*
X0506810D01*
X0500255Y1003083D02*
X0504979D01*
X0516368Y0984793D02*
Y0995423D01*
X0510266Y0981053D02*
Y0995423D01*
X0606190Y0938090D02*
Y0941043D01*
Y0938090D02*
X0677056D01*
Y0941043D01*
X0478717Y0767508D02*
X0479505D01*
X0478730Y0764508D02*
X0479517D01*
X0423617Y0767508D02*
X0424405D01*
X0423630Y0764508D02*
X0424417D01*
X0639317Y0790908D02*
Y0791695D01*
X0642317Y0790920D02*
Y0791708D01*
X0431172Y0763724D02*
X0434772D01*
X0429024Y0727264D02*
X0460520D01*
X0421347Y0741437D02*
Y0757185D01*
X0468197Y0741437D02*
Y0757185D01*
X0464260D02*
X0468197D01*
X0421347D02*
X0425284D01*
X0518117Y0988520D02*
Y0989308D01*
X0522917Y0988520D02*
Y0989308D01*
X0637654Y0874039D02*
X0638835D01*
X0637654Y0869039D02*
X0638835D01*
X0644854Y0868039D02*
Y0869220D01*
X0649854Y0868039D02*
Y0869220D01*
X0656154Y0868039D02*
Y0868827D01*
X0651354Y0868039D02*
Y0868827D01*
X0666154Y0868058D02*
Y0869239D01*
X0661154Y0868058D02*
Y0869239D01*
X0672454Y0868058D02*
Y0869239D01*
X0667454Y0868058D02*
Y0869239D01*
X0673354Y0913958D02*
Y0915139D01*
X0668354Y0913958D02*
Y0915139D01*
X0667254Y0913958D02*
Y0915139D01*
X0662254Y0913958D02*
Y0915139D01*
X0649817Y0882108D02*
X0650605D01*
X0649817Y0886908D02*
X0650605D01*
X0629936Y0918208D02*
X0631117D01*
X0629936Y0923208D02*
X0631117D01*
X0629868Y0903708D02*
X0631049D01*
X0629868Y0898708D02*
X0631049D01*
X0564717Y1007308D02*
X0565505D01*
X0564730Y1004308D02*
X0565517D01*
X0728517Y1007808D02*
X0729305D01*
X0728530Y1004808D02*
X0729317D01*
X0582068Y0966181D02*
X0583249D01*
X0582068Y0961181D02*
X0583249D01*
X0589217Y1000227D02*
Y1001408D01*
X0584217Y1000227D02*
Y1001408D01*
X0578317Y1000520D02*
Y1001308D01*
X0583117Y1000520D02*
Y1001308D01*
X0596217Y1005708D02*
Y1006495D01*
X0599217Y1005720D02*
Y1006508D01*
X0590217Y1007020D02*
Y1007808D01*
X0595017Y1007020D02*
Y1007808D01*
X0540117Y1015508D02*
Y1016295D01*
X0535317Y1015508D02*
Y1016295D01*
X0536117Y1033757D02*
X0539117D01*
X0536117D02*
X0536617Y1034257D01*
X0538617D02*
X0539117Y1033757D01*
X0536617Y1034257D02*
X0538617D01*
X0696217Y1014708D02*
Y1015889D01*
X0701217Y1014708D02*
Y1015889D01*
X0697217Y1032908D02*
X0700217D01*
X0697217D02*
X0697717Y1033408D01*
X0699717D02*
X0700217Y1032908D01*
X0697717Y1033408D02*
X0699717D01*
X0591717Y0871949D02*
Y0872736D01*
X0594717Y0871961D02*
Y0872749D01*
X0585817Y0871961D02*
Y0872749D01*
X0590617Y0871961D02*
Y0872749D01*
X0581517Y0872049D02*
Y0872836D01*
X0584517Y0872061D02*
Y0872849D01*
X0575517Y0872161D02*
Y0872949D01*
X0580317Y0872161D02*
Y0872949D01*
X0559260Y0870949D02*
Y0871736D01*
X0562260Y0870961D02*
Y0871749D01*
X0553260Y0870961D02*
Y0871749D01*
X0558060Y0870961D02*
Y0871749D01*
X0523117Y1014727D02*
Y1015908D01*
X0518117Y1014727D02*
Y1015908D01*
X0473717Y1014727D02*
Y1015908D01*
X0468717Y1014727D02*
Y1015908D01*
X0534960Y0872949D02*
Y0873736D01*
X0537960Y0872961D02*
Y0873749D01*
X0540732Y0873849D02*
X0549787D01*
X0566960Y0852051D02*
Y0861749D01*
X0540571Y0839846D02*
Y0852051D01*
X0566949Y0839846D02*
Y0852051D01*
X0540571Y0839846D02*
X0566949D01*
X0540571Y0852051D02*
X0566960D01*
X0658354Y0901939D02*
Y0904139D01*
X0660654D01*
X0657454Y0902839D02*
Y0905039D01*
X0659754D01*
X0660654Y0904139D01*
X0657454Y0902839D02*
X0658354Y0901939D01*
X0844417Y0823627D02*
Y0824808D01*
X0839417Y0823627D02*
Y0824808D01*
X0845817Y0817508D02*
Y0818689D01*
X0850817Y0817508D02*
Y0818689D01*
X0857017Y0817608D02*
Y0818395D01*
X0852217Y0817608D02*
Y0818395D01*
X0858217Y0819708D02*
Y0822808D01*
X0864212Y0811560D02*
X0867676D01*
Y0814355D01*
X0864212Y0823056D02*
X0867676D01*
Y0820261D02*
Y0823056D01*
X0803517Y0823227D02*
Y0824408D01*
X0798517Y0823227D02*
Y0824408D01*
X0804817Y0817208D02*
Y0818389D01*
X0809817Y0817208D02*
Y0818389D01*
X0815917Y0817308D02*
Y0818095D01*
X0811117Y0817308D02*
Y0818095D01*
X0817217Y0819308D02*
Y0822408D01*
X0823212Y0811160D02*
X0826676D01*
Y0813955D01*
X0823212Y0822656D02*
X0826676D01*
Y0819860D02*
Y0822656D01*
X0741417Y0824276D02*
Y0825457D01*
X0736417Y0824276D02*
Y0825457D01*
X0742717Y0818208D02*
Y0819389D01*
X0747717Y0818208D02*
Y0819389D01*
X0754017Y0818308D02*
Y0819095D01*
X0749217Y0818308D02*
Y0819095D01*
X0755317Y0820408D02*
Y0823508D01*
X0761312Y0812260D02*
X0764776D01*
Y0815055D01*
X0761312Y0823756D02*
X0764776D01*
Y0820961D02*
Y0823756D01*
X0703717Y0818008D02*
Y0819189D01*
X0708717Y0818008D02*
Y0819189D01*
X0702417Y0824227D02*
Y0825408D01*
X0697417Y0824227D02*
Y0825408D01*
X0715017Y0818208D02*
Y0818995D01*
X0710217Y0818208D02*
Y0818995D01*
X0716517Y0820308D02*
Y0823408D01*
X0722512Y0812160D02*
X0725976D01*
Y0814955D01*
X0722512Y0823656D02*
X0725976D01*
Y0820860D02*
Y0823656D01*
X0731629Y0799701D02*
Y0806001D01*
X0707737Y0807165D02*
X0726241D01*
X0707737Y0790236D02*
X0726241D01*
X0716530Y0787708D02*
X0717317D01*
X0716530Y0782908D02*
X0717317D01*
X0770429Y0799701D02*
Y0806001D01*
X0746537Y0807165D02*
X0765041D01*
X0746537Y0790236D02*
X0765041D01*
X0755630Y0787708D02*
X0756417D01*
X0755630Y0782908D02*
X0756417D01*
X0810030Y0788008D02*
X0810817D01*
X0810030Y0783208D02*
X0810817D01*
X0825229Y0799701D02*
Y0806001D01*
X0801337Y0807165D02*
X0819841D01*
X0801337Y0790236D02*
X0819841D01*
X0864529Y0799801D02*
Y0806101D01*
X0840637Y0807265D02*
X0859141D01*
X0840637Y0790336D02*
X0859141D01*
X0849930Y0788008D02*
X0850717D01*
X0849930Y0783208D02*
X0850717D01*
X0821461Y0970664D02*
X0823221D01*
X0821461D02*
Y0975132D01*
X0823221D01*
X0821461Y0990683D02*
X0823221D01*
X0821461D02*
Y0995152D01*
X0823221D01*
Y0990683D02*
Y0995152D01*
Y0970664D02*
Y0975132D01*
Y0970664D02*
X0851213D01*
Y0990683D02*
Y0995152D01*
Y0970664D02*
Y0975132D01*
X0823221Y0995152D02*
X0851213D01*
X0771861Y0971064D02*
X0773621D01*
X0771861D02*
Y0975532D01*
X0773621D01*
X0771861Y0991083D02*
X0773621D01*
X0771861D02*
Y0995552D01*
X0773621D01*
Y0991083D02*
Y0995552D01*
Y0971064D02*
Y0975532D01*
Y0971064D02*
X0801613D01*
Y0991083D02*
Y0995552D01*
Y0971064D02*
Y0975532D01*
X0773621Y0995552D02*
X0801613D01*
X0453113Y0978852D02*
X0454873D01*
Y0974383D02*
Y0978852D01*
X0453113Y0974383D02*
X0454873D01*
X0453113Y0958832D02*
X0454873D01*
Y0954364D02*
Y0958832D01*
X0453113Y0954364D02*
X0454873D01*
X0453113D02*
Y0958832D01*
Y0974383D02*
Y0978852D01*
X0425121D02*
X0453113D01*
X0425121Y0954364D02*
Y0958832D01*
Y0974383D02*
Y0978852D01*
Y0954364D02*
X0453113D01*
X0713298Y1034155D02*
X0714085D01*
X0713298Y1013683D02*
Y1034155D01*
Y1013683D02*
X0714085D01*
X0732982Y1034155D02*
X0733770D01*
Y1013683D02*
Y1034155D01*
X0732982Y1013683D02*
X0733770D01*
X0718416Y1034155D02*
X0728652D01*
X0718416Y1013683D02*
X0728652D01*
X0714834Y1009019D02*
X0717534D01*
X0549481Y1033444D02*
X0550268D01*
X0549481Y1012971D02*
Y1033444D01*
Y1012971D02*
X0550268D01*
X0569166Y1033444D02*
X0569953D01*
Y1012971D02*
Y1033444D01*
X0569166Y1012971D02*
X0569953D01*
X0554599Y1033444D02*
X0564835D01*
X0554599Y1012971D02*
X0564835D01*
X0551017Y1008308D02*
X0553717D01*
X0478355Y1020531D02*
Y1026791D01*
X0478417Y1038208D02*
X0478455Y1036397D01*
X0513552Y1020531D02*
Y1026791D01*
X0513517Y1038208D02*
X0513552Y1036397D01*
X0457568Y0984547D02*
Y1034855D01*
X0422134Y0984547D02*
Y0989075D01*
X0450284Y0984547D02*
X0457568D01*
X0422133Y1035055D02*
X0422134Y1009153D01*
Y0984547D02*
X0429812D01*
X0430951Y0980894D02*
X0448951D01*
X0769171Y1038028D02*
X0809171D01*
Y1005745D02*
Y1038028D01*
X0769171Y1005745D02*
X0809171D01*
X0769171D02*
Y1038028D01*
X0816415D02*
X0856415D01*
Y1005745D02*
Y1038028D01*
X0816415Y1005745D02*
X0856415D01*
X0816415D02*
Y1038028D01*
D12*
X0390560Y0807188D02*
Y0951988D01*
Y0807188D02*
X0400560D01*
Y0956988D01*
X0395560D02*
X0400560D01*
X0882686Y0807188D02*
Y0951988D01*
Y0807188D02*
X0892686D01*
Y0956988D01*
X0887686D02*
X0892686D01*
X0405128Y0813075D02*
X0404472Y0813731D01*
X0403160D01*
X0402505Y0813075D01*
Y0810451D01*
X0403160Y0809795D01*
X0404472D01*
X0405128Y0810451D01*
Y0811763D01*
X0403817D01*
X0406440Y0809795D02*
Y0813731D01*
X0409064Y0809795D01*
Y0813731D01*
X0410376D02*
Y0809795D01*
X0412344D01*
X0413000Y0810451D01*
Y0813075D01*
X0412344Y0813731D01*
X0410376D01*
X0786292Y0908682D02*
X0785243D01*
X0785768D01*
Y0906058D01*
X0785243Y0905534D01*
X0784718D01*
X0784193Y0906058D01*
X0787342D02*
X0787867Y0905534D01*
X0788916D01*
X0789441Y0906058D01*
Y0908157D01*
X0788916Y0908682D01*
X0787867D01*
X0787342Y0908157D01*
Y0907633D01*
X0787867Y0907108D01*
X0789441D01*
X0496992Y0958582D02*
X0495943D01*
X0496468D01*
Y0955958D01*
X0495943Y0955433D01*
X0495418D01*
X0494893Y0955958D01*
X0498042Y0958582D02*
X0500141D01*
Y0958057D01*
X0498042Y0955958D01*
Y0955433D01*
X0870428Y0943175D02*
X0869772Y0943831D01*
X0868460D01*
X0867805Y0943175D01*
Y0940551D01*
X0868460Y0939895D01*
X0869772D01*
X0870428Y0940551D01*
Y0941863D01*
X0869116D01*
X0871740Y0939895D02*
Y0943831D01*
X0874364Y0939895D01*
Y0943831D01*
X0875676D02*
Y0939895D01*
X0877644D01*
X0878300Y0940551D01*
Y0943175D01*
X0877644Y0943831D01*
X0875676D01*
X0863428Y0933375D02*
X0862772Y0934031D01*
X0861460D01*
X0860805Y0933375D01*
Y0930751D01*
X0861460Y0930095D01*
X0862772D01*
X0863428Y0930751D01*
Y0932063D01*
X0862117D01*
X0864740Y0930095D02*
Y0934031D01*
X0866708D01*
X0867364Y0933375D01*
Y0932063D01*
X0866708Y0931407D01*
X0864740D01*
X0868676Y0934031D02*
X0869988D01*
X0869332D01*
Y0930095D01*
X0868676D01*
X0869988D01*
X0873924Y0934031D02*
X0872612D01*
X0871956Y0933375D01*
Y0930751D01*
X0872612Y0930095D01*
X0873924D01*
X0874580Y0930751D01*
Y0933375D01*
X0873924Y0934031D01*
X0878515Y0930095D02*
X0875892D01*
X0878515Y0932719D01*
Y0933375D01*
X0877859Y0934031D01*
X0876548D01*
X0875892Y0933375D01*
X0863528Y0922875D02*
X0862872Y0923531D01*
X0861561D01*
X0860905Y0922875D01*
Y0920251D01*
X0861561Y0919595D01*
X0862872D01*
X0863528Y0920251D01*
Y0921563D01*
X0862216D01*
X0864840Y0919595D02*
Y0923531D01*
X0866808D01*
X0867464Y0922875D01*
Y0921563D01*
X0866808Y0920907D01*
X0864840D01*
X0868776Y0923531D02*
X0870088D01*
X0869432D01*
Y0919595D01*
X0868776D01*
X0870088D01*
X0874024Y0923531D02*
X0872712D01*
X0872056Y0922875D01*
Y0920251D01*
X0872712Y0919595D01*
X0874024D01*
X0874680Y0920251D01*
Y0922875D01*
X0874024Y0923531D01*
X0875992Y0922875D02*
X0876647Y0923531D01*
X0877959D01*
X0878615Y0922875D01*
Y0922219D01*
X0877959Y0921563D01*
X0877304D01*
X0877959D01*
X0878615Y0920907D01*
Y0920251D01*
X0877959Y0919595D01*
X0876647D01*
X0875992Y0920251D01*
X0867905Y0913431D02*
X0870528D01*
X0869217D01*
Y0909495D01*
X0871840Y0913431D02*
X0874464Y0909495D01*
Y0913431D02*
X0871840Y0909495D01*
X0875776Y0913431D02*
Y0909495D01*
X0877744D01*
X0878400Y0910151D01*
Y0912775D01*
X0877744Y0913431D01*
X0875776D01*
X0867905Y0900995D02*
Y0904931D01*
X0869872D01*
X0870528Y0904275D01*
Y0902963D01*
X0869872Y0902307D01*
X0867905D01*
X0869217D02*
X0870528Y0900995D01*
X0871840Y0904931D02*
X0874464Y0900995D01*
Y0904931D02*
X0871840Y0900995D01*
X0875776Y0904931D02*
Y0900995D01*
X0877744D01*
X0878400Y0901651D01*
Y0904275D01*
X0877744Y0904931D01*
X0875776D01*
X0861228Y0893375D02*
X0860572Y0894031D01*
X0859260D01*
X0858605Y0893375D01*
Y0890751D01*
X0859260Y0890095D01*
X0860572D01*
X0861228Y0890751D01*
Y0892063D01*
X0859916D01*
X0862540Y0890095D02*
Y0894031D01*
X0864508D01*
X0865164Y0893375D01*
Y0892063D01*
X0864508Y0891407D01*
X0862540D01*
X0866476Y0894031D02*
X0867788D01*
X0867132D01*
Y0890095D01*
X0866476D01*
X0867788D01*
X0871724Y0894031D02*
X0870412D01*
X0869756Y0893375D01*
Y0890751D01*
X0870412Y0890095D01*
X0871724D01*
X0872380Y0890751D01*
Y0893375D01*
X0871724Y0894031D01*
X0873692Y0890095D02*
X0875004D01*
X0874347D01*
Y0894031D01*
X0873692Y0893375D01*
X0879595Y0894031D02*
X0876971D01*
Y0892063D01*
X0878283Y0892719D01*
X0878939D01*
X0879595Y0892063D01*
Y0890751D01*
X0878939Y0890095D01*
X0877627D01*
X0876971Y0890751D01*
X0861028Y0883375D02*
X0860372Y0884031D01*
X0859060D01*
X0858405Y0883375D01*
Y0880751D01*
X0859060Y0880095D01*
X0860372D01*
X0861028Y0880751D01*
Y0882063D01*
X0859717D01*
X0862340Y0880095D02*
Y0884031D01*
X0864308D01*
X0864964Y0883375D01*
Y0882063D01*
X0864308Y0881407D01*
X0862340D01*
X0866276Y0884031D02*
X0867588D01*
X0866932D01*
Y0880095D01*
X0866276D01*
X0867588D01*
X0871524Y0884031D02*
X0870212D01*
X0869556Y0883375D01*
Y0880751D01*
X0870212Y0880095D01*
X0871524D01*
X0872180Y0880751D01*
Y0883375D01*
X0871524Y0884031D01*
X0876115Y0880095D02*
X0873492D01*
X0876115Y0882719D01*
Y0883375D01*
X0875459Y0884031D01*
X0874148D01*
X0873492Y0883375D01*
X0877427D02*
X0878083Y0884031D01*
X0879395D01*
X0880051Y0883375D01*
Y0882719D01*
X0879395Y0882063D01*
X0878739D01*
X0879395D01*
X0880051Y0881407D01*
Y0880751D01*
X0879395Y0880095D01*
X0878083D01*
X0877427Y0880751D01*
X0861028Y0873575D02*
X0860372Y0874231D01*
X0859060D01*
X0858405Y0873575D01*
Y0870951D01*
X0859060Y0870295D01*
X0860372D01*
X0861028Y0870951D01*
Y0872263D01*
X0859717D01*
X0862340Y0870295D02*
Y0874231D01*
X0864308D01*
X0864964Y0873575D01*
Y0872263D01*
X0864308Y0871607D01*
X0862340D01*
X0866276Y0874231D02*
X0867588D01*
X0866932D01*
Y0870295D01*
X0866276D01*
X0867588D01*
X0871524Y0874231D02*
X0870212D01*
X0869556Y0873575D01*
Y0870951D01*
X0870212Y0870295D01*
X0871524D01*
X0872180Y0870951D01*
Y0873575D01*
X0871524Y0874231D01*
X0876115Y0870295D02*
X0873492D01*
X0876115Y0872919D01*
Y0873575D01*
X0875459Y0874231D01*
X0874148D01*
X0873492Y0873575D01*
X0880051Y0870295D02*
X0877427D01*
X0880051Y0872919D01*
Y0873575D01*
X0879395Y0874231D01*
X0878083D01*
X0877427Y0873575D01*
X0862428Y0863675D02*
X0861772Y0864331D01*
X0860460D01*
X0859805Y0863675D01*
Y0861051D01*
X0860460Y0860395D01*
X0861772D01*
X0862428Y0861051D01*
Y0862363D01*
X0861117D01*
X0863740Y0860395D02*
Y0864331D01*
X0865708D01*
X0866364Y0863675D01*
Y0862363D01*
X0865708Y0861707D01*
X0863740D01*
X0867676Y0864331D02*
X0868988D01*
X0868332D01*
Y0860395D01*
X0867676D01*
X0868988D01*
X0872924Y0864331D02*
X0871612D01*
X0870956Y0863675D01*
Y0861051D01*
X0871612Y0860395D01*
X0872924D01*
X0873580Y0861051D01*
Y0863675D01*
X0872924Y0864331D01*
X0877515Y0860395D02*
X0874892D01*
X0877515Y0863019D01*
Y0863675D01*
X0876859Y0864331D01*
X0875548D01*
X0874892Y0863675D01*
X0878827Y0860395D02*
X0880139D01*
X0879483D01*
Y0864331D01*
X0878827Y0863675D01*
X0861128Y0853175D02*
X0860472Y0853831D01*
X0859161D01*
X0858505Y0853175D01*
Y0850551D01*
X0859161Y0849895D01*
X0860472D01*
X0861128Y0850551D01*
Y0851863D01*
X0859816D01*
X0862440Y0849895D02*
Y0853831D01*
X0864408D01*
X0865064Y0853175D01*
Y0851863D01*
X0864408Y0851207D01*
X0862440D01*
X0866376Y0853831D02*
X0867688D01*
X0867032D01*
Y0849895D01*
X0866376D01*
X0867688D01*
X0871624Y0853831D02*
X0870312D01*
X0869656Y0853175D01*
Y0850551D01*
X0870312Y0849895D01*
X0871624D01*
X0872280Y0850551D01*
Y0853175D01*
X0871624Y0853831D01*
X0876215Y0849895D02*
X0873592D01*
X0876215Y0852519D01*
Y0853175D01*
X0875559Y0853831D01*
X0874247D01*
X0873592Y0853175D01*
X0877527D02*
X0878183Y0853831D01*
X0879495D01*
X0880151Y0853175D01*
Y0850551D01*
X0879495Y0849895D01*
X0878183D01*
X0877527Y0850551D01*
Y0853175D01*
X0861628Y0843475D02*
X0860972Y0844131D01*
X0859661D01*
X0859005Y0843475D01*
Y0840851D01*
X0859661Y0840195D01*
X0860972D01*
X0861628Y0840851D01*
Y0842163D01*
X0860316D01*
X0862940Y0840195D02*
Y0844131D01*
X0864908D01*
X0865564Y0843475D01*
Y0842163D01*
X0864908Y0841507D01*
X0862940D01*
X0866876Y0844131D02*
X0868188D01*
X0867532D01*
Y0840195D01*
X0866876D01*
X0868188D01*
X0872124Y0844131D02*
X0870812D01*
X0870156Y0843475D01*
Y0840851D01*
X0870812Y0840195D01*
X0872124D01*
X0872780Y0840851D01*
Y0843475D01*
X0872124Y0844131D01*
X0874092Y0840195D02*
X0875403D01*
X0874747D01*
Y0844131D01*
X0874092Y0843475D01*
X0877371Y0840851D02*
X0878027Y0840195D01*
X0879339D01*
X0879995Y0840851D01*
Y0843475D01*
X0879339Y0844131D01*
X0878027D01*
X0877371Y0843475D01*
Y0842819D01*
X0878027Y0842163D01*
X0879995D01*
X0861628Y0834575D02*
X0860972Y0835231D01*
X0859661D01*
X0859005Y0834575D01*
Y0831951D01*
X0859661Y0831295D01*
X0860972D01*
X0861628Y0831951D01*
Y0833263D01*
X0860316D01*
X0862940Y0831295D02*
Y0835231D01*
X0864908D01*
X0865564Y0834575D01*
Y0833263D01*
X0864908Y0832607D01*
X0862940D01*
X0866876Y0835231D02*
X0868188D01*
X0867532D01*
Y0831295D01*
X0866876D01*
X0868188D01*
X0872124Y0835231D02*
X0870812D01*
X0870156Y0834575D01*
Y0831951D01*
X0870812Y0831295D01*
X0872124D01*
X0872780Y0831951D01*
Y0834575D01*
X0872124Y0835231D01*
X0874092Y0831295D02*
X0875403D01*
X0874747D01*
Y0835231D01*
X0874092Y0834575D01*
X0877371D02*
X0878027Y0835231D01*
X0879339D01*
X0879995Y0834575D01*
Y0833919D01*
X0879339Y0833263D01*
X0879995Y0832607D01*
Y0831951D01*
X0879339Y0831295D01*
X0878027D01*
X0877371Y0831951D01*
Y0832607D01*
X0878027Y0833263D01*
X0877371Y0833919D01*
Y0834575D01*
X0878027Y0833263D02*
X0879339D01*
X0871305Y0825831D02*
X0872616D01*
X0871961D01*
Y0821895D01*
X0871305D01*
X0872616D01*
X0876552Y0825831D02*
X0875240D01*
X0874584Y0825175D01*
Y0822551D01*
X0875240Y0821895D01*
X0876552D01*
X0877208Y0822551D01*
Y0825175D01*
X0876552Y0825831D01*
X0878520Y0822551D02*
X0879176Y0821895D01*
X0880488D01*
X0881144Y0822551D01*
Y0825175D01*
X0880488Y0825831D01*
X0879176D01*
X0878520Y0825175D01*
Y0824519D01*
X0879176Y0823863D01*
X0881144D01*
X0405328Y0943375D02*
X0404672Y0944031D01*
X0403361D01*
X0402705Y0943375D01*
Y0940751D01*
X0403361Y0940095D01*
X0404672D01*
X0405328Y0940751D01*
Y0942063D01*
X0404016D01*
X0406640Y0940095D02*
Y0944031D01*
X0409264Y0940095D01*
Y0944031D01*
X0410576D02*
Y0940095D01*
X0412544D01*
X0413200Y0940751D01*
Y0943375D01*
X0412544Y0944031D01*
X0410576D01*
X0405328Y0933731D02*
X0404672Y0934387D01*
X0403361D01*
X0402705Y0933731D01*
Y0931107D01*
X0403361Y0930451D01*
X0404672D01*
X0405328Y0931107D01*
X0406640Y0934387D02*
Y0930451D01*
Y0932419D01*
X0409264D01*
Y0934387D01*
Y0930451D01*
X0410576Y0934387D02*
X0411888D01*
X0411232D01*
Y0930451D01*
X0410576D01*
X0411888D01*
X0413856D02*
Y0934387D01*
X0415824D01*
X0416480Y0933731D01*
Y0932419D01*
X0415824Y0931763D01*
X0413856D01*
X0417792Y0929795D02*
X0420415D01*
X0421727Y0930451D02*
Y0934387D01*
X0423695D01*
X0424351Y0933731D01*
Y0932419D01*
X0423695Y0931763D01*
X0421727D01*
X0425663Y0934387D02*
Y0931107D01*
X0426319Y0930451D01*
X0427631D01*
X0428287Y0931107D01*
Y0934387D01*
X0405328Y0924175D02*
X0404672Y0924831D01*
X0403361D01*
X0402705Y0924175D01*
Y0921551D01*
X0403361Y0920895D01*
X0404672D01*
X0405328Y0921551D01*
Y0922863D01*
X0404016D01*
X0406640Y0920895D02*
Y0924831D01*
X0408608D01*
X0409264Y0924175D01*
Y0922863D01*
X0408608Y0922207D01*
X0406640D01*
X0410576Y0924831D02*
X0411888D01*
X0411232D01*
Y0920895D01*
X0410576D01*
X0411888D01*
X0415824Y0924831D02*
X0414512D01*
X0413856Y0924175D01*
Y0921551D01*
X0414512Y0920895D01*
X0415824D01*
X0416480Y0921551D01*
Y0924175D01*
X0415824Y0924831D01*
X0419759Y0920895D02*
Y0924831D01*
X0417792Y0922863D01*
X0420415D01*
X0405328Y0913675D02*
X0404672Y0914331D01*
X0403361D01*
X0402705Y0913675D01*
Y0911051D01*
X0403361Y0910395D01*
X0404672D01*
X0405328Y0911051D01*
Y0912363D01*
X0404016D01*
X0406640Y0910395D02*
Y0914331D01*
X0408608D01*
X0409264Y0913675D01*
Y0912363D01*
X0408608Y0911707D01*
X0406640D01*
X0410576Y0914331D02*
X0411888D01*
X0411232D01*
Y0910395D01*
X0410576D01*
X0411888D01*
X0415824Y0914331D02*
X0414512D01*
X0413856Y0913675D01*
Y0911051D01*
X0414512Y0910395D01*
X0415824D01*
X0416480Y0911051D01*
Y0913675D01*
X0415824Y0914331D01*
X0420415D02*
X0417792D01*
Y0912363D01*
X0419103Y0913019D01*
X0419759D01*
X0420415Y0912363D01*
Y0911051D01*
X0419759Y0910395D01*
X0418447D01*
X0417792Y0911051D01*
X0405328Y0903375D02*
X0404672Y0904031D01*
X0403361D01*
X0402705Y0903375D01*
Y0900751D01*
X0403361Y0900095D01*
X0404672D01*
X0405328Y0900751D01*
Y0902063D01*
X0404016D01*
X0406640Y0900095D02*
Y0904031D01*
X0408608D01*
X0409264Y0903375D01*
Y0902063D01*
X0408608Y0901407D01*
X0406640D01*
X0410576Y0904031D02*
X0411888D01*
X0411232D01*
Y0900095D01*
X0410576D01*
X0411888D01*
X0415824Y0904031D02*
X0414512D01*
X0413856Y0903375D01*
Y0900751D01*
X0414512Y0900095D01*
X0415824D01*
X0416480Y0900751D01*
Y0903375D01*
X0415824Y0904031D01*
X0420415D02*
X0419103Y0903375D01*
X0417792Y0902063D01*
Y0900751D01*
X0418447Y0900095D01*
X0419759D01*
X0420415Y0900751D01*
Y0901407D01*
X0419759Y0902063D01*
X0417792D01*
X0405328Y0893575D02*
X0404672Y0894231D01*
X0403361D01*
X0402705Y0893575D01*
Y0890951D01*
X0403361Y0890295D01*
X0404672D01*
X0405328Y0890951D01*
Y0892263D01*
X0404016D01*
X0406640Y0890295D02*
Y0894231D01*
X0408608D01*
X0409264Y0893575D01*
Y0892263D01*
X0408608Y0891607D01*
X0406640D01*
X0410576Y0894231D02*
X0411888D01*
X0411232D01*
Y0890295D01*
X0410576D01*
X0411888D01*
X0415824Y0894231D02*
X0414512D01*
X0413856Y0893575D01*
Y0890951D01*
X0414512Y0890295D01*
X0415824D01*
X0416480Y0890951D01*
Y0893575D01*
X0415824Y0894231D01*
X0417792D02*
X0420415D01*
Y0893575D01*
X0417792Y0890951D01*
Y0890295D01*
X0405328Y0883575D02*
X0404672Y0884231D01*
X0403361D01*
X0402705Y0883575D01*
Y0880951D01*
X0403361Y0880295D01*
X0404672D01*
X0405328Y0880951D01*
Y0882263D01*
X0404016D01*
X0406640Y0880295D02*
Y0884231D01*
X0408608D01*
X0409264Y0883575D01*
Y0882263D01*
X0408608Y0881607D01*
X0406640D01*
X0410576Y0884231D02*
X0411888D01*
X0411232D01*
Y0880295D01*
X0410576D01*
X0411888D01*
X0415824Y0884231D02*
X0414512D01*
X0413856Y0883575D01*
Y0880951D01*
X0414512Y0880295D01*
X0415824D01*
X0416480Y0880951D01*
Y0883575D01*
X0415824Y0884231D01*
X0417792Y0883575D02*
X0418447Y0884231D01*
X0419759D01*
X0420415Y0883575D01*
Y0880951D01*
X0419759Y0880295D01*
X0418447D01*
X0417792Y0880951D01*
Y0883575D01*
X0405328Y0873675D02*
X0404672Y0874331D01*
X0403361D01*
X0402705Y0873675D01*
Y0871051D01*
X0403361Y0870395D01*
X0404672D01*
X0405328Y0871051D01*
Y0872363D01*
X0404016D01*
X0406640Y0870395D02*
Y0874331D01*
X0408608D01*
X0409264Y0873675D01*
Y0872363D01*
X0408608Y0871707D01*
X0406640D01*
X0410576Y0874331D02*
X0411888D01*
X0411232D01*
Y0870395D01*
X0410576D01*
X0411888D01*
X0415824Y0874331D02*
X0414512D01*
X0413856Y0873675D01*
Y0871051D01*
X0414512Y0870395D01*
X0415824D01*
X0416480Y0871051D01*
Y0873675D01*
X0415824Y0874331D01*
X0417792Y0870395D02*
X0419103D01*
X0418447D01*
Y0874331D01*
X0417792Y0873675D01*
X0405328Y0863875D02*
X0404672Y0864531D01*
X0403361D01*
X0402705Y0863875D01*
Y0861251D01*
X0403361Y0860595D01*
X0404672D01*
X0405328Y0861251D01*
Y0862563D01*
X0404016D01*
X0406640Y0860595D02*
Y0864531D01*
X0408608D01*
X0409264Y0863875D01*
Y0862563D01*
X0408608Y0861907D01*
X0406640D01*
X0410576Y0864531D02*
X0411888D01*
X0411232D01*
Y0860595D01*
X0410576D01*
X0411888D01*
X0415824Y0864531D02*
X0414512D01*
X0413856Y0863875D01*
Y0861251D01*
X0414512Y0860595D01*
X0415824D01*
X0416480Y0861251D01*
Y0863875D01*
X0415824Y0864531D01*
X0417792Y0863875D02*
X0418447Y0864531D01*
X0419759D01*
X0420415Y0863875D01*
Y0861251D01*
X0419759Y0860595D01*
X0418447D01*
X0417792Y0861251D01*
Y0863875D01*
X0421727D02*
X0422383Y0864531D01*
X0423695D01*
X0424351Y0863875D01*
Y0863219D01*
X0423695Y0862563D01*
X0424351Y0861907D01*
Y0861251D01*
X0423695Y0860595D01*
X0422383D01*
X0421727Y0861251D01*
Y0861907D01*
X0422383Y0862563D01*
X0421727Y0863219D01*
Y0863875D01*
X0422383Y0862563D02*
X0423695D01*
X0405328Y0854075D02*
X0404672Y0854731D01*
X0403361D01*
X0402705Y0854075D01*
Y0851451D01*
X0403361Y0850795D01*
X0404672D01*
X0405328Y0851451D01*
Y0852763D01*
X0404016D01*
X0406640Y0850795D02*
Y0854731D01*
X0408608D01*
X0409264Y0854075D01*
Y0852763D01*
X0408608Y0852107D01*
X0406640D01*
X0410576Y0854731D02*
X0411888D01*
X0411232D01*
Y0850795D01*
X0410576D01*
X0411888D01*
X0415824Y0854731D02*
X0414512D01*
X0413856Y0854075D01*
Y0851451D01*
X0414512Y0850795D01*
X0415824D01*
X0416480Y0851451D01*
Y0854075D01*
X0415824Y0854731D01*
X0417792Y0850795D02*
X0419103D01*
X0418447D01*
Y0854731D01*
X0417792Y0854075D01*
X0421071D02*
X0421727Y0854731D01*
X0423039D01*
X0423695Y0854075D01*
Y0851451D01*
X0423039Y0850795D01*
X0421727D01*
X0421071Y0851451D01*
Y0854075D01*
X0405328Y0843575D02*
X0404672Y0844231D01*
X0403361D01*
X0402705Y0843575D01*
Y0840951D01*
X0403361Y0840295D01*
X0404672D01*
X0405328Y0840951D01*
Y0842263D01*
X0404016D01*
X0406640Y0840295D02*
Y0844231D01*
X0408608D01*
X0409264Y0843575D01*
Y0842263D01*
X0408608Y0841607D01*
X0406640D01*
X0410576Y0844231D02*
X0411888D01*
X0411232D01*
Y0840295D01*
X0410576D01*
X0411888D01*
X0415824Y0844231D02*
X0414512D01*
X0413856Y0843575D01*
Y0840951D01*
X0414512Y0840295D01*
X0415824D01*
X0416480Y0840951D01*
Y0843575D01*
X0415824Y0844231D01*
X0417792Y0840295D02*
X0419103D01*
X0418447D01*
Y0844231D01*
X0417792Y0843575D01*
X0423695Y0840295D02*
X0421071D01*
X0423695Y0842919D01*
Y0843575D01*
X0423039Y0844231D01*
X0421727D01*
X0421071Y0843575D01*
X0405328Y0833675D02*
X0404672Y0834331D01*
X0403361D01*
X0402705Y0833675D01*
Y0831051D01*
X0403361Y0830395D01*
X0404672D01*
X0405328Y0831051D01*
Y0832363D01*
X0404016D01*
X0406640Y0830395D02*
Y0834331D01*
X0408608D01*
X0409264Y0833675D01*
Y0832363D01*
X0408608Y0831707D01*
X0406640D01*
X0410576Y0834331D02*
X0411888D01*
X0411232D01*
Y0830395D01*
X0410576D01*
X0411888D01*
X0415824Y0834331D02*
X0414512D01*
X0413856Y0833675D01*
Y0831051D01*
X0414512Y0830395D01*
X0415824D01*
X0416480Y0831051D01*
Y0833675D01*
X0415824Y0834331D01*
X0417792Y0830395D02*
X0419103D01*
X0418447D01*
Y0834331D01*
X0417792Y0833675D01*
X0421071Y0830395D02*
X0422383D01*
X0421727D01*
Y0834331D01*
X0421071Y0833675D01*
X0647928Y0774075D02*
X0647272Y0774731D01*
X0645961D01*
X0645305Y0774075D01*
Y0773419D01*
X0645961Y0772763D01*
X0647272D01*
X0647928Y0772107D01*
Y0771451D01*
X0647272Y0770795D01*
X0645961D01*
X0645305Y0771451D01*
X0651208Y0774731D02*
X0649896D01*
X0649240Y0774075D01*
Y0771451D01*
X0649896Y0770795D01*
X0651208D01*
X0651864Y0771451D01*
Y0774075D01*
X0651208Y0774731D01*
X0653176D02*
X0654488D01*
X0653832D01*
Y0770795D01*
X0653176D01*
X0654488D01*
X0656456Y0774731D02*
Y0770795D01*
X0659080D01*
X0788140Y0933739D02*
Y0930590D01*
X0789714Y0929016D01*
X0791289Y0930590D01*
Y0933739D01*
X0792863Y0929016D02*
X0794437D01*
X0793650D01*
Y0933739D01*
X0792863Y0932951D01*
X0796799Y0929016D02*
Y0929803D01*
X0797586D01*
Y0929016D01*
X0796799D01*
X0800734Y0932951D02*
X0801521Y0933739D01*
X0803096D01*
X0803883Y0932951D01*
Y0929803D01*
X0803096Y0929016D01*
X0801521D01*
X0800734Y0929803D01*
Y0932951D01*
X0810180Y0929016D02*
Y0933739D01*
X0812542D01*
X0813329Y0932951D01*
Y0931377D01*
X0812542Y0930590D01*
X0810180D01*
X0811754D02*
X0813329Y0929016D01*
X0817264D02*
X0815690D01*
X0814903Y0929803D01*
Y0931377D01*
X0815690Y0932164D01*
X0817264D01*
X0818052Y0931377D01*
Y0930590D01*
X0814903D01*
X0819626Y0932164D02*
X0821200Y0929016D01*
X0822775Y0932164D01*
X0829072Y0929016D02*
Y0932164D01*
X0830646Y0933739D01*
X0832220Y0932164D01*
Y0929016D01*
Y0931377D01*
X0829072D01*
X0778840Y0943338D02*
X0780414D01*
X0779627D01*
Y0938616D01*
X0778840D01*
X0780414D01*
X0785137Y0943338D02*
X0783563D01*
X0782776Y0942551D01*
Y0939403D01*
X0783563Y0938616D01*
X0785137D01*
X0785924Y0939403D01*
Y0942551D01*
X0785137Y0943338D01*
X0787499D02*
X0790647D01*
X0789073D01*
Y0938616D01*
X0800093Y0942551D02*
X0799306Y0943338D01*
X0797731D01*
X0796944Y0942551D01*
Y0939403D01*
X0797731Y0938616D01*
X0799306D01*
X0800093Y0939403D01*
Y0940977D01*
X0798519D01*
X0801667Y0941764D02*
Y0938616D01*
Y0940190D01*
X0802454Y0940977D01*
X0803242Y0941764D01*
X0804029D01*
X0808752Y0938616D02*
X0807177D01*
X0806390Y0939403D01*
Y0940977D01*
X0807177Y0941764D01*
X0808752D01*
X0809539Y0940977D01*
Y0940190D01*
X0806390D01*
X0813474Y0938616D02*
X0811900D01*
X0811113Y0939403D01*
Y0940977D01*
X0811900Y0941764D01*
X0813474D01*
X0814262Y0940977D01*
Y0940190D01*
X0811113D01*
X0815836Y0938616D02*
Y0941764D01*
X0818197D01*
X0818985Y0940977D01*
Y0938616D01*
X0820559Y0943338D02*
Y0938616D01*
Y0940977D01*
X0823707D01*
Y0943338D01*
Y0938616D01*
X0826069D02*
X0827643D01*
X0828430Y0939403D01*
Y0940977D01*
X0827643Y0941764D01*
X0826069D01*
X0825282Y0940977D01*
Y0939403D01*
X0826069Y0938616D01*
X0830005Y0941764D02*
Y0939403D01*
X0830792Y0938616D01*
X0833153D01*
Y0941764D01*
X0834727Y0938616D02*
X0837089D01*
X0837876Y0939403D01*
X0837089Y0940190D01*
X0835515D01*
X0834727Y0940977D01*
X0835515Y0941764D01*
X0837876D01*
X0841812Y0938616D02*
X0840238D01*
X0839450Y0939403D01*
Y0940977D01*
X0840238Y0941764D01*
X0841812D01*
X0842599Y0940977D01*
Y0940190D01*
X0839450D01*
X0464005Y0973795D02*
X0465316D01*
X0464661D01*
Y0977731D01*
X0464005Y0977075D01*
X0469908Y0973795D02*
X0467284D01*
X0469908Y0976419D01*
Y0977075D01*
X0469252Y0977731D01*
X0467940D01*
X0467284Y0977075D01*
X0471220Y0977731D02*
Y0975107D01*
X0472532Y0973795D01*
X0473844Y0975107D01*
Y0977731D01*
X0404428Y0969875D02*
X0403772Y0970531D01*
X0402460D01*
X0401805Y0969875D01*
Y0967251D01*
X0402460Y0966595D01*
X0403772D01*
X0404428Y0967251D01*
Y0968563D01*
X0403117D01*
X0405740Y0966595D02*
Y0970531D01*
X0408364Y0966595D01*
Y0970531D01*
X0409676D02*
Y0966595D01*
X0411644D01*
X0412300Y0967251D01*
Y0969875D01*
X0411644Y0970531D01*
X0409676D01*
X0873128Y0809675D02*
X0872472Y0810331D01*
X0871161D01*
X0870505Y0809675D01*
Y0807051D01*
X0871161Y0806395D01*
X0872472D01*
X0873128Y0807051D01*
Y0808363D01*
X0871817D01*
X0874440Y0806395D02*
Y0810331D01*
X0877064Y0806395D01*
Y0810331D01*
X0878376D02*
Y0806395D01*
X0880344D01*
X0881000Y0807051D01*
Y0809675D01*
X0880344Y0810331D01*
X0878376D01*
X0858728Y0953731D02*
X0856105D01*
Y0951763D01*
X0857417Y0952419D01*
X0858072D01*
X0858728Y0951763D01*
Y0950451D01*
X0858072Y0949795D01*
X0856761D01*
X0856105Y0950451D01*
X0860040Y0953731D02*
Y0951107D01*
X0861352Y0949795D01*
X0862664Y0951107D01*
Y0953731D01*
X0464930Y1027195D02*
Y1028507D01*
Y1027851D01*
X0460994D01*
X0461650Y1027195D01*
X0464930Y1033099D02*
Y1030475D01*
X0462306Y1033099D01*
X0461650D01*
X0460994Y1032443D01*
Y1031131D01*
X0461650Y1030475D01*
X0460994Y1034411D02*
X0463618D01*
X0464930Y1035723D01*
X0463618Y1037035D01*
X0460994D01*
X0843728Y1002575D02*
X0843072Y1003231D01*
X0841761D01*
X0841105Y1002575D01*
Y0999951D01*
X0841761Y0999295D01*
X0843072D01*
X0843728Y0999951D01*
Y1001263D01*
X0842416D01*
X0845040Y0999295D02*
Y1003231D01*
X0847664Y0999295D01*
Y1003231D01*
X0848976D02*
Y0999295D01*
X0850944D01*
X0851600Y0999951D01*
Y1002575D01*
X0850944Y1003231D01*
X0848976D01*
X0825228Y1003331D02*
X0822605D01*
Y1001363D01*
X0823917Y1002019D01*
X0824572D01*
X0825228Y1001363D01*
Y1000051D01*
X0824572Y0999395D01*
X0823260D01*
X0822605Y1000051D01*
X0826540Y1003331D02*
Y1000707D01*
X0827852Y0999395D01*
X0829164Y1000707D01*
Y1003331D01*
X0796428Y1002475D02*
X0795772Y1003131D01*
X0794460D01*
X0793805Y1002475D01*
Y0999851D01*
X0794460Y0999195D01*
X0795772D01*
X0796428Y0999851D01*
Y1001163D01*
X0795117D01*
X0797740Y0999195D02*
Y1003131D01*
X0800364Y0999195D01*
Y1003131D01*
X0801676D02*
Y0999195D01*
X0803644D01*
X0804300Y0999851D01*
Y1002475D01*
X0803644Y1003131D01*
X0801676D01*
X0774205Y0999295D02*
X0775517D01*
X0774860D01*
Y1003231D01*
X0774205Y1002575D01*
X0780108Y0999295D02*
X0777484D01*
X0780108Y1001919D01*
Y1002575D01*
X0779452Y1003231D01*
X0778140D01*
X0777484Y1002575D01*
X0781420Y1003231D02*
Y1000607D01*
X0782732Y0999295D01*
X0784044Y1000607D01*
Y1003231D01*
X0573907Y1023195D02*
Y1020571D01*
X0577843D01*
Y1023195D01*
X0575875Y1020571D02*
Y1021883D01*
X0577843Y1024506D02*
X0573907D01*
X0577843Y1027130D01*
X0573907D01*
X0736994Y1017095D02*
X0740930D01*
Y1019063D01*
X0740274Y1019719D01*
X0739618D01*
X0738962Y1019063D01*
Y1017095D01*
Y1019063D01*
X0738306Y1019719D01*
X0737650D01*
X0736994Y1019063D01*
Y1017095D01*
Y1022999D02*
Y1021687D01*
X0737650Y1021031D01*
X0740274D01*
X0740930Y1021687D01*
Y1022999D01*
X0740274Y1023655D01*
X0737650D01*
X0736994Y1022999D01*
Y1026935D02*
Y1025623D01*
X0737650Y1024967D01*
X0740274D01*
X0740930Y1025623D01*
Y1026935D01*
X0740274Y1027590D01*
X0737650D01*
X0736994Y1026935D01*
Y1028902D02*
Y1031526D01*
Y1030214D01*
X0740930D01*
X0405328Y0822975D02*
X0404672Y0823631D01*
X0403361D01*
X0402705Y0822975D01*
Y0820351D01*
X0403361Y0819695D01*
X0404672D01*
X0405328Y0820351D01*
Y0821663D01*
X0404016D01*
X0406640Y0819695D02*
Y0823631D01*
X0408608D01*
X0409264Y0822975D01*
Y0821663D01*
X0408608Y0821007D01*
X0406640D01*
X0410576Y0823631D02*
X0411888D01*
X0411232D01*
Y0819695D01*
X0410576D01*
X0411888D01*
X0415824Y0823631D02*
X0414512D01*
X0413856Y0822975D01*
Y0820351D01*
X0414512Y0819695D01*
X0415824D01*
X0416480Y0820351D01*
Y0822975D01*
X0415824Y0823631D01*
X0417792Y0819695D02*
X0419103D01*
X0418447D01*
Y0823631D01*
X0417792Y0822975D01*
X0421071D02*
X0421727Y0823631D01*
X0423039D01*
X0423695Y0822975D01*
Y0822319D01*
X0423039Y0821663D01*
X0422383D01*
X0423039D01*
X0423695Y0821007D01*
Y0820351D01*
X0423039Y0819695D01*
X0421727D01*
X0421071Y0820351D01*
X0417505Y0950175D02*
X0418160Y0950831D01*
X0419472D01*
X0420128Y0950175D01*
Y0949519D01*
X0419472Y0948863D01*
X0418817D01*
X0419472D01*
X0420128Y0948207D01*
Y0947551D01*
X0419472Y0946895D01*
X0418160D01*
X0417505Y0947551D01*
X0421440Y0950831D02*
Y0948207D01*
X0422752Y0946895D01*
X0424064Y0948207D01*
Y0950831D01*
X0425376Y0950175D02*
X0426032Y0950831D01*
X0427344D01*
X0428000Y0950175D01*
Y0949519D01*
X0427344Y0948863D01*
X0426688D01*
X0427344D01*
X0428000Y0948207D01*
Y0947551D01*
X0427344Y0946895D01*
X0426032D01*
X0425376Y0947551D01*
X0828605Y0780231D02*
Y0777607D01*
X0829916Y0776295D01*
X0831228Y0777607D01*
Y0780231D01*
X0832540Y0778263D02*
X0835164D01*
X0833852Y0779575D02*
Y0776951D01*
X0788805Y0780331D02*
Y0777707D01*
X0790117Y0776395D01*
X0791428Y0777707D01*
Y0780331D01*
X0792740Y0778363D02*
X0795364D01*
X0794052Y0779675D02*
Y0777051D01*
X0749705Y0780231D02*
Y0777607D01*
X0751017Y0776295D01*
X0752328Y0777607D01*
Y0780231D01*
X0753640Y0778263D02*
X0756264D01*
X0754952Y0779575D02*
Y0776951D01*
X0709405Y0780531D02*
Y0777907D01*
X0710716Y0776595D01*
X0712028Y0777907D01*
Y0780531D01*
X0713340Y0778563D02*
X0715964D01*
X0714652Y0779875D02*
Y0777251D01*
X0839005Y0780331D02*
Y0776395D01*
X0841628D01*
X0842940D02*
Y0779019D01*
X0844252Y0780331D01*
X0845564Y0779019D01*
Y0776395D01*
Y0778363D01*
X0842940D01*
X0846876Y0776395D02*
Y0780331D01*
X0848188Y0779019D01*
X0849500Y0780331D01*
Y0776395D01*
X0850812D02*
Y0780331D01*
X0852780D01*
X0853436Y0779675D01*
Y0778363D01*
X0852780Y0777707D01*
X0850812D01*
X0764228Y0780431D02*
X0761605D01*
Y0778463D01*
X0762917D01*
X0761605D01*
Y0776495D01*
X0765540D02*
Y0779119D01*
X0766852Y0780431D01*
X0768164Y0779119D01*
Y0776495D01*
Y0778463D01*
X0765540D01*
X0769476Y0776495D02*
Y0780431D01*
X0772100Y0776495D01*
Y0780431D01*
X0799205Y0780231D02*
Y0776295D01*
Y0778263D01*
X0801828D01*
Y0780231D01*
Y0776295D01*
X0805764Y0780231D02*
X0803140D01*
Y0776295D01*
X0805764D01*
X0803140Y0778263D02*
X0804452D01*
X0807076Y0776295D02*
Y0778919D01*
X0808388Y0780231D01*
X0809700Y0778919D01*
Y0776295D01*
Y0778263D01*
X0807076D01*
X0811012Y0780231D02*
X0813636D01*
X0812324D01*
Y0776295D01*
X0720205Y0776595D02*
Y0780531D01*
X0722172D01*
X0722828Y0779875D01*
Y0778563D01*
X0722172Y0777907D01*
X0720205D01*
X0724140Y0780531D02*
Y0777251D01*
X0724796Y0776595D01*
X0726108D01*
X0726764Y0777251D01*
Y0780531D01*
X0728076Y0776595D02*
Y0780531D01*
X0729388Y0779219D01*
X0730700Y0780531D01*
Y0776595D01*
X0732012D02*
Y0780531D01*
X0733980D01*
X0734636Y0779875D01*
Y0778563D01*
X0733980Y0777907D01*
X0732012D01*
X0441928Y0769475D02*
X0441272Y0770131D01*
X0439960D01*
X0439305Y0769475D01*
Y0766851D01*
X0439960Y0766195D01*
X0441272D01*
X0441928Y0766851D01*
X0445208Y0770131D02*
X0443896D01*
X0443240Y0769475D01*
Y0766851D01*
X0443896Y0766195D01*
X0445208D01*
X0445864Y0766851D01*
Y0769475D01*
X0445208Y0770131D01*
X0449800Y0766195D02*
X0447176D01*
X0449800Y0768819D01*
Y0769475D01*
X0449144Y0770131D01*
X0447832D01*
X0447176Y0769475D01*
X0497305Y0769631D02*
Y0765695D01*
X0499272D01*
X0499928Y0766351D01*
Y0767007D01*
X0499272Y0767663D01*
X0497305D01*
X0499272D01*
X0499928Y0768319D01*
Y0768975D01*
X0499272Y0769631D01*
X0497305D01*
X0501240Y0765695D02*
Y0769631D01*
X0503208D01*
X0503864Y0768975D01*
Y0767663D01*
X0503208Y0767007D01*
X0501240D01*
X0502552D02*
X0503864Y0765695D01*
X0505176Y0769631D02*
X0506488D01*
X0505832D01*
Y0765695D01*
X0505176D01*
X0506488D01*
X0511080Y0768975D02*
X0510424Y0769631D01*
X0509112D01*
X0508456Y0768975D01*
Y0766351D01*
X0509112Y0765695D01*
X0510424D01*
X0511080Y0766351D01*
Y0767663D01*
X0509768D01*
X0545205Y0776931D02*
X0547828D01*
X0546517D01*
Y0772995D01*
X0551764Y0776931D02*
X0549140D01*
Y0772995D01*
X0551764D01*
X0549140Y0774963D02*
X0550452D01*
X0553076Y0772995D02*
Y0776931D01*
X0554388Y0775619D01*
X0555700Y0776931D01*
Y0772995D01*
X0557012D02*
Y0776931D01*
X0558980D01*
X0559636Y0776275D01*
Y0774963D01*
X0558980Y0774307D01*
X0557012D01*
X0560948Y0774963D02*
X0563571D01*
X0564883Y0776931D02*
Y0772995D01*
Y0774963D01*
X0567507D01*
Y0776931D01*
Y0772995D01*
X0568819Y0776931D02*
Y0773651D01*
X0569475Y0772995D01*
X0570787D01*
X0571443Y0773651D01*
Y0776931D01*
X0664205Y0772475D02*
X0664860Y0773131D01*
X0666172D01*
X0666828Y0772475D01*
Y0771819D01*
X0666172Y0771163D01*
X0665517D01*
X0666172D01*
X0666828Y0770507D01*
Y0769851D01*
X0666172Y0769195D01*
X0664860D01*
X0664205Y0769851D01*
X0668140Y0773131D02*
Y0770507D01*
X0669452Y0769195D01*
X0670764Y0770507D01*
Y0773131D01*
X0672076Y0772475D02*
X0672732Y0773131D01*
X0674044D01*
X0674700Y0772475D01*
Y0771819D01*
X0674044Y0771163D01*
X0673388D01*
X0674044D01*
X0674700Y0770507D01*
Y0769851D01*
X0674044Y0769195D01*
X0672732D01*
X0672076Y0769851D01*
X0602605Y0770295D02*
Y0774231D01*
X0604572D01*
X0605228Y0773575D01*
Y0772263D01*
X0604572Y0771607D01*
X0602605D01*
X0606540Y0774231D02*
Y0770295D01*
Y0772263D01*
X0609164D01*
Y0774231D01*
Y0770295D01*
X0613092Y0913110D02*
X0609943D01*
Y0914684D01*
X0610468Y0915209D01*
X0611517D01*
X0612042Y0914684D01*
Y0913110D01*
Y0914159D02*
X0613092Y0915209D01*
Y0918357D02*
Y0916258D01*
X0610992Y0918357D01*
X0610468D01*
X0609943Y0917832D01*
Y0916783D01*
X0610468Y0916258D01*
X0609943Y0921506D02*
X0610468Y0920456D01*
X0611517Y0919407D01*
X0612567D01*
X0613092Y0919932D01*
Y0920981D01*
X0612567Y0921506D01*
X0612042D01*
X0611517Y0920981D01*
Y0919407D01*
X0649292Y0913210D02*
X0646143D01*
Y0914784D01*
X0646668Y0915309D01*
X0647717D01*
X0648242Y0914784D01*
Y0913210D01*
Y0914259D02*
X0649292Y0915309D01*
Y0918457D02*
Y0916358D01*
X0647192Y0918457D01*
X0646668D01*
X0646143Y0917933D01*
Y0916883D01*
X0646668Y0916358D01*
X0646143Y0921606D02*
Y0919507D01*
X0647717D01*
X0647192Y0920556D01*
Y0921081D01*
X0647717Y0921606D01*
X0648767D01*
X0649292Y0921081D01*
Y0920032D01*
X0648767Y0919507D01*
X0395035Y0962302D02*
X0393985D01*
X0394510D01*
Y0959679D01*
X0393985Y0959154D01*
X0393461D01*
X0392936Y0959679D01*
X0396084Y0961778D02*
X0396609Y0962302D01*
X0397659D01*
X0398183Y0961778D01*
Y0961253D01*
X0397659Y0960728D01*
X0397134D01*
X0397659D01*
X0398183Y0960203D01*
Y0959679D01*
X0397659Y0959154D01*
X0396609D01*
X0396084Y0959679D01*
X0567369Y0983134D02*
Y0986282D01*
X0568944D01*
X0569468Y0985757D01*
Y0984708D01*
X0568944Y0984183D01*
X0567369D01*
X0568419D02*
X0569468Y0983134D01*
X0572617D02*
X0570518D01*
X0572617Y0985233D01*
Y0985757D01*
X0572092Y0986282D01*
X0571043D01*
X0570518Y0985757D01*
X0575241Y0983134D02*
Y0986282D01*
X0573667Y0984708D01*
X0575766D01*
X0570144Y0976871D02*
Y0980019D01*
X0571718D01*
X0572243Y0979494D01*
Y0978445D01*
X0571718Y0977920D01*
X0570144D01*
X0571193D02*
X0572243Y0976871D01*
X0573292Y0980019D02*
X0575391D01*
Y0979494D01*
X0573292Y0977395D01*
Y0976871D01*
X0421718Y0771757D02*
X0421193Y0772282D01*
X0420144D01*
X0419619Y0771757D01*
Y0769658D01*
X0420144Y0769134D01*
X0421193D01*
X0421718Y0769658D01*
X0424867Y0769134D02*
X0422768D01*
X0424867Y0771233D01*
Y0771757D01*
X0424342Y0772282D01*
X0423292D01*
X0422768Y0771757D01*
X0425916Y0769658D02*
X0426441Y0769134D01*
X0427491D01*
X0428015Y0769658D01*
Y0771757D01*
X0427491Y0772282D01*
X0426441D01*
X0425916Y0771757D01*
Y0771233D01*
X0426441Y0770708D01*
X0428015D01*
X0644268Y0789109D02*
X0643743Y0788584D01*
Y0787534D01*
X0644268Y0787010D01*
X0646367D01*
X0646891Y0787534D01*
Y0788584D01*
X0646367Y0789109D01*
X0646891Y0792257D02*
Y0790158D01*
X0644792Y0792257D01*
X0644268D01*
X0643743Y0791733D01*
Y0790683D01*
X0644268Y0790158D01*
Y0793307D02*
X0643743Y0793832D01*
Y0794881D01*
X0644268Y0795406D01*
X0644792D01*
X0645317Y0794881D01*
X0645842Y0795406D01*
X0646367D01*
X0646891Y0794881D01*
Y0793832D01*
X0646367Y0793307D01*
X0645842D01*
X0645317Y0793832D01*
X0644792Y0793307D01*
X0644268D01*
X0645317Y0793832D02*
Y0794881D01*
X0477518Y0771457D02*
X0476993Y0771982D01*
X0475944D01*
X0475419Y0771457D01*
Y0769358D01*
X0475944Y0768833D01*
X0476993D01*
X0477518Y0769358D01*
X0480667Y0768833D02*
X0478568D01*
X0480667Y0770932D01*
Y0771457D01*
X0480142Y0771982D01*
X0479092D01*
X0478568Y0771457D01*
X0481716Y0771982D02*
X0483815D01*
Y0771457D01*
X0481716Y0769358D01*
Y0768833D01*
X0689368Y0786509D02*
X0688843Y0785984D01*
Y0784934D01*
X0689368Y0784410D01*
X0691467D01*
X0691992Y0784934D01*
Y0785984D01*
X0691467Y0786509D01*
X0691992Y0789657D02*
Y0787558D01*
X0689892Y0789657D01*
X0689368D01*
X0688843Y0789132D01*
Y0788083D01*
X0689368Y0787558D01*
X0688843Y0792806D02*
X0689368Y0791756D01*
X0690417Y0790707D01*
X0691467D01*
X0691992Y0791232D01*
Y0792281D01*
X0691467Y0792806D01*
X0690942D01*
X0690417Y0792281D01*
Y0790707D01*
X0691543Y1024072D02*
X0694692D01*
Y1025646D01*
X0694167Y1026171D01*
X0692068D01*
X0691543Y1025646D01*
Y1024072D01*
X0694692Y1027221D02*
Y1028270D01*
Y1027745D01*
X0691543D01*
X0692068Y1027221D01*
Y1029844D02*
X0691543Y1030369D01*
Y1031419D01*
X0692068Y1031944D01*
X0692592D01*
X0693117Y1031419D01*
Y1030894D01*
Y1031419D01*
X0693642Y1031944D01*
X0694167D01*
X0694692Y1031419D01*
Y1030369D01*
X0694167Y1029844D01*
X0628293Y0801082D02*
Y0798458D01*
X0628818Y0797933D01*
X0629868D01*
X0630392Y0798458D01*
Y0801082D01*
X0631442Y0800557D02*
X0631967Y0801082D01*
X0633016D01*
X0633541Y0800557D01*
Y0800033D01*
X0633016Y0799508D01*
X0633541Y0798983D01*
Y0798458D01*
X0633016Y0797933D01*
X0631967D01*
X0631442Y0798458D01*
Y0798983D01*
X0631967Y0799508D01*
X0631442Y0800033D01*
Y0800557D01*
X0631967Y0799508D02*
X0633016D01*
X0661093Y0791082D02*
Y0788458D01*
X0661618Y0787933D01*
X0662668D01*
X0663192Y0788458D01*
Y0791082D01*
X0664242D02*
X0666341D01*
Y0790557D01*
X0664242Y0788458D01*
Y0787933D01*
X0551036Y0827923D02*
Y0825299D01*
X0551561Y0824774D01*
X0552610D01*
X0553135Y0825299D01*
Y0827923D01*
X0555759Y0824774D02*
Y0827923D01*
X0554184Y0826349D01*
X0556284D01*
X0584793Y0829223D02*
Y0826599D01*
X0585318Y0826074D01*
X0586368D01*
X0586892Y0826599D01*
Y0829223D01*
X0590041D02*
X0587942D01*
Y0827649D01*
X0588991Y0828174D01*
X0589516D01*
X0590041Y0827649D01*
Y0826599D01*
X0589516Y0826074D01*
X0588467D01*
X0587942Y0826599D01*
X0679393Y0938182D02*
Y0935558D01*
X0679918Y0935034D01*
X0680968D01*
X0681492Y0935558D01*
Y0938182D01*
X0684641Y0935034D02*
X0682542D01*
X0684641Y0937132D01*
Y0937657D01*
X0684116Y0938182D01*
X0683067D01*
X0682542Y0937657D01*
X0666755Y0880114D02*
Y0877490D01*
X0667280Y0876965D01*
X0668329D01*
X0668854Y0877490D01*
Y0880114D01*
X0669904Y0876965D02*
X0670953D01*
X0670429D01*
Y0880114D01*
X0669904Y0879589D01*
X0402719Y0985582D02*
X0404818D01*
X0403769D01*
Y0982434D01*
X0405868D02*
Y0985582D01*
X0407442D01*
X0407967Y0985057D01*
Y0984008D01*
X0407442Y0983483D01*
X0405868D01*
X0410591Y0982434D02*
Y0985582D01*
X0409016Y0984008D01*
X0411115D01*
X0866219Y0960882D02*
X0868318D01*
X0867269D01*
Y0957734D01*
X0869368D02*
Y0960882D01*
X0870942D01*
X0871467Y0960357D01*
Y0959308D01*
X0870942Y0958783D01*
X0869368D01*
X0874615Y0957734D02*
X0872516D01*
X0874615Y0959832D01*
Y0960357D01*
X0874090Y0960882D01*
X0873041D01*
X0872516Y0960357D01*
X0465344Y0993582D02*
X0467443D01*
X0466393D01*
Y0990434D01*
X0468492D02*
Y0993582D01*
X0470067D01*
X0470591Y0993057D01*
Y0992008D01*
X0470067Y0991483D01*
X0468492D01*
X0471641Y0990434D02*
X0472690D01*
X0472166D01*
Y0993582D01*
X0471641Y0993057D01*
X0408119Y0961482D02*
X0410218D01*
X0409169D01*
Y0958333D01*
X0411268D02*
Y0961482D01*
X0412842D01*
X0413367Y0960957D01*
Y0959908D01*
X0412842Y0959383D01*
X0411268D01*
X0414416Y0960957D02*
X0414941Y0961482D01*
X0415990D01*
X0416515Y0960957D01*
Y0960433D01*
X0415990Y0959908D01*
X0415466D01*
X0415990D01*
X0416515Y0959383D01*
Y0958858D01*
X0415990Y0958333D01*
X0414941D01*
X0414416Y0958858D01*
X0544792Y1023757D02*
X0544268Y1024282D01*
X0543218D01*
X0542693Y1023757D01*
Y1023232D01*
X0543218Y1022708D01*
X0544268D01*
X0544792Y1022183D01*
Y1021658D01*
X0544268Y1021134D01*
X0543218D01*
X0542693Y1021658D01*
X0547941Y1021134D02*
X0545842D01*
X0547941Y1023232D01*
Y1023757D01*
X0547416Y1024282D01*
X0546367D01*
X0545842Y1023757D01*
X0709817Y1026357D02*
X0709292Y1026882D01*
X0708243D01*
X0707718Y1026357D01*
Y1025832D01*
X0708243Y1025308D01*
X0709292D01*
X0709817Y1024783D01*
Y1024258D01*
X0709292Y1023734D01*
X0708243D01*
X0707718Y1024258D01*
X0710867Y1023734D02*
X0711916D01*
X0711391D01*
Y1026882D01*
X0710867Y1026357D01*
X0694892Y1011010D02*
X0691743D01*
Y1012584D01*
X0692268Y1013109D01*
X0693317D01*
X0693842Y1012584D01*
Y1011010D01*
Y1012059D02*
X0694892Y1013109D01*
Y1016257D02*
Y1014158D01*
X0692792Y1016257D01*
X0692268D01*
X0691743Y1015732D01*
Y1014683D01*
X0692268Y1014158D01*
Y1017307D02*
X0691743Y1017832D01*
Y1018881D01*
X0692268Y1019406D01*
X0692792D01*
X0693317Y1018881D01*
Y1018356D01*
Y1018881D01*
X0693842Y1019406D01*
X0694367D01*
X0694892Y1018881D01*
Y1017832D01*
X0694367Y1017307D01*
X0849992Y0824410D02*
X0846843D01*
Y0825984D01*
X0847368Y0826509D01*
X0848417D01*
X0848942Y0825984D01*
Y0824410D01*
Y0825459D02*
X0849992Y0826509D01*
Y0829657D02*
Y0827558D01*
X0847892Y0829657D01*
X0847368D01*
X0846843Y0829132D01*
Y0828083D01*
X0847368Y0827558D01*
X0849992Y0832806D02*
Y0830707D01*
X0847892Y0832806D01*
X0847368D01*
X0846843Y0832281D01*
Y0831232D01*
X0847368Y0830707D01*
X0843392Y0831434D02*
X0840243D01*
Y0833009D01*
X0840768Y0833533D01*
X0841817D01*
X0842342Y0833009D01*
Y0831434D01*
Y0832484D02*
X0843392Y0833533D01*
Y0836682D02*
Y0834583D01*
X0841292Y0836682D01*
X0840768D01*
X0840243Y0836157D01*
Y0835108D01*
X0840768Y0834583D01*
X0843392Y0837732D02*
Y0838781D01*
Y0838256D01*
X0840243D01*
X0840768Y0837732D01*
X0707691Y0825010D02*
X0704543D01*
Y0826584D01*
X0705068Y0827109D01*
X0706117D01*
X0706642Y0826584D01*
Y0825010D01*
Y0826059D02*
X0707691Y0827109D01*
Y0830257D02*
Y0828158D01*
X0705592Y0830257D01*
X0705068D01*
X0704543Y0829733D01*
Y0828683D01*
X0705068Y0828158D01*
Y0831307D02*
X0704543Y0831832D01*
Y0832881D01*
X0705068Y0833406D01*
X0707167D01*
X0707691Y0832881D01*
Y0831832D01*
X0707167Y0831307D01*
X0705068D01*
X0808992Y0824072D02*
X0805843D01*
Y0825646D01*
X0806368Y0826171D01*
X0807417D01*
X0807942Y0825646D01*
Y0824072D01*
Y0825122D02*
X0808992Y0826171D01*
Y0827221D02*
Y0828270D01*
Y0827745D01*
X0805843D01*
X0806368Y0827221D01*
X0808467Y0829844D02*
X0808992Y0830369D01*
Y0831419D01*
X0808467Y0831944D01*
X0806368D01*
X0805843Y0831419D01*
Y0830369D01*
X0806368Y0829844D01*
X0806892D01*
X0807417Y0830369D01*
Y0831944D01*
X0746991Y0825272D02*
X0743843D01*
Y0826846D01*
X0744368Y0827371D01*
X0745417D01*
X0745942Y0826846D01*
Y0825272D01*
Y0826322D02*
X0746991Y0827371D01*
Y0828421D02*
Y0829470D01*
Y0828945D01*
X0743843D01*
X0744368Y0828421D01*
Y0831044D02*
X0743843Y0831569D01*
Y0832619D01*
X0744368Y0833144D01*
X0744892D01*
X0745417Y0832619D01*
X0745942Y0833144D01*
X0746467D01*
X0746991Y0832619D01*
Y0831569D01*
X0746467Y0831044D01*
X0745942D01*
X0745417Y0831569D01*
X0744892Y0831044D01*
X0744368D01*
X0745417Y0831569D02*
Y0832619D01*
X0701591Y0831372D02*
X0698443D01*
Y0832946D01*
X0698968Y0833471D01*
X0700017D01*
X0700542Y0832946D01*
Y0831372D01*
Y0832422D02*
X0701591Y0833471D01*
Y0834521D02*
Y0835570D01*
Y0835045D01*
X0698443D01*
X0698968Y0834521D01*
X0698443Y0837144D02*
Y0839244D01*
X0698968D01*
X0701067Y0837144D01*
X0701591D01*
X0802792Y0830372D02*
X0799643D01*
Y0831946D01*
X0800168Y0832471D01*
X0801217D01*
X0801742Y0831946D01*
Y0830372D01*
Y0831422D02*
X0802792Y0832471D01*
Y0833521D02*
Y0834570D01*
Y0834045D01*
X0799643D01*
X0800168Y0833521D01*
X0799643Y0838243D02*
X0800168Y0837194D01*
X0801217Y0836144D01*
X0802267D01*
X0802792Y0836669D01*
Y0837719D01*
X0802267Y0838243D01*
X0801742D01*
X0801217Y0837719D01*
Y0836144D01*
X0740591Y0831772D02*
X0737443D01*
Y0833346D01*
X0737968Y0833871D01*
X0739017D01*
X0739542Y0833346D01*
Y0831772D01*
Y0832822D02*
X0740591Y0833871D01*
Y0834921D02*
Y0835970D01*
Y0835445D01*
X0737443D01*
X0737968Y0834921D01*
X0737443Y0839643D02*
Y0837544D01*
X0739017D01*
X0738492Y0838594D01*
Y0839119D01*
X0739017Y0839643D01*
X0740067D01*
X0740591Y0839119D01*
Y0838069D01*
X0740067Y0837544D01*
X0567332Y0962407D02*
Y0965555D01*
X0568906D01*
X0569431Y0965030D01*
Y0963981D01*
X0568906Y0963456D01*
X0567332D01*
X0568381D02*
X0569431Y0962407D01*
X0570480D02*
X0571530D01*
X0571005D01*
Y0965555D01*
X0570480Y0965030D01*
X0574679Y0962407D02*
Y0965555D01*
X0573104Y0963981D01*
X0575203D01*
X0588391Y1007572D02*
X0585243D01*
Y1009146D01*
X0585768Y1009671D01*
X0586817D01*
X0587342Y1009146D01*
Y1007572D01*
Y1008622D02*
X0588391Y1009671D01*
Y1010721D02*
Y1011770D01*
Y1011245D01*
X0585243D01*
X0585768Y1010721D01*
Y1013344D02*
X0585243Y1013869D01*
Y1014919D01*
X0585768Y1015444D01*
X0586292D01*
X0586817Y1014919D01*
Y1014394D01*
Y1014919D01*
X0587342Y1015444D01*
X0587867D01*
X0588391Y1014919D01*
Y1013869D01*
X0587867Y1013344D01*
X0533791Y1011472D02*
X0530643D01*
Y1013046D01*
X0531168Y1013571D01*
X0532217D01*
X0532742Y1013046D01*
Y1011472D01*
Y1012522D02*
X0533791Y1013571D01*
Y1014621D02*
Y1015670D01*
Y1015145D01*
X0530643D01*
X0531168Y1014621D01*
X0533791Y1019343D02*
Y1017244D01*
X0531692Y1019343D01*
X0531168D01*
X0530643Y1018819D01*
Y1017769D01*
X0531168Y1017244D01*
X0648891Y0855497D02*
X0645743D01*
Y0857071D01*
X0646268Y0857596D01*
X0647317D01*
X0647842Y0857071D01*
Y0855497D01*
Y0856546D02*
X0648891Y0857596D01*
Y0858645D02*
Y0859695D01*
Y0859170D01*
X0645743D01*
X0646268Y0858645D01*
X0648891Y0861269D02*
Y0862319D01*
Y0861794D01*
X0645743D01*
X0646268Y0861269D01*
X0665391Y0854372D02*
X0662243D01*
Y0855946D01*
X0662768Y0856471D01*
X0663817D01*
X0664342Y0855946D01*
Y0854372D01*
Y0855422D02*
X0665391Y0856471D01*
Y0857521D02*
Y0858570D01*
Y0858045D01*
X0662243D01*
X0662768Y0857521D01*
Y0860144D02*
X0662243Y0860669D01*
Y0861719D01*
X0662768Y0862243D01*
X0664867D01*
X0665391Y0861719D01*
Y0860669D01*
X0664867Y0860144D01*
X0662768D01*
X0635730Y0875165D02*
Y0878314D01*
X0637305D01*
X0637829Y0877789D01*
Y0876739D01*
X0637305Y0876215D01*
X0635730D01*
X0636780D02*
X0637829Y0875165D01*
X0638879Y0875690D02*
X0639404Y0875165D01*
X0640453D01*
X0640978Y0875690D01*
Y0877789D01*
X0640453Y0878314D01*
X0639404D01*
X0638879Y0877789D01*
Y0877264D01*
X0639404Y0876739D01*
X0640978D01*
X0671592Y0856784D02*
X0668443D01*
Y0858358D01*
X0668968Y0858883D01*
X0670017D01*
X0670542Y0858358D01*
Y0856784D01*
Y0857833D02*
X0671592Y0858883D01*
X0668968Y0859933D02*
X0668443Y0860457D01*
Y0861507D01*
X0668968Y0862032D01*
X0669492D01*
X0670017Y0861507D01*
X0670542Y0862032D01*
X0671067D01*
X0671592Y0861507D01*
Y0860457D01*
X0671067Y0859933D01*
X0670542D01*
X0670017Y0860457D01*
X0669492Y0859933D01*
X0668968D01*
X0670017Y0860457D02*
Y0861507D01*
X0527592Y1012584D02*
X0524443D01*
Y1014158D01*
X0524968Y1014683D01*
X0526017D01*
X0526542Y1014158D01*
Y1012584D01*
Y1013634D02*
X0527592Y1014683D01*
X0524443Y1017832D02*
X0524968Y1016782D01*
X0526017Y1015732D01*
X0527067D01*
X0527592Y1016257D01*
Y1017307D01*
X0527067Y1017832D01*
X0526542D01*
X0526017Y1017307D01*
Y1015732D01*
X0468793Y1022334D02*
Y1025482D01*
X0470368D01*
X0470892Y1024957D01*
Y1023908D01*
X0470368Y1023383D01*
X0468793D01*
X0469843D02*
X0470892Y1022334D01*
X0474041Y1025482D02*
X0471942D01*
Y1023908D01*
X0472992Y1024432D01*
X0473516D01*
X0474041Y1023908D01*
Y1022858D01*
X0473516Y1022334D01*
X0472467D01*
X0471942Y1022858D01*
X0627693Y0924533D02*
Y0927682D01*
X0629268D01*
X0629792Y0927157D01*
Y0926108D01*
X0629268Y0925583D01*
X0627693D01*
X0628743D02*
X0629792Y0924533D01*
X0632416D02*
Y0927682D01*
X0630842Y0926108D01*
X0632941D01*
X0627393Y0894133D02*
Y0897282D01*
X0628968D01*
X0629492Y0896757D01*
Y0895708D01*
X0628968Y0895183D01*
X0627393D01*
X0628443D02*
X0629492Y0894133D01*
X0630542Y0896757D02*
X0631067Y0897282D01*
X0632116D01*
X0632641Y0896757D01*
Y0896233D01*
X0632116Y0895708D01*
X0631592D01*
X0632116D01*
X0632641Y0895183D01*
Y0894658D01*
X0632116Y0894133D01*
X0631067D01*
X0630542Y0894658D01*
X0668430Y0921165D02*
Y0924314D01*
X0670005D01*
X0670529Y0923789D01*
Y0922739D01*
X0670005Y0922215D01*
X0668430D01*
X0669480D02*
X0670529Y0921165D01*
X0673678D02*
X0671579D01*
X0673678Y0923264D01*
Y0923789D01*
X0673153Y0924314D01*
X0672104D01*
X0671579Y0923789D01*
X0662755Y0921065D02*
Y0924214D01*
X0664329D01*
X0664854Y0923689D01*
Y0922639D01*
X0664329Y0922114D01*
X0662755D01*
X0663805D02*
X0664854Y0921065D01*
X0665904D02*
X0666953D01*
X0666429D01*
Y0924214D01*
X0665904Y0923689D01*
X0861192Y0825358D02*
Y0827457D01*
X0860668Y0827982D01*
X0859618D01*
X0859093Y0827457D01*
Y0825358D01*
X0859618Y0824833D01*
X0860668D01*
X0860143Y0825883D02*
X0861192Y0824833D01*
X0860668D02*
X0861192Y0825358D01*
X0864341Y0827982D02*
X0862242D01*
Y0826408D01*
X0863291Y0826933D01*
X0863816D01*
X0864341Y0826408D01*
Y0825358D01*
X0863816Y0824833D01*
X0862767D01*
X0862242Y0825358D01*
X0722092Y0825958D02*
Y0828057D01*
X0721568Y0828582D01*
X0720518D01*
X0719993Y0828057D01*
Y0825958D01*
X0720518Y0825434D01*
X0721568D01*
X0721043Y0826483D02*
X0722092Y0825434D01*
X0721568D02*
X0722092Y0825958D01*
X0724716Y0825434D02*
Y0828582D01*
X0723142Y0827008D01*
X0725241D01*
X0823392Y0825058D02*
Y0827157D01*
X0822868Y0827682D01*
X0821818D01*
X0821293Y0827157D01*
Y0825058D01*
X0821818Y0824533D01*
X0822868D01*
X0822343Y0825583D02*
X0823392Y0824533D01*
X0822868D02*
X0823392Y0825058D01*
X0824442Y0827157D02*
X0824967Y0827682D01*
X0826016D01*
X0826541Y0827157D01*
Y0826632D01*
X0826016Y0826108D01*
X0825492D01*
X0826016D01*
X0826541Y0825583D01*
Y0825058D01*
X0826016Y0824533D01*
X0824967D01*
X0824442Y0825058D01*
X0760892Y0826358D02*
Y0828457D01*
X0760368Y0828982D01*
X0759318D01*
X0758793Y0828457D01*
Y0826358D01*
X0759318Y0825834D01*
X0760368D01*
X0759843Y0826883D02*
X0760892Y0825834D01*
X0760368D02*
X0760892Y0826358D01*
X0764041Y0828982D02*
X0762992Y0828457D01*
X0761942Y0827408D01*
Y0826358D01*
X0762467Y0825834D01*
X0763516D01*
X0764041Y0826358D01*
Y0826883D01*
X0763516Y0827408D01*
X0761942D01*
X0641217Y0906758D02*
Y0908857D01*
X0640692Y0909382D01*
X0639643D01*
X0639118Y0908857D01*
Y0906758D01*
X0639643Y0906234D01*
X0640692D01*
X0640168Y0907283D02*
X0641217Y0906234D01*
X0640692D02*
X0641217Y0906758D01*
X0642267Y0906234D02*
X0643316D01*
X0642792D01*
Y0909382D01*
X0642267Y0908857D01*
X0588605Y0766633D02*
X0587555D01*
X0588080D01*
Y0764009D01*
X0587555Y0763485D01*
X0587031D01*
X0586506Y0764009D01*
X0589654Y0763485D02*
X0590704D01*
X0590179D01*
Y0766633D01*
X0589654Y0766109D01*
X0592278Y0766633D02*
X0594377D01*
Y0766109D01*
X0592278Y0764009D01*
Y0763485D01*
X0422974Y0762385D02*
X0421925D01*
X0422449D01*
Y0759761D01*
X0421925Y0759237D01*
X0421400D01*
X0420875Y0759761D01*
X0424024Y0759237D02*
X0425073D01*
X0424548D01*
Y0762385D01*
X0424024Y0761861D01*
X0428747Y0762385D02*
X0427697Y0761861D01*
X0426648Y0760811D01*
Y0759761D01*
X0427172Y0759237D01*
X0428222D01*
X0428747Y0759761D01*
Y0760286D01*
X0428222Y0760811D01*
X0426648D01*
X0635062Y0766240D02*
X0634012D01*
X0634537D01*
Y0763616D01*
X0634012Y0763091D01*
X0633487D01*
X0632963Y0763616D01*
X0636111Y0763091D02*
X0637161D01*
X0636636D01*
Y0766240D01*
X0636111Y0765715D01*
X0640834Y0766240D02*
X0638735D01*
Y0764665D01*
X0639784Y0765190D01*
X0640309D01*
X0640834Y0764665D01*
Y0763616D01*
X0640309Y0763091D01*
X0639260D01*
X0638735Y0763616D01*
X0540681Y0766282D02*
X0539631D01*
X0540156D01*
Y0763658D01*
X0539631Y0763133D01*
X0539106D01*
X0538581Y0763658D01*
X0541730Y0763133D02*
X0542780D01*
X0542255D01*
Y0766282D01*
X0541730Y0765757D01*
X0545928Y0763133D02*
Y0766282D01*
X0544354Y0764708D01*
X0546453D01*
X0477581Y0762499D02*
X0476532D01*
X0477057D01*
Y0759876D01*
X0476532Y0759351D01*
X0476007D01*
X0475482Y0759876D01*
X0478631Y0759351D02*
X0479680D01*
X0479156D01*
Y0762499D01*
X0478631Y0761975D01*
X0481255D02*
X0481779Y0762499D01*
X0482829D01*
X0483354Y0761975D01*
Y0761450D01*
X0482829Y0760925D01*
X0482304D01*
X0482829D01*
X0483354Y0760400D01*
Y0759876D01*
X0482829Y0759351D01*
X0481779D01*
X0481255Y0759876D01*
X0413605Y1034547D02*
X0412555D01*
X0413080D01*
Y1031923D01*
X0412555Y1031398D01*
X0412031D01*
X0411506Y1031923D01*
X0414654Y1031398D02*
X0415704D01*
X0415179D01*
Y1034547D01*
X0414654Y1034022D01*
X0419377Y1031398D02*
X0417278D01*
X0419377Y1033497D01*
Y1034022D01*
X0418853Y1034547D01*
X0417803D01*
X0417278Y1034022D01*
X0860783Y1037106D02*
X0859734D01*
X0860258D01*
Y1034482D01*
X0859734Y1033957D01*
X0859209D01*
X0858684Y1034482D01*
X0861833Y1033957D02*
X0862882D01*
X0862358D01*
Y1037106D01*
X0861833Y1036581D01*
X0864457Y1033957D02*
X0865506D01*
X0864981D01*
Y1037106D01*
X0864457Y1036581D01*
X0761833Y1037106D02*
X0760784D01*
X0761308D01*
Y1034482D01*
X0760784Y1033957D01*
X0760259D01*
X0759734Y1034482D01*
X0762883Y1033957D02*
X0763932D01*
X0763408D01*
Y1037106D01*
X0762883Y1036581D01*
X0765507D02*
X0766031Y1037106D01*
X0767081D01*
X0767606Y1036581D01*
Y1034482D01*
X0767081Y1033957D01*
X0766031D01*
X0765507Y1034482D01*
Y1036581D01*
X0818792Y0779782D02*
X0817743D01*
X0818268D01*
Y0777158D01*
X0817743Y0776634D01*
X0817218D01*
X0816693Y0777158D01*
X0819842Y0779257D02*
X0820367Y0779782D01*
X0821416D01*
X0821941Y0779257D01*
Y0778732D01*
X0821416Y0778208D01*
X0821941Y0777683D01*
Y0777158D01*
X0821416Y0776634D01*
X0820367D01*
X0819842Y0777158D01*
Y0777683D01*
X0820367Y0778208D01*
X0819842Y0778732D01*
Y0779257D01*
X0820367Y0778208D02*
X0821416D01*
X0700892Y0780082D02*
X0699843D01*
X0700368D01*
Y0777458D01*
X0699843Y0776933D01*
X0699318D01*
X0698793Y0777458D01*
X0704041Y0780082D02*
X0702991Y0779557D01*
X0701942Y0778508D01*
Y0777458D01*
X0702467Y0776933D01*
X0703516D01*
X0704041Y0777458D01*
Y0777983D01*
X0703516Y0778508D01*
X0701942D01*
X0779592Y0779682D02*
X0778543D01*
X0779068D01*
Y0777058D01*
X0778543Y0776534D01*
X0778018D01*
X0777493Y0777058D01*
X0782741Y0779682D02*
X0780642D01*
Y0778108D01*
X0781692Y0778632D01*
X0782216D01*
X0782741Y0778108D01*
Y0777058D01*
X0782216Y0776534D01*
X0781167D01*
X0780642Y0777058D01*
X0740704Y0780019D02*
X0739655D01*
X0740179D01*
Y0777395D01*
X0739655Y0776870D01*
X0739130D01*
X0738605Y0777395D01*
X0743328Y0776870D02*
Y0780019D01*
X0741754Y0778445D01*
X0743853D01*
X0887161Y0962302D02*
X0886111D01*
X0886636D01*
Y0959679D01*
X0886111Y0959154D01*
X0885587D01*
X0885062Y0959679D01*
X0890310Y0959154D02*
X0888210D01*
X0890310Y0961253D01*
Y0961778D01*
X0889785Y0962302D01*
X0888735D01*
X0888210Y0961778D01*
X0473317Y1037682D02*
X0472268D01*
X0472792D01*
Y1035058D01*
X0472268Y1034534D01*
X0471743D01*
X0471218Y1035058D01*
X0474367Y1034534D02*
X0475416D01*
X0474892D01*
Y1037682D01*
X0474367Y1037157D01*
X0832981Y0969082D02*
Y0965934D01*
X0834556D01*
X0835081Y0966458D01*
Y0968557D01*
X0834556Y0969082D01*
X0832981D01*
X0836130Y0965934D02*
X0837180D01*
X0836655D01*
Y0969082D01*
X0836130Y0968557D01*
X0840853Y0965934D02*
X0838754D01*
X0840853Y0968032D01*
Y0968557D01*
X0840328Y0969082D01*
X0839279D01*
X0838754Y0968557D01*
X0435606Y0952482D02*
Y0949333D01*
X0437181D01*
X0437705Y0949858D01*
Y0951957D01*
X0437181Y0952482D01*
X0435606D01*
X0438755Y0949333D02*
X0439804D01*
X0439280D01*
Y0952482D01*
X0438755Y0951957D01*
X0441379Y0949333D02*
X0442428D01*
X0441903D01*
Y0952482D01*
X0441379Y0951957D01*
X0782281Y0969482D02*
Y0966333D01*
X0783856D01*
X0784380Y0966858D01*
Y0968957D01*
X0783856Y0969482D01*
X0782281D01*
X0785430Y0966333D02*
X0786480D01*
X0785955D01*
Y0969482D01*
X0785430Y0968957D01*
X0788054D02*
X0788579Y0969482D01*
X0789628D01*
X0790153Y0968957D01*
Y0966858D01*
X0789628Y0966333D01*
X0788579D01*
X0788054Y0966858D01*
Y0968957D01*
X0866693Y0798982D02*
Y0795833D01*
X0868268D01*
X0868792Y0796358D01*
Y0798457D01*
X0868268Y0798982D01*
X0866693D01*
X0869842Y0796358D02*
X0870367Y0795833D01*
X0871416D01*
X0871941Y0796358D01*
Y0798457D01*
X0871416Y0798982D01*
X0870367D01*
X0869842Y0798457D01*
Y0797932D01*
X0870367Y0797408D01*
X0871941D01*
X0694117Y0800885D02*
Y0797737D01*
X0695691D01*
X0696216Y0798261D01*
Y0800360D01*
X0695691Y0800885D01*
X0694117D01*
X0697266Y0800360D02*
X0697790Y0800885D01*
X0698840D01*
X0699365Y0800360D01*
Y0799836D01*
X0698840Y0799311D01*
X0699365Y0798786D01*
Y0798261D01*
X0698840Y0797737D01*
X0697790D01*
X0697266Y0798261D01*
Y0798786D01*
X0697790Y0799311D01*
X0697266Y0799836D01*
Y0800360D01*
X0697790Y0799311D02*
X0698840D01*
X0826993Y0798582D02*
Y0795434D01*
X0828568D01*
X0829092Y0795958D01*
Y0798057D01*
X0828568Y0798582D01*
X0826993D01*
X0830142D02*
X0832241D01*
Y0798057D01*
X0830142Y0795958D01*
Y0795434D01*
X0735193Y0799982D02*
Y0796834D01*
X0736768D01*
X0737292Y0797358D01*
Y0799457D01*
X0736768Y0799982D01*
X0735193D01*
X0740441D02*
X0739392Y0799457D01*
X0738342Y0798408D01*
Y0797358D01*
X0738867Y0796834D01*
X0739916D01*
X0740441Y0797358D01*
Y0797883D01*
X0739916Y0798408D01*
X0738342D01*
X0530343Y1024934D02*
X0533492D01*
Y1026508D01*
X0532967Y1027033D01*
X0530868D01*
X0530343Y1026508D01*
Y1024934D01*
Y1030181D02*
Y1028082D01*
X0531917D01*
X0531392Y1029132D01*
Y1029656D01*
X0531917Y1030181D01*
X0532967D01*
X0533492Y1029656D01*
Y1028607D01*
X0532967Y1028082D01*
X0522293Y1003882D02*
Y1000733D01*
X0523868D01*
X0524392Y1001258D01*
Y1003357D01*
X0523868Y1003882D01*
X0522293D01*
X0527016Y1000733D02*
Y1003882D01*
X0525442Y1002308D01*
X0527541D01*
X0490793Y0998482D02*
Y0995333D01*
X0492368D01*
X0492892Y0995858D01*
Y0997957D01*
X0492368Y0998482D01*
X0490793D01*
X0493942Y0997957D02*
X0494467Y0998482D01*
X0495516D01*
X0496041Y0997957D01*
Y0997433D01*
X0495516Y0996908D01*
X0494991D01*
X0495516D01*
X0496041Y0996383D01*
Y0995858D01*
X0495516Y0995333D01*
X0494467D01*
X0493942Y0995858D01*
X0500493Y0998382D02*
Y0995234D01*
X0502068D01*
X0502592Y0995758D01*
Y0997857D01*
X0502068Y0998382D01*
X0500493D01*
X0505741Y0995234D02*
X0503642D01*
X0505741Y0997332D01*
Y0997857D01*
X0505216Y0998382D01*
X0504167D01*
X0503642Y0997857D01*
X0511643Y0974709D02*
X0514791D01*
Y0976283D01*
X0514267Y0976808D01*
X0512168D01*
X0511643Y0976283D01*
Y0974709D01*
X0514791Y0977857D02*
Y0978907D01*
Y0978382D01*
X0511643D01*
X0512168Y0977857D01*
X0586968Y0880950D02*
X0586443Y0880425D01*
Y0879375D01*
X0586968Y0878851D01*
X0589067D01*
X0589591Y0879375D01*
Y0880425D01*
X0589067Y0880950D01*
X0589591Y0884098D02*
Y0881999D01*
X0587492Y0884098D01*
X0586968D01*
X0586443Y0883574D01*
Y0882524D01*
X0586968Y0881999D01*
X0589591Y0886722D02*
X0586443D01*
X0588017Y0885148D01*
Y0887247D01*
X0592268Y0878950D02*
X0591743Y0878425D01*
Y0877375D01*
X0592268Y0876851D01*
X0594367D01*
X0594891Y0877375D01*
Y0878425D01*
X0594367Y0878950D01*
X0594891Y0882098D02*
Y0879999D01*
X0592792Y0882098D01*
X0592268D01*
X0591743Y0881573D01*
Y0880524D01*
X0592268Y0879999D01*
Y0883148D02*
X0591743Y0883673D01*
Y0884722D01*
X0592268Y0885247D01*
X0592792D01*
X0593317Y0884722D01*
Y0884197D01*
Y0884722D01*
X0593842Y0885247D01*
X0594367D01*
X0594891Y0884722D01*
Y0883673D01*
X0594367Y0883148D01*
X0581968Y0879050D02*
X0581443Y0878525D01*
Y0877475D01*
X0581968Y0876951D01*
X0584067D01*
X0584591Y0877475D01*
Y0878525D01*
X0584067Y0879050D01*
X0584591Y0882198D02*
Y0880099D01*
X0582492Y0882198D01*
X0581968D01*
X0581443Y0881674D01*
Y0880624D01*
X0581968Y0880099D01*
X0584591Y0885347D02*
Y0883248D01*
X0582492Y0885347D01*
X0581968D01*
X0581443Y0884822D01*
Y0883773D01*
X0581968Y0883248D01*
X0576868Y0881374D02*
X0576343Y0880850D01*
Y0879800D01*
X0576868Y0879275D01*
X0578967D01*
X0579491Y0879800D01*
Y0880850D01*
X0578967Y0881374D01*
X0579491Y0884523D02*
Y0882424D01*
X0577392Y0884523D01*
X0576868D01*
X0576343Y0883998D01*
Y0882949D01*
X0576868Y0882424D01*
X0579491Y0885573D02*
Y0886622D01*
Y0886097D01*
X0576343D01*
X0576868Y0885573D01*
X0560010Y0878050D02*
X0559485Y0877525D01*
Y0876475D01*
X0560010Y0875951D01*
X0562109D01*
X0562634Y0876475D01*
Y0877525D01*
X0562109Y0878050D01*
X0562634Y0881198D02*
Y0879099D01*
X0560535Y0881198D01*
X0560010D01*
X0559485Y0880674D01*
Y0879624D01*
X0560010Y0879099D01*
Y0882248D02*
X0559485Y0882773D01*
Y0883822D01*
X0560010Y0884347D01*
X0562109D01*
X0562634Y0883822D01*
Y0882773D01*
X0562109Y0882248D01*
X0560010D01*
X0554610Y0880412D02*
X0554085Y0879887D01*
Y0878838D01*
X0554610Y0878313D01*
X0556709D01*
X0557234Y0878838D01*
Y0879887D01*
X0556709Y0880412D01*
X0557234Y0881462D02*
Y0882511D01*
Y0881986D01*
X0554085D01*
X0554610Y0881462D01*
X0556709Y0884085D02*
X0557234Y0884610D01*
Y0885660D01*
X0556709Y0886185D01*
X0554610D01*
X0554085Y0885660D01*
Y0884610D01*
X0554610Y0884085D01*
X0555135D01*
X0555660Y0884610D01*
Y0886185D01*
X0535710Y0880312D02*
X0535185Y0879787D01*
Y0878738D01*
X0535710Y0878213D01*
X0537809D01*
X0538334Y0878738D01*
Y0879787D01*
X0537809Y0880312D01*
X0538334Y0881362D02*
Y0882411D01*
Y0881886D01*
X0535185D01*
X0535710Y0881362D01*
Y0883985D02*
X0535185Y0884510D01*
Y0885560D01*
X0535710Y0886084D01*
X0536235D01*
X0536760Y0885560D01*
X0537284Y0886084D01*
X0537809D01*
X0538334Y0885560D01*
Y0884510D01*
X0537809Y0883985D01*
X0537284D01*
X0536760Y0884510D01*
X0536235Y0883985D01*
X0535710D01*
X0536760Y0884510D02*
Y0885560D01*
X0544710Y0885212D02*
X0544185Y0884687D01*
Y0883638D01*
X0544710Y0883113D01*
X0546809D01*
X0547334Y0883638D01*
Y0884687D01*
X0546809Y0885212D01*
X0547334Y0886262D02*
Y0887311D01*
Y0886786D01*
X0544185D01*
X0544710Y0886262D01*
X0544185Y0888885D02*
Y0890985D01*
X0544710D01*
X0546809Y0888885D01*
X0547334D01*
X0853468Y0826371D02*
X0852943Y0825846D01*
Y0824797D01*
X0853468Y0824272D01*
X0855567D01*
X0856091Y0824797D01*
Y0825846D01*
X0855567Y0826371D01*
X0856091Y0827421D02*
Y0828470D01*
Y0827945D01*
X0852943D01*
X0853468Y0827421D01*
X0852943Y0832143D02*
X0853468Y0831094D01*
X0854517Y0830044D01*
X0855567D01*
X0856091Y0830569D01*
Y0831619D01*
X0855567Y0832143D01*
X0855042D01*
X0854517Y0831619D01*
Y0830044D01*
X0859781Y0786657D02*
X0859256Y0787182D01*
X0858206D01*
X0857681Y0786657D01*
Y0784558D01*
X0858206Y0784033D01*
X0859256D01*
X0859781Y0784558D01*
X0860830Y0784033D02*
X0861880D01*
X0861355D01*
Y0787182D01*
X0860830Y0786657D01*
X0865553Y0787182D02*
X0863454D01*
Y0785608D01*
X0864503Y0786132D01*
X0865028D01*
X0865553Y0785608D01*
Y0784558D01*
X0865028Y0784033D01*
X0863979D01*
X0863454Y0784558D01*
X0711668Y0827271D02*
X0711143Y0826746D01*
Y0825697D01*
X0711668Y0825172D01*
X0713767D01*
X0714291Y0825697D01*
Y0826746D01*
X0713767Y0827271D01*
X0714291Y0828321D02*
Y0829370D01*
Y0828845D01*
X0711143D01*
X0711668Y0828321D01*
X0714291Y0832519D02*
X0711143D01*
X0712717Y0830944D01*
Y0833043D01*
X0812468Y0826171D02*
X0811943Y0825646D01*
Y0824597D01*
X0812468Y0824072D01*
X0814567D01*
X0815092Y0824597D01*
Y0825646D01*
X0814567Y0826171D01*
X0815092Y0827221D02*
Y0828270D01*
Y0827745D01*
X0811943D01*
X0812468Y0827221D01*
Y0829844D02*
X0811943Y0830369D01*
Y0831419D01*
X0812468Y0831944D01*
X0812992D01*
X0813517Y0831419D01*
Y0830894D01*
Y0831419D01*
X0814042Y0831944D01*
X0814567D01*
X0815092Y0831419D01*
Y0830369D01*
X0814567Y0829844D01*
X0750768Y0827371D02*
X0750243Y0826846D01*
Y0825797D01*
X0750768Y0825272D01*
X0752867D01*
X0753392Y0825797D01*
Y0826846D01*
X0752867Y0827371D01*
X0753392Y0828421D02*
Y0829470D01*
Y0828945D01*
X0750243D01*
X0750768Y0828421D01*
X0753392Y0833144D02*
Y0831044D01*
X0751292Y0833144D01*
X0750768D01*
X0750243Y0832619D01*
Y0831569D01*
X0750768Y0831044D01*
X0726305Y0786357D02*
X0725780Y0786882D01*
X0724731D01*
X0724206Y0786357D01*
Y0784258D01*
X0724731Y0783734D01*
X0725780D01*
X0726305Y0784258D01*
X0727355Y0783734D02*
X0728404D01*
X0727880D01*
Y0786882D01*
X0727355Y0786357D01*
X0729979Y0783734D02*
X0731028D01*
X0730503D01*
Y0786882D01*
X0729979Y0786357D01*
X0819481Y0786657D02*
X0818956Y0787182D01*
X0817906D01*
X0817381Y0786657D01*
Y0784558D01*
X0817906Y0784033D01*
X0818956D01*
X0819481Y0784558D01*
X0820530Y0784033D02*
X0821580D01*
X0821055D01*
Y0787182D01*
X0820530Y0786657D01*
X0823154D02*
X0823679Y0787182D01*
X0824728D01*
X0825253Y0786657D01*
Y0784558D01*
X0824728Y0784033D01*
X0823679D01*
X0823154Y0784558D01*
Y0786657D01*
X0765992Y0786357D02*
X0765468Y0786882D01*
X0764418D01*
X0763893Y0786357D01*
Y0784258D01*
X0764418Y0783734D01*
X0765468D01*
X0765992Y0784258D01*
X0767042D02*
X0767567Y0783734D01*
X0768616D01*
X0769141Y0784258D01*
Y0786357D01*
X0768616Y0786882D01*
X0767567D01*
X0767042Y0786357D01*
Y0785833D01*
X0767567Y0785308D01*
X0769141D01*
X0564792Y1002457D02*
X0564268Y1002982D01*
X0563218D01*
X0562693Y1002457D01*
Y1000358D01*
X0563218Y0999833D01*
X0564268D01*
X0564792Y1000358D01*
X0565842Y1002457D02*
X0566367Y1002982D01*
X0567416D01*
X0567941Y1002457D01*
Y1001933D01*
X0567416Y1001408D01*
X0567941Y1000883D01*
Y1000358D01*
X0567416Y0999833D01*
X0566367D01*
X0565842Y1000358D01*
Y1000883D01*
X0566367Y1001408D01*
X0565842Y1001933D01*
Y1002457D01*
X0566367Y1001408D02*
X0567416D01*
X0735692Y1007057D02*
X0735168Y1007582D01*
X0734118D01*
X0733593Y1007057D01*
Y1004958D01*
X0734118Y1004434D01*
X0735168D01*
X0735692Y1004958D01*
X0736742Y1007582D02*
X0738841D01*
Y1007057D01*
X0736742Y1004958D01*
Y1004434D01*
X0596468Y1012783D02*
X0595943Y1012258D01*
Y1011209D01*
X0596468Y1010684D01*
X0598567D01*
X0599091Y1011209D01*
Y1012258D01*
X0598567Y1012783D01*
X0595943Y1015932D02*
X0596468Y1014882D01*
X0597517Y1013832D01*
X0598567D01*
X0599091Y1014357D01*
Y1015407D01*
X0598567Y1015932D01*
X0598042D01*
X0597517Y1015407D01*
Y1013832D01*
X0591668Y1016083D02*
X0591143Y1015558D01*
Y1014509D01*
X0591668Y1013984D01*
X0593767D01*
X0594291Y1014509D01*
Y1015558D01*
X0593767Y1016083D01*
X0591143Y1019232D02*
Y1017132D01*
X0592717D01*
X0592192Y1018182D01*
Y1018707D01*
X0592717Y1019232D01*
X0593767D01*
X0594291Y1018707D01*
Y1017657D01*
X0593767Y1017132D01*
X0579868Y1009883D02*
X0579343Y1009358D01*
Y1008309D01*
X0579868Y1007784D01*
X0581967D01*
X0582491Y1008309D01*
Y1009358D01*
X0581967Y1009883D01*
X0582491Y1012507D02*
X0579343D01*
X0580917Y1010933D01*
Y1013032D01*
X0652668Y0858283D02*
X0652143Y0857758D01*
Y0856709D01*
X0652668Y0856184D01*
X0654767D01*
X0655292Y0856709D01*
Y0857758D01*
X0654767Y0858283D01*
X0652668Y0859332D02*
X0652143Y0859857D01*
Y0860907D01*
X0652668Y0861432D01*
X0653192D01*
X0653717Y0860907D01*
Y0860382D01*
Y0860907D01*
X0654242Y0861432D01*
X0654767D01*
X0655292Y0860907D01*
Y0859857D01*
X0654767Y0859332D01*
X0649692Y0891057D02*
X0649168Y0891582D01*
X0648118D01*
X0647593Y0891057D01*
Y0888958D01*
X0648118Y0888433D01*
X0649168D01*
X0649692Y0888958D01*
X0652841Y0888433D02*
X0650742D01*
X0652841Y0890532D01*
Y0891057D01*
X0652316Y0891582D01*
X0651267D01*
X0650742Y0891057D01*
X0524968Y0989508D02*
X0524443Y0988983D01*
Y0987934D01*
X0524968Y0987409D01*
X0527067D01*
X0527591Y0987934D01*
Y0988983D01*
X0527067Y0989508D01*
X0527591Y0990557D02*
Y0991607D01*
Y0991082D01*
X0524443D01*
X0524968Y0990557D01*
X0390893Y1012482D02*
Y1009334D01*
Y1010908D01*
X0392992D01*
Y1012482D01*
Y1009334D01*
X0395616D02*
Y1012482D01*
X0394042Y1010908D01*
X0396141D01*
X0887030Y1009547D02*
Y1006398D01*
Y1007972D01*
X0889129D01*
Y1009547D01*
Y1006398D01*
X0890179Y1009022D02*
X0890704Y1009547D01*
X0891753D01*
X0892278Y1009022D01*
Y1008497D01*
X0891753Y1007972D01*
X0891228D01*
X0891753D01*
X0892278Y1007448D01*
Y1006923D01*
X0891753Y1006398D01*
X0890704D01*
X0890179Y1006923D01*
X0889393Y0755216D02*
Y0752067D01*
Y0753642D01*
X0891492D01*
Y0755216D01*
Y0752067D01*
X0894640D02*
X0892541D01*
X0894640Y0754166D01*
Y0754691D01*
X0894116Y0755216D01*
X0893066D01*
X0892541Y0754691D01*
X0391518Y0755682D02*
Y0752533D01*
Y0754108D01*
X0393617D01*
Y0755682D01*
Y0752533D01*
X0394667D02*
X0395716D01*
X0395192D01*
Y0755682D01*
X0394667Y0755157D01*
D13*
X0817410Y0774901D02*
X0852253D01*
Y0726279D02*
Y0774901D01*
X0817410Y0726279D02*
X0852253D01*
X0817410D02*
Y0774901D01*
X0778040D02*
X0812883D01*
Y0726279D02*
Y0774901D01*
X0778040Y0726279D02*
X0812883D01*
X0778040D02*
Y0774901D01*
X0738670D02*
X0773512D01*
Y0726279D02*
Y0774901D01*
X0738670Y0726279D02*
X0773512D01*
X0738670D02*
Y0774901D01*
X0699300D02*
X0734142D01*
Y0726279D02*
Y0774901D01*
X0699300Y0726279D02*
X0734142D01*
X0699300D02*
Y0774901D01*
D14*
X0780227Y0897037D02*
D03*
D15*
X0822341Y0972898D02*
D03*
Y0992918D02*
D03*
X0772741Y0973298D02*
D03*
Y0993318D02*
D03*
X0453993Y0976618D02*
D03*
Y0956598D02*
D03*
M02*
