G04*
G04 #@! TF.GenerationSoftware,Altium Limited,Altium Designer,22.8.2 (66)*
G04*
G04 Layer_Physical_Order=2*
G04 Layer_Color=16711680*
%FSAX25Y25*%
%MOIN*%
G70*
G04*
G04 #@! TF.SameCoordinates,CD0932C5-B174-4F7F-AF8C-C675B02BC22C*
G04*
G04*
G04 #@! TF.FilePolarity,Positive*
G04*
G01*
G75*
%ADD86C,0.01000*%
%ADD87C,0.01575*%
%ADD89C,0.05906*%
%ADD91R,0.07972X0.07972*%
%ADD92C,0.07972*%
%ADD93R,0.06201X0.06201*%
%ADD94C,0.06201*%
%ADD95O,0.04134X0.08268*%
%ADD96O,0.03543X0.07087*%
%ADD97C,0.02559*%
%ADD98O,0.19685X0.09843*%
%ADD99O,0.17717X0.08858*%
%ADD100O,0.08858X0.17717*%
%ADD101C,0.06496*%
%ADD102C,0.19685*%
%ADD103C,0.02362*%
%ADD104C,0.03150*%
G36*
X0601450Y1012894D02*
X0601511Y1012586D01*
X0601685Y1012326D01*
X0601945Y1012152D01*
X0602253Y1012091D01*
X0680993D01*
X0681300Y1012152D01*
X0681560Y1012326D01*
X0681734Y1012586D01*
X0681796Y1012894D01*
Y1038666D01*
X0877843Y1038666D01*
X0879081D01*
X0881535Y1038342D01*
X0883926Y1037702D01*
X0886213Y1036755D01*
X0888356Y1035517D01*
X0890320Y1034010D01*
X0892070Y1032260D01*
X0893577Y1030296D01*
X0894814Y1028153D01*
X0895762Y1025866D01*
X0896402Y1023475D01*
X0896725Y1021021D01*
X0896725Y1019783D01*
X0896725Y0744193D01*
Y0742955D01*
X0896402Y0740501D01*
X0895762Y0738110D01*
X0894814Y0735823D01*
X0893577Y0733680D01*
X0892070Y0731716D01*
X0890320Y0729966D01*
X0888356Y0728459D01*
X0886213Y0727221D01*
X0883926Y0726274D01*
X0881535Y0725634D01*
X0879081Y0725311D01*
X0877843D01*
X0405402Y0725311D01*
X0404165D01*
X0401711Y0725634D01*
X0399320Y0726274D01*
X0397033Y0727221D01*
X0394889Y0728459D01*
X0392926Y0729966D01*
X0391175Y0731716D01*
X0389668Y0733680D01*
X0388431Y0735823D01*
X0387484Y0738110D01*
X0386843Y0740501D01*
X0386520Y0742955D01*
X0386520Y0744193D01*
X0386520Y1019783D01*
Y1021021D01*
X0386843Y1023475D01*
X0387484Y1025866D01*
X0388431Y1028153D01*
X0389668Y1030296D01*
X0391175Y1032260D01*
X0392926Y1034010D01*
X0394889Y1035517D01*
X0397033Y1036755D01*
X0399320Y1037702D01*
X0401711Y1038342D01*
X0404165Y1038666D01*
X0405402Y1038666D01*
X0601450Y1038666D01*
Y1012894D01*
D02*
G37*
%LPC*%
G36*
X0826974Y1026134D02*
X0825856D01*
X0824775Y1025845D01*
X0823806Y1025286D01*
X0823015Y1024495D01*
X0822456Y1023526D01*
X0822167Y1022446D01*
Y1021327D01*
X0822456Y1020247D01*
X0823015Y1019278D01*
X0823806Y1018487D01*
X0824775Y1017928D01*
X0825856Y1017638D01*
X0826974D01*
X0828055Y1017928D01*
X0829023Y1018487D01*
X0829814Y1019278D01*
X0830373Y1020247D01*
X0830663Y1021327D01*
Y1022446D01*
X0830373Y1023526D01*
X0829814Y1024495D01*
X0829023Y1025286D01*
X0828055Y1025845D01*
X0826974Y1026134D01*
D02*
G37*
G36*
X0779730D02*
X0778611D01*
X0777531Y1025845D01*
X0776562Y1025286D01*
X0775771Y1024495D01*
X0775212Y1023526D01*
X0774923Y1022446D01*
Y1021327D01*
X0775212Y1020247D01*
X0775771Y1019278D01*
X0776562Y1018487D01*
X0777531Y1017928D01*
X0778611Y1017638D01*
X0779730D01*
X0780810Y1017928D01*
X0781779Y1018487D01*
X0782570Y1019278D01*
X0783129Y1020247D01*
X0783419Y1021327D01*
Y1022446D01*
X0783129Y1023526D01*
X0782570Y1024495D01*
X0781779Y1025286D01*
X0780810Y1025845D01*
X0779730Y1026134D01*
D02*
G37*
G36*
X0507664Y1018779D02*
X0506998D01*
X0506384Y1018525D01*
X0505913Y1018054D01*
X0505658Y1017439D01*
Y1016773D01*
X0505913Y1016158D01*
X0506384Y1015688D01*
X0506998Y1015433D01*
X0507664D01*
X0508279Y1015688D01*
X0508750Y1016158D01*
X0509005Y1016773D01*
Y1017439D01*
X0508750Y1018054D01*
X0508279Y1018525D01*
X0507664Y1018779D01*
D02*
G37*
G36*
X0484908D02*
X0484243D01*
X0483628Y1018525D01*
X0483157Y1018054D01*
X0482902Y1017439D01*
Y1016773D01*
X0483157Y1016158D01*
X0483628Y1015688D01*
X0484243Y1015433D01*
X0484908D01*
X0485523Y1015688D01*
X0485994Y1016158D01*
X0486249Y1016773D01*
Y1017439D01*
X0485994Y1018054D01*
X0485523Y1018525D01*
X0484908Y1018779D01*
D02*
G37*
G36*
X0882633Y1034563D02*
X0880927D01*
X0879241Y1034296D01*
X0877618Y1033768D01*
X0876097Y1032994D01*
X0874717Y1031991D01*
X0873510Y1030784D01*
X0872507Y1029403D01*
X0871732Y1027882D01*
X0871205Y1026259D01*
X0870938Y1024574D01*
Y1022867D01*
X0871205Y1021181D01*
X0871732Y1019558D01*
X0872507Y1018038D01*
X0873510Y1016657D01*
X0874717Y1015450D01*
X0876097Y1014447D01*
X0877618Y1013672D01*
X0879241Y1013145D01*
X0880927Y1012878D01*
X0882633D01*
X0884319Y1013145D01*
X0885942Y1013672D01*
X0887463Y1014447D01*
X0888844Y1015450D01*
X0890050Y1016657D01*
X0891053Y1018038D01*
X0891828Y1019558D01*
X0892356Y1021181D01*
X0892623Y1022867D01*
Y1024574D01*
X0892356Y1026259D01*
X0891828Y1027882D01*
X0891053Y1029403D01*
X0890050Y1030784D01*
X0888844Y1031991D01*
X0887463Y1032994D01*
X0885942Y1033768D01*
X0884319Y1034296D01*
X0882633Y1034563D01*
D02*
G37*
G36*
X0402318D02*
X0400612D01*
X0398926Y1034296D01*
X0397303Y1033768D01*
X0395782Y1032994D01*
X0394402Y1031991D01*
X0393195Y1030784D01*
X0392192Y1029403D01*
X0391417Y1027882D01*
X0390890Y1026259D01*
X0390623Y1024574D01*
Y1022867D01*
X0390890Y1021181D01*
X0391417Y1019558D01*
X0392192Y1018038D01*
X0393195Y1016657D01*
X0394402Y1015450D01*
X0395782Y1014447D01*
X0397303Y1013672D01*
X0398926Y1013145D01*
X0400612Y1012878D01*
X0402318D01*
X0404004Y1013145D01*
X0405627Y1013672D01*
X0407148Y1014447D01*
X0408529Y1015450D01*
X0409735Y1016657D01*
X0410739Y1018038D01*
X0411513Y1019558D01*
X0412041Y1021181D01*
X0412308Y1022867D01*
Y1024574D01*
X0412041Y1026259D01*
X0411513Y1027882D01*
X0410739Y1029403D01*
X0409735Y1030784D01*
X0408529Y1031991D01*
X0407148Y1032994D01*
X0405627Y1033768D01*
X0404004Y1034296D01*
X0402318Y1034563D01*
D02*
G37*
G36*
X0587051Y1011789D02*
X0586183D01*
X0585382Y1011457D01*
X0585355Y1011430D01*
X0575640D01*
X0574942Y1011292D01*
X0574351Y1010896D01*
X0574351Y1010896D01*
X0573428Y1009974D01*
X0573034Y1009383D01*
X0572895Y1008685D01*
X0572895Y1008685D01*
Y0985670D01*
X0572868Y0985643D01*
X0572536Y0984842D01*
Y0983974D01*
X0572868Y0983172D01*
X0572895Y0983146D01*
Y0966232D01*
X0572395Y0966133D01*
X0572266Y0966443D01*
X0571847Y0966863D01*
Y0997808D01*
X0571730Y0998393D01*
X0571399Y0998889D01*
X0569999Y1000289D01*
X0569502Y1000621D01*
X0568917Y1000737D01*
X0555097D01*
X0555070Y1000739D01*
X0554753Y1001057D01*
X0553951Y1001389D01*
X0553083D01*
X0552282Y1001057D01*
X0551668Y1000443D01*
X0551336Y0999642D01*
Y0998774D01*
X0551668Y0997972D01*
X0552282Y0997359D01*
X0553083Y0997027D01*
X0553951D01*
X0554753Y0997359D01*
X0555070Y0997676D01*
X0555097Y0997678D01*
X0568284D01*
X0568788Y0997174D01*
Y0966713D01*
X0568785Y0966672D01*
X0568783Y0966658D01*
X0568568Y0966443D01*
X0568236Y0965642D01*
Y0964774D01*
X0568568Y0963972D01*
X0569182Y0963359D01*
X0569983Y0963027D01*
X0570851D01*
X0571653Y0963359D01*
X0572266Y0963972D01*
X0572395Y0964283D01*
X0572895Y0964183D01*
Y0963470D01*
X0572868Y0963443D01*
X0572536Y0962642D01*
Y0961774D01*
X0572868Y0960972D01*
X0572895Y0960946D01*
Y0951680D01*
X0572804Y0951613D01*
X0572395Y0951493D01*
X0540147Y0983741D01*
Y0987802D01*
X0540149Y0987844D01*
X0540151Y0987857D01*
X0540366Y0988072D01*
X0540698Y0988874D01*
Y0989742D01*
X0540366Y0990543D01*
X0539753Y0991157D01*
X0538951Y0991489D01*
X0538083D01*
X0537282Y0991157D01*
X0536668Y0990543D01*
X0536336Y0989742D01*
Y0988874D01*
X0536668Y0988072D01*
X0537088Y0987653D01*
Y0983108D01*
X0537204Y0982522D01*
X0537536Y0982026D01*
X0569888Y0949674D01*
Y0940837D01*
X0569857Y0940819D01*
X0569388Y0940708D01*
X0568836Y0941427D01*
X0568836Y0941427D01*
X0532204Y0978059D01*
Y0985608D01*
X0532068Y0986640D01*
X0531670Y0987601D01*
X0531036Y0988427D01*
X0530211Y0989060D01*
X0529249Y0989459D01*
X0528217Y0989595D01*
X0527185Y0989459D01*
X0526224Y0989060D01*
X0525398Y0988427D01*
X0524764Y0987601D01*
X0524366Y0986640D01*
X0524230Y0985608D01*
Y0976408D01*
X0524230Y0976408D01*
X0524366Y0975376D01*
X0524764Y0974414D01*
X0525398Y0973589D01*
X0562030Y0936956D01*
Y0884908D01*
X0562030Y0884908D01*
X0562166Y0883876D01*
X0562565Y0882914D01*
X0563198Y0882089D01*
X0566498Y0878789D01*
X0567324Y0878155D01*
X0568285Y0877757D01*
X0569317Y0877621D01*
X0570349Y0877757D01*
X0571311Y0878155D01*
X0572136Y0878789D01*
X0572770Y0879614D01*
X0573168Y0880576D01*
X0573304Y0881608D01*
X0573168Y0882640D01*
X0572770Y0883601D01*
X0572136Y0884427D01*
X0570004Y0886559D01*
Y0932051D01*
X0570504Y0932258D01*
X0575336Y0927426D01*
X0575832Y0927095D01*
X0576417Y0926978D01*
X0618438D01*
X0618464Y0926976D01*
X0618782Y0926659D01*
X0619583Y0926327D01*
X0620081D01*
X0620495Y0925845D01*
X0620488Y0925808D01*
Y0922487D01*
X0620486Y0922461D01*
X0620168Y0922143D01*
X0619836Y0921342D01*
Y0920474D01*
X0620168Y0919672D01*
X0620782Y0919059D01*
X0621583Y0918727D01*
X0622451D01*
X0623253Y0919059D01*
X0623866Y0919672D01*
X0624198Y0920474D01*
Y0921342D01*
X0623866Y0922143D01*
X0623549Y0922461D01*
X0623547Y0922487D01*
Y0925174D01*
X0625651Y0927278D01*
X0632976D01*
X0633075Y0926778D01*
X0632782Y0926657D01*
X0632168Y0926043D01*
X0631836Y0925242D01*
Y0924374D01*
X0632168Y0923572D01*
X0632782Y0922959D01*
X0633583Y0922627D01*
X0634451D01*
X0635253Y0922959D01*
X0635866Y0923572D01*
X0636076Y0924078D01*
X0636984D01*
X0637688Y0923374D01*
Y0911387D01*
X0637686Y0911361D01*
X0637368Y0911043D01*
X0637036Y0910242D01*
Y0909374D01*
X0637368Y0908572D01*
X0637982Y0907959D01*
X0638783Y0907627D01*
X0639651D01*
X0640453Y0907959D01*
X0641066Y0908572D01*
X0641398Y0909374D01*
Y0910242D01*
X0641066Y0911043D01*
X0640749Y0911361D01*
X0640747Y0911387D01*
Y0924008D01*
X0640630Y0924593D01*
X0640299Y0925089D01*
X0638699Y0926689D01*
X0638565Y0926778D01*
X0638717Y0927278D01*
X0647162D01*
X0647482Y0926959D01*
X0648283Y0926627D01*
X0649151D01*
X0649953Y0926959D01*
X0650033Y0927039D01*
X0650495Y0926847D01*
Y0894312D01*
X0649995Y0894213D01*
X0649966Y0894282D01*
X0649353Y0894895D01*
X0648551Y0895227D01*
X0647683D01*
X0646882Y0894895D01*
X0646268Y0894282D01*
X0646233Y0894197D01*
X0645860Y0893948D01*
X0633221D01*
X0633141Y0894353D01*
X0632612Y0895144D01*
X0631820Y0895673D01*
X0630886Y0895859D01*
X0629952Y0895673D01*
X0629262Y0895212D01*
X0629037Y0895549D01*
X0628245Y0896078D01*
X0627311Y0896264D01*
X0626377Y0896078D01*
X0625585Y0895549D01*
X0625056Y0894757D01*
X0624895Y0893948D01*
X0592461D01*
X0585120Y0901289D01*
X0584624Y0901621D01*
X0584038Y0901737D01*
X0576174D01*
X0575801Y0901986D01*
X0575766Y0902071D01*
X0575153Y0902685D01*
X0574351Y0903017D01*
X0573483D01*
X0572682Y0902685D01*
X0572068Y0902071D01*
X0571736Y0901270D01*
Y0900402D01*
X0572068Y0899600D01*
X0572211Y0899458D01*
X0572068Y0899315D01*
X0571736Y0898514D01*
Y0897646D01*
X0572068Y0896844D01*
X0572682Y0896231D01*
X0573483Y0895899D01*
X0574351D01*
X0575153Y0896231D01*
X0575766Y0896844D01*
X0575801Y0896929D01*
X0576174Y0897178D01*
X0582784D01*
X0590125Y0889837D01*
X0590621Y0889505D01*
X0591207Y0889389D01*
X0645860D01*
X0646236Y0889138D01*
X0646409Y0889104D01*
X0646429Y0889055D01*
X0647043Y0888441D01*
X0647844Y0888109D01*
X0648712D01*
X0649513Y0888441D01*
X0649995Y0888923D01*
X0650495Y0888735D01*
Y0881071D01*
X0650495Y0881070D01*
X0650633Y0880373D01*
X0651028Y0879782D01*
X0651186Y0879625D01*
Y0879374D01*
X0651449Y0878737D01*
X0651199Y0878237D01*
X0644069D01*
X0644066Y0878243D01*
X0643453Y0878857D01*
X0642651Y0879189D01*
X0641783D01*
X0640982Y0878857D01*
X0640368Y0878243D01*
X0640036Y0877442D01*
Y0876574D01*
X0640187Y0876210D01*
X0639909Y0875795D01*
X0547945D01*
X0547413Y0875823D01*
X0546745Y0875941D01*
X0546191Y0876125D01*
X0545741Y0876368D01*
X0545376Y0876666D01*
X0545077Y0877031D01*
X0544835Y0877481D01*
X0544650Y0878035D01*
X0544532Y0878703D01*
X0544504Y0879236D01*
Y0928208D01*
X0544504Y0928208D01*
X0544368Y0929240D01*
X0543970Y0930201D01*
X0543336Y0931027D01*
X0543336Y0931027D01*
X0493936Y0980427D01*
X0493111Y0981061D01*
X0492149Y0981459D01*
X0491117Y0981595D01*
X0491117Y0981595D01*
X0469217D01*
X0468185Y0981459D01*
X0467224Y0981061D01*
X0466398Y0980427D01*
X0465765Y0979601D01*
X0465366Y0978640D01*
X0465230Y0977608D01*
X0465366Y0976576D01*
X0465765Y0975614D01*
X0466398Y0974789D01*
X0467224Y0974155D01*
X0468185Y0973757D01*
X0469217Y0973621D01*
X0489466D01*
X0536530Y0926556D01*
Y0877369D01*
X0536514Y0876899D01*
X0536422Y0876073D01*
X0536270Y0875276D01*
X0536058Y0874509D01*
X0535786Y0873767D01*
X0535454Y0873051D01*
X0535061Y0872358D01*
X0534606Y0871688D01*
X0534086Y0871039D01*
X0533766Y0870695D01*
X0528798Y0865727D01*
X0528164Y0864901D01*
X0527766Y0863940D01*
X0527630Y0862908D01*
X0527630Y0862908D01*
Y0853057D01*
X0527766Y0852026D01*
X0528164Y0851064D01*
X0528798Y0850238D01*
X0529624Y0849605D01*
X0530585Y0849206D01*
X0531617Y0849071D01*
X0532649Y0849206D01*
X0533611Y0849605D01*
X0534436Y0850238D01*
X0535070Y0851064D01*
X0535468Y0852026D01*
X0535604Y0853057D01*
Y0861256D01*
X0539404Y0865056D01*
X0539748Y0865377D01*
X0540397Y0865896D01*
X0541068Y0866352D01*
X0541760Y0866745D01*
X0542477Y0867077D01*
X0543218Y0867349D01*
X0543986Y0867560D01*
X0544782Y0867712D01*
X0545608Y0867804D01*
X0546078Y0867821D01*
X0742217D01*
X0742217Y0867821D01*
X0743249Y0867957D01*
X0744211Y0868355D01*
X0745036Y0868989D01*
X0754336Y0878289D01*
X0754336Y0878289D01*
X0754970Y0879114D01*
X0755368Y0880076D01*
X0755504Y0881108D01*
X0755504Y0881108D01*
Y0969356D01*
X0766536Y0980389D01*
X0767170Y0981214D01*
X0767568Y0982176D01*
X0767704Y0983208D01*
X0767568Y0984240D01*
X0767170Y0985201D01*
X0766536Y0986027D01*
X0765711Y0986660D01*
X0764749Y0987059D01*
X0763717Y0987195D01*
X0762685Y0987059D01*
X0761724Y0986660D01*
X0760898Y0986027D01*
X0748698Y0973827D01*
X0748065Y0973001D01*
X0747666Y0972040D01*
X0747530Y0971008D01*
X0747530Y0971008D01*
Y0882759D01*
X0740566Y0875795D01*
X0659220D01*
X0659029Y0876257D01*
X0660582Y0877809D01*
X0660602Y0877827D01*
X0661051D01*
X0661853Y0878159D01*
X0662466Y0878772D01*
X0662798Y0879574D01*
Y0880442D01*
X0662466Y0881243D01*
X0661853Y0881857D01*
X0661051Y0882189D01*
X0660183D01*
X0659382Y0881857D01*
X0658768Y0881243D01*
X0658436Y0880442D01*
Y0879992D01*
X0658419Y0879972D01*
X0656684Y0878237D01*
X0655534D01*
X0655284Y0878737D01*
X0655548Y0879374D01*
Y0880242D01*
X0655216Y0881043D01*
X0654602Y0881657D01*
X0654140Y0881849D01*
Y0931108D01*
X0654140Y0931108D01*
X0654001Y0931805D01*
X0653606Y0932396D01*
X0653606Y0932396D01*
X0651006Y0934996D01*
X0650415Y0935392D01*
X0649717Y0935530D01*
X0649717Y0935530D01*
X0579072D01*
X0576540Y0938063D01*
Y0960946D01*
X0576566Y0960972D01*
X0576898Y0961774D01*
Y0962642D01*
X0576566Y0963443D01*
X0576540Y0963470D01*
Y0983146D01*
X0576566Y0983172D01*
X0576898Y0983974D01*
Y0984842D01*
X0576566Y0985643D01*
X0576540Y0985670D01*
Y1007785D01*
X0585355D01*
X0585382Y1007759D01*
X0586183Y1007427D01*
X0587051D01*
X0587853Y1007759D01*
X0588466Y1008372D01*
X0588798Y1009174D01*
Y1010042D01*
X0588466Y1010843D01*
X0587853Y1011457D01*
X0587051Y1011789D01*
D02*
G37*
G36*
X0590717Y1023037D02*
X0528017D01*
X0527432Y1022921D01*
X0526936Y1022589D01*
X0526036Y1021689D01*
X0525704Y1021193D01*
X0525588Y1020608D01*
Y1006437D01*
X0515047D01*
X0515021Y1006439D01*
X0514703Y1006757D01*
X0513901Y1007089D01*
X0513034D01*
X0512232Y1006757D01*
X0511914Y1006439D01*
X0511888Y1006437D01*
X0504373D01*
Y1016978D01*
X0504375Y1017004D01*
X0504692Y1017322D01*
X0505024Y1018124D01*
Y1018991D01*
X0504692Y1019793D01*
X0504079Y1020406D01*
X0503277Y1020739D01*
X0502409D01*
X0501608Y1020406D01*
X0500994Y1019793D01*
X0500662Y1018991D01*
Y1018124D01*
X0500994Y1017322D01*
X0501312Y1017004D01*
X0501314Y1016978D01*
Y1005582D01*
X0501430Y1004996D01*
X0501762Y1004500D01*
X0502436Y1003826D01*
X0502932Y1003495D01*
X0503517Y1003378D01*
X0511888D01*
X0511914Y1003376D01*
X0512232Y1003059D01*
X0513034Y1002727D01*
X0513901D01*
X0514703Y1003059D01*
X0515021Y1003376D01*
X0515047Y1003378D01*
X0526317D01*
X0526902Y1003495D01*
X0527399Y1003826D01*
X0528199Y1004626D01*
X0528530Y1005122D01*
X0528647Y1005708D01*
Y1019974D01*
X0528651Y1019978D01*
X0590084D01*
X0590088Y1019974D01*
Y0940587D01*
X0590086Y0940561D01*
X0589768Y0940243D01*
X0589436Y0939442D01*
Y0938574D01*
X0589768Y0937772D01*
X0590382Y0937159D01*
X0591183Y0936827D01*
X0592051D01*
X0592853Y0937159D01*
X0593466Y0937772D01*
X0593798Y0938574D01*
Y0939442D01*
X0593466Y0940243D01*
X0593149Y0940561D01*
X0593147Y0940587D01*
Y1020608D01*
X0593030Y1021193D01*
X0592699Y1021689D01*
X0591799Y1022589D01*
X0591302Y1022921D01*
X0590717Y1023037D01*
D02*
G37*
G36*
X0499723Y0993997D02*
X0498855D01*
X0498054Y0993665D01*
X0497899Y0993510D01*
X0497753Y0993657D01*
X0496951Y0993989D01*
X0496083D01*
X0495282Y0993657D01*
X0494668Y0993043D01*
X0494336Y0992242D01*
Y0991374D01*
X0494668Y0990572D01*
X0495282Y0989959D01*
X0495389Y0989914D01*
X0495630Y0989554D01*
Y0988166D01*
X0495746Y0987581D01*
X0496077Y0987085D01*
X0547888Y0935274D01*
Y0903308D01*
X0548004Y0902722D01*
X0548336Y0902226D01*
X0552936Y0897626D01*
X0553432Y0897295D01*
X0554017Y0897178D01*
X0555860D01*
X0556233Y0896929D01*
X0556268Y0896844D01*
X0556882Y0896231D01*
X0557683Y0895899D01*
X0558551D01*
X0559353Y0896231D01*
X0559966Y0896844D01*
X0560298Y0897646D01*
Y0898514D01*
X0559966Y0899315D01*
X0559824Y0899458D01*
X0559966Y0899600D01*
X0560298Y0900402D01*
Y0901270D01*
X0559966Y0902071D01*
X0559353Y0902685D01*
X0558551Y0903017D01*
X0557683D01*
X0556882Y0902685D01*
X0556268Y0902071D01*
X0556233Y0901986D01*
X0555860Y0901737D01*
X0555272D01*
X0552447Y0904563D01*
Y0936529D01*
X0552330Y0937114D01*
X0551999Y0937611D01*
X0500188Y0989421D01*
Y0989563D01*
X0500432Y0989928D01*
X0500525Y0989967D01*
X0501138Y0990580D01*
X0501470Y0991382D01*
Y0992249D01*
X0501138Y0993051D01*
X0500525Y0993665D01*
X0499723Y0993997D01*
D02*
G37*
G36*
X0695751Y0996289D02*
X0694883D01*
X0694082Y0995957D01*
X0693468Y0995343D01*
X0693136Y0994542D01*
Y0994092D01*
X0693119Y0994072D01*
X0687341Y0988294D01*
X0686917Y0988577D01*
X0686998Y0988774D01*
Y0989642D01*
X0686666Y0990443D01*
X0686053Y0991057D01*
X0685251Y0991389D01*
X0684383D01*
X0683582Y0991057D01*
X0682968Y0990443D01*
X0682636Y0989642D01*
Y0989192D01*
X0682619Y0989172D01*
X0674636Y0981189D01*
X0674304Y0980693D01*
X0674188Y0980108D01*
Y0929341D01*
X0672784Y0927937D01*
X0666917D01*
X0666332Y0927821D01*
X0665836Y0927489D01*
X0663636Y0925289D01*
X0663304Y0924793D01*
X0663188Y0924208D01*
Y0923613D01*
X0663185Y0923572D01*
X0663183Y0923559D01*
X0662968Y0923343D01*
X0662636Y0922542D01*
Y0921674D01*
X0662968Y0920872D01*
X0663582Y0920259D01*
X0664383Y0919927D01*
X0665251D01*
X0666053Y0920259D01*
X0666666Y0920872D01*
X0666998Y0921674D01*
Y0922542D01*
X0666666Y0923343D01*
X0666341Y0923669D01*
X0667551Y0924878D01*
X0673417D01*
X0674002Y0924995D01*
X0674499Y0925326D01*
X0676799Y0927626D01*
X0677130Y0928123D01*
X0677188Y0928412D01*
X0677688Y0928363D01*
Y0927141D01*
X0674184Y0923637D01*
X0672497D01*
X0672470Y0923639D01*
X0672153Y0923957D01*
X0671351Y0924289D01*
X0670483D01*
X0669682Y0923957D01*
X0669068Y0923343D01*
X0668736Y0922542D01*
Y0921674D01*
X0669068Y0920872D01*
X0669682Y0920259D01*
X0670483Y0919927D01*
X0671351D01*
X0672153Y0920259D01*
X0672470Y0920576D01*
X0672497Y0920578D01*
X0674817D01*
X0675402Y0920695D01*
X0675899Y0921026D01*
X0680299Y0925426D01*
X0680630Y0925922D01*
X0680747Y0926508D01*
Y0977374D01*
X0695282Y0991909D01*
X0695302Y0991927D01*
X0695751D01*
X0696553Y0992259D01*
X0697166Y0992872D01*
X0697498Y0993674D01*
Y0994542D01*
X0697166Y0995343D01*
X0696553Y0995957D01*
X0695751Y0996289D01*
D02*
G37*
G36*
X0444772Y0993253D02*
X0434930D01*
X0433769Y0993139D01*
X0432653Y0992800D01*
X0431624Y0992250D01*
X0430723Y0991510D01*
X0429983Y0990609D01*
X0429433Y0989580D01*
X0429094Y0988464D01*
X0428980Y0987303D01*
X0429094Y0986142D01*
X0429433Y0985026D01*
X0429983Y0983998D01*
X0430723Y0983096D01*
X0431624Y0982356D01*
X0432653Y0981806D01*
X0433769Y0981468D01*
X0434930Y0981353D01*
X0444772D01*
X0445933Y0981468D01*
X0447049Y0981806D01*
X0448078Y0982356D01*
X0448980Y0983096D01*
X0449719Y0983998D01*
X0450269Y0985026D01*
X0450608Y0986142D01*
X0450722Y0987303D01*
X0450608Y0988464D01*
X0450269Y0989580D01*
X0449719Y0990609D01*
X0448980Y0991510D01*
X0448078Y0992250D01*
X0447049Y0992800D01*
X0445933Y0993139D01*
X0444772Y0993253D01*
D02*
G37*
G36*
X0813317Y0986795D02*
X0812285Y0986659D01*
X0811324Y0986261D01*
X0810498Y0985627D01*
X0806598Y0981727D01*
X0805964Y0980901D01*
X0805566Y0979940D01*
X0805430Y0978908D01*
X0805430Y0978908D01*
Y0960959D01*
X0801866Y0957395D01*
X0776617D01*
X0776617Y0957395D01*
X0775585Y0957259D01*
X0774624Y0956861D01*
X0773798Y0956227D01*
X0767098Y0949527D01*
X0766465Y0948701D01*
X0766066Y0947740D01*
X0765930Y0946708D01*
X0765930Y0946708D01*
Y0869959D01*
X0761266Y0865295D01*
X0574277D01*
X0574276Y0865295D01*
X0573245Y0865159D01*
X0572283Y0864760D01*
X0571457Y0864127D01*
X0571457Y0864127D01*
X0567998Y0860668D01*
X0567365Y0859842D01*
X0566966Y0858880D01*
X0566830Y0857848D01*
X0566830Y0857848D01*
Y0846708D01*
X0566966Y0845676D01*
X0567365Y0844714D01*
X0567998Y0843889D01*
X0568824Y0843255D01*
X0569785Y0842857D01*
X0570817Y0842721D01*
X0571849Y0842857D01*
X0572811Y0843255D01*
X0573636Y0843889D01*
X0574270Y0844714D01*
X0574668Y0845676D01*
X0574804Y0846708D01*
Y0856197D01*
X0575928Y0857321D01*
X0762917D01*
X0762917Y0857321D01*
X0763949Y0857457D01*
X0764911Y0857855D01*
X0765736Y0858489D01*
X0772736Y0865489D01*
X0772736Y0865489D01*
X0773370Y0866314D01*
X0773768Y0867276D01*
X0773904Y0868308D01*
Y0945056D01*
X0778269Y0949421D01*
X0803517D01*
X0803517Y0949421D01*
X0804549Y0949557D01*
X0805511Y0949955D01*
X0806336Y0950589D01*
X0812236Y0956489D01*
X0812870Y0957314D01*
X0813268Y0958276D01*
X0813404Y0959308D01*
X0813404Y0959308D01*
Y0977256D01*
X0816136Y0979989D01*
X0816770Y0980814D01*
X0817168Y0981776D01*
X0817304Y0982808D01*
X0817168Y0983840D01*
X0816770Y0984801D01*
X0816136Y0985627D01*
X0815311Y0986261D01*
X0814349Y0986659D01*
X0813317Y0986795D01*
D02*
G37*
G36*
X0891786Y0956089D02*
X0883585D01*
Y0947888D01*
X0891786D01*
Y0956089D01*
D02*
G37*
G36*
X0731251Y1004789D02*
X0730383D01*
X0729582Y1004457D01*
X0728968Y1003843D01*
X0728636Y1003042D01*
Y1002174D01*
X0728968Y1001372D01*
X0729286Y1001054D01*
X0729288Y1001028D01*
Y0947641D01*
X0727384Y0945737D01*
X0686297D01*
X0686270Y0945739D01*
X0685953Y0946057D01*
X0685151Y0946389D01*
X0684283D01*
X0683482Y0946057D01*
X0682868Y0945443D01*
X0682536Y0944642D01*
Y0943774D01*
X0682868Y0942972D01*
X0683482Y0942359D01*
X0684283Y0942027D01*
X0685151D01*
X0685953Y0942359D01*
X0686270Y0942676D01*
X0686297Y0942678D01*
X0728017D01*
X0728602Y0942795D01*
X0729099Y0943126D01*
X0731899Y0945926D01*
X0732230Y0946422D01*
X0732347Y0947008D01*
Y1001028D01*
X0732348Y1001054D01*
X0732666Y1001372D01*
X0732998Y1002174D01*
Y1003042D01*
X0732666Y1003843D01*
X0732053Y1004457D01*
X0731251Y1004789D01*
D02*
G37*
G36*
X0399660Y0956089D02*
X0391459D01*
Y0947888D01*
X0399660D01*
Y0950166D01*
X0417482D01*
X0420323Y0947324D01*
Y0946652D01*
X0414429Y0940757D01*
X0414034Y0940166D01*
X0413895Y0939468D01*
X0413895Y0939468D01*
Y0776708D01*
X0413895Y0776708D01*
X0414034Y0776010D01*
X0414429Y0775419D01*
X0417729Y0772119D01*
X0417729Y0772119D01*
X0418320Y0771724D01*
X0419017Y0771585D01*
X0419017Y0771585D01*
X0429055D01*
X0429082Y0771559D01*
X0429883Y0771227D01*
X0430751D01*
X0431553Y0771559D01*
X0431579Y0771585D01*
X0483855D01*
X0483882Y0771559D01*
X0484683Y0771227D01*
X0485551D01*
X0486353Y0771559D01*
X0486379Y0771585D01*
X0571455D01*
X0571482Y0771559D01*
X0572283Y0771227D01*
X0573151D01*
X0573953Y0771559D01*
X0573979Y0771585D01*
X0614117D01*
X0614117Y0771585D01*
X0614815Y0771724D01*
X0615406Y0772119D01*
X0616657Y0773371D01*
X0617353Y0773659D01*
X0617966Y0774272D01*
X0618266Y0774995D01*
X0618806Y0775535D01*
X0618806Y0775535D01*
X0619201Y0776127D01*
X0619340Y0776824D01*
X0619340Y0776824D01*
Y0799185D01*
X0623203D01*
X0623410Y0798685D01*
X0623168Y0798443D01*
X0622836Y0797642D01*
Y0796774D01*
X0623168Y0795972D01*
X0623486Y0795654D01*
X0623488Y0795628D01*
Y0783687D01*
X0623486Y0783661D01*
X0623168Y0783343D01*
X0622836Y0782542D01*
Y0781674D01*
X0623168Y0780872D01*
X0623782Y0780259D01*
X0624583Y0779927D01*
X0625451D01*
X0626253Y0780259D01*
X0626866Y0780872D01*
X0627198Y0781674D01*
Y0782542D01*
X0626866Y0783343D01*
X0626548Y0783661D01*
X0626547Y0783687D01*
Y0795628D01*
X0626548Y0795654D01*
X0626866Y0795972D01*
X0627198Y0796774D01*
Y0797642D01*
X0626866Y0798443D01*
X0626624Y0798685D01*
X0626831Y0799185D01*
X0638962D01*
X0638995Y0799153D01*
Y0798570D01*
X0638968Y0798543D01*
X0638636Y0797742D01*
Y0796874D01*
X0638968Y0796072D01*
X0638995Y0796046D01*
Y0777208D01*
X0638995Y0777208D01*
X0639134Y0776510D01*
X0639529Y0775919D01*
X0643728Y0771719D01*
X0643728Y0771719D01*
X0644320Y0771324D01*
X0645017Y0771185D01*
X0645017Y0771185D01*
X0664355D01*
X0664482Y0771059D01*
X0665283Y0770727D01*
X0666151D01*
X0666953Y0771059D01*
X0667079Y0771185D01*
X0677317D01*
X0677317Y0771185D01*
X0678015Y0771324D01*
X0678606Y0771719D01*
X0681406Y0774519D01*
X0681406Y0774519D01*
X0681801Y0775110D01*
X0681940Y0775808D01*
X0681940Y0775808D01*
Y0796346D01*
X0681966Y0796372D01*
X0682298Y0797174D01*
Y0798042D01*
X0681966Y0798843D01*
X0681940Y0798870D01*
Y0815308D01*
X0681801Y0816005D01*
X0681406Y0816596D01*
X0681406Y0816596D01*
X0662098Y0835904D01*
Y0835942D01*
X0661766Y0836743D01*
X0661153Y0837357D01*
X0660351Y0837689D01*
X0659483D01*
X0658682Y0837357D01*
X0658547Y0837222D01*
X0658047Y0837429D01*
Y0841574D01*
X0659551Y0843078D01*
X0700618D01*
X0700825Y0842578D01*
X0698836Y0840589D01*
X0698504Y0840093D01*
X0698388Y0839508D01*
Y0834987D01*
X0698386Y0834961D01*
X0698068Y0834643D01*
X0697736Y0833842D01*
Y0832974D01*
X0698068Y0832172D01*
X0698682Y0831559D01*
X0699483Y0831227D01*
X0700351D01*
X0701153Y0831559D01*
X0701766Y0832172D01*
X0702098Y0832974D01*
Y0833842D01*
X0701766Y0834643D01*
X0701448Y0834961D01*
X0701447Y0834987D01*
Y0838874D01*
X0702851Y0840278D01*
X0738772D01*
X0738963Y0839816D01*
X0737836Y0838689D01*
X0737504Y0838193D01*
X0737388Y0837608D01*
Y0835037D01*
X0737386Y0835011D01*
X0737068Y0834693D01*
X0736736Y0833891D01*
Y0833023D01*
X0737068Y0832222D01*
X0737682Y0831608D01*
X0738483Y0831276D01*
X0739351D01*
X0740153Y0831608D01*
X0740766Y0832222D01*
X0741098Y0833023D01*
Y0833891D01*
X0740766Y0834693D01*
X0740449Y0835011D01*
X0740447Y0835037D01*
Y0836974D01*
X0741351Y0837878D01*
X0865917D01*
X0866502Y0837995D01*
X0866999Y0838326D01*
X0868899Y0840226D01*
X0869230Y0840722D01*
X0869347Y0841308D01*
Y0860508D01*
X0869230Y0861093D01*
X0868899Y0861589D01*
X0865316Y0865172D01*
X0865298Y0865192D01*
Y0865642D01*
X0864966Y0866443D01*
X0864353Y0867057D01*
X0863551Y0867389D01*
X0862683D01*
X0861882Y0867057D01*
X0861268Y0866443D01*
X0860936Y0865642D01*
Y0864774D01*
X0861268Y0863972D01*
X0861882Y0863359D01*
X0862683Y0863027D01*
X0863133D01*
X0863153Y0863009D01*
X0866288Y0859874D01*
Y0841941D01*
X0865284Y0840937D01*
X0851363D01*
X0851171Y0841399D01*
X0852099Y0842326D01*
X0852430Y0842822D01*
X0852547Y0843408D01*
Y0848928D01*
X0852549Y0848954D01*
X0852866Y0849272D01*
X0853198Y0850074D01*
Y0850942D01*
X0852866Y0851743D01*
X0852253Y0852357D01*
X0851451Y0852689D01*
X0850583D01*
X0849782Y0852357D01*
X0849168Y0851743D01*
X0848836Y0850942D01*
Y0850074D01*
X0849168Y0849272D01*
X0849486Y0848954D01*
X0849488Y0848928D01*
Y0844041D01*
X0848784Y0843337D01*
X0841216D01*
X0841009Y0843837D01*
X0842299Y0845126D01*
X0842630Y0845623D01*
X0842747Y0846208D01*
Y0917574D01*
X0851957Y0926785D01*
X0852007Y0926827D01*
X0852151D01*
X0852953Y0927159D01*
X0853566Y0927772D01*
X0853898Y0928574D01*
Y0929442D01*
X0853566Y0930243D01*
X0852953Y0930857D01*
X0852151Y0931189D01*
X0851283D01*
X0850482Y0930857D01*
X0849868Y0930243D01*
X0849536Y0929442D01*
Y0928690D01*
X0846460Y0925614D01*
X0845935Y0925795D01*
X0845666Y0926443D01*
X0845053Y0927057D01*
X0844251Y0927389D01*
X0843383D01*
X0842582Y0927057D01*
X0841968Y0926443D01*
X0841636Y0925642D01*
Y0925301D01*
X0841577Y0925231D01*
X0836336Y0919989D01*
X0836004Y0919493D01*
X0835888Y0918908D01*
Y0849141D01*
X0835684Y0848937D01*
X0830616D01*
X0830409Y0849437D01*
X0831299Y0850326D01*
X0831630Y0850823D01*
X0831747Y0851408D01*
Y0918908D01*
X0831630Y0919493D01*
X0831299Y0919989D01*
X0828698Y0922589D01*
Y0923142D01*
X0828366Y0923943D01*
X0827753Y0924557D01*
X0826951Y0924889D01*
X0826083D01*
X0825282Y0924557D01*
X0824668Y0923943D01*
X0824336Y0923142D01*
Y0922274D01*
X0824668Y0921472D01*
X0825282Y0920859D01*
X0826083Y0920527D01*
X0826424D01*
X0826494Y0920468D01*
X0828688Y0918274D01*
Y0852041D01*
X0828484Y0851837D01*
X0816217D01*
X0816009Y0852337D01*
X0816999Y0853326D01*
X0817330Y0853823D01*
X0817447Y0854408D01*
Y0854728D01*
X0817449Y0854755D01*
X0817766Y0855072D01*
X0818098Y0855874D01*
Y0856742D01*
X0817766Y0857543D01*
X0817153Y0858157D01*
X0816351Y0858489D01*
X0815483D01*
X0814682Y0858157D01*
X0814068Y0857543D01*
X0813736Y0856742D01*
Y0855874D01*
X0814053Y0855108D01*
X0813970Y0854915D01*
X0813796Y0854637D01*
X0621917D01*
X0621332Y0854521D01*
X0620836Y0854189D01*
X0618536Y0851889D01*
X0618204Y0851393D01*
X0618088Y0850808D01*
Y0812341D01*
X0617484Y0811737D01*
X0520551D01*
X0519647Y0812641D01*
Y0845528D01*
X0519649Y0845555D01*
X0519966Y0845872D01*
X0520298Y0846674D01*
Y0847542D01*
X0519966Y0848343D01*
X0519353Y0848957D01*
X0518551Y0849289D01*
X0517683D01*
X0516882Y0848957D01*
X0516268Y0848343D01*
X0515936Y0847542D01*
Y0846674D01*
X0516268Y0845872D01*
X0516586Y0845555D01*
X0516588Y0845528D01*
Y0812008D01*
X0516704Y0811423D01*
X0517036Y0810926D01*
X0518525Y0809437D01*
X0518318Y0808937D01*
X0499951D01*
X0499097Y0809791D01*
Y0810792D01*
X0499101Y0810874D01*
X0499139Y0811100D01*
X0499203Y0811323D01*
X0499295Y0811548D01*
X0499417Y0811777D01*
X0499572Y0812010D01*
X0499763Y0812248D01*
X0499993Y0812491D01*
X0500262Y0812736D01*
X0500488Y0812917D01*
X0500629Y0812998D01*
X0501557Y0813927D01*
X0502214Y0815063D01*
X0502554Y0816332D01*
Y0817645D01*
X0502214Y0818913D01*
X0501557Y0820050D01*
X0500629Y0820978D01*
X0499492Y0821634D01*
X0499138Y0821729D01*
Y0822247D01*
X0499492Y0822342D01*
X0500629Y0822998D01*
X0501557Y0823927D01*
X0502214Y0825064D01*
X0502554Y0826332D01*
Y0827645D01*
X0502214Y0828913D01*
X0501557Y0830050D01*
X0500629Y0830978D01*
X0499492Y0831635D01*
X0499138Y0831729D01*
Y0832247D01*
X0499492Y0832342D01*
X0500629Y0832998D01*
X0501557Y0833926D01*
X0501639Y0834067D01*
X0501819Y0834293D01*
X0502065Y0834563D01*
X0502307Y0834792D01*
X0502546Y0834984D01*
X0502779Y0835139D01*
X0503008Y0835261D01*
X0503232Y0835353D01*
X0503456Y0835416D01*
X0503682Y0835454D01*
X0503764Y0835459D01*
X0509298D01*
X0509883Y0835575D01*
X0510379Y0835907D01*
X0512799Y0838326D01*
X0513130Y0838822D01*
X0513247Y0839408D01*
Y0894308D01*
X0513130Y0894893D01*
X0512799Y0895389D01*
X0509999Y0898189D01*
X0509503Y0898521D01*
X0508917Y0898637D01*
X0503745D01*
X0503666Y0898641D01*
X0503438Y0898679D01*
X0503211Y0898743D01*
X0502980Y0898835D01*
X0502743Y0898958D01*
X0502501Y0899113D01*
X0502253Y0899305D01*
X0501999Y0899535D01*
X0501741Y0899803D01*
X0501612Y0899956D01*
X0501557Y0900050D01*
X0500629Y0900978D01*
X0499492Y0901635D01*
X0499138Y0901729D01*
Y0902247D01*
X0499492Y0902342D01*
X0500629Y0902998D01*
X0500928Y0903297D01*
X0500946Y0903305D01*
X0500987Y0903350D01*
X0501039Y0903382D01*
X0501376Y0903695D01*
X0501688Y0903955D01*
X0501989Y0904179D01*
X0502280Y0904368D01*
X0502560Y0904523D01*
X0502827Y0904645D01*
X0503082Y0904736D01*
X0503326Y0904799D01*
X0503559Y0904836D01*
X0503625Y0904839D01*
X0530001D01*
X0530582Y0904259D01*
X0531383Y0903927D01*
X0532251D01*
X0533053Y0904259D01*
X0533666Y0904872D01*
X0533998Y0905674D01*
Y0906542D01*
X0533666Y0907343D01*
X0533053Y0907957D01*
X0532251Y0908289D01*
X0531383D01*
X0530582Y0907957D01*
X0530533Y0907908D01*
X0530403Y0907898D01*
X0503798D01*
X0503709Y0907903D01*
X0503493Y0907941D01*
X0503292Y0908003D01*
X0503100Y0908089D01*
X0502912Y0908204D01*
X0502726Y0908350D01*
X0502540Y0908533D01*
X0502354Y0908757D01*
X0502170Y0909023D01*
X0501972Y0909365D01*
X0501937Y0909406D01*
X0501914Y0909455D01*
X0501886Y0909481D01*
X0501557Y0910050D01*
X0500629Y0910978D01*
X0499492Y0911635D01*
X0499138Y0911729D01*
Y0912247D01*
X0499492Y0912342D01*
X0500629Y0912998D01*
X0501557Y0913927D01*
X0502214Y0915063D01*
X0502554Y0916332D01*
Y0917645D01*
X0502214Y0918913D01*
X0501557Y0920050D01*
X0500629Y0920978D01*
X0499492Y0921634D01*
X0499138Y0921729D01*
Y0922247D01*
X0499492Y0922342D01*
X0500629Y0922998D01*
X0501557Y0923927D01*
X0502214Y0925064D01*
X0502554Y0926332D01*
Y0927645D01*
X0502214Y0928913D01*
X0501557Y0930050D01*
X0500629Y0930978D01*
X0499492Y0931635D01*
X0498224Y0931974D01*
X0496911D01*
X0495643Y0931635D01*
X0494506Y0930978D01*
X0493578Y0930050D01*
X0492921Y0928913D01*
X0492581Y0927645D01*
Y0926332D01*
X0492921Y0925064D01*
X0493578Y0923927D01*
X0494506Y0922998D01*
X0495643Y0922342D01*
X0495997Y0922247D01*
Y0921729D01*
X0495643Y0921634D01*
X0494506Y0920978D01*
X0493578Y0920050D01*
X0492921Y0918913D01*
X0492581Y0917645D01*
Y0916332D01*
X0492921Y0915063D01*
X0493578Y0913927D01*
X0494506Y0912998D01*
X0495643Y0912342D01*
X0495997Y0912247D01*
Y0911729D01*
X0495643Y0911635D01*
X0494506Y0910978D01*
X0493578Y0910050D01*
X0492921Y0908913D01*
X0492581Y0907644D01*
Y0906332D01*
X0492921Y0905064D01*
X0493578Y0903926D01*
X0494506Y0902998D01*
X0495643Y0902342D01*
X0495997Y0902247D01*
Y0901729D01*
X0495643Y0901635D01*
X0494506Y0900978D01*
X0493578Y0900050D01*
X0492921Y0898913D01*
X0492581Y0897645D01*
Y0896332D01*
X0492921Y0895063D01*
X0493578Y0893927D01*
X0494506Y0892998D01*
X0495643Y0892342D01*
X0495997Y0892247D01*
Y0891729D01*
X0495643Y0891634D01*
X0494506Y0890978D01*
X0493578Y0890050D01*
X0492921Y0888913D01*
X0492581Y0887644D01*
Y0886332D01*
X0492921Y0885063D01*
X0493578Y0883926D01*
X0494506Y0882998D01*
X0495643Y0882342D01*
X0495997Y0882247D01*
Y0881729D01*
X0495643Y0881635D01*
X0494506Y0880978D01*
X0493578Y0880050D01*
X0493274Y0879523D01*
X0493246Y0879498D01*
X0493225Y0879453D01*
X0493191Y0879417D01*
X0493023Y0879138D01*
X0492870Y0878933D01*
X0492711Y0878761D01*
X0492544Y0878617D01*
X0492367Y0878498D01*
X0492177Y0878401D01*
X0491969Y0878323D01*
X0491738Y0878265D01*
X0491492Y0878230D01*
X0489872D01*
X0488140Y0879963D01*
Y0943853D01*
X0489072Y0944785D01*
X0489268Y0944946D01*
X0489371Y0945016D01*
X0489475Y0945076D01*
X0489567Y0945120D01*
X0489645Y0945150D01*
X0489703Y0945166D01*
X0492581D01*
Y0942002D01*
X0502554D01*
Y0951974D01*
X0492581D01*
Y0948810D01*
X0488697D01*
X0488697Y0948810D01*
X0488697Y0948810D01*
X0424572D01*
X0424486Y0948820D01*
X0424332Y0948849D01*
X0424186Y0948890D01*
X0424046Y0948941D01*
X0423911Y0949004D01*
X0423779Y0949078D01*
X0423649Y0949167D01*
X0423581Y0949221D01*
X0419525Y0953277D01*
X0418934Y0953672D01*
X0418237Y0953811D01*
X0418237Y0953811D01*
X0399660D01*
Y0956089D01*
D02*
G37*
G36*
X0888225Y0936088D02*
X0887146D01*
X0886103Y0935809D01*
X0885168Y0935269D01*
X0884404Y0934506D01*
X0883865Y0933571D01*
X0883585Y0932528D01*
Y0931448D01*
X0883865Y0930405D01*
X0884404Y0929470D01*
X0885168Y0928707D01*
X0886103Y0928167D01*
X0887146Y0927888D01*
X0888225D01*
X0889268Y0928167D01*
X0890203Y0928707D01*
X0890967Y0929470D01*
X0891507Y0930405D01*
X0891786Y0931448D01*
Y0932528D01*
X0891507Y0933571D01*
X0890967Y0934506D01*
X0890203Y0935269D01*
X0889268Y0935809D01*
X0888225Y0936088D01*
D02*
G37*
G36*
X0396099D02*
X0395020D01*
X0393977Y0935809D01*
X0393042Y0935269D01*
X0392279Y0934506D01*
X0391739Y0933571D01*
X0391459Y0932528D01*
Y0931448D01*
X0391739Y0930405D01*
X0392279Y0929470D01*
X0393042Y0928707D01*
X0393977Y0928167D01*
X0395020Y0927888D01*
X0396099D01*
X0397142Y0928167D01*
X0398077Y0928707D01*
X0398841Y0929470D01*
X0399381Y0930405D01*
X0399660Y0931448D01*
Y0932528D01*
X0399381Y0933571D01*
X0398841Y0934506D01*
X0398077Y0935269D01*
X0397142Y0935809D01*
X0396099Y0936088D01*
D02*
G37*
G36*
X0612751Y0921789D02*
X0611883D01*
X0611082Y0921457D01*
X0610764Y0921139D01*
X0610738Y0921137D01*
X0599897D01*
X0599870Y0921139D01*
X0599553Y0921457D01*
X0598751Y0921789D01*
X0597883D01*
X0597082Y0921457D01*
X0596468Y0920843D01*
X0596136Y0920042D01*
Y0919174D01*
X0596468Y0918372D01*
X0597082Y0917759D01*
X0597883Y0917427D01*
X0598751D01*
X0599553Y0917759D01*
X0599870Y0918076D01*
X0599897Y0918078D01*
X0610738D01*
X0610764Y0918076D01*
X0611082Y0917759D01*
X0611883Y0917427D01*
X0612751D01*
X0613553Y0917759D01*
X0614166Y0918372D01*
X0614498Y0919174D01*
Y0920042D01*
X0614166Y0920843D01*
X0613553Y0921457D01*
X0612751Y0921789D01*
D02*
G37*
G36*
X0888225Y0926089D02*
X0887146D01*
X0886103Y0925809D01*
X0885168Y0925269D01*
X0884404Y0924506D01*
X0883865Y0923571D01*
X0883585Y0922528D01*
Y0921448D01*
X0883865Y0920405D01*
X0884404Y0919470D01*
X0885168Y0918707D01*
X0886103Y0918167D01*
X0887146Y0917888D01*
X0888225D01*
X0889268Y0918167D01*
X0890203Y0918707D01*
X0890967Y0919470D01*
X0891507Y0920405D01*
X0891786Y0921448D01*
Y0922528D01*
X0891507Y0923571D01*
X0890967Y0924506D01*
X0890203Y0925269D01*
X0889268Y0925809D01*
X0888225Y0926089D01*
D02*
G37*
G36*
X0396099D02*
X0395020D01*
X0393977Y0925809D01*
X0393042Y0925269D01*
X0392279Y0924506D01*
X0391739Y0923571D01*
X0391459Y0922528D01*
Y0921448D01*
X0391739Y0920405D01*
X0392279Y0919470D01*
X0393042Y0918707D01*
X0393977Y0918167D01*
X0395020Y0917888D01*
X0396099D01*
X0397142Y0918167D01*
X0398077Y0918707D01*
X0398841Y0919470D01*
X0399381Y0920405D01*
X0399660Y0921448D01*
Y0922528D01*
X0399381Y0923571D01*
X0398841Y0924506D01*
X0398077Y0925269D01*
X0397142Y0925809D01*
X0396099Y0926089D01*
D02*
G37*
G36*
X0888225Y0916088D02*
X0887146D01*
X0886103Y0915809D01*
X0885168Y0915269D01*
X0884404Y0914506D01*
X0883865Y0913571D01*
X0883585Y0912528D01*
Y0911448D01*
X0883865Y0910405D01*
X0884404Y0909470D01*
X0885168Y0908707D01*
X0886103Y0908167D01*
X0887146Y0907888D01*
X0888225D01*
X0889268Y0908167D01*
X0890203Y0908707D01*
X0890967Y0909470D01*
X0891507Y0910405D01*
X0891786Y0911448D01*
Y0912528D01*
X0891507Y0913571D01*
X0890967Y0914506D01*
X0890203Y0915269D01*
X0889268Y0915809D01*
X0888225Y0916088D01*
D02*
G37*
G36*
X0396099D02*
X0395020D01*
X0393977Y0915809D01*
X0393042Y0915269D01*
X0392279Y0914506D01*
X0391739Y0913571D01*
X0391459Y0912528D01*
Y0911448D01*
X0391739Y0910405D01*
X0392279Y0909470D01*
X0393042Y0908707D01*
X0393977Y0908167D01*
X0395020Y0907888D01*
X0396099D01*
X0397142Y0908167D01*
X0398077Y0908707D01*
X0398841Y0909470D01*
X0399381Y0910405D01*
X0399660Y0911448D01*
Y0912528D01*
X0399381Y0913571D01*
X0398841Y0914506D01*
X0398077Y0915269D01*
X0397142Y0915809D01*
X0396099Y0916088D01*
D02*
G37*
G36*
X0622251Y0915389D02*
X0621383D01*
X0620582Y0915057D01*
X0619968Y0914443D01*
X0619636Y0913642D01*
Y0912774D01*
X0619968Y0911972D01*
X0620286Y0911654D01*
X0620288Y0911628D01*
Y0902308D01*
X0620404Y0901723D01*
X0620736Y0901226D01*
X0620836Y0901126D01*
Y0900574D01*
X0621168Y0899772D01*
X0621782Y0899159D01*
X0622583Y0898827D01*
X0623451D01*
X0624253Y0899159D01*
X0624866Y0899772D01*
X0625198Y0900574D01*
Y0901442D01*
X0624866Y0902243D01*
X0624253Y0902857D01*
X0623451Y0903189D01*
X0623347D01*
Y0911628D01*
X0623349Y0911654D01*
X0623666Y0911972D01*
X0623998Y0912774D01*
Y0913642D01*
X0623666Y0914443D01*
X0623053Y0915057D01*
X0622251Y0915389D01*
D02*
G37*
G36*
X0888225Y0906089D02*
X0887146D01*
X0886103Y0905809D01*
X0885168Y0905269D01*
X0884404Y0904506D01*
X0883865Y0903571D01*
X0883585Y0902528D01*
Y0901448D01*
X0883865Y0900405D01*
X0884404Y0899470D01*
X0885168Y0898707D01*
X0886103Y0898167D01*
X0887146Y0897888D01*
X0888225D01*
X0889268Y0898167D01*
X0890203Y0898707D01*
X0890967Y0899470D01*
X0891507Y0900405D01*
X0891786Y0901448D01*
Y0902528D01*
X0891507Y0903571D01*
X0890967Y0904506D01*
X0890203Y0905269D01*
X0889268Y0905809D01*
X0888225Y0906089D01*
D02*
G37*
G36*
X0396099D02*
X0395020D01*
X0393977Y0905809D01*
X0393042Y0905269D01*
X0392279Y0904506D01*
X0391739Y0903571D01*
X0391459Y0902528D01*
Y0901448D01*
X0391739Y0900405D01*
X0392279Y0899470D01*
X0393042Y0898707D01*
X0393977Y0898167D01*
X0395020Y0897888D01*
X0396099D01*
X0397142Y0898167D01*
X0398077Y0898707D01*
X0398841Y0899470D01*
X0399381Y0900405D01*
X0399660Y0901448D01*
Y0902528D01*
X0399381Y0903571D01*
X0398841Y0904506D01*
X0398077Y0905269D01*
X0397142Y0905809D01*
X0396099Y0906089D01*
D02*
G37*
G36*
X0888225Y0896089D02*
X0887146D01*
X0886103Y0895809D01*
X0885168Y0895269D01*
X0884404Y0894506D01*
X0883865Y0893571D01*
X0883585Y0892528D01*
Y0891448D01*
X0883865Y0890405D01*
X0884404Y0889470D01*
X0885168Y0888707D01*
X0886103Y0888167D01*
X0887146Y0887888D01*
X0888225D01*
X0889268Y0888167D01*
X0890203Y0888707D01*
X0890967Y0889470D01*
X0891507Y0890405D01*
X0891786Y0891448D01*
Y0892528D01*
X0891507Y0893571D01*
X0890967Y0894506D01*
X0890203Y0895269D01*
X0889268Y0895809D01*
X0888225Y0896089D01*
D02*
G37*
G36*
X0396099D02*
X0395020D01*
X0393977Y0895809D01*
X0393042Y0895269D01*
X0392279Y0894506D01*
X0391739Y0893571D01*
X0391459Y0892528D01*
Y0891448D01*
X0391739Y0890405D01*
X0392279Y0889470D01*
X0393042Y0888707D01*
X0393977Y0888167D01*
X0395020Y0887888D01*
X0396099D01*
X0397142Y0888167D01*
X0398077Y0888707D01*
X0398841Y0889470D01*
X0399381Y0890405D01*
X0399660Y0891448D01*
Y0892528D01*
X0399381Y0893571D01*
X0398841Y0894506D01*
X0398077Y0895269D01*
X0397142Y0895809D01*
X0396099Y0896089D01*
D02*
G37*
G36*
X0888225Y0886088D02*
X0887146D01*
X0886103Y0885809D01*
X0885168Y0885269D01*
X0884404Y0884506D01*
X0884351Y0884413D01*
X0884227Y0884258D01*
X0884064Y0884085D01*
X0883904Y0883938D01*
X0883745Y0883818D01*
X0883589Y0883720D01*
X0883433Y0883643D01*
X0883276Y0883585D01*
X0883114Y0883543D01*
X0882945Y0883518D01*
X0882942Y0883517D01*
X0881798D01*
X0881212Y0883401D01*
X0880716Y0883070D01*
X0877936Y0880289D01*
X0877604Y0879793D01*
X0877488Y0879208D01*
Y0834241D01*
X0876884Y0833637D01*
X0843955D01*
X0843928Y0833678D01*
X0844195Y0834178D01*
X0873217D01*
X0873802Y0834295D01*
X0874299Y0834626D01*
X0875699Y0836026D01*
X0876030Y0836522D01*
X0876147Y0837108D01*
Y0864108D01*
X0876030Y0864693D01*
X0875699Y0865189D01*
X0872298Y0868589D01*
Y0869242D01*
X0871966Y0870043D01*
X0871353Y0870657D01*
X0870551Y0870989D01*
X0869683D01*
X0868882Y0870657D01*
X0868268Y0870043D01*
X0867936Y0869242D01*
Y0868374D01*
X0868268Y0867572D01*
X0868882Y0866959D01*
X0869683Y0866627D01*
X0869924D01*
X0870003Y0866559D01*
X0873088Y0863474D01*
Y0837741D01*
X0872584Y0837237D01*
X0804317D01*
X0803732Y0837121D01*
X0803236Y0836789D01*
X0801053Y0834606D01*
X0801033Y0834589D01*
X0800583D01*
X0799782Y0834257D01*
X0799168Y0833643D01*
X0798836Y0832842D01*
Y0831974D01*
X0799168Y0831172D01*
X0799782Y0830559D01*
X0800583Y0830227D01*
X0801451D01*
X0802253Y0830559D01*
X0802866Y0831172D01*
X0803198Y0831974D01*
Y0832423D01*
X0803216Y0832443D01*
X0804951Y0834178D01*
X0840196D01*
X0840403Y0833678D01*
X0840068Y0833343D01*
X0839736Y0832542D01*
Y0831674D01*
X0840068Y0830872D01*
X0840682Y0830259D01*
X0841483Y0829927D01*
X0842351D01*
X0843153Y0830259D01*
X0843470Y0830576D01*
X0843497Y0830578D01*
X0877517D01*
X0878102Y0830695D01*
X0878599Y0831026D01*
X0880099Y0832526D01*
X0880430Y0833022D01*
X0880547Y0833608D01*
Y0878574D01*
X0882431Y0880459D01*
X0882942D01*
X0882945Y0880459D01*
X0883114Y0880433D01*
X0883276Y0880392D01*
X0883433Y0880333D01*
X0883589Y0880256D01*
X0883745Y0880159D01*
X0883904Y0880038D01*
X0884064Y0879891D01*
X0884227Y0879718D01*
X0884351Y0879563D01*
X0884404Y0879470D01*
X0885168Y0878707D01*
X0886103Y0878167D01*
X0887146Y0877888D01*
X0888225D01*
X0889268Y0878167D01*
X0890203Y0878707D01*
X0890967Y0879470D01*
X0891507Y0880405D01*
X0891786Y0881448D01*
Y0882528D01*
X0891507Y0883571D01*
X0890967Y0884506D01*
X0890203Y0885269D01*
X0889268Y0885809D01*
X0888225Y0886088D01*
D02*
G37*
G36*
X0396099D02*
X0395020D01*
X0393977Y0885809D01*
X0393042Y0885269D01*
X0392279Y0884506D01*
X0391739Y0883571D01*
X0391459Y0882528D01*
Y0881448D01*
X0391739Y0880405D01*
X0392279Y0879470D01*
X0393042Y0878707D01*
X0393977Y0878167D01*
X0395020Y0877888D01*
X0396099D01*
X0397142Y0878167D01*
X0398077Y0878707D01*
X0398841Y0879470D01*
X0399381Y0880405D01*
X0399660Y0881448D01*
Y0882528D01*
X0399381Y0883571D01*
X0398841Y0884506D01*
X0398077Y0885269D01*
X0397142Y0885809D01*
X0396099Y0886088D01*
D02*
G37*
G36*
X0888225Y0876089D02*
X0887146D01*
X0886103Y0875809D01*
X0885168Y0875269D01*
X0884404Y0874506D01*
X0883865Y0873571D01*
X0883585Y0872528D01*
Y0871448D01*
X0883865Y0870405D01*
X0884404Y0869470D01*
X0885168Y0868707D01*
X0886103Y0868167D01*
X0887146Y0867888D01*
X0888225D01*
X0889268Y0868167D01*
X0890203Y0868707D01*
X0890967Y0869470D01*
X0891507Y0870405D01*
X0891786Y0871448D01*
Y0872528D01*
X0891507Y0873571D01*
X0890967Y0874506D01*
X0890203Y0875269D01*
X0889268Y0875809D01*
X0888225Y0876089D01*
D02*
G37*
G36*
X0396099D02*
X0395020D01*
X0393977Y0875809D01*
X0393042Y0875269D01*
X0392279Y0874506D01*
X0391739Y0873571D01*
X0391459Y0872528D01*
Y0871448D01*
X0391739Y0870405D01*
X0392279Y0869470D01*
X0393042Y0868707D01*
X0393977Y0868167D01*
X0395020Y0867888D01*
X0396099D01*
X0397142Y0868167D01*
X0398077Y0868707D01*
X0398841Y0869470D01*
X0399381Y0870405D01*
X0399660Y0871448D01*
Y0872528D01*
X0399381Y0873571D01*
X0398841Y0874506D01*
X0398077Y0875269D01*
X0397142Y0875809D01*
X0396099Y0876089D01*
D02*
G37*
G36*
X0790664Y0901974D02*
X0780692D01*
Y0892002D01*
X0783390D01*
X0783524Y0891502D01*
X0782616Y0890978D01*
X0781688Y0890050D01*
X0781031Y0888913D01*
X0780692Y0887644D01*
Y0886332D01*
X0781031Y0885063D01*
X0781688Y0883926D01*
X0782616Y0882998D01*
X0783753Y0882342D01*
X0784107Y0882247D01*
Y0881729D01*
X0783753Y0881635D01*
X0782616Y0880978D01*
X0781688Y0880050D01*
X0781031Y0878913D01*
X0780692Y0877645D01*
Y0876332D01*
X0781031Y0875064D01*
X0781688Y0873927D01*
X0782616Y0872998D01*
X0783753Y0872342D01*
X0784107Y0872247D01*
Y0871729D01*
X0783753Y0871634D01*
X0782616Y0870978D01*
X0781688Y0870050D01*
X0781031Y0868913D01*
X0780692Y0867645D01*
Y0866332D01*
X0781031Y0865063D01*
X0781688Y0863927D01*
X0782616Y0862998D01*
X0783753Y0862342D01*
X0785021Y0862002D01*
X0786334D01*
X0787602Y0862342D01*
X0788739Y0862998D01*
X0789668Y0863927D01*
X0790324Y0865063D01*
X0790664Y0866332D01*
Y0867645D01*
X0790324Y0868913D01*
X0789668Y0870050D01*
X0788739Y0870978D01*
X0787602Y0871634D01*
X0787249Y0871729D01*
Y0872247D01*
X0787602Y0872342D01*
X0788739Y0872998D01*
X0789668Y0873927D01*
X0790324Y0875064D01*
X0790664Y0876332D01*
Y0877645D01*
X0790324Y0878913D01*
X0789668Y0880050D01*
X0788739Y0880978D01*
X0787602Y0881635D01*
X0787249Y0881729D01*
Y0882247D01*
X0787602Y0882342D01*
X0788739Y0882998D01*
X0789668Y0883926D01*
X0790324Y0885063D01*
X0790664Y0886332D01*
Y0887644D01*
X0790324Y0888913D01*
X0789668Y0890050D01*
X0788739Y0890978D01*
X0787832Y0891502D01*
X0787966Y0892002D01*
X0790664D01*
Y0901974D01*
D02*
G37*
G36*
X0888225Y0866088D02*
X0887146D01*
X0886103Y0865809D01*
X0885168Y0865269D01*
X0884404Y0864506D01*
X0883865Y0863571D01*
X0883585Y0862528D01*
Y0861448D01*
X0883865Y0860405D01*
X0884404Y0859470D01*
X0885168Y0858707D01*
X0886103Y0858167D01*
X0887146Y0857888D01*
X0888225D01*
X0889268Y0858167D01*
X0890203Y0858707D01*
X0890967Y0859470D01*
X0891507Y0860405D01*
X0891786Y0861448D01*
Y0862528D01*
X0891507Y0863571D01*
X0890967Y0864506D01*
X0890203Y0865269D01*
X0889268Y0865809D01*
X0888225Y0866088D01*
D02*
G37*
G36*
X0396099D02*
X0395020D01*
X0393977Y0865809D01*
X0393042Y0865269D01*
X0392279Y0864506D01*
X0391739Y0863571D01*
X0391459Y0862528D01*
Y0861448D01*
X0391739Y0860405D01*
X0392279Y0859470D01*
X0393042Y0858707D01*
X0393977Y0858167D01*
X0395020Y0857888D01*
X0396099D01*
X0397142Y0858167D01*
X0398077Y0858707D01*
X0398841Y0859470D01*
X0399381Y0860405D01*
X0399660Y0861448D01*
Y0862528D01*
X0399381Y0863571D01*
X0398841Y0864506D01*
X0398077Y0865269D01*
X0397142Y0865809D01*
X0396099Y0866088D01*
D02*
G37*
G36*
X0888225Y0856089D02*
X0887146D01*
X0886103Y0855809D01*
X0885168Y0855269D01*
X0884404Y0854506D01*
X0883865Y0853571D01*
X0883585Y0852528D01*
Y0851448D01*
X0883865Y0850405D01*
X0884404Y0849470D01*
X0885168Y0848707D01*
X0886103Y0848167D01*
X0887146Y0847888D01*
X0888225D01*
X0889268Y0848167D01*
X0890203Y0848707D01*
X0890967Y0849470D01*
X0891507Y0850405D01*
X0891786Y0851448D01*
Y0852528D01*
X0891507Y0853571D01*
X0890967Y0854506D01*
X0890203Y0855269D01*
X0889268Y0855809D01*
X0888225Y0856089D01*
D02*
G37*
G36*
X0396099D02*
X0395020D01*
X0393977Y0855809D01*
X0393042Y0855269D01*
X0392279Y0854506D01*
X0391739Y0853571D01*
X0391459Y0852528D01*
Y0851448D01*
X0391739Y0850405D01*
X0392279Y0849470D01*
X0393042Y0848707D01*
X0393977Y0848167D01*
X0395020Y0847888D01*
X0396099D01*
X0397142Y0848167D01*
X0398077Y0848707D01*
X0398841Y0849470D01*
X0399381Y0850405D01*
X0399660Y0851448D01*
Y0852528D01*
X0399381Y0853571D01*
X0398841Y0854506D01*
X0398077Y0855269D01*
X0397142Y0855809D01*
X0396099Y0856089D01*
D02*
G37*
G36*
X0888225Y0846089D02*
X0887146D01*
X0886103Y0845809D01*
X0885168Y0845269D01*
X0884404Y0844506D01*
X0883865Y0843571D01*
X0883585Y0842528D01*
Y0841448D01*
X0883865Y0840405D01*
X0884404Y0839470D01*
X0885168Y0838707D01*
X0886103Y0838167D01*
X0887146Y0837888D01*
X0888225D01*
X0889268Y0838167D01*
X0890203Y0838707D01*
X0890967Y0839470D01*
X0891507Y0840405D01*
X0891786Y0841448D01*
Y0842528D01*
X0891507Y0843571D01*
X0890967Y0844506D01*
X0890203Y0845269D01*
X0889268Y0845809D01*
X0888225Y0846089D01*
D02*
G37*
G36*
X0396099D02*
X0395020D01*
X0393977Y0845809D01*
X0393042Y0845269D01*
X0392279Y0844506D01*
X0391739Y0843571D01*
X0391459Y0842528D01*
Y0841448D01*
X0391739Y0840405D01*
X0392279Y0839470D01*
X0393042Y0838707D01*
X0393977Y0838167D01*
X0395020Y0837888D01*
X0396099D01*
X0397142Y0838167D01*
X0398077Y0838707D01*
X0398841Y0839470D01*
X0399381Y0840405D01*
X0399660Y0841448D01*
Y0842528D01*
X0399381Y0843571D01*
X0398841Y0844506D01*
X0398077Y0845269D01*
X0397142Y0845809D01*
X0396099Y0846089D01*
D02*
G37*
G36*
X0888225Y0836088D02*
X0887146D01*
X0886103Y0835809D01*
X0885168Y0835269D01*
X0884404Y0834506D01*
X0883865Y0833571D01*
X0883585Y0832528D01*
Y0831448D01*
X0883865Y0830405D01*
X0884404Y0829470D01*
X0885168Y0828707D01*
X0886103Y0828167D01*
X0887146Y0827888D01*
X0888225D01*
X0889268Y0828167D01*
X0890203Y0828707D01*
X0890967Y0829470D01*
X0891507Y0830405D01*
X0891786Y0831448D01*
Y0832528D01*
X0891507Y0833571D01*
X0890967Y0834506D01*
X0890203Y0835269D01*
X0889268Y0835809D01*
X0888225Y0836088D01*
D02*
G37*
G36*
X0396099D02*
X0395020D01*
X0393977Y0835809D01*
X0393042Y0835269D01*
X0392279Y0834506D01*
X0391739Y0833571D01*
X0391459Y0832528D01*
Y0831448D01*
X0391739Y0830405D01*
X0392279Y0829470D01*
X0393042Y0828707D01*
X0393977Y0828167D01*
X0395020Y0827888D01*
X0396099D01*
X0397142Y0828167D01*
X0398077Y0828707D01*
X0398841Y0829470D01*
X0399381Y0830405D01*
X0399660Y0831448D01*
Y0832528D01*
X0399381Y0833571D01*
X0398841Y0834506D01*
X0398077Y0835269D01*
X0397142Y0835809D01*
X0396099Y0836088D01*
D02*
G37*
G36*
X0888225Y0826089D02*
X0887146D01*
X0886103Y0825809D01*
X0885168Y0825269D01*
X0884404Y0824506D01*
X0883865Y0823571D01*
X0883585Y0822528D01*
Y0821448D01*
X0883865Y0820405D01*
X0884404Y0819470D01*
X0885168Y0818707D01*
X0886103Y0818167D01*
X0887146Y0817888D01*
X0888225D01*
X0889268Y0818167D01*
X0890203Y0818707D01*
X0890967Y0819470D01*
X0891507Y0820405D01*
X0891786Y0821448D01*
Y0822528D01*
X0891507Y0823571D01*
X0890967Y0824506D01*
X0890203Y0825269D01*
X0889268Y0825809D01*
X0888225Y0826089D01*
D02*
G37*
G36*
X0396099D02*
X0395020D01*
X0393977Y0825809D01*
X0393042Y0825269D01*
X0392279Y0824506D01*
X0391739Y0823571D01*
X0391459Y0822528D01*
Y0821448D01*
X0391739Y0820405D01*
X0392279Y0819470D01*
X0393042Y0818707D01*
X0393977Y0818167D01*
X0395020Y0817888D01*
X0396099D01*
X0397142Y0818167D01*
X0398077Y0818707D01*
X0398841Y0819470D01*
X0399381Y0820405D01*
X0399660Y0821448D01*
Y0822528D01*
X0399381Y0823571D01*
X0398841Y0824506D01*
X0398077Y0825269D01*
X0397142Y0825809D01*
X0396099Y0826089D01*
D02*
G37*
G36*
X0687817Y0810695D02*
X0686785Y0810559D01*
X0685824Y0810161D01*
X0684998Y0809527D01*
X0684365Y0808701D01*
X0683966Y0807740D01*
X0683830Y0806708D01*
X0683966Y0805676D01*
X0684365Y0804714D01*
X0684998Y0803889D01*
X0687598Y0801289D01*
Y0769699D01*
X0687598Y0769699D01*
X0687734Y0768668D01*
X0688132Y0767706D01*
X0688766Y0766880D01*
X0692225Y0763421D01*
X0692225Y0763421D01*
X0693051Y0762787D01*
X0694012Y0762389D01*
X0695044Y0762253D01*
X0695044Y0762253D01*
X0710408D01*
X0710412Y0762250D01*
X0711549Y0761594D01*
X0712817Y0761254D01*
X0714129D01*
X0715398Y0761594D01*
X0716535Y0762250D01*
X0716538Y0762253D01*
X0749778D01*
X0749782Y0762250D01*
X0750918Y0761594D01*
X0752187Y0761254D01*
X0753500D01*
X0754768Y0761594D01*
X0755905Y0762250D01*
X0755908Y0762253D01*
X0789149D01*
X0789152Y0762250D01*
X0790289Y0761594D01*
X0791557Y0761254D01*
X0792870D01*
X0794138Y0761594D01*
X0795275Y0762250D01*
X0795278Y0762253D01*
X0828519D01*
X0828522Y0762250D01*
X0829659Y0761594D01*
X0830927Y0761254D01*
X0832240D01*
X0833508Y0761594D01*
X0834645Y0762250D01*
X0835573Y0763178D01*
X0836230Y0764315D01*
X0836569Y0765584D01*
Y0766896D01*
X0836230Y0768165D01*
X0835573Y0769302D01*
X0834645Y0770230D01*
X0833508Y0770887D01*
X0832240Y0771226D01*
X0830927D01*
X0829659Y0770887D01*
X0828522Y0770230D01*
X0828519Y0770227D01*
X0795278D01*
X0795275Y0770230D01*
X0794138Y0770887D01*
X0792870Y0771226D01*
X0791557D01*
X0790289Y0770887D01*
X0789152Y0770230D01*
X0789149Y0770227D01*
X0755908D01*
X0755905Y0770230D01*
X0754768Y0770887D01*
X0753500Y0771226D01*
X0752187D01*
X0750918Y0770887D01*
X0750264Y0770508D01*
X0749584Y0770227D01*
X0716538D01*
X0716535Y0770230D01*
X0715398Y0770887D01*
X0714129Y0771226D01*
X0712817D01*
X0711549Y0770887D01*
X0710412Y0770230D01*
X0710408Y0770227D01*
X0696696D01*
X0695572Y0771351D01*
Y0802940D01*
X0695572Y0802940D01*
X0695436Y0803972D01*
X0695038Y0804933D01*
X0694404Y0805759D01*
X0690636Y0809527D01*
X0689811Y0810161D01*
X0688849Y0810559D01*
X0687817Y0810695D01*
D02*
G37*
G36*
X0846019Y0750754D02*
X0844706D01*
X0843438Y0750414D01*
X0842301Y0749758D01*
X0841373Y0748829D01*
X0840716Y0747692D01*
X0840377Y0746424D01*
Y0745111D01*
X0840716Y0743843D01*
X0841373Y0742706D01*
X0842301Y0741778D01*
X0843438Y0741121D01*
X0844706Y0740781D01*
X0846019D01*
X0847287Y0741121D01*
X0848425Y0741778D01*
X0849353Y0742706D01*
X0850009Y0743843D01*
X0850349Y0745111D01*
Y0746424D01*
X0850009Y0747692D01*
X0849353Y0748829D01*
X0848425Y0749758D01*
X0847287Y0750414D01*
X0846019Y0750754D01*
D02*
G37*
G36*
X0806649D02*
X0805336D01*
X0804068Y0750414D01*
X0802931Y0749758D01*
X0802003Y0748829D01*
X0801346Y0747692D01*
X0801007Y0746424D01*
Y0745111D01*
X0801346Y0743843D01*
X0802003Y0742706D01*
X0802931Y0741778D01*
X0804068Y0741121D01*
X0805336Y0740781D01*
X0806649D01*
X0807917Y0741121D01*
X0809054Y0741778D01*
X0809983Y0742706D01*
X0810639Y0743843D01*
X0810979Y0745111D01*
Y0746424D01*
X0810639Y0747692D01*
X0809983Y0748829D01*
X0809054Y0749758D01*
X0807917Y0750414D01*
X0806649Y0750754D01*
D02*
G37*
G36*
X0767279D02*
X0765966D01*
X0764698Y0750414D01*
X0763561Y0749758D01*
X0762633Y0748829D01*
X0761976Y0747692D01*
X0761636Y0746424D01*
Y0745111D01*
X0761976Y0743843D01*
X0762633Y0742706D01*
X0763561Y0741778D01*
X0764698Y0741121D01*
X0765966Y0740781D01*
X0767279D01*
X0768547Y0741121D01*
X0769684Y0741778D01*
X0770613Y0742706D01*
X0771269Y0743843D01*
X0771609Y0745111D01*
Y0746424D01*
X0771269Y0747692D01*
X0770613Y0748829D01*
X0769684Y0749758D01*
X0768547Y0750414D01*
X0767279Y0750754D01*
D02*
G37*
G36*
X0727909D02*
X0726596D01*
X0725328Y0750414D01*
X0724191Y0749758D01*
X0723263Y0748829D01*
X0722606Y0747692D01*
X0722266Y0746424D01*
Y0745111D01*
X0722606Y0743843D01*
X0723263Y0742706D01*
X0724191Y0741778D01*
X0725328Y0741121D01*
X0726596Y0740781D01*
X0727909D01*
X0729177Y0741121D01*
X0730314Y0741778D01*
X0731243Y0742706D01*
X0731899Y0743843D01*
X0732239Y0745111D01*
Y0746424D01*
X0731899Y0747692D01*
X0731243Y0748829D01*
X0730314Y0749758D01*
X0729177Y0750414D01*
X0727909Y0750754D01*
D02*
G37*
G36*
X0882633Y0751098D02*
X0880927D01*
X0879241Y0750831D01*
X0877618Y0750304D01*
X0876097Y0749529D01*
X0874717Y0748526D01*
X0873510Y0747319D01*
X0872507Y0745938D01*
X0871732Y0744418D01*
X0871205Y0742795D01*
X0870938Y0741109D01*
Y0739402D01*
X0871205Y0737717D01*
X0871732Y0736094D01*
X0872507Y0734573D01*
X0873510Y0733192D01*
X0874717Y0731986D01*
X0876097Y0730982D01*
X0877618Y0730208D01*
X0879241Y0729680D01*
X0880927Y0729413D01*
X0882633D01*
X0884319Y0729680D01*
X0885942Y0730208D01*
X0887463Y0730982D01*
X0888844Y0731986D01*
X0890050Y0733192D01*
X0891053Y0734573D01*
X0891828Y0736094D01*
X0892356Y0737717D01*
X0892623Y0739402D01*
Y0741109D01*
X0892356Y0742795D01*
X0891828Y0744418D01*
X0891053Y0745938D01*
X0890050Y0747319D01*
X0888844Y0748526D01*
X0887463Y0749529D01*
X0885942Y0750304D01*
X0884319Y0750831D01*
X0882633Y0751098D01*
D02*
G37*
G36*
X0402318D02*
X0400612D01*
X0398926Y0750831D01*
X0397303Y0750304D01*
X0395782Y0749529D01*
X0394402Y0748526D01*
X0393195Y0747319D01*
X0392192Y0745938D01*
X0391417Y0744418D01*
X0390890Y0742795D01*
X0390623Y0741109D01*
Y0739402D01*
X0390890Y0737717D01*
X0391417Y0736094D01*
X0392192Y0734573D01*
X0393195Y0733192D01*
X0394402Y0731986D01*
X0395782Y0730982D01*
X0397303Y0730208D01*
X0398926Y0729680D01*
X0400612Y0729413D01*
X0402318D01*
X0404004Y0729680D01*
X0405627Y0730208D01*
X0407148Y0730982D01*
X0408529Y0731986D01*
X0409735Y0733192D01*
X0410739Y0734573D01*
X0411513Y0736094D01*
X0412041Y0737717D01*
X0412308Y0739402D01*
Y0741109D01*
X0412041Y0742795D01*
X0411513Y0744418D01*
X0410739Y0745938D01*
X0409735Y0747319D01*
X0408529Y0748526D01*
X0407148Y0749529D01*
X0405627Y0750304D01*
X0404004Y0750831D01*
X0402318Y0751098D01*
D02*
G37*
%LPD*%
G36*
X0554499Y0999877D02*
X0554545Y0999841D01*
X0554603Y0999810D01*
X0554671Y0999783D01*
X0554749Y0999760D01*
X0554837Y0999741D01*
X0554936Y0999726D01*
X0555166Y0999710D01*
X0555296Y0999708D01*
Y0998708D01*
X0555166Y0998706D01*
X0554936Y0998689D01*
X0554837Y0998674D01*
X0554749Y0998656D01*
X0554671Y0998633D01*
X0554603Y0998606D01*
X0554545Y0998574D01*
X0554499Y0998539D01*
X0554462Y0998499D01*
Y0999916D01*
X0554499Y0999877D01*
D02*
G37*
G36*
X0539268Y0988388D02*
X0539236Y0988339D01*
X0539208Y0988281D01*
X0539184Y0988212D01*
X0539164Y0988132D01*
X0539147Y0988043D01*
X0539134Y0987943D01*
X0539119Y0987712D01*
X0539117Y0987582D01*
X0538117Y0987488D01*
X0538115Y0987618D01*
X0538097Y0987846D01*
X0538081Y0987944D01*
X0538061Y0988031D01*
X0538036Y0988107D01*
X0538006Y0988173D01*
X0537972Y0988228D01*
X0537934Y0988273D01*
X0537891Y0988306D01*
X0539303Y0988426D01*
X0539268Y0988388D01*
D02*
G37*
G36*
X0570819Y0966898D02*
X0570837Y0966670D01*
X0570853Y0966572D01*
X0570874Y0966485D01*
X0570899Y0966408D01*
X0570928Y0966342D01*
X0570962Y0966287D01*
X0571000Y0966243D01*
X0571043Y0966209D01*
X0569631Y0966089D01*
X0569666Y0966128D01*
X0569698Y0966176D01*
X0569726Y0966235D01*
X0569750Y0966304D01*
X0569771Y0966383D01*
X0569787Y0966473D01*
X0569800Y0966573D01*
X0569815Y0966803D01*
X0569817Y0966934D01*
X0570817Y0967028D01*
X0570819Y0966898D01*
D02*
G37*
G36*
X0619072Y0927799D02*
X0619036Y0927839D01*
X0618989Y0927874D01*
X0618931Y0927905D01*
X0618864Y0927933D01*
X0618786Y0927956D01*
X0618697Y0927974D01*
X0618598Y0927989D01*
X0618369Y0928006D01*
X0618238Y0928008D01*
Y0929008D01*
X0618369Y0929010D01*
X0618598Y0929027D01*
X0618697Y0929041D01*
X0618786Y0929060D01*
X0618864Y0929083D01*
X0618931Y0929110D01*
X0618989Y0929141D01*
X0619036Y0929177D01*
X0619072Y0929216D01*
Y0927799D01*
D02*
G37*
G36*
X0635868Y0925108D02*
X0635737Y0925106D01*
X0635427Y0925079D01*
X0635352Y0925062D01*
X0635292Y0925043D01*
X0635245Y0925019D01*
X0635214Y0924992D01*
X0635196Y0924961D01*
X0635192Y0924926D01*
X0634232Y0925969D01*
X0635595Y0926108D01*
X0635868Y0925108D01*
D02*
G37*
G36*
X0622519Y0922556D02*
X0622536Y0922327D01*
X0622551Y0922228D01*
X0622569Y0922139D01*
X0622592Y0922061D01*
X0622619Y0921993D01*
X0622651Y0921936D01*
X0622686Y0921889D01*
X0622726Y0921853D01*
X0621309D01*
X0621348Y0921889D01*
X0621384Y0921936D01*
X0621415Y0921993D01*
X0621442Y0922061D01*
X0621465Y0922139D01*
X0621484Y0922228D01*
X0621498Y0922327D01*
X0621515Y0922556D01*
X0621517Y0922686D01*
X0622517D01*
X0622519Y0922556D01*
D02*
G37*
G36*
X0639719Y0911456D02*
X0639736Y0911227D01*
X0639751Y0911128D01*
X0639769Y0911039D01*
X0639792Y0910961D01*
X0639819Y0910893D01*
X0639851Y0910836D01*
X0639886Y0910789D01*
X0639926Y0910753D01*
X0638509D01*
X0638548Y0910789D01*
X0638584Y0910836D01*
X0638615Y0910893D01*
X0638642Y0910961D01*
X0638665Y0911039D01*
X0638684Y0911128D01*
X0638698Y0911227D01*
X0638715Y0911456D01*
X0638717Y0911586D01*
X0639717D01*
X0639719Y0911456D01*
D02*
G37*
G36*
X0660450Y0878839D02*
X0660396Y0878841D01*
X0660338Y0878833D01*
X0660275Y0878814D01*
X0660208Y0878786D01*
X0660137Y0878747D01*
X0660061Y0878697D01*
X0659980Y0878637D01*
X0659807Y0878487D01*
X0659713Y0878397D01*
X0659006Y0879104D01*
X0659096Y0879197D01*
X0659247Y0879371D01*
X0659306Y0879451D01*
X0659356Y0879527D01*
X0659395Y0879599D01*
X0659424Y0879666D01*
X0659442Y0879729D01*
X0659450Y0879787D01*
X0659448Y0879841D01*
X0660450Y0878839D01*
D02*
G37*
G36*
X0543517Y0878587D02*
X0543659Y0877784D01*
X0543895Y0877075D01*
X0544226Y0876461D01*
X0544651Y0875942D01*
X0545171Y0875516D01*
X0545785Y0875186D01*
X0546493Y0874949D01*
X0547297Y0874808D01*
X0548194Y0874761D01*
X0546465Y0868855D01*
X0545534Y0868822D01*
X0544630Y0868721D01*
X0543754Y0868554D01*
X0542907Y0868320D01*
X0542086Y0868020D01*
X0541293Y0867652D01*
X0540528Y0867218D01*
X0539791Y0866717D01*
X0539081Y0866149D01*
X0538400Y0865514D01*
X0534224Y0869690D01*
X0534859Y0870372D01*
X0535426Y0871082D01*
X0535927Y0871819D01*
X0536362Y0872584D01*
X0536729Y0873377D01*
X0537030Y0874197D01*
X0537264Y0875045D01*
X0537431Y0875921D01*
X0537531Y0876824D01*
X0537564Y0877755D01*
X0543470Y0879485D01*
X0543517Y0878587D01*
D02*
G37*
G36*
X0503512Y1017576D02*
X0503477Y1017529D01*
X0503445Y1017472D01*
X0503418Y1017404D01*
X0503395Y1017326D01*
X0503376Y1017237D01*
X0503362Y1017138D01*
X0503345Y1016909D01*
X0503343Y1016779D01*
X0502343D01*
X0502341Y1016909D01*
X0502324Y1017138D01*
X0502310Y1017237D01*
X0502291Y1017326D01*
X0502268Y1017404D01*
X0502241Y1017472D01*
X0502210Y1017529D01*
X0502174Y1017576D01*
X0502135Y1017612D01*
X0503552D01*
X0503512Y1017576D01*
D02*
G37*
G36*
X0514449Y1005577D02*
X0514496Y1005541D01*
X0514553Y1005510D01*
X0514621Y1005483D01*
X0514699Y1005460D01*
X0514788Y1005441D01*
X0514887Y1005427D01*
X0515116Y1005410D01*
X0515246Y1005408D01*
Y1004408D01*
X0515116Y1004406D01*
X0514887Y1004389D01*
X0514788Y1004374D01*
X0514699Y1004356D01*
X0514621Y1004333D01*
X0514553Y1004305D01*
X0514496Y1004274D01*
X0514449Y1004239D01*
X0514412Y1004199D01*
Y1005616D01*
X0514449Y1005577D01*
D02*
G37*
G36*
X0512523Y1004199D02*
X0512486Y1004239D01*
X0512439Y1004274D01*
X0512382Y1004305D01*
X0512314Y1004333D01*
X0512236Y1004356D01*
X0512147Y1004374D01*
X0512048Y1004389D01*
X0511819Y1004406D01*
X0511689Y1004408D01*
Y1005408D01*
X0511819Y1005410D01*
X0512048Y1005427D01*
X0512147Y1005441D01*
X0512236Y1005460D01*
X0512314Y1005483D01*
X0512382Y1005510D01*
X0512439Y1005541D01*
X0512486Y1005577D01*
X0512523Y1005616D01*
Y1004199D01*
D02*
G37*
G36*
X0592119Y0940656D02*
X0592136Y0940427D01*
X0592151Y0940328D01*
X0592169Y0940239D01*
X0592192Y0940161D01*
X0592219Y0940093D01*
X0592251Y0940036D01*
X0592286Y0939989D01*
X0592326Y0939953D01*
X0590908D01*
X0590948Y0939989D01*
X0590984Y0940036D01*
X0591015Y0940093D01*
X0591042Y0940161D01*
X0591065Y0940239D01*
X0591084Y0940328D01*
X0591098Y0940427D01*
X0591115Y0940656D01*
X0591117Y0940786D01*
X0592117D01*
X0592119Y0940656D01*
D02*
G37*
G36*
X0695150Y0992939D02*
X0695096Y0992941D01*
X0695038Y0992933D01*
X0694975Y0992914D01*
X0694908Y0992885D01*
X0694837Y0992846D01*
X0694761Y0992797D01*
X0694681Y0992737D01*
X0694507Y0992587D01*
X0694413Y0992496D01*
X0693706Y0993204D01*
X0693796Y0993297D01*
X0693947Y0993471D01*
X0694006Y0993551D01*
X0694056Y0993627D01*
X0694095Y0993699D01*
X0694124Y0993766D01*
X0694142Y0993829D01*
X0694150Y0993887D01*
X0694148Y0993941D01*
X0695150Y0992939D01*
D02*
G37*
G36*
X0684650Y0988039D02*
X0684596Y0988041D01*
X0684538Y0988033D01*
X0684475Y0988014D01*
X0684408Y0987986D01*
X0684337Y0987947D01*
X0684261Y0987897D01*
X0684180Y0987837D01*
X0684007Y0987687D01*
X0683913Y0987597D01*
X0683206Y0988304D01*
X0683296Y0988397D01*
X0683447Y0988571D01*
X0683506Y0988651D01*
X0683556Y0988727D01*
X0683595Y0988799D01*
X0683624Y0988866D01*
X0683642Y0988929D01*
X0683650Y0988987D01*
X0683648Y0989041D01*
X0684650Y0988039D01*
D02*
G37*
G36*
X0665219Y0923798D02*
X0665238Y0923570D01*
X0665253Y0923472D01*
X0665274Y0923384D01*
X0665299Y0923308D01*
X0665328Y0923242D01*
X0665362Y0923187D01*
X0665400Y0923143D01*
X0665443Y0923109D01*
X0664031Y0922989D01*
X0664066Y0923028D01*
X0664098Y0923076D01*
X0664126Y0923135D01*
X0664150Y0923204D01*
X0664171Y0923283D01*
X0664187Y0923373D01*
X0664200Y0923473D01*
X0664215Y0923703D01*
X0664217Y0923834D01*
X0665217Y0923928D01*
X0665219Y0923798D01*
D02*
G37*
G36*
X0671899Y0922777D02*
X0671945Y0922741D01*
X0672003Y0922710D01*
X0672071Y0922683D01*
X0672149Y0922660D01*
X0672237Y0922641D01*
X0672336Y0922626D01*
X0672566Y0922610D01*
X0672696Y0922608D01*
Y0921608D01*
X0672566Y0921606D01*
X0672336Y0921589D01*
X0672237Y0921574D01*
X0672149Y0921556D01*
X0672071Y0921533D01*
X0672003Y0921506D01*
X0671945Y0921474D01*
X0671899Y0921439D01*
X0671862Y0921399D01*
Y0922816D01*
X0671899Y0922777D01*
D02*
G37*
G36*
X0731486Y1001626D02*
X0731451Y1001579D01*
X0731419Y1001522D01*
X0731392Y1001454D01*
X0731369Y1001376D01*
X0731351Y1001288D01*
X0731336Y1001189D01*
X0731319Y1000959D01*
X0731317Y1000829D01*
X0730317D01*
X0730315Y1000959D01*
X0730298Y1001189D01*
X0730284Y1001288D01*
X0730265Y1001376D01*
X0730242Y1001454D01*
X0730215Y1001522D01*
X0730184Y1001579D01*
X0730148Y1001626D01*
X0730108Y1001663D01*
X0731526D01*
X0731486Y1001626D01*
D02*
G37*
G36*
X0685699Y0944877D02*
X0685745Y0944841D01*
X0685803Y0944810D01*
X0685871Y0944783D01*
X0685949Y0944760D01*
X0686037Y0944741D01*
X0686136Y0944726D01*
X0686366Y0944710D01*
X0686496Y0944708D01*
Y0943708D01*
X0686366Y0943706D01*
X0686136Y0943689D01*
X0686037Y0943674D01*
X0685949Y0943656D01*
X0685871Y0943633D01*
X0685803Y0943606D01*
X0685745Y0943574D01*
X0685699Y0943539D01*
X0685662Y0943499D01*
Y0944916D01*
X0685699Y0944877D01*
D02*
G37*
G36*
X0398649Y0953094D02*
X0398687Y0953027D01*
X0398751Y0952968D01*
X0398840Y0952917D01*
X0398954Y0952874D01*
X0399094Y0952839D01*
X0399259Y0952811D01*
X0399450Y0952791D01*
X0399908Y0952775D01*
Y0951201D01*
X0399666Y0951197D01*
X0399259Y0951165D01*
X0399094Y0951138D01*
X0398954Y0951102D01*
X0398840Y0951059D01*
X0398751Y0951008D01*
X0398687Y0950949D01*
X0398649Y0950882D01*
X0398636Y0950807D01*
Y0953169D01*
X0398649Y0953094D01*
D02*
G37*
G36*
X0422854Y0948497D02*
X0423043Y0948346D01*
X0423240Y0948212D01*
X0423444Y0948096D01*
X0423655Y0947998D01*
X0423874Y0947918D01*
X0424100Y0947856D01*
X0424334Y0947811D01*
X0424575Y0947784D01*
X0424823Y0947775D01*
Y0946201D01*
X0424575Y0946192D01*
X0424334Y0946165D01*
X0424100Y0946120D01*
X0423874Y0946058D01*
X0423655Y0945978D01*
X0423444Y0945880D01*
X0423240Y0945764D01*
X0423043Y0945630D01*
X0422854Y0945479D01*
X0422672Y0945310D01*
X0422672D01*
D01*
X0421233Y0946097D01*
X0421393Y0946275D01*
X0421518Y0946454D01*
X0421607Y0946632D01*
X0421660Y0946810D01*
X0421678Y0946988D01*
X0421660Y0947166D01*
X0421607Y0947344D01*
X0421518Y0947523D01*
X0421393Y0947701D01*
X0421233Y0947879D01*
X0422672Y0948666D01*
D01*
X0422672D01*
X0422854Y0948497D01*
D02*
G37*
G36*
X0493605Y0945807D02*
X0493593Y0945882D01*
X0493554Y0945949D01*
X0493491Y0946008D01*
X0493402Y0946059D01*
X0493287Y0946102D01*
X0493148Y0946138D01*
X0492982Y0946165D01*
X0492791Y0946185D01*
X0492334Y0946201D01*
Y0947775D01*
X0492575Y0947779D01*
X0492982Y0947811D01*
X0493148Y0947838D01*
X0493287Y0947874D01*
X0493402Y0947917D01*
X0493491Y0947968D01*
X0493554Y0948027D01*
X0493593Y0948094D01*
X0493605Y0948169D01*
Y0945807D01*
D02*
G37*
G36*
X0489811Y0946201D02*
X0489652Y0946192D01*
X0489492Y0946165D01*
X0489329Y0946120D01*
X0489165Y0946058D01*
X0488998Y0945978D01*
X0488829Y0945880D01*
X0488658Y0945764D01*
X0488310Y0945479D01*
X0488133Y0945310D01*
X0485906D01*
X0486067Y0945479D01*
X0486195Y0945630D01*
X0486289Y0945764D01*
X0486350Y0945880D01*
X0486377Y0945978D01*
X0486371Y0946058D01*
X0486331Y0946120D01*
X0486257Y0946165D01*
X0486150Y0946192D01*
X0486009Y0946201D01*
X0488697Y0947775D01*
X0489811Y0946201D01*
D02*
G37*
G36*
X0851763Y0927827D02*
X0851715Y0927821D01*
X0851662Y0927805D01*
X0851603Y0927780D01*
X0851540Y0927745D01*
X0851472Y0927701D01*
X0851398Y0927647D01*
X0851236Y0927511D01*
X0851053Y0927337D01*
X0850202Y0927900D01*
X0850293Y0927994D01*
X0850439Y0928168D01*
X0850496Y0928248D01*
X0850541Y0928323D01*
X0850575Y0928394D01*
X0850597Y0928461D01*
X0850608Y0928523D01*
X0850608Y0928580D01*
X0850597Y0928633D01*
X0851763Y0927827D01*
D02*
G37*
G36*
X0843580Y0924051D02*
X0843526Y0924056D01*
X0843468Y0924051D01*
X0843405Y0924035D01*
X0843337Y0924008D01*
X0843266Y0923971D01*
X0843190Y0923923D01*
X0843109Y0923864D01*
X0843024Y0923795D01*
X0842842Y0923625D01*
X0842181Y0924379D01*
X0842272Y0924473D01*
X0842485Y0924726D01*
X0842536Y0924802D01*
X0842577Y0924873D01*
X0842607Y0924939D01*
X0842628Y0925001D01*
X0842639Y0925058D01*
X0842640Y0925111D01*
X0843580Y0924051D01*
D02*
G37*
G36*
X0827669Y0922417D02*
X0827674Y0922358D01*
X0827690Y0922295D01*
X0827717Y0922228D01*
X0827754Y0922156D01*
X0827802Y0922080D01*
X0827861Y0922000D01*
X0827930Y0921915D01*
X0828100Y0921732D01*
X0827346Y0921072D01*
X0827252Y0921163D01*
X0826999Y0921375D01*
X0826923Y0921426D01*
X0826852Y0921467D01*
X0826786Y0921498D01*
X0826724Y0921519D01*
X0826667Y0921530D01*
X0826614Y0921531D01*
X0827674Y0922471D01*
X0827669Y0922417D01*
D02*
G37*
G36*
X0530739Y0905625D02*
X0530712Y0905671D01*
X0530673Y0905713D01*
X0530623Y0905749D01*
X0530561Y0905781D01*
X0530488Y0905808D01*
X0530404Y0905830D01*
X0530308Y0905847D01*
X0530200Y0905859D01*
X0529952Y0905868D01*
X0530205Y0906868D01*
X0530336Y0906870D01*
X0530758Y0906903D01*
X0530838Y0906919D01*
X0530907Y0906936D01*
X0530966Y0906957D01*
X0531014Y0906981D01*
X0531052Y0907008D01*
X0530739Y0905625D01*
D02*
G37*
G36*
X0501308Y0908477D02*
X0501541Y0908140D01*
X0501789Y0907842D01*
X0502052Y0907584D01*
X0502330Y0907365D01*
X0502623Y0907186D01*
X0502930Y0907047D01*
X0503253Y0906948D01*
X0503591Y0906888D01*
X0503944Y0906868D01*
X0503785Y0905868D01*
X0503454Y0905851D01*
X0503119Y0905799D01*
X0502782Y0905712D01*
X0502443Y0905590D01*
X0502100Y0905434D01*
X0501755Y0905243D01*
X0501407Y0905016D01*
X0501056Y0904756D01*
X0500702Y0904460D01*
X0500346Y0904130D01*
X0501090Y0908855D01*
X0501308Y0908477D01*
D02*
G37*
G36*
X0500984Y0899120D02*
X0501289Y0898802D01*
X0501598Y0898522D01*
X0501912Y0898280D01*
X0502232Y0898074D01*
X0502555Y0897906D01*
X0502884Y0897776D01*
X0503217Y0897682D01*
X0503555Y0897626D01*
X0503897Y0897608D01*
X0503927Y0896608D01*
X0503581Y0896589D01*
X0503243Y0896531D01*
X0502912Y0896435D01*
X0502590Y0896301D01*
X0502276Y0896129D01*
X0501970Y0895918D01*
X0501672Y0895670D01*
X0501382Y0895382D01*
X0501101Y0895057D01*
X0500827Y0894693D01*
X0500683Y0899475D01*
X0500984Y0899120D01*
D02*
G37*
G36*
X0501034Y0889037D02*
X0501329Y0888716D01*
X0501630Y0888433D01*
X0501938Y0888187D01*
X0502252Y0887980D01*
X0502571Y0887810D01*
X0502897Y0887678D01*
X0503229Y0887583D01*
X0503567Y0887527D01*
X0503911Y0887508D01*
X0503917Y0886508D01*
X0503572Y0886489D01*
X0503233Y0886432D01*
X0502902Y0886337D01*
X0502577Y0886205D01*
X0502259Y0886034D01*
X0501947Y0885825D01*
X0501643Y0885579D01*
X0501344Y0885295D01*
X0501053Y0884972D01*
X0500768Y0884612D01*
X0500745Y0889396D01*
X0501034Y0889037D01*
D02*
G37*
G36*
X0494761Y0874158D02*
X0494462Y0874436D01*
X0494156Y0874684D01*
X0493842Y0874904D01*
X0493520Y0875094D01*
X0493191Y0875255D01*
X0492854Y0875386D01*
X0492510Y0875489D01*
X0492158Y0875562D01*
X0491799Y0875606D01*
X0491432Y0875620D01*
X0491195Y0877195D01*
X0491574Y0877212D01*
X0491933Y0877263D01*
X0492272Y0877348D01*
X0492590Y0877466D01*
X0492887Y0877619D01*
X0493164Y0877805D01*
X0493420Y0878026D01*
X0493655Y0878280D01*
X0493870Y0878568D01*
X0494064Y0878890D01*
X0494761Y0874158D01*
D02*
G37*
G36*
X0494379Y0864596D02*
X0494092Y0864956D01*
X0493798Y0865277D01*
X0493499Y0865561D01*
X0493192Y0865807D01*
X0492880Y0866015D01*
X0492561Y0866185D01*
X0492236Y0866318D01*
X0491904Y0866412D01*
X0491566Y0866469D01*
X0491221Y0866488D01*
Y0867488D01*
X0491566Y0867507D01*
X0491904Y0867564D01*
X0492236Y0867658D01*
X0492561Y0867791D01*
X0492880Y0867961D01*
X0493192Y0868169D01*
X0493499Y0868415D01*
X0493798Y0868699D01*
X0494092Y0869020D01*
X0494379Y0869380D01*
Y0864596D01*
D02*
G37*
G36*
X0864284Y0864987D02*
X0864292Y0864929D01*
X0864311Y0864866D01*
X0864339Y0864799D01*
X0864379Y0864727D01*
X0864428Y0864651D01*
X0864487Y0864571D01*
X0864638Y0864397D01*
X0864729Y0864304D01*
X0864021Y0863597D01*
X0863928Y0863687D01*
X0863754Y0863837D01*
X0863673Y0863897D01*
X0863598Y0863947D01*
X0863526Y0863986D01*
X0863459Y0864014D01*
X0863396Y0864033D01*
X0863338Y0864041D01*
X0863284Y0864038D01*
X0864286Y0865041D01*
X0864284Y0864987D01*
D02*
G37*
G36*
X0501044Y0859020D02*
X0501337Y0858699D01*
X0501637Y0858415D01*
X0501943Y0858169D01*
X0502255Y0857961D01*
X0502574Y0857791D01*
X0502900Y0857658D01*
X0503231Y0857564D01*
X0503570Y0857507D01*
X0503914Y0857488D01*
Y0856488D01*
X0503570Y0856469D01*
X0503231Y0856412D01*
X0502900Y0856318D01*
X0502574Y0856185D01*
X0502255Y0856015D01*
X0501943Y0855807D01*
X0501637Y0855561D01*
X0501337Y0855277D01*
X0501044Y0854956D01*
X0500757Y0854596D01*
Y0859380D01*
X0501044Y0859020D01*
D02*
G37*
G36*
X0816586Y0855326D02*
X0816551Y0855279D01*
X0816519Y0855222D01*
X0816492Y0855154D01*
X0816469Y0855076D01*
X0816451Y0854988D01*
X0816436Y0854889D01*
X0816419Y0854659D01*
X0816417Y0854529D01*
X0815417D01*
X0815415Y0854659D01*
X0815398Y0854889D01*
X0815384Y0854988D01*
X0815365Y0855076D01*
X0815342Y0855154D01*
X0815315Y0855222D01*
X0815284Y0855279D01*
X0815248Y0855326D01*
X0815209Y0855363D01*
X0816626D01*
X0816586Y0855326D01*
D02*
G37*
G36*
X0851686Y0849526D02*
X0851651Y0849479D01*
X0851619Y0849422D01*
X0851592Y0849354D01*
X0851569Y0849276D01*
X0851551Y0849188D01*
X0851536Y0849089D01*
X0851519Y0848859D01*
X0851517Y0848729D01*
X0850517D01*
X0850515Y0848859D01*
X0850498Y0849089D01*
X0850484Y0849188D01*
X0850465Y0849276D01*
X0850442Y0849354D01*
X0850415Y0849422D01*
X0850384Y0849479D01*
X0850348Y0849526D01*
X0850309Y0849563D01*
X0851726D01*
X0851686Y0849526D01*
D02*
G37*
G36*
X0518786Y0846126D02*
X0518751Y0846079D01*
X0518719Y0846022D01*
X0518692Y0845954D01*
X0518669Y0845876D01*
X0518651Y0845788D01*
X0518636Y0845689D01*
X0518619Y0845459D01*
X0518617Y0845329D01*
X0517617D01*
X0517615Y0845459D01*
X0517598Y0845689D01*
X0517584Y0845788D01*
X0517565Y0845876D01*
X0517542Y0845954D01*
X0517515Y0846022D01*
X0517484Y0846079D01*
X0517448Y0846126D01*
X0517409Y0846163D01*
X0518826D01*
X0518786Y0846126D01*
D02*
G37*
G36*
X0501044Y0839020D02*
X0501337Y0838699D01*
X0501637Y0838415D01*
X0501943Y0838169D01*
X0502255Y0837961D01*
X0502574Y0837791D01*
X0502900Y0837658D01*
X0503231Y0837564D01*
X0503570Y0837507D01*
X0503914Y0837488D01*
Y0836488D01*
X0503570Y0836469D01*
X0503231Y0836412D01*
X0502900Y0836318D01*
X0502574Y0836185D01*
X0502255Y0836015D01*
X0501943Y0835807D01*
X0501637Y0835561D01*
X0501337Y0835277D01*
X0501044Y0834956D01*
X0500757Y0834596D01*
Y0839380D01*
X0501044Y0839020D01*
D02*
G37*
G36*
X0739419Y0835106D02*
X0739436Y0834877D01*
X0739451Y0834778D01*
X0739469Y0834689D01*
X0739492Y0834611D01*
X0739519Y0834543D01*
X0739551Y0834486D01*
X0739586Y0834439D01*
X0739626Y0834402D01*
X0738208D01*
X0738248Y0834439D01*
X0738284Y0834486D01*
X0738315Y0834543D01*
X0738342Y0834611D01*
X0738365Y0834689D01*
X0738384Y0834778D01*
X0738398Y0834877D01*
X0738415Y0835106D01*
X0738417Y0835236D01*
X0739417D01*
X0739419Y0835106D01*
D02*
G37*
G36*
X0700419Y0835056D02*
X0700436Y0834827D01*
X0700451Y0834728D01*
X0700469Y0834639D01*
X0700492Y0834561D01*
X0700519Y0834493D01*
X0700551Y0834436D01*
X0700586Y0834389D01*
X0700626Y0834353D01*
X0699208D01*
X0699248Y0834389D01*
X0699284Y0834436D01*
X0699315Y0834493D01*
X0699342Y0834561D01*
X0699365Y0834639D01*
X0699384Y0834728D01*
X0699398Y0834827D01*
X0699415Y0835056D01*
X0699417Y0835186D01*
X0700417D01*
X0700419Y0835056D01*
D02*
G37*
G36*
X0494490Y0824454D02*
X0494183Y0824807D01*
X0493872Y0825122D01*
X0493558Y0825400D01*
X0493239Y0825641D01*
X0492917Y0825844D01*
X0492591Y0826011D01*
X0492261Y0826141D01*
X0491927Y0826234D01*
X0491589Y0826289D01*
X0491248Y0826308D01*
X0491202Y0827308D01*
X0491550Y0827327D01*
X0491888Y0827385D01*
X0492218Y0827481D01*
X0492538Y0827616D01*
X0492850Y0827789D01*
X0493152Y0828001D01*
X0493446Y0828251D01*
X0493731Y0828540D01*
X0494007Y0828867D01*
X0494274Y0829233D01*
X0494490Y0824454D01*
D02*
G37*
G36*
X0499600Y0813512D02*
X0499278Y0813219D01*
X0498994Y0812919D01*
X0498749Y0812613D01*
X0498540Y0812300D01*
X0498370Y0811981D01*
X0498238Y0811656D01*
X0498143Y0811324D01*
X0498087Y0810986D01*
X0498068Y0810642D01*
X0497068D01*
X0497049Y0810986D01*
X0496992Y0811324D01*
X0496897Y0811656D01*
X0496765Y0811981D01*
X0496595Y0812300D01*
X0496386Y0812613D01*
X0496141Y0812919D01*
X0495857Y0813219D01*
X0495535Y0813512D01*
X0495176Y0813799D01*
X0499959D01*
X0499600Y0813512D01*
D02*
G37*
G36*
X0625598Y0809056D02*
X0625615Y0808827D01*
X0625629Y0808728D01*
X0625648Y0808639D01*
X0625671Y0808561D01*
X0625698Y0808493D01*
X0625729Y0808436D01*
X0625765Y0808389D01*
X0625805Y0808353D01*
X0624387D01*
X0624427Y0808389D01*
X0624462Y0808436D01*
X0624494Y0808493D01*
X0624521Y0808561D01*
X0624544Y0808639D01*
X0624563Y0808728D01*
X0624577Y0808827D01*
X0624594Y0809056D01*
X0624596Y0809186D01*
X0625596D01*
X0625598Y0809056D01*
D02*
G37*
G36*
X0670819Y0798856D02*
X0670836Y0798627D01*
X0670851Y0798528D01*
X0670869Y0798439D01*
X0670892Y0798361D01*
X0670919Y0798293D01*
X0670951Y0798236D01*
X0670986Y0798189D01*
X0671026Y0798153D01*
X0669608D01*
X0669648Y0798189D01*
X0669684Y0798236D01*
X0669715Y0798293D01*
X0669742Y0798361D01*
X0669765Y0798439D01*
X0669784Y0798528D01*
X0669798Y0798627D01*
X0669815Y0798856D01*
X0669817Y0798986D01*
X0670817D01*
X0670819Y0798856D01*
D02*
G37*
G36*
X0625686Y0796226D02*
X0625651Y0796179D01*
X0625619Y0796122D01*
X0625592Y0796054D01*
X0625569Y0795976D01*
X0625551Y0795888D01*
X0625536Y0795789D01*
X0625519Y0795559D01*
X0625517Y0795429D01*
X0624517D01*
X0624515Y0795559D01*
X0624498Y0795789D01*
X0624484Y0795888D01*
X0624465Y0795976D01*
X0624442Y0796054D01*
X0624415Y0796122D01*
X0624384Y0796179D01*
X0624348Y0796226D01*
X0624308Y0796263D01*
X0625726D01*
X0625686Y0796226D01*
D02*
G37*
G36*
X0670943Y0796206D02*
X0670900Y0796173D01*
X0670862Y0796128D01*
X0670828Y0796073D01*
X0670799Y0796007D01*
X0670774Y0795931D01*
X0670753Y0795844D01*
X0670738Y0795746D01*
X0670726Y0795637D01*
X0670717Y0795388D01*
X0669717Y0795482D01*
X0669715Y0795612D01*
X0669687Y0795943D01*
X0669671Y0796032D01*
X0669650Y0796111D01*
X0669626Y0796181D01*
X0669598Y0796239D01*
X0669566Y0796288D01*
X0669531Y0796326D01*
X0670943Y0796206D01*
D02*
G37*
G36*
X0625519Y0783756D02*
X0625536Y0783527D01*
X0625551Y0783428D01*
X0625569Y0783339D01*
X0625592Y0783261D01*
X0625619Y0783193D01*
X0625651Y0783136D01*
X0625686Y0783089D01*
X0625726Y0783053D01*
X0624308D01*
X0624348Y0783089D01*
X0624384Y0783136D01*
X0624415Y0783193D01*
X0624442Y0783261D01*
X0624465Y0783339D01*
X0624484Y0783428D01*
X0624498Y0783527D01*
X0624515Y0783756D01*
X0624517Y0783886D01*
X0625517D01*
X0625519Y0783756D01*
D02*
G37*
G36*
X0670717Y0783834D02*
X0670719Y0783703D01*
X0670747Y0783373D01*
X0670764Y0783283D01*
X0670784Y0783204D01*
X0670808Y0783135D01*
X0670836Y0783076D01*
X0670868Y0783028D01*
X0670903Y0782989D01*
X0669491Y0783109D01*
X0669534Y0783143D01*
X0669572Y0783187D01*
X0669606Y0783242D01*
X0669636Y0783308D01*
X0669661Y0783385D01*
X0669681Y0783472D01*
X0669697Y0783570D01*
X0669708Y0783678D01*
X0669717Y0783928D01*
X0670717Y0783834D01*
D02*
G37*
G36*
X0484529Y0944779D02*
X0484495Y0944608D01*
X0484495Y0944608D01*
Y0879208D01*
X0484495Y0879208D01*
X0484633Y0878510D01*
X0485029Y0877919D01*
X0487828Y0875119D01*
X0487828Y0875119D01*
X0488420Y0874724D01*
X0489117Y0874585D01*
X0489117Y0874585D01*
X0491743D01*
X0491992Y0874555D01*
X0492260Y0874499D01*
X0492523Y0874421D01*
X0492781Y0874320D01*
X0493036Y0874195D01*
X0493289Y0874046D01*
X0493541Y0873869D01*
X0493793Y0873666D01*
X0494066Y0873411D01*
X0494114Y0873381D01*
X0494152Y0873339D01*
X0494176Y0873328D01*
X0494506Y0872998D01*
X0495643Y0872342D01*
X0495997Y0872247D01*
Y0871729D01*
X0495643Y0871634D01*
X0494506Y0870978D01*
X0493578Y0870050D01*
X0493496Y0869909D01*
X0493316Y0869683D01*
X0493070Y0869413D01*
X0492828Y0869184D01*
X0492589Y0868993D01*
X0492356Y0868837D01*
X0492127Y0868715D01*
X0491903Y0868624D01*
X0491679Y0868560D01*
X0491453Y0868522D01*
X0491371Y0868517D01*
X0490497D01*
X0489912Y0868401D01*
X0489416Y0868069D01*
X0488036Y0866689D01*
X0487704Y0866193D01*
X0487588Y0865608D01*
Y0828408D01*
X0487704Y0827822D01*
X0488036Y0827326D01*
X0489636Y0825726D01*
X0490132Y0825395D01*
X0490717Y0825278D01*
X0491401D01*
X0491479Y0825274D01*
X0491707Y0825237D01*
X0491937Y0825173D01*
X0492171Y0825081D01*
X0492411Y0824958D01*
X0492658Y0824802D01*
X0492911Y0824610D01*
X0493171Y0824381D01*
X0493435Y0824113D01*
X0493538Y0823995D01*
X0493578Y0823927D01*
X0494506Y0822998D01*
X0495643Y0822342D01*
X0495997Y0822247D01*
Y0821729D01*
X0495643Y0821634D01*
X0494506Y0820978D01*
X0493578Y0820050D01*
X0492921Y0818913D01*
X0492581Y0817645D01*
Y0816332D01*
X0492921Y0815063D01*
X0493578Y0813927D01*
X0494506Y0812998D01*
X0494647Y0812917D01*
X0494873Y0812736D01*
X0495142Y0812491D01*
X0495372Y0812248D01*
X0495563Y0812010D01*
X0495718Y0811777D01*
X0495841Y0811548D01*
X0495932Y0811323D01*
X0495996Y0811100D01*
X0496034Y0810874D01*
X0496038Y0810792D01*
Y0809157D01*
X0496155Y0808572D01*
X0496486Y0808076D01*
X0498236Y0806326D01*
X0498732Y0805995D01*
X0499317Y0805878D01*
X0619917D01*
X0620502Y0805995D01*
X0620999Y0806326D01*
X0622415Y0807743D01*
X0622915Y0807535D01*
Y0806974D01*
X0623247Y0806172D01*
X0623860Y0805559D01*
X0624662Y0805227D01*
X0625530D01*
X0626331Y0805559D01*
X0626945Y0806172D01*
X0627277Y0806974D01*
Y0807842D01*
X0626945Y0808643D01*
X0626627Y0808961D01*
X0626625Y0808987D01*
Y0845553D01*
X0626951Y0845878D01*
X0657318D01*
X0657525Y0845378D01*
X0655436Y0843289D01*
X0655104Y0842793D01*
X0654988Y0842208D01*
Y0826908D01*
X0655104Y0826322D01*
X0655436Y0825826D01*
X0668788Y0812474D01*
Y0798787D01*
X0668786Y0798761D01*
X0668468Y0798443D01*
X0668136Y0797642D01*
Y0796774D01*
X0668468Y0795972D01*
X0668680Y0795761D01*
X0668688Y0795663D01*
Y0783763D01*
X0668268Y0783343D01*
X0667936Y0782542D01*
Y0781674D01*
X0668268Y0780872D01*
X0668882Y0780259D01*
X0669683Y0779927D01*
X0670551D01*
X0671353Y0780259D01*
X0671966Y0780872D01*
X0672298Y0781674D01*
Y0782542D01*
X0671966Y0783343D01*
X0671755Y0783555D01*
X0671747Y0783652D01*
Y0795553D01*
X0672166Y0795972D01*
X0672498Y0796774D01*
Y0797642D01*
X0672166Y0798443D01*
X0671848Y0798761D01*
X0671847Y0798787D01*
Y0813108D01*
X0671730Y0813693D01*
X0671399Y0814189D01*
X0658047Y0827541D01*
Y0833587D01*
X0658547Y0833794D01*
X0658682Y0833659D01*
X0659483Y0833327D01*
X0659521D01*
X0678295Y0814553D01*
Y0798870D01*
X0678268Y0798843D01*
X0677936Y0798042D01*
Y0797174D01*
X0678268Y0796372D01*
X0678295Y0796346D01*
Y0776563D01*
X0676562Y0774830D01*
X0666776D01*
X0666151Y0775089D01*
X0665283D01*
X0664659Y0774830D01*
X0645772D01*
X0642640Y0777963D01*
Y0796046D01*
X0642666Y0796072D01*
X0642998Y0796874D01*
Y0797742D01*
X0642666Y0798543D01*
X0642640Y0798570D01*
Y0799908D01*
X0642640Y0799908D01*
X0642501Y0800605D01*
X0642106Y0801196D01*
X0642106Y0801196D01*
X0641006Y0802296D01*
X0640415Y0802691D01*
X0639717Y0802830D01*
X0639717Y0802830D01*
X0618440D01*
X0617742Y0802691D01*
X0617151Y0802296D01*
X0617151Y0802296D01*
X0616228Y0801374D01*
X0615834Y0800783D01*
X0615695Y0800085D01*
X0615695Y0800085D01*
Y0777689D01*
X0615683D01*
X0614882Y0777357D01*
X0614268Y0776743D01*
X0613936Y0775942D01*
Y0775804D01*
X0613362Y0775230D01*
X0573979D01*
X0573953Y0775257D01*
X0573151Y0775589D01*
X0572283D01*
X0571482Y0775257D01*
X0571455Y0775230D01*
X0486379D01*
X0486353Y0775257D01*
X0485551Y0775589D01*
X0484683D01*
X0483882Y0775257D01*
X0483855Y0775230D01*
X0431579D01*
X0431553Y0775257D01*
X0430751Y0775589D01*
X0429883D01*
X0429082Y0775257D01*
X0429055Y0775230D01*
X0419772D01*
X0417540Y0777463D01*
Y0938713D01*
X0423581Y0944755D01*
X0423649Y0944810D01*
X0423779Y0944898D01*
X0423911Y0944973D01*
X0424046Y0945035D01*
X0424185Y0945086D01*
X0424332Y0945127D01*
X0424486Y0945156D01*
X0424572Y0945166D01*
X0484212D01*
X0484529Y0944779D01*
D02*
G37*
%LPC*%
G36*
X0471451Y0901089D02*
X0470583D01*
X0469782Y0900757D01*
X0469168Y0900143D01*
X0468836Y0899342D01*
Y0898489D01*
X0465898Y0895552D01*
X0465398Y0895759D01*
Y0896042D01*
X0465066Y0896843D01*
X0464453Y0897457D01*
X0463651Y0897789D01*
X0462783D01*
X0461982Y0897457D01*
X0461368Y0896843D01*
X0461036Y0896042D01*
Y0895592D01*
X0461019Y0895572D01*
X0459336Y0893889D01*
X0459004Y0893393D01*
X0458888Y0892808D01*
Y0819387D01*
X0458886Y0819361D01*
X0458568Y0819043D01*
X0458236Y0818242D01*
Y0817374D01*
X0458568Y0816572D01*
X0459182Y0815959D01*
X0459983Y0815627D01*
X0460851D01*
X0461653Y0815959D01*
X0462117Y0816423D01*
X0462582Y0815959D01*
X0463383Y0815627D01*
X0464251D01*
X0465053Y0815959D01*
X0465666Y0816572D01*
X0465998Y0817374D01*
Y0818242D01*
X0465666Y0819043D01*
X0465348Y0819361D01*
X0465347Y0819387D01*
Y0890674D01*
X0471377Y0896704D01*
X0471405Y0896727D01*
X0471451D01*
X0472253Y0897059D01*
X0472866Y0897672D01*
X0473198Y0898474D01*
Y0899342D01*
X0472866Y0900143D01*
X0472253Y0900757D01*
X0471451Y0901089D01*
D02*
G37*
G36*
X0477651Y0878489D02*
X0476783D01*
X0475982Y0878157D01*
X0475368Y0877543D01*
X0475036Y0876742D01*
Y0876292D01*
X0475019Y0876272D01*
X0472636Y0873889D01*
X0472304Y0873393D01*
X0472188Y0872808D01*
Y0819787D01*
X0472186Y0819761D01*
X0471868Y0819443D01*
X0471536Y0818642D01*
Y0817774D01*
X0471868Y0816972D01*
X0472482Y0816359D01*
X0473283Y0816027D01*
X0474151D01*
X0474953Y0816359D01*
X0475566Y0816972D01*
X0475898Y0817774D01*
Y0818642D01*
X0475566Y0819443D01*
X0475248Y0819761D01*
X0475247Y0819787D01*
Y0872174D01*
X0477182Y0874109D01*
X0477202Y0874127D01*
X0477651D01*
X0478453Y0874459D01*
X0479066Y0875072D01*
X0479398Y0875874D01*
Y0876742D01*
X0479066Y0877543D01*
X0478453Y0878157D01*
X0477651Y0878489D01*
D02*
G37*
G36*
X0427351Y0926789D02*
X0426483D01*
X0425682Y0926457D01*
X0425068Y0925843D01*
X0424736Y0925042D01*
Y0924801D01*
X0424669Y0924722D01*
X0422736Y0922789D01*
X0422404Y0922293D01*
X0422288Y0921708D01*
Y0816387D01*
X0422286Y0816361D01*
X0421968Y0816043D01*
X0421636Y0815242D01*
Y0814374D01*
X0421968Y0813572D01*
X0422582Y0812959D01*
X0423383Y0812627D01*
X0424251D01*
X0425053Y0812959D01*
X0425617Y0813523D01*
X0426182Y0812959D01*
X0426983Y0812627D01*
X0427851D01*
X0428653Y0812959D01*
X0429266Y0813572D01*
X0429598Y0814374D01*
Y0815242D01*
X0429266Y0816043D01*
X0428948Y0816361D01*
X0428947Y0816387D01*
Y0906374D01*
X0432482Y0909909D01*
X0432502Y0909927D01*
X0432951D01*
X0433753Y0910259D01*
X0434366Y0910872D01*
X0434698Y0911674D01*
Y0912542D01*
X0434366Y0913343D01*
X0433753Y0913957D01*
X0432951Y0914289D01*
X0432083D01*
X0431282Y0913957D01*
X0430668Y0913343D01*
X0430336Y0912542D01*
Y0912092D01*
X0430319Y0912072D01*
X0426336Y0908089D01*
X0426004Y0907593D01*
X0425888Y0907008D01*
Y0817030D01*
X0425617Y0816874D01*
X0425347Y0817030D01*
Y0921074D01*
X0426699Y0922427D01*
X0427351D01*
X0428153Y0922759D01*
X0428766Y0923372D01*
X0429098Y0924174D01*
Y0925042D01*
X0428766Y0925843D01*
X0428153Y0926457D01*
X0427351Y0926789D01*
D02*
G37*
%LPD*%
G36*
X0471135Y0897733D02*
X0471091Y0897724D01*
X0471041Y0897706D01*
X0470986Y0897678D01*
X0470925Y0897642D01*
X0470859Y0897596D01*
X0470710Y0897476D01*
X0470538Y0897320D01*
X0470444Y0897228D01*
X0469542Y0897739D01*
X0469632Y0897833D01*
X0469777Y0898006D01*
X0469833Y0898086D01*
X0469877Y0898161D01*
X0469909Y0898231D01*
X0469930Y0898297D01*
X0469939Y0898358D01*
X0469936Y0898414D01*
X0469922Y0898466D01*
X0471135Y0897733D01*
D02*
G37*
G36*
X0463050Y0894438D02*
X0462996Y0894441D01*
X0462938Y0894433D01*
X0462875Y0894414D01*
X0462808Y0894386D01*
X0462737Y0894347D01*
X0462661Y0894297D01*
X0462580Y0894237D01*
X0462407Y0894087D01*
X0462313Y0893997D01*
X0461606Y0894704D01*
X0461696Y0894797D01*
X0461847Y0894971D01*
X0461906Y0895051D01*
X0461956Y0895127D01*
X0461995Y0895199D01*
X0462024Y0895266D01*
X0462042Y0895329D01*
X0462050Y0895387D01*
X0462048Y0895441D01*
X0463050Y0894438D01*
D02*
G37*
G36*
X0464319Y0819456D02*
X0464336Y0819227D01*
X0464351Y0819128D01*
X0464369Y0819039D01*
X0464392Y0818961D01*
X0464419Y0818893D01*
X0464451Y0818836D01*
X0464486Y0818789D01*
X0464526Y0818753D01*
X0463108D01*
X0463148Y0818789D01*
X0463184Y0818836D01*
X0463215Y0818893D01*
X0463242Y0818961D01*
X0463265Y0819039D01*
X0463284Y0819128D01*
X0463298Y0819227D01*
X0463315Y0819456D01*
X0463317Y0819586D01*
X0464317D01*
X0464319Y0819456D01*
D02*
G37*
G36*
X0460919D02*
X0460936Y0819227D01*
X0460951Y0819128D01*
X0460969Y0819039D01*
X0460992Y0818961D01*
X0461019Y0818893D01*
X0461051Y0818836D01*
X0461086Y0818789D01*
X0461126Y0818753D01*
X0459708D01*
X0459748Y0818789D01*
X0459784Y0818836D01*
X0459815Y0818893D01*
X0459842Y0818961D01*
X0459865Y0819039D01*
X0459884Y0819128D01*
X0459898Y0819227D01*
X0459915Y0819456D01*
X0459917Y0819586D01*
X0460917D01*
X0460919Y0819456D01*
D02*
G37*
G36*
X0477050Y0875138D02*
X0476996Y0875141D01*
X0476938Y0875133D01*
X0476875Y0875114D01*
X0476808Y0875086D01*
X0476737Y0875047D01*
X0476661Y0874997D01*
X0476580Y0874937D01*
X0476407Y0874787D01*
X0476313Y0874697D01*
X0475606Y0875404D01*
X0475697Y0875497D01*
X0475847Y0875671D01*
X0475907Y0875751D01*
X0475956Y0875827D01*
X0475995Y0875899D01*
X0476024Y0875966D01*
X0476042Y0876029D01*
X0476050Y0876087D01*
X0476048Y0876141D01*
X0477050Y0875138D01*
D02*
G37*
G36*
X0474219Y0819856D02*
X0474236Y0819627D01*
X0474251Y0819528D01*
X0474269Y0819439D01*
X0474292Y0819361D01*
X0474319Y0819293D01*
X0474351Y0819236D01*
X0474386Y0819189D01*
X0474426Y0819153D01*
X0473008D01*
X0473048Y0819189D01*
X0473084Y0819236D01*
X0473115Y0819293D01*
X0473142Y0819361D01*
X0473165Y0819439D01*
X0473184Y0819528D01*
X0473198Y0819627D01*
X0473215Y0819856D01*
X0473217Y0819987D01*
X0474217D01*
X0474219Y0819856D01*
D02*
G37*
G36*
X0426611Y0923467D02*
X0426557Y0923475D01*
X0426499Y0923473D01*
X0426436Y0923459D01*
X0426369Y0923435D01*
X0426298Y0923399D01*
X0426222Y0923353D01*
X0426141Y0923295D01*
X0426057Y0923227D01*
X0425874Y0923057D01*
X0425261Y0923859D01*
X0425352Y0923953D01*
X0425568Y0924205D01*
X0425620Y0924280D01*
X0425663Y0924350D01*
X0425696Y0924415D01*
X0425719Y0924475D01*
X0425733Y0924531D01*
X0425736Y0924582D01*
X0426611Y0923467D01*
D02*
G37*
G36*
X0432350Y0910938D02*
X0432296Y0910941D01*
X0432238Y0910933D01*
X0432175Y0910914D01*
X0432108Y0910886D01*
X0432037Y0910847D01*
X0431961Y0910797D01*
X0431881Y0910737D01*
X0431707Y0910587D01*
X0431613Y0910497D01*
X0430906Y0911204D01*
X0430997Y0911297D01*
X0431147Y0911471D01*
X0431207Y0911551D01*
X0431256Y0911627D01*
X0431295Y0911699D01*
X0431324Y0911766D01*
X0431342Y0911829D01*
X0431350Y0911887D01*
X0431348Y0911941D01*
X0432350Y0910938D01*
D02*
G37*
G36*
X0427919Y0816456D02*
X0427936Y0816227D01*
X0427951Y0816128D01*
X0427969Y0816039D01*
X0427992Y0815961D01*
X0428019Y0815893D01*
X0428051Y0815836D01*
X0428086Y0815789D01*
X0428126Y0815753D01*
X0426709D01*
X0426748Y0815789D01*
X0426784Y0815836D01*
X0426815Y0815893D01*
X0426842Y0815961D01*
X0426865Y0816039D01*
X0426884Y0816128D01*
X0426898Y0816227D01*
X0426915Y0816456D01*
X0426917Y0816586D01*
X0427917D01*
X0427919Y0816456D01*
D02*
G37*
G36*
X0424319D02*
X0424336Y0816227D01*
X0424351Y0816128D01*
X0424369Y0816039D01*
X0424392Y0815961D01*
X0424419Y0815893D01*
X0424451Y0815836D01*
X0424486Y0815789D01*
X0424526Y0815753D01*
X0423108D01*
X0423148Y0815789D01*
X0423184Y0815836D01*
X0423215Y0815893D01*
X0423242Y0815961D01*
X0423265Y0816039D01*
X0423284Y0816128D01*
X0423298Y0816227D01*
X0423315Y0816456D01*
X0423317Y0816586D01*
X0424317D01*
X0424319Y0816456D01*
D02*
G37*
G36*
X0611372Y0918899D02*
X0611336Y0918939D01*
X0611289Y0918974D01*
X0611232Y0919005D01*
X0611164Y0919033D01*
X0611086Y0919056D01*
X0610997Y0919074D01*
X0610898Y0919089D01*
X0610669Y0919106D01*
X0610538Y0919108D01*
Y0920108D01*
X0610669Y0920110D01*
X0610898Y0920127D01*
X0610997Y0920141D01*
X0611086Y0920160D01*
X0611164Y0920183D01*
X0611232Y0920210D01*
X0611289Y0920241D01*
X0611336Y0920277D01*
X0611372Y0920316D01*
Y0918899D01*
D02*
G37*
G36*
X0599299Y0920277D02*
X0599345Y0920241D01*
X0599403Y0920210D01*
X0599471Y0920183D01*
X0599549Y0920160D01*
X0599637Y0920141D01*
X0599736Y0920127D01*
X0599966Y0920110D01*
X0600096Y0920108D01*
Y0919108D01*
X0599966Y0919106D01*
X0599736Y0919089D01*
X0599637Y0919074D01*
X0599549Y0919056D01*
X0599471Y0919033D01*
X0599403Y0919005D01*
X0599345Y0918974D01*
X0599299Y0918939D01*
X0599262Y0918899D01*
Y0920316D01*
X0599299Y0920277D01*
D02*
G37*
G36*
X0622486Y0912226D02*
X0622451Y0912179D01*
X0622419Y0912122D01*
X0622392Y0912054D01*
X0622369Y0911976D01*
X0622351Y0911888D01*
X0622336Y0911789D01*
X0622319Y0911559D01*
X0622317Y0911429D01*
X0621317D01*
X0621315Y0911559D01*
X0621298Y0911789D01*
X0621284Y0911888D01*
X0621265Y0911976D01*
X0621242Y0912054D01*
X0621215Y0912122D01*
X0621184Y0912179D01*
X0621148Y0912226D01*
X0621108Y0912263D01*
X0622526D01*
X0622486Y0912226D01*
D02*
G37*
G36*
X0622284Y0902549D02*
X0622687Y0902200D01*
X0622725Y0902178D01*
X0622756Y0902166D01*
X0622778Y0902164D01*
X0621897Y0901383D01*
X0621899Y0901407D01*
X0621891Y0901439D01*
X0621873Y0901478D01*
X0621844Y0901524D01*
X0621806Y0901577D01*
X0621699Y0901706D01*
X0621552Y0901864D01*
X0621464Y0901954D01*
X0622188Y0902644D01*
X0622284Y0902549D01*
D02*
G37*
G36*
X0885205Y0880128D02*
X0884997Y0880386D01*
X0884781Y0880618D01*
X0884557Y0880822D01*
X0884325Y0880998D01*
X0884085Y0881148D01*
X0883837Y0881270D01*
X0883581Y0881366D01*
X0883317Y0881434D01*
X0883045Y0881474D01*
X0882766Y0881488D01*
Y0882488D01*
X0883045Y0882502D01*
X0883317Y0882543D01*
X0883581Y0882611D01*
X0883837Y0882706D01*
X0884085Y0882828D01*
X0884325Y0882978D01*
X0884557Y0883155D01*
X0884781Y0883359D01*
X0884997Y0883590D01*
X0885205Y0883848D01*
Y0880128D01*
D02*
G37*
G36*
X0871250Y0868448D02*
X0871252Y0868390D01*
X0871266Y0868327D01*
X0871290Y0868260D01*
X0871326Y0868188D01*
X0871372Y0868112D01*
X0871430Y0868032D01*
X0871498Y0867947D01*
X0871668Y0867764D01*
X0870866Y0867152D01*
X0870772Y0867243D01*
X0870520Y0867459D01*
X0870445Y0867511D01*
X0870375Y0867554D01*
X0870310Y0867586D01*
X0870249Y0867610D01*
X0870194Y0867623D01*
X0870143Y0867627D01*
X0871258Y0868502D01*
X0871250Y0868448D01*
D02*
G37*
G36*
X0802629Y0833312D02*
X0802538Y0833218D01*
X0802388Y0833044D01*
X0802328Y0832964D01*
X0802279Y0832888D01*
X0802239Y0832817D01*
X0802211Y0832750D01*
X0802192Y0832687D01*
X0802184Y0832629D01*
X0802186Y0832575D01*
X0801184Y0833577D01*
X0801238Y0833575D01*
X0801296Y0833583D01*
X0801359Y0833601D01*
X0801426Y0833630D01*
X0801498Y0833669D01*
X0801573Y0833718D01*
X0801654Y0833778D01*
X0801828Y0833928D01*
X0801921Y0834019D01*
X0802629Y0833312D01*
D02*
G37*
G36*
X0842899Y0832777D02*
X0842945Y0832741D01*
X0843003Y0832710D01*
X0843071Y0832683D01*
X0843149Y0832660D01*
X0843237Y0832641D01*
X0843336Y0832627D01*
X0843566Y0832610D01*
X0843696Y0832608D01*
Y0831608D01*
X0843566Y0831606D01*
X0843336Y0831589D01*
X0843237Y0831574D01*
X0843149Y0831556D01*
X0843071Y0831533D01*
X0843003Y0831505D01*
X0842945Y0831474D01*
X0842899Y0831439D01*
X0842862Y0831399D01*
Y0832816D01*
X0842899Y0832777D01*
D02*
G37*
D86*
X0631779Y0893418D02*
G03*
X0632779Y0892418I0001000J0000000D01*
G01*
X0631779Y0893419D02*
G03*
X0629992Y0893419I-0000894J0000000D01*
G01*
X0628205Y0893312D02*
G03*
X0629992Y0893312I0000894J0000000D01*
G01*
X0628205Y0893824D02*
G03*
X0626417Y0893824I-0000894J0000000D01*
G01*
X0625417Y0892418D02*
G03*
X0626417Y0893418I0000000J0001000D01*
G01*
X0622017Y0925808D02*
X0625017Y0928808D01*
X0648717D01*
X0801017Y0832408D02*
X0804317Y0835708D01*
X0873217D01*
X0841217Y0846208D02*
Y0918208D01*
X0658917Y0844608D02*
X0839617D01*
X0841217Y0846208D01*
X0837417Y0848508D02*
Y0918908D01*
X0626317Y0847408D02*
X0836317D01*
X0837417Y0848508D01*
X0829117Y0850308D02*
X0830217Y0851408D01*
Y0918908D01*
X0623717Y0850308D02*
X0829117D01*
X0815917Y0854408D02*
Y0856308D01*
X0814617Y0853108D02*
X0815917Y0854408D01*
X0621917Y0853108D02*
X0814617D01*
X0851017Y0843408D02*
Y0850508D01*
X0849417Y0841808D02*
X0851017Y0843408D01*
X0702217Y0841808D02*
X0849417D01*
X0656517Y0842208D02*
X0658917Y0844608D01*
X0656517Y0826908D02*
Y0842208D01*
Y0826908D02*
X0670317Y0813108D01*
X0619917Y0807408D02*
X0622317Y0809808D01*
X0499317Y0807408D02*
X0619917D01*
X0622317Y0809808D02*
Y0848908D01*
X0497568Y0809157D02*
X0499317Y0807408D01*
X0497568Y0809157D02*
Y0816988D01*
X0518117Y0812008D02*
Y0847108D01*
Y0812008D02*
X0519917Y0810208D01*
X0618117D01*
X0622317Y0848908D02*
X0623717Y0850308D01*
X0625096Y0846187D02*
X0626317Y0847408D01*
X0625096Y0807408D02*
Y0846187D01*
X0619617Y0850808D02*
X0621917Y0853108D01*
X0619617Y0811708D02*
Y0850808D01*
X0618117Y0810208D02*
X0619617Y0811708D01*
X0826617Y0922508D02*
X0830217Y0918908D01*
X0699917Y0839508D02*
X0702217Y0841808D01*
X0738917Y0837608D02*
X0740717Y0839408D01*
X0865917D01*
X0738917Y0833457D02*
Y0837608D01*
X0699917Y0833408D02*
Y0839508D01*
X0841917Y0832108D02*
X0877517D01*
X0879017Y0833608D02*
Y0879208D01*
X0877517Y0832108D02*
X0879017Y0833608D01*
X0873217Y0835708D02*
X0874617Y0837108D01*
Y0864108D01*
X0867817Y0841308D02*
Y0860508D01*
X0865917Y0839408D02*
X0867817Y0841308D01*
X0666917Y0926408D02*
X0673417D01*
X0675717Y0928708D01*
X0664717Y0924208D02*
X0666917Y0926408D01*
X0675717Y0928708D02*
Y0980108D01*
X0679217Y0926508D02*
Y0978008D01*
X0670917Y0922108D02*
X0674817D01*
X0679217Y0926508D01*
Y0978008D02*
X0695317Y0994108D01*
X0675717Y0980108D02*
X0684917Y0989308D01*
X0664717Y0922208D02*
X0664817Y0922108D01*
X0664717Y0922208D02*
Y0924208D01*
X0632779Y0892418D02*
X0637617D01*
X0631779Y0893418D02*
Y0893419D01*
X0629992Y0893312D02*
Y0893419D01*
X0628205Y0893312D02*
Y0893824D01*
X0626417Y0893418D02*
Y0893824D01*
X0624917Y0892418D02*
X0625417D01*
X0637617D02*
X0646454D01*
X0591828D02*
X0624917D01*
X0591207Y0890918D02*
X0646454D01*
X0730817Y1002608D02*
Y1002999D01*
Y0947008D02*
Y1002608D01*
X0728017Y0944208D02*
X0730817Y0947008D01*
X0684717Y0944208D02*
X0728017D01*
X0612317Y0919608D02*
X0612698D01*
X0598317D02*
X0612317D01*
X0498187Y0906368D02*
X0531557D01*
X0497568Y0906988D02*
X0498187Y0906368D01*
X0531557D02*
X0531817Y0906108D01*
X0549417Y0903308D02*
X0554017Y0898708D01*
X0549417Y0903308D02*
Y0935908D01*
X0550917Y0903929D02*
X0554638Y0900208D01*
X0498659Y0988787D02*
X0550917Y0936529D01*
X0497159Y0988166D02*
X0549417Y0935908D01*
X0550917Y0903929D02*
Y0936529D01*
X0554638Y0900208D02*
X0556454D01*
X0554017Y0898708D02*
X0556454D01*
X0590717Y1021508D02*
X0591617Y1020608D01*
X0528017Y1021508D02*
X0590717D01*
X0591617Y0939008D02*
Y1020608D01*
X0527117Y1005708D02*
Y1020608D01*
X0528017Y1021508D01*
X0526317Y1004908D02*
X0527117Y1005708D01*
X0503517Y1004908D02*
X0526317D01*
X0660617Y0880008D02*
X0660717Y0880108D01*
X0657317Y0876708D02*
X0660617Y0880008D01*
X0642478Y0876747D02*
X0643441D01*
X0642217Y0877008D02*
X0642478Y0876747D01*
X0643441D02*
X0643480Y0876708D01*
X0657317D01*
X0622017Y0920908D02*
Y0925808D01*
X0576417Y0928508D02*
X0620017D01*
X0498659Y0988787D02*
Y0990158D01*
X0497159Y0988166D02*
Y0990154D01*
X0496778Y0990535D02*
X0497159Y0990154D01*
X0498659Y0990158D02*
X0499028Y0990527D01*
X0496778Y0990535D02*
Y0991547D01*
X0496517Y0991808D02*
X0496778Y0991547D01*
X0499028Y0990527D02*
Y0991555D01*
X0499289Y0991816D01*
X0538617Y0983108D02*
X0571417Y0950308D01*
X0538617Y0983108D02*
Y0989073D01*
X0571417Y0933508D02*
X0576417Y0928508D01*
X0571417Y0933508D02*
Y0950308D01*
X0634117Y0925008D02*
X0634717Y0925608D01*
X0637617D01*
X0639217Y0924008D01*
Y0909808D02*
Y0924008D01*
X0621817Y0902308D02*
X0623217Y0900908D01*
X0621817Y0902308D02*
Y0913208D01*
X0556454Y0900208D02*
X0556821Y0900575D01*
X0556454Y0898708D02*
X0556821Y0898341D01*
X0557857D01*
Y0900575D02*
X0558117Y0900836D01*
X0557857Y0898341D02*
X0558117Y0898080D01*
X0556821Y0900575D02*
X0557857D01*
X0575581Y0900208D02*
X0584038D01*
X0583417Y0898708D02*
X0591207Y0890918D01*
X0584038Y0900208D02*
X0591828Y0892418D01*
X0575581Y0898708D02*
X0583417D01*
X0575214Y0900575D02*
X0575581Y0900208D01*
X0573917Y0898080D02*
X0574178Y0898341D01*
Y0900575D02*
X0575214D01*
X0574178Y0898341D02*
X0575214D01*
X0573917Y0900836D02*
X0574178Y0900575D01*
X0575214Y0898341D02*
X0575581Y0898708D01*
X0502843Y1005582D02*
X0503517Y1004908D01*
X0502843Y1005582D02*
Y1018557D01*
X0570317Y0965208D02*
Y0997808D01*
X0568917Y0999208D02*
X0570317Y0997808D01*
X0553517Y0999208D02*
X0568917D01*
X0841217Y0918208D02*
X0851917Y0928908D01*
X0837417Y0918908D02*
X0843617Y0925108D01*
X0863017Y0865308D02*
X0867817Y0860508D01*
X0869817Y0868908D02*
X0874617Y0864108D01*
X0881798Y0881988D02*
X0887686D01*
X0879017Y0879208D02*
X0881798Y0881988D01*
X0670317Y0797208D02*
Y0813108D01*
X0670117Y0782108D02*
X0670217Y0782208D01*
Y0797108D02*
X0670317Y0797208D01*
X0670217Y0782208D02*
Y0797108D01*
X0625017Y0797208D02*
Y0797508D01*
Y0782108D02*
Y0797208D01*
X0473717Y0818208D02*
Y0872808D01*
X0477317Y0876408D01*
X0427417Y0814808D02*
Y0907008D01*
X0432417Y0912008D02*
Y0912208D01*
X0427417Y0907008D02*
X0432417Y0912008D01*
X0423817Y0814808D02*
Y0921708D01*
X0426917Y0924808D01*
X0460417Y0892808D02*
X0463217Y0895608D01*
X0460417Y0817808D02*
Y0892808D01*
X0463817Y0891308D02*
X0470917Y0898408D01*
X0463817Y0817808D02*
Y0891308D01*
X0506217Y0887008D02*
X0507617Y0885608D01*
Y0858608D02*
Y0885608D01*
X0497817Y0887008D02*
X0506217D01*
X0505998Y0856988D02*
X0507617Y0858608D01*
X0497568Y0856988D02*
X0505998D01*
X0509298Y0836988D02*
X0511717Y0839408D01*
X0497568Y0836988D02*
X0509298D01*
X0511717Y0839408D02*
Y0894308D01*
X0498117Y0897108D02*
X0508917D01*
X0511717Y0894308D01*
X0490717Y0826808D02*
X0497917D01*
X0489117Y0828408D02*
X0490717Y0826808D01*
X0489117Y0828408D02*
Y0865608D01*
X0490497Y0866988D01*
X0497568D01*
X0647054Y0890551D02*
X0648017D01*
X0648278Y0890290D01*
X0647054Y0890551D02*
X0647054Y0890551D01*
X0646821Y0890551D02*
X0647054D01*
X0647857Y0892786D02*
X0648117Y0893046D01*
X0646821Y0892786D02*
X0647857D01*
X0646454Y0892418D02*
X0646821Y0892786D01*
X0646454Y0890918D02*
X0646821Y0890551D01*
D87*
X0653367Y0879808D02*
Y0880021D01*
X0652317Y0881070D02*
X0653367Y0880021D01*
X0652317Y0881070D02*
Y0931108D01*
X0649717Y0933708D02*
X0652317Y0931108D01*
X0618440Y0801008D02*
X0639717D01*
X0616167Y0775474D02*
X0617517Y0776824D01*
Y0800085D01*
X0616167Y0775458D02*
Y0775474D01*
X0614117Y0773408D02*
X0616167Y0775458D01*
X0617517Y0800085D02*
X0618440Y0801008D01*
X0574717Y0937308D02*
Y0962208D01*
Y0984408D02*
Y1008685D01*
Y0962208D02*
Y0984408D01*
X0575640Y1009608D02*
X0586617D01*
X0574717Y1008685D02*
X0575640Y1009608D01*
X0574717Y0937308D02*
X0578317Y0933708D01*
X0639717Y0801008D02*
X0640817Y0799908D01*
Y0777208D02*
Y0799908D01*
X0430317Y0773408D02*
X0485117D01*
X0419017D02*
X0430317D01*
X0485117D02*
X0572717D01*
X0614117D01*
X0677317Y0773008D02*
X0680117Y0775808D01*
X0645017Y0773008D02*
X0677317D01*
X0680117Y0775808D02*
Y0797608D01*
X0659917Y0835508D02*
X0680117Y0815308D01*
Y0797608D02*
Y0815308D01*
X0640817Y0777208D02*
X0645017Y0773008D01*
X0415717Y0939468D02*
X0423237Y0946988D01*
X0415717Y0776708D02*
Y0939468D01*
X0418237Y0951988D02*
X0423237Y0946988D01*
X0488697D01*
X0395560Y0951988D02*
X0418237D01*
X0486317Y0944608D02*
X0488697Y0946988D01*
X0486317Y0879208D02*
Y0944608D01*
X0488697Y0946988D02*
X0497568D01*
X0489117Y0876408D02*
X0496987D01*
X0497568Y0876988D01*
X0486317Y0879208D02*
X0489117Y0876408D01*
X0415717Y0776708D02*
X0419017Y0773408D01*
X0578317Y0933708D02*
X0649717D01*
D89*
X0531617Y0862908D02*
X0540517Y0871808D01*
X0491117Y0977608D02*
X0540517Y0928208D01*
Y0871808D02*
Y0928208D01*
X0742217Y0871808D02*
X0751517Y0881108D01*
X0540517Y0871808D02*
X0742217D01*
X0566017Y0884908D02*
Y0938608D01*
X0528217Y0976408D02*
Y0985608D01*
Y0976408D02*
X0566017Y0938608D01*
X0469217Y0977608D02*
X0491117D01*
X0566017Y0884908D02*
X0569317Y0881608D01*
X0574276Y0861308D02*
X0762917D01*
X0769917Y0868308D02*
Y0946708D01*
X0762917Y0861308D02*
X0769917Y0868308D01*
X0751517Y0881108D02*
Y0971008D01*
X0763717Y0983208D01*
X0831149Y0766240D02*
X0831517Y0766608D01*
X0791285Y0766240D02*
X0791917Y0765608D01*
X0570817Y0846708D02*
Y0857848D01*
X0574276Y0861308D01*
X0531617Y0853057D02*
Y0862908D01*
X0776617Y0953408D02*
X0803517D01*
X0769917Y0946708D02*
X0776617Y0953408D01*
X0803517D02*
X0809417Y0959308D01*
Y0978908D01*
X0813317Y0982808D01*
X0687817Y0806708D02*
X0691585Y0802940D01*
Y0769699D02*
Y0802940D01*
Y0769699D02*
X0695044Y0766240D01*
X0713473D02*
X0750949D01*
X0695044D02*
X0713473D01*
X0792213D02*
X0831149D01*
X0752843D02*
X0791285D01*
X0750949D02*
X0751417Y0766708D01*
D91*
X0785678Y0896988D02*
D03*
X0497568Y0946988D02*
D03*
D92*
X0785678Y0886988D02*
D03*
Y0876988D02*
D03*
Y0866988D02*
D03*
X0497568Y0816988D02*
D03*
Y0826988D02*
D03*
Y0836988D02*
D03*
Y0846988D02*
D03*
Y0856988D02*
D03*
Y0866988D02*
D03*
Y0876988D02*
D03*
Y0886988D02*
D03*
Y0896988D02*
D03*
Y0906988D02*
D03*
Y0916988D02*
D03*
Y0926988D02*
D03*
Y0936988D02*
D03*
X0831583Y0766240D02*
D03*
X0845363Y0745768D02*
D03*
X0792213Y0766240D02*
D03*
X0805993Y0745768D02*
D03*
X0752843Y0766240D02*
D03*
X0766623Y0745768D02*
D03*
X0713473Y0766240D02*
D03*
X0727253Y0745768D02*
D03*
D93*
X0395560Y0951988D02*
D03*
X0887686D02*
D03*
D94*
X0395560Y0941988D02*
D03*
Y0931988D02*
D03*
Y0921988D02*
D03*
Y0911988D02*
D03*
Y0901988D02*
D03*
Y0891988D02*
D03*
Y0881988D02*
D03*
Y0871988D02*
D03*
Y0861988D02*
D03*
Y0851988D02*
D03*
Y0841988D02*
D03*
Y0831988D02*
D03*
Y0821988D02*
D03*
Y0811988D02*
D03*
X0887686Y0941988D02*
D03*
Y0931988D02*
D03*
Y0921988D02*
D03*
Y0911988D02*
D03*
Y0901988D02*
D03*
Y0891988D02*
D03*
Y0881988D02*
D03*
Y0871988D02*
D03*
Y0861988D02*
D03*
Y0851988D02*
D03*
Y0841988D02*
D03*
Y0831988D02*
D03*
Y0821988D02*
D03*
Y0811988D02*
D03*
D95*
X0512961Y1015138D02*
D03*
X0478945D02*
D03*
D96*
X0512961Y1031594D02*
D03*
X0478945D02*
D03*
D97*
X0484575Y1017106D02*
D03*
X0507331D02*
D03*
D98*
X0439851Y0987303D02*
D03*
D99*
Y1010925D02*
D03*
D100*
X0421347Y0999114D02*
D03*
D101*
X0779171Y1021887D02*
D03*
X0799171D02*
D03*
X0826415D02*
D03*
X0846415D02*
D03*
D102*
X0881780Y1023720D02*
D03*
X0401465D02*
D03*
Y0740256D02*
D03*
X0881780D02*
D03*
D103*
X0571617Y1003708D02*
D03*
X0648717Y0928808D02*
D03*
X0874016Y0992126D02*
D03*
Y0968504D02*
D03*
Y0944882D02*
D03*
Y0921260D02*
D03*
Y0897638D02*
D03*
Y0874016D02*
D03*
Y0755906D02*
D03*
X0850394Y1015748D02*
D03*
Y0944882D02*
D03*
Y0921260D02*
D03*
Y0897638D02*
D03*
Y0874016D02*
D03*
Y0826772D02*
D03*
X0826772D02*
D03*
X0803150Y1015748D02*
D03*
Y0897638D02*
D03*
Y0874016D02*
D03*
X0779528D02*
D03*
Y0826772D02*
D03*
X0755906Y1015748D02*
D03*
Y0992126D02*
D03*
Y0874016D02*
D03*
Y0826772D02*
D03*
X0732284Y0897638D02*
D03*
Y0826772D02*
D03*
X0708662Y1015748D02*
D03*
Y0921260D02*
D03*
Y0897638D02*
D03*
Y0826772D02*
D03*
X0685040Y1015748D02*
D03*
Y0921260D02*
D03*
Y0897638D02*
D03*
Y0826772D02*
D03*
Y0779528D02*
D03*
Y0755906D02*
D03*
Y0732284D02*
D03*
X0661417Y0992126D02*
D03*
Y0968504D02*
D03*
Y0944882D02*
D03*
Y0921260D02*
D03*
Y0826772D02*
D03*
Y0803150D02*
D03*
Y0779528D02*
D03*
Y0732284D02*
D03*
X0637795Y0968504D02*
D03*
Y0944882D02*
D03*
Y0897638D02*
D03*
Y0826772D02*
D03*
Y0755906D02*
D03*
Y0732284D02*
D03*
X0614173Y0992126D02*
D03*
Y0968504D02*
D03*
Y0944882D02*
D03*
Y0897638D02*
D03*
Y0850394D02*
D03*
Y0826772D02*
D03*
Y0803150D02*
D03*
Y0779528D02*
D03*
Y0732284D02*
D03*
X0590551Y0921260D02*
D03*
Y0897638D02*
D03*
Y0803150D02*
D03*
Y0779528D02*
D03*
Y0755906D02*
D03*
Y0732284D02*
D03*
X0566929Y1015748D02*
D03*
Y0803150D02*
D03*
Y0779528D02*
D03*
Y0732284D02*
D03*
X0543307Y1015748D02*
D03*
Y0803150D02*
D03*
Y0779528D02*
D03*
Y0755906D02*
D03*
Y0732284D02*
D03*
X0519685Y0850394D02*
D03*
Y0803150D02*
D03*
Y0779528D02*
D03*
Y0732284D02*
D03*
X0496063Y0803150D02*
D03*
Y0779528D02*
D03*
Y0732284D02*
D03*
X0472441Y0779528D02*
D03*
Y0755906D02*
D03*
Y0732284D02*
D03*
X0448819Y1015748D02*
D03*
Y0921260D02*
D03*
Y0850394D02*
D03*
Y0826772D02*
D03*
Y0803150D02*
D03*
Y0732284D02*
D03*
X0425197Y1015748D02*
D03*
Y0779528D02*
D03*
Y0755906D02*
D03*
X0401575Y0992126D02*
D03*
Y0968504D02*
D03*
Y0944882D02*
D03*
Y0921260D02*
D03*
Y0850394D02*
D03*
Y0826772D02*
D03*
Y0803150D02*
D03*
Y0779528D02*
D03*
Y0755906D02*
D03*
X0815917Y0856308D02*
D03*
X0647217Y0855789D02*
D03*
X0653817D02*
D03*
X0670417D02*
D03*
X0518117Y0847108D02*
D03*
X0826517Y0922708D02*
D03*
X0695317Y0994108D02*
D03*
X0684817Y0989208D02*
D03*
X0664817Y0922108D02*
D03*
X0670917D02*
D03*
X0537617Y1036708D02*
D03*
X0471117Y1023108D02*
D03*
X0723417Y1006308D02*
D03*
X0716217Y1007708D02*
D03*
X0698817Y1035208D02*
D03*
X0670517Y1009008D02*
D03*
X0612917Y1009208D02*
D03*
X0595117Y1015608D02*
D03*
X0597917Y1011808D02*
D03*
X0580717Y1012708D02*
D03*
X0559717Y1005808D02*
D03*
X0546617Y1011208D02*
D03*
X0520717Y1023308D02*
D03*
X0523517Y1001708D02*
D03*
X0520617Y0996308D02*
D03*
X0487317Y1001608D02*
D03*
X0505817Y0998408D02*
D03*
X0620517Y0789508D02*
D03*
X0664617Y0789308D02*
D03*
X0685517Y0783208D02*
D03*
X0645117Y0789308D02*
D03*
X0640017Y0763408D02*
D03*
X0592717Y0762208D02*
D03*
X0546817Y0762608D02*
D03*
X0495817Y0766208D02*
D03*
X0473717Y0765808D02*
D03*
X0441017Y0765908D02*
D03*
X0418517Y0766008D02*
D03*
X0854617Y0811208D02*
D03*
X0848117Y0811408D02*
D03*
X0842917Y0812408D02*
D03*
X0840417Y0816308D02*
D03*
X0813317Y0810808D02*
D03*
X0807217Y0810708D02*
D03*
X0802317Y0812408D02*
D03*
X0799617Y0815508D02*
D03*
X0751817Y0812008D02*
D03*
X0745217Y0811808D02*
D03*
X0740217Y0813308D02*
D03*
X0737617Y0817308D02*
D03*
X0712317Y0811608D02*
D03*
X0706117Y0811408D02*
D03*
X0701517Y0814708D02*
D03*
X0655617Y0900008D02*
D03*
X0642817Y0884108D02*
D03*
X0600417Y0825208D02*
D03*
X0592231D02*
D03*
X0584046D02*
D03*
X0575860D02*
D03*
X0567674D02*
D03*
X0559489D02*
D03*
X0551303D02*
D03*
X0543117D02*
D03*
X0533017Y0880908D02*
D03*
X0602117Y0854308D02*
D03*
X0598017Y0866608D02*
D03*
X0593117Y0877808D02*
D03*
X0588017Y0880408D02*
D03*
X0583017Y0877908D02*
D03*
X0577817Y0880508D02*
D03*
X0563517Y0864608D02*
D03*
X0560817Y0877308D02*
D03*
X0556717Y0878508D02*
D03*
X0553117Y0879608D02*
D03*
X0552917Y0883908D02*
D03*
X0549617Y0886608D02*
D03*
X0545917Y0888308D02*
D03*
X0532917Y0876208D02*
D03*
X0776617Y0953708D02*
D03*
X0730817Y1002608D02*
D03*
X0684717Y0944208D02*
D03*
X0612317Y0919608D02*
D03*
X0598317D02*
D03*
X0531817Y0906108D02*
D03*
X0591617Y0939008D02*
D03*
X0660617Y0880008D02*
D03*
X0642217Y0877008D02*
D03*
X0620017Y0928508D02*
D03*
X0622017Y0920908D02*
D03*
X0538517Y0989308D02*
D03*
X0634017Y0924808D02*
D03*
X0623017Y0901008D02*
D03*
X0639217Y0909808D02*
D03*
X0621817Y0913208D02*
D03*
X0496517Y0991808D02*
D03*
X0499289Y0991816D02*
D03*
X0573917Y0900836D02*
D03*
Y0898080D02*
D03*
X0558117Y0900836D02*
D03*
Y0898080D02*
D03*
X0574717Y0984408D02*
D03*
Y0962208D02*
D03*
X0570417Y0965208D02*
D03*
X0553517Y0999208D02*
D03*
X0513468Y1004908D02*
D03*
X0502843Y1018557D02*
D03*
X0851017Y0850508D02*
D03*
X0851717Y0929008D02*
D03*
X0843817Y0925208D02*
D03*
X0863117Y0865208D02*
D03*
X0870117Y0868808D02*
D03*
X0841917Y0832108D02*
D03*
X0801017Y0832408D02*
D03*
X0738917Y0833457D02*
D03*
X0699917Y0833408D02*
D03*
X0625096Y0807408D02*
D03*
X0670317Y0797208D02*
D03*
X0670117Y0782108D02*
D03*
X0625017Y0797208D02*
D03*
Y0782108D02*
D03*
X0477217Y0876308D02*
D03*
X0473717Y0818208D02*
D03*
X0427417Y0814808D02*
D03*
X0423817D02*
D03*
X0426917Y0924608D02*
D03*
X0463217Y0895608D02*
D03*
X0471017Y0898908D02*
D03*
X0463817Y0817808D02*
D03*
X0460417D02*
D03*
X0432517Y0912108D02*
D03*
X0430317Y0773408D02*
D03*
X0485117D02*
D03*
X0572717D02*
D03*
X0680117Y0797608D02*
D03*
X0640817Y0797308D02*
D03*
X0616117Y0775508D02*
D03*
X0665717Y0772908D02*
D03*
X0659917Y0835508D02*
D03*
X0586617Y1009608D02*
D03*
X0653367Y0879808D02*
D03*
X0648278Y0890290D02*
D03*
X0648117Y0893046D02*
D03*
D104*
X0569317Y0881608D02*
D03*
X0528217Y0985608D02*
D03*
X0469217Y0977608D02*
D03*
X0531317Y0852708D02*
D03*
X0570917Y0846508D02*
D03*
X0813317Y0982808D02*
D03*
X0763717Y0983208D02*
D03*
X0687817Y0806708D02*
D03*
M02*
