G04*
G04 #@! TF.GenerationSoftware,Altium Limited,Altium Designer,22.8.2 (66)*
G04*
G04 Layer_Color=16711935*
%FSAX25Y25*%
%MOIN*%
G70*
G04*
G04 #@! TF.SameCoordinates,CD0932C5-B174-4F7F-AF8C-C675B02BC22C*
G04*
G04*
G04 #@! TF.FilePolarity,Negative*
G04*
G01*
G75*
%ADD73R,0.08372X0.08372*%
%ADD74C,0.08372*%
%ADD75R,0.06601X0.06601*%
%ADD76C,0.06601*%
%ADD77O,0.04534X0.08668*%
%ADD78O,0.03943X0.07487*%
%ADD79C,0.02959*%
%ADD80O,0.20085X0.10243*%
%ADD81O,0.18117X0.09258*%
%ADD82O,0.09258X0.18117*%
%ADD83C,0.06896*%
%ADD84C,0.20085*%
D73*
X0785678Y0896988D02*
D03*
X0497568Y0946988D02*
D03*
D74*
X0785678Y0886988D02*
D03*
Y0876988D02*
D03*
Y0866988D02*
D03*
X0497568Y0816988D02*
D03*
Y0826988D02*
D03*
Y0836988D02*
D03*
Y0846988D02*
D03*
Y0856988D02*
D03*
Y0866988D02*
D03*
Y0876988D02*
D03*
Y0886988D02*
D03*
Y0896988D02*
D03*
Y0906988D02*
D03*
Y0916988D02*
D03*
Y0926988D02*
D03*
Y0936988D02*
D03*
X0831583Y0766240D02*
D03*
X0845363Y0745768D02*
D03*
X0792213Y0766240D02*
D03*
X0805993Y0745768D02*
D03*
X0752843Y0766240D02*
D03*
X0766623Y0745768D02*
D03*
X0713473Y0766240D02*
D03*
X0727253Y0745768D02*
D03*
D75*
X0395560Y0951988D02*
D03*
X0887686D02*
D03*
D76*
X0395560Y0941988D02*
D03*
Y0931988D02*
D03*
Y0921988D02*
D03*
Y0911988D02*
D03*
Y0901988D02*
D03*
Y0891988D02*
D03*
Y0881988D02*
D03*
Y0871988D02*
D03*
Y0861988D02*
D03*
Y0851988D02*
D03*
Y0841988D02*
D03*
Y0831988D02*
D03*
Y0821988D02*
D03*
Y0811988D02*
D03*
X0887686Y0941988D02*
D03*
Y0931988D02*
D03*
Y0921988D02*
D03*
Y0911988D02*
D03*
Y0901988D02*
D03*
Y0891988D02*
D03*
Y0881988D02*
D03*
Y0871988D02*
D03*
Y0861988D02*
D03*
Y0851988D02*
D03*
Y0841988D02*
D03*
Y0831988D02*
D03*
Y0821988D02*
D03*
Y0811988D02*
D03*
D77*
X0512961Y1015138D02*
D03*
X0478945D02*
D03*
D78*
X0512961Y1031594D02*
D03*
X0478945D02*
D03*
D79*
X0484575Y1017106D02*
D03*
X0507331D02*
D03*
D80*
X0439851Y0987303D02*
D03*
D81*
Y1010925D02*
D03*
D82*
X0421347Y0999114D02*
D03*
D83*
X0779171Y1021887D02*
D03*
X0799171D02*
D03*
X0826415D02*
D03*
X0846415D02*
D03*
D84*
X0881780Y1023720D02*
D03*
X0401465D02*
D03*
Y0740256D02*
D03*
X0881780D02*
D03*
M02*
