G04*
G04 #@! TF.GenerationSoftware,Altium Limited,Altium Designer,22.8.2 (66)*
G04*
G04 Layer_Color=2752767*
%FSAX25Y25*%
%MOIN*%
G70*
G04*
G04 #@! TF.SameCoordinates,CD0932C5-B174-4F7F-AF8C-C675B02BC22C*
G04*
G04*
G04 #@! TF.FilePolarity,Positive*
G04*
G01*
G75*
%ADD13C,0.00394*%
%ADD105C,0.00200*%
%ADD106C,0.00267*%
%ADD107C,0.00133*%
%ADD108C,0.00600*%
D13*
X0385717Y0704823D02*
X0389654Y0706135D01*
X0385717Y0704823D02*
X0389654Y0703510D01*
X0893591D02*
X0897528Y0704823D01*
X0893591Y0706135D02*
X0897528Y0704823D01*
X0385717D02*
X0625204D01*
X0656054D02*
X0897528D01*
X0385717Y0704429D02*
Y0743799D01*
X0897528Y0704429D02*
Y0724508D01*
X0368657Y0728445D02*
X0369969Y0724508D01*
X0371282Y0728445D01*
X0369969Y1039468D02*
X0371282Y1035531D01*
X0368657D02*
X0369969Y1039468D01*
Y0724508D02*
Y0867210D01*
Y0894779D02*
Y1039468D01*
X0369575Y0724508D02*
X0381780D01*
X0369575Y1039468D02*
X0381780D01*
D105*
X0784878Y0896188D02*
X0785278Y0896988D01*
X0784878Y0897788D01*
X0785678Y0897388D01*
X0786478Y0897788D01*
X0786078Y0896988D01*
X0786478Y0896188D01*
X0785678Y0896588D01*
X0784878Y0896188D01*
Y0886188D02*
X0785278Y0886988D01*
X0784878Y0887788D01*
X0785678Y0887388D01*
X0786478Y0887788D01*
X0786078Y0886988D01*
X0786478Y0886188D01*
X0785678Y0886588D01*
X0784878Y0886188D01*
Y0876188D02*
X0785278Y0876988D01*
X0784878Y0877788D01*
X0785678Y0877388D01*
X0786478Y0877788D01*
X0786078Y0876988D01*
X0786478Y0876188D01*
X0785678Y0876588D01*
X0784878Y0876188D01*
Y0866188D02*
X0785278Y0866988D01*
X0784878Y0867788D01*
X0785678Y0867388D01*
X0786478Y0867788D01*
X0786078Y0866988D01*
X0786478Y0866188D01*
X0785678Y0866588D01*
X0784878Y0866188D01*
X0496768Y0816188D02*
X0497168Y0816988D01*
X0496768Y0817788D01*
X0497568Y0817388D01*
X0498368Y0817788D01*
X0497968Y0816988D01*
X0498368Y0816188D01*
X0497568Y0816588D01*
X0496768Y0816188D01*
Y0826188D02*
X0497168Y0826988D01*
X0496768Y0827788D01*
X0497568Y0827388D01*
X0498368Y0827788D01*
X0497968Y0826988D01*
X0498368Y0826188D01*
X0497568Y0826588D01*
X0496768Y0826188D01*
Y0836188D02*
X0497168Y0836988D01*
X0496768Y0837788D01*
X0497568Y0837388D01*
X0498368Y0837788D01*
X0497968Y0836988D01*
X0498368Y0836188D01*
X0497568Y0836588D01*
X0496768Y0836188D01*
Y0846188D02*
X0497168Y0846988D01*
X0496768Y0847788D01*
X0497568Y0847388D01*
X0498368Y0847788D01*
X0497968Y0846988D01*
X0498368Y0846188D01*
X0497568Y0846588D01*
X0496768Y0846188D01*
Y0856188D02*
X0497168Y0856988D01*
X0496768Y0857788D01*
X0497568Y0857388D01*
X0498368Y0857788D01*
X0497968Y0856988D01*
X0498368Y0856188D01*
X0497568Y0856588D01*
X0496768Y0856188D01*
Y0866188D02*
X0497168Y0866988D01*
X0496768Y0867788D01*
X0497568Y0867388D01*
X0498368Y0867788D01*
X0497968Y0866988D01*
X0498368Y0866188D01*
X0497568Y0866588D01*
X0496768Y0866188D01*
Y0876188D02*
X0497168Y0876988D01*
X0496768Y0877788D01*
X0497568Y0877388D01*
X0498368Y0877788D01*
X0497968Y0876988D01*
X0498368Y0876188D01*
X0497568Y0876588D01*
X0496768Y0876188D01*
Y0886188D02*
X0497168Y0886988D01*
X0496768Y0887788D01*
X0497568Y0887388D01*
X0498368Y0887788D01*
X0497968Y0886988D01*
X0498368Y0886188D01*
X0497568Y0886588D01*
X0496768Y0886188D01*
Y0896188D02*
X0497168Y0896988D01*
X0496768Y0897788D01*
X0497568Y0897388D01*
X0498368Y0897788D01*
X0497968Y0896988D01*
X0498368Y0896188D01*
X0497568Y0896588D01*
X0496768Y0896188D01*
Y0906188D02*
X0497168Y0906988D01*
X0496768Y0907788D01*
X0497568Y0907388D01*
X0498368Y0907788D01*
X0497968Y0906988D01*
X0498368Y0906188D01*
X0497568Y0906588D01*
X0496768Y0906188D01*
Y0916188D02*
X0497168Y0916988D01*
X0496768Y0917788D01*
X0497568Y0917388D01*
X0498368Y0917788D01*
X0497968Y0916988D01*
X0498368Y0916188D01*
X0497568Y0916588D01*
X0496768Y0916188D01*
Y0926188D02*
X0497168Y0926988D01*
X0496768Y0927788D01*
X0497568Y0927388D01*
X0498368Y0927788D01*
X0497968Y0926988D01*
X0498368Y0926188D01*
X0497568Y0926588D01*
X0496768Y0926188D01*
Y0936188D02*
X0497168Y0936988D01*
X0496768Y0937788D01*
X0497568Y0937388D01*
X0498368Y0937788D01*
X0497968Y0936988D01*
X0498368Y0936188D01*
X0497568Y0936588D01*
X0496768Y0936188D01*
Y0946188D02*
X0497168Y0946988D01*
X0496768Y0947788D01*
X0497568Y0947388D01*
X0498368Y0947788D01*
X0497968Y0946988D01*
X0498368Y0946188D01*
X0497568Y0946588D01*
X0496768Y0946188D01*
X0395160Y0951588D02*
Y0951188D01*
X0395960D01*
Y0951588D01*
X0396360D01*
Y0952388D01*
X0395960D01*
Y0952788D01*
X0395160D01*
Y0952388D01*
X0394760D01*
Y0951588D01*
X0395160D01*
Y0941588D02*
Y0941188D01*
X0395960D01*
Y0941588D01*
X0396360D01*
Y0942388D01*
X0395960D01*
Y0942788D01*
X0395160D01*
Y0942388D01*
X0394760D01*
Y0941588D01*
X0395160D01*
Y0931588D02*
Y0931188D01*
X0395960D01*
Y0931588D01*
X0396360D01*
Y0932388D01*
X0395960D01*
Y0932788D01*
X0395160D01*
Y0932388D01*
X0394760D01*
Y0931588D01*
X0395160D01*
Y0921588D02*
Y0921188D01*
X0395960D01*
Y0921588D01*
X0396360D01*
Y0922388D01*
X0395960D01*
Y0922788D01*
X0395160D01*
Y0922388D01*
X0394760D01*
Y0921588D01*
X0395160D01*
Y0911588D02*
Y0911188D01*
X0395960D01*
Y0911588D01*
X0396360D01*
Y0912388D01*
X0395960D01*
Y0912788D01*
X0395160D01*
Y0912388D01*
X0394760D01*
Y0911588D01*
X0395160D01*
Y0901588D02*
Y0901188D01*
X0395960D01*
Y0901588D01*
X0396360D01*
Y0902388D01*
X0395960D01*
Y0902788D01*
X0395160D01*
Y0902388D01*
X0394760D01*
Y0901588D01*
X0395160D01*
Y0891588D02*
Y0891188D01*
X0395960D01*
Y0891588D01*
X0396360D01*
Y0892388D01*
X0395960D01*
Y0892788D01*
X0395160D01*
Y0892388D01*
X0394760D01*
Y0891588D01*
X0395160D01*
Y0881588D02*
Y0881188D01*
X0395960D01*
Y0881588D01*
X0396360D01*
Y0882388D01*
X0395960D01*
Y0882788D01*
X0395160D01*
Y0882388D01*
X0394760D01*
Y0881588D01*
X0395160D01*
Y0871588D02*
Y0871188D01*
X0395960D01*
Y0871588D01*
X0396360D01*
Y0872388D01*
X0395960D01*
Y0872788D01*
X0395160D01*
Y0872388D01*
X0394760D01*
Y0871588D01*
X0395160D01*
Y0861588D02*
Y0861188D01*
X0395960D01*
Y0861588D01*
X0396360D01*
Y0862388D01*
X0395960D01*
Y0862788D01*
X0395160D01*
Y0862388D01*
X0394760D01*
Y0861588D01*
X0395160D01*
Y0851588D02*
Y0851188D01*
X0395960D01*
Y0851588D01*
X0396360D01*
Y0852388D01*
X0395960D01*
Y0852788D01*
X0395160D01*
Y0852388D01*
X0394760D01*
Y0851588D01*
X0395160D01*
Y0841588D02*
Y0841188D01*
X0395960D01*
Y0841588D01*
X0396360D01*
Y0842388D01*
X0395960D01*
Y0842788D01*
X0395160D01*
Y0842388D01*
X0394760D01*
Y0841588D01*
X0395160D01*
Y0831588D02*
Y0831188D01*
X0395960D01*
Y0831588D01*
X0396360D01*
Y0832388D01*
X0395960D01*
Y0832788D01*
X0395160D01*
Y0832388D01*
X0394760D01*
Y0831588D01*
X0395160D01*
Y0821588D02*
Y0821188D01*
X0395960D01*
Y0821588D01*
X0396360D01*
Y0822388D01*
X0395960D01*
Y0822788D01*
X0395160D01*
Y0822388D01*
X0394760D01*
Y0821588D01*
X0395160D01*
Y0811588D02*
Y0811188D01*
X0395960D01*
Y0811588D01*
X0396360D01*
Y0812388D01*
X0395960D01*
Y0812788D01*
X0395160D01*
Y0812388D01*
X0394760D01*
Y0811588D01*
X0395160D01*
X0887286Y0951588D02*
Y0951188D01*
X0888086D01*
Y0951588D01*
X0888486D01*
Y0952388D01*
X0888086D01*
Y0952788D01*
X0887286D01*
Y0952388D01*
X0886886D01*
Y0951588D01*
X0887286D01*
Y0941588D02*
Y0941188D01*
X0888086D01*
Y0941588D01*
X0888486D01*
Y0942388D01*
X0888086D01*
Y0942788D01*
X0887286D01*
Y0942388D01*
X0886886D01*
Y0941588D01*
X0887286D01*
Y0931588D02*
Y0931188D01*
X0888086D01*
Y0931588D01*
X0888486D01*
Y0932388D01*
X0888086D01*
Y0932788D01*
X0887286D01*
Y0932388D01*
X0886886D01*
Y0931588D01*
X0887286D01*
Y0921588D02*
Y0921188D01*
X0888086D01*
Y0921588D01*
X0888486D01*
Y0922388D01*
X0888086D01*
Y0922788D01*
X0887286D01*
Y0922388D01*
X0886886D01*
Y0921588D01*
X0887286D01*
Y0911588D02*
Y0911188D01*
X0888086D01*
Y0911588D01*
X0888486D01*
Y0912388D01*
X0888086D01*
Y0912788D01*
X0887286D01*
Y0912388D01*
X0886886D01*
Y0911588D01*
X0887286D01*
Y0901588D02*
Y0901188D01*
X0888086D01*
Y0901588D01*
X0888486D01*
Y0902388D01*
X0888086D01*
Y0902788D01*
X0887286D01*
Y0902388D01*
X0886886D01*
Y0901588D01*
X0887286D01*
Y0891588D02*
Y0891188D01*
X0888086D01*
Y0891588D01*
X0888486D01*
Y0892388D01*
X0888086D01*
Y0892788D01*
X0887286D01*
Y0892388D01*
X0886886D01*
Y0891588D01*
X0887286D01*
Y0881588D02*
Y0881188D01*
X0888086D01*
Y0881588D01*
X0888486D01*
Y0882388D01*
X0888086D01*
Y0882788D01*
X0887286D01*
Y0882388D01*
X0886886D01*
Y0881588D01*
X0887286D01*
Y0871588D02*
Y0871188D01*
X0888086D01*
Y0871588D01*
X0888486D01*
Y0872388D01*
X0888086D01*
Y0872788D01*
X0887286D01*
Y0872388D01*
X0886886D01*
Y0871588D01*
X0887286D01*
Y0861588D02*
Y0861188D01*
X0888086D01*
Y0861588D01*
X0888486D01*
Y0862388D01*
X0888086D01*
Y0862788D01*
X0887286D01*
Y0862388D01*
X0886886D01*
Y0861588D01*
X0887286D01*
Y0851588D02*
Y0851188D01*
X0888086D01*
Y0851588D01*
X0888486D01*
Y0852388D01*
X0888086D01*
Y0852788D01*
X0887286D01*
Y0852388D01*
X0886886D01*
Y0851588D01*
X0887286D01*
Y0841588D02*
Y0841188D01*
X0888086D01*
Y0841588D01*
X0888486D01*
Y0842388D01*
X0888086D01*
Y0842788D01*
X0887286D01*
Y0842388D01*
X0886886D01*
Y0841588D01*
X0887286D01*
Y0831588D02*
Y0831188D01*
X0888086D01*
Y0831588D01*
X0888486D01*
Y0832388D01*
X0888086D01*
Y0832788D01*
X0887286D01*
Y0832388D01*
X0886886D01*
Y0831588D01*
X0887286D01*
Y0821588D02*
Y0821188D01*
X0888086D01*
Y0821588D01*
X0888486D01*
Y0822388D01*
X0888086D01*
Y0822788D01*
X0887286D01*
Y0822388D01*
X0886886D01*
Y0821588D01*
X0887286D01*
Y0811588D02*
Y0811188D01*
X0888086D01*
Y0811588D01*
X0888486D01*
Y0812388D01*
X0888086D01*
Y0812788D01*
X0887286D01*
Y0812388D01*
X0886886D01*
Y0811588D01*
X0887286D01*
X0512161Y1014338D02*
Y1015938D01*
X0513761D01*
Y1014338D01*
X0512161D01*
X0512561Y1014738D02*
Y1015538D01*
X0513361D01*
Y1014738D01*
X0512561D01*
X0478146Y1014338D02*
Y1015938D01*
X0479745D01*
Y1014338D01*
X0478146D01*
X0478546Y1014738D02*
Y1015538D01*
X0479346D01*
Y1014738D01*
X0478546D01*
X0512161Y1031594D02*
X0512961Y1032394D01*
X0513761Y1031594D01*
X0512961Y1030794D01*
X0512161Y1031594D01*
X0478146D02*
X0478945Y1032394D01*
X0479745Y1031594D01*
X0478945Y1030794D01*
X0478146Y1031594D01*
X0483775Y1016306D02*
X0484175D01*
X0484575Y1016706D01*
X0484975Y1016306D01*
X0485375D01*
Y1016706D01*
X0484975Y1017106D01*
X0485375Y1017506D01*
Y1017906D01*
X0484975D01*
X0484575Y1017506D01*
X0484175Y1017906D01*
X0483775D01*
Y1017506D01*
X0484175Y1017106D01*
X0483775Y1016706D01*
Y1016306D01*
X0506531D02*
X0506931D01*
X0507331Y1016706D01*
X0507731Y1016306D01*
X0508131D01*
Y1016706D01*
X0507731Y1017106D01*
X0508131Y1017506D01*
Y1017906D01*
X0507731D01*
X0507331Y1017506D01*
X0506931Y1017906D01*
X0506531D01*
Y1017506D01*
X0506931Y1017106D01*
X0506531Y1016706D01*
Y1016306D01*
X0439851Y0986503D02*
X0440251Y0986903D01*
X0440651D01*
X0440251Y0987303D01*
X0440651Y0987703D01*
X0440251D01*
X0439851Y0988103D01*
X0439451Y0987703D01*
X0439051D01*
X0439451Y0987303D01*
X0439051Y0986903D01*
X0439451D01*
X0439851Y0986503D01*
Y1010125D02*
X0439051Y1011725D01*
X0440651D01*
X0439851Y1010125D01*
X0421347Y0998314D02*
X0420547Y0999914D01*
X0422147D01*
X0421347Y0998314D01*
X0880980Y1022920D02*
Y1024520D01*
X0882580D01*
Y1022920D01*
X0880980D01*
X0400665D02*
Y1024520D01*
X0402265D01*
Y1022920D01*
X0400665D01*
Y0739456D02*
Y0741056D01*
X0402265D01*
Y0739456D01*
X0400665D01*
X0880980D02*
Y0741056D01*
X0882580D01*
Y0739456D01*
X0880980D01*
X0830783Y0765440D02*
X0831183Y0766240D01*
X0830783Y0767040D01*
X0831583Y0766640D01*
X0832383Y0767040D01*
X0831983Y0766240D01*
X0832383Y0765440D01*
X0831583Y0765840D01*
X0830783Y0765440D01*
X0844563Y0744968D02*
X0844963Y0745768D01*
X0844563Y0746568D01*
X0845363Y0746168D01*
X0846163Y0746568D01*
X0845763Y0745768D01*
X0846163Y0744968D01*
X0845363Y0745368D01*
X0844563Y0744968D01*
X0791413Y0765440D02*
X0791813Y0766240D01*
X0791413Y0767040D01*
X0792213Y0766640D01*
X0793013Y0767040D01*
X0792613Y0766240D01*
X0793013Y0765440D01*
X0792213Y0765840D01*
X0791413Y0765440D01*
X0805193Y0744968D02*
X0805593Y0745768D01*
X0805193Y0746568D01*
X0805993Y0746168D01*
X0806793Y0746568D01*
X0806393Y0745768D01*
X0806793Y0744968D01*
X0805993Y0745368D01*
X0805193Y0744968D01*
X0752043Y0765440D02*
X0752443Y0766240D01*
X0752043Y0767040D01*
X0752843Y0766640D01*
X0753643Y0767040D01*
X0753243Y0766240D01*
X0753643Y0765440D01*
X0752843Y0765840D01*
X0752043Y0765440D01*
X0765823Y0744968D02*
X0766223Y0745768D01*
X0765823Y0746568D01*
X0766623Y0746168D01*
X0767423Y0746568D01*
X0767023Y0745768D01*
X0767423Y0744968D01*
X0766623Y0745368D01*
X0765823Y0744968D01*
X0712673Y0765440D02*
X0713073Y0766240D01*
X0712673Y0767040D01*
X0713473Y0766640D01*
X0714273Y0767040D01*
X0713873Y0766240D01*
X0714273Y0765440D01*
X0713473Y0765840D01*
X0712673Y0765440D01*
X0726453Y0744968D02*
X0726853Y0745768D01*
X0726453Y0746568D01*
X0727253Y0746168D01*
X0728053Y0746568D01*
X0727653Y0745768D01*
X0728053Y0744968D01*
X0727253Y0745368D01*
X0726453Y0744968D01*
X0569317Y0880808D02*
X0568517Y0882408D01*
X0570117D01*
X0569317Y0880808D01*
Y0881208D02*
X0568917Y0882008D01*
X0569717D01*
X0569317Y0881208D01*
X0528217Y0984808D02*
X0527417Y0986408D01*
X0529017D01*
X0528217Y0984808D01*
Y0985208D02*
X0527817Y0986008D01*
X0528617D01*
X0528217Y0985208D01*
X0469217Y0976808D02*
X0468417Y0978408D01*
X0470017D01*
X0469217Y0976808D01*
Y0977208D02*
X0468817Y0978008D01*
X0469617D01*
X0469217Y0977208D01*
X0531317Y0851908D02*
X0530517Y0853508D01*
X0532117D01*
X0531317Y0851908D01*
Y0852308D02*
X0530917Y0853108D01*
X0531717D01*
X0531317Y0852308D01*
X0570917Y0845708D02*
X0570117Y0847308D01*
X0571717D01*
X0570917Y0845708D01*
Y0846108D02*
X0570517Y0846908D01*
X0571317D01*
X0570917Y0846108D01*
X0813317Y0982008D02*
X0812517Y0983608D01*
X0814117D01*
X0813317Y0982008D01*
Y0982408D02*
X0812917Y0983208D01*
X0813717D01*
X0813317Y0982408D01*
X0763717D02*
X0762917Y0984008D01*
X0764517D01*
X0763717Y0982408D01*
Y0982808D02*
X0763317Y0983608D01*
X0764117D01*
X0763717Y0982808D01*
X0687817Y0805908D02*
X0687017Y0807508D01*
X0688617D01*
X0687817Y0805908D01*
Y0806308D02*
X0687417Y0807108D01*
X0688217D01*
X0687817Y0806308D01*
D106*
X0779971Y1021887D02*
G03*
X0779971Y1021887I-0000800J0000000D01*
G01*
X0799971D02*
G03*
X0799971Y1021887I-0000800J0000000D01*
G01*
X0827215D02*
G03*
X0827215Y1021887I-0000800J0000000D01*
G01*
X0847215D02*
G03*
X0847215Y1021887I-0000800J0000000D01*
G01*
X0572417Y1003708D02*
G03*
X0572417Y1003708I-0000800J0000000D01*
G01*
X0649517Y0928808D02*
G03*
X0649517Y0928808I-0000800J0000000D01*
G01*
X0874816Y0992126D02*
G03*
X0874816Y0992126I-0000800J0000000D01*
G01*
Y0968504D02*
G03*
X0874816Y0968504I-0000800J0000000D01*
G01*
Y0944882D02*
G03*
X0874816Y0944882I-0000800J0000000D01*
G01*
Y0921260D02*
G03*
X0874816Y0921260I-0000800J0000000D01*
G01*
Y0897638D02*
G03*
X0874816Y0897638I-0000800J0000000D01*
G01*
Y0874016D02*
G03*
X0874816Y0874016I-0000800J0000000D01*
G01*
Y0755906D02*
G03*
X0874816Y0755906I-0000800J0000000D01*
G01*
X0851194Y1015748D02*
G03*
X0851194Y1015748I-0000800J0000000D01*
G01*
Y0944882D02*
G03*
X0851194Y0944882I-0000800J0000000D01*
G01*
Y0921260D02*
G03*
X0851194Y0921260I-0000800J0000000D01*
G01*
Y0897638D02*
G03*
X0851194Y0897638I-0000800J0000000D01*
G01*
Y0874016D02*
G03*
X0851194Y0874016I-0000800J0000000D01*
G01*
Y0826772D02*
G03*
X0851194Y0826772I-0000800J0000000D01*
G01*
X0827572D02*
G03*
X0827572Y0826772I-0000800J0000000D01*
G01*
X0803950Y1015748D02*
G03*
X0803950Y1015748I-0000800J0000000D01*
G01*
Y0897638D02*
G03*
X0803950Y0897638I-0000800J0000000D01*
G01*
Y0874016D02*
G03*
X0803950Y0874016I-0000800J0000000D01*
G01*
X0780328D02*
G03*
X0780328Y0874016I-0000800J0000000D01*
G01*
Y0826772D02*
G03*
X0780328Y0826772I-0000800J0000000D01*
G01*
X0756706Y1015748D02*
G03*
X0756706Y1015748I-0000800J0000000D01*
G01*
Y0992126D02*
G03*
X0756706Y0992126I-0000800J0000000D01*
G01*
Y0874016D02*
G03*
X0756706Y0874016I-0000800J0000000D01*
G01*
Y0826772D02*
G03*
X0756706Y0826772I-0000800J0000000D01*
G01*
X0733084Y0897638D02*
G03*
X0733084Y0897638I-0000800J0000000D01*
G01*
Y0826772D02*
G03*
X0733084Y0826772I-0000800J0000000D01*
G01*
X0709461Y1015748D02*
G03*
X0709461Y1015748I-0000800J0000000D01*
G01*
Y0921260D02*
G03*
X0709461Y0921260I-0000800J0000000D01*
G01*
Y0897638D02*
G03*
X0709461Y0897638I-0000800J0000000D01*
G01*
Y0826772D02*
G03*
X0709461Y0826772I-0000800J0000000D01*
G01*
X0685840Y1015748D02*
G03*
X0685840Y1015748I-0000800J0000000D01*
G01*
Y0921260D02*
G03*
X0685840Y0921260I-0000800J0000000D01*
G01*
Y0897638D02*
G03*
X0685840Y0897638I-0000800J0000000D01*
G01*
Y0826772D02*
G03*
X0685840Y0826772I-0000800J0000000D01*
G01*
Y0779528D02*
G03*
X0685840Y0779528I-0000800J0000000D01*
G01*
Y0755906D02*
G03*
X0685840Y0755906I-0000800J0000000D01*
G01*
Y0732284D02*
G03*
X0685840Y0732284I-0000800J0000000D01*
G01*
X0662217Y0992126D02*
G03*
X0662217Y0992126I-0000800J0000000D01*
G01*
Y0968504D02*
G03*
X0662217Y0968504I-0000800J0000000D01*
G01*
Y0944882D02*
G03*
X0662217Y0944882I-0000800J0000000D01*
G01*
Y0921260D02*
G03*
X0662217Y0921260I-0000800J0000000D01*
G01*
Y0826772D02*
G03*
X0662217Y0826772I-0000800J0000000D01*
G01*
Y0803150D02*
G03*
X0662217Y0803150I-0000800J0000000D01*
G01*
Y0779528D02*
G03*
X0662217Y0779528I-0000800J0000000D01*
G01*
Y0732284D02*
G03*
X0662217Y0732284I-0000800J0000000D01*
G01*
X0638595Y0968504D02*
G03*
X0638595Y0968504I-0000800J0000000D01*
G01*
Y0944882D02*
G03*
X0638595Y0944882I-0000800J0000000D01*
G01*
Y0897638D02*
G03*
X0638595Y0897638I-0000800J0000000D01*
G01*
Y0826772D02*
G03*
X0638595Y0826772I-0000800J0000000D01*
G01*
Y0755906D02*
G03*
X0638595Y0755906I-0000800J0000000D01*
G01*
Y0732284D02*
G03*
X0638595Y0732284I-0000800J0000000D01*
G01*
X0614973Y0992126D02*
G03*
X0614973Y0992126I-0000800J0000000D01*
G01*
Y0968504D02*
G03*
X0614973Y0968504I-0000800J0000000D01*
G01*
Y0944882D02*
G03*
X0614973Y0944882I-0000800J0000000D01*
G01*
Y0897638D02*
G03*
X0614973Y0897638I-0000800J0000000D01*
G01*
Y0850394D02*
G03*
X0614973Y0850394I-0000800J0000000D01*
G01*
Y0826772D02*
G03*
X0614973Y0826772I-0000800J0000000D01*
G01*
Y0803150D02*
G03*
X0614973Y0803150I-0000800J0000000D01*
G01*
Y0779528D02*
G03*
X0614973Y0779528I-0000800J0000000D01*
G01*
Y0732284D02*
G03*
X0614973Y0732284I-0000800J0000000D01*
G01*
X0591351Y0921260D02*
G03*
X0591351Y0921260I-0000800J0000000D01*
G01*
Y0897638D02*
G03*
X0591351Y0897638I-0000800J0000000D01*
G01*
Y0803150D02*
G03*
X0591351Y0803150I-0000800J0000000D01*
G01*
Y0779528D02*
G03*
X0591351Y0779528I-0000800J0000000D01*
G01*
Y0755906D02*
G03*
X0591351Y0755906I-0000800J0000000D01*
G01*
Y0732284D02*
G03*
X0591351Y0732284I-0000800J0000000D01*
G01*
X0567729Y1015748D02*
G03*
X0567729Y1015748I-0000800J0000000D01*
G01*
Y0803150D02*
G03*
X0567729Y0803150I-0000800J0000000D01*
G01*
Y0779528D02*
G03*
X0567729Y0779528I-0000800J0000000D01*
G01*
Y0732284D02*
G03*
X0567729Y0732284I-0000800J0000000D01*
G01*
X0544107Y1015748D02*
G03*
X0544107Y1015748I-0000800J0000000D01*
G01*
Y0803150D02*
G03*
X0544107Y0803150I-0000800J0000000D01*
G01*
Y0779528D02*
G03*
X0544107Y0779528I-0000800J0000000D01*
G01*
Y0755906D02*
G03*
X0544107Y0755906I-0000800J0000000D01*
G01*
Y0732284D02*
G03*
X0544107Y0732284I-0000800J0000000D01*
G01*
X0520485Y0850394D02*
G03*
X0520485Y0850394I-0000800J0000000D01*
G01*
Y0803150D02*
G03*
X0520485Y0803150I-0000800J0000000D01*
G01*
Y0779528D02*
G03*
X0520485Y0779528I-0000800J0000000D01*
G01*
Y0732284D02*
G03*
X0520485Y0732284I-0000800J0000000D01*
G01*
X0496863Y0803150D02*
G03*
X0496863Y0803150I-0000800J0000000D01*
G01*
Y0779528D02*
G03*
X0496863Y0779528I-0000800J0000000D01*
G01*
Y0732284D02*
G03*
X0496863Y0732284I-0000800J0000000D01*
G01*
X0473241Y0779528D02*
G03*
X0473241Y0779528I-0000800J0000000D01*
G01*
Y0755906D02*
G03*
X0473241Y0755906I-0000800J0000000D01*
G01*
Y0732284D02*
G03*
X0473241Y0732284I-0000800J0000000D01*
G01*
X0449619Y1015748D02*
G03*
X0449619Y1015748I-0000800J0000000D01*
G01*
Y0921260D02*
G03*
X0449619Y0921260I-0000800J0000000D01*
G01*
Y0850394D02*
G03*
X0449619Y0850394I-0000800J0000000D01*
G01*
Y0826772D02*
G03*
X0449619Y0826772I-0000800J0000000D01*
G01*
Y0803150D02*
G03*
X0449619Y0803150I-0000800J0000000D01*
G01*
Y0732284D02*
G03*
X0449619Y0732284I-0000800J0000000D01*
G01*
X0425997Y1015748D02*
G03*
X0425997Y1015748I-0000800J0000000D01*
G01*
Y0779528D02*
G03*
X0425997Y0779528I-0000800J0000000D01*
G01*
Y0755906D02*
G03*
X0425997Y0755906I-0000800J0000000D01*
G01*
X0402375Y0992126D02*
G03*
X0402375Y0992126I-0000800J0000000D01*
G01*
Y0968504D02*
G03*
X0402375Y0968504I-0000800J0000000D01*
G01*
Y0944882D02*
G03*
X0402375Y0944882I-0000800J0000000D01*
G01*
Y0921260D02*
G03*
X0402375Y0921260I-0000800J0000000D01*
G01*
Y0850394D02*
G03*
X0402375Y0850394I-0000800J0000000D01*
G01*
Y0826772D02*
G03*
X0402375Y0826772I-0000800J0000000D01*
G01*
Y0803150D02*
G03*
X0402375Y0803150I-0000800J0000000D01*
G01*
Y0779528D02*
G03*
X0402375Y0779528I-0000800J0000000D01*
G01*
Y0755906D02*
G03*
X0402375Y0755906I-0000800J0000000D01*
G01*
X0816717Y0856308D02*
G03*
X0816717Y0856308I-0000800J0000000D01*
G01*
X0648017Y0855789D02*
G03*
X0648017Y0855789I-0000800J0000000D01*
G01*
X0654617D02*
G03*
X0654617Y0855789I-0000800J0000000D01*
G01*
X0671217D02*
G03*
X0671217Y0855789I-0000800J0000000D01*
G01*
X0518917Y0847108D02*
G03*
X0518917Y0847108I-0000800J0000000D01*
G01*
X0827317Y0922708D02*
G03*
X0827317Y0922708I-0000800J0000000D01*
G01*
X0696117Y0994108D02*
G03*
X0696117Y0994108I-0000800J0000000D01*
G01*
X0685617Y0989208D02*
G03*
X0685617Y0989208I-0000800J0000000D01*
G01*
X0665617Y0922108D02*
G03*
X0665617Y0922108I-0000800J0000000D01*
G01*
X0671717D02*
G03*
X0671717Y0922108I-0000800J0000000D01*
G01*
X0538417Y1036708D02*
G03*
X0538417Y1036708I-0000800J0000000D01*
G01*
X0471917Y1023108D02*
G03*
X0471917Y1023108I-0000800J0000000D01*
G01*
X0724217Y1006308D02*
G03*
X0724217Y1006308I-0000800J0000000D01*
G01*
X0717017Y1007708D02*
G03*
X0717017Y1007708I-0000800J0000000D01*
G01*
X0699617Y1035208D02*
G03*
X0699617Y1035208I-0000800J0000000D01*
G01*
X0671317Y1009008D02*
G03*
X0671317Y1009008I-0000800J0000000D01*
G01*
X0613717Y1009208D02*
G03*
X0613717Y1009208I-0000800J0000000D01*
G01*
X0595917Y1015608D02*
G03*
X0595917Y1015608I-0000800J0000000D01*
G01*
X0598717Y1011808D02*
G03*
X0598717Y1011808I-0000800J0000000D01*
G01*
X0581517Y1012708D02*
G03*
X0581517Y1012708I-0000800J0000000D01*
G01*
X0560517Y1005808D02*
G03*
X0560517Y1005808I-0000800J0000000D01*
G01*
X0547417Y1011208D02*
G03*
X0547417Y1011208I-0000800J0000000D01*
G01*
X0521517Y1023308D02*
G03*
X0521517Y1023308I-0000800J0000000D01*
G01*
X0524317Y1001708D02*
G03*
X0524317Y1001708I-0000800J0000000D01*
G01*
X0521417Y0996308D02*
G03*
X0521417Y0996308I-0000800J0000000D01*
G01*
X0488117Y1001608D02*
G03*
X0488117Y1001608I-0000800J0000000D01*
G01*
X0506617Y0998408D02*
G03*
X0506617Y0998408I-0000800J0000000D01*
G01*
X0621317Y0789508D02*
G03*
X0621317Y0789508I-0000800J0000000D01*
G01*
X0665417Y0789308D02*
G03*
X0665417Y0789308I-0000800J0000000D01*
G01*
X0686317Y0783208D02*
G03*
X0686317Y0783208I-0000800J0000000D01*
G01*
X0645917Y0789308D02*
G03*
X0645917Y0789308I-0000800J0000000D01*
G01*
X0640817Y0763408D02*
G03*
X0640817Y0763408I-0000800J0000000D01*
G01*
X0593517Y0762208D02*
G03*
X0593517Y0762208I-0000800J0000000D01*
G01*
X0547617Y0762608D02*
G03*
X0547617Y0762608I-0000800J0000000D01*
G01*
X0496617Y0766208D02*
G03*
X0496617Y0766208I-0000800J0000000D01*
G01*
X0474517Y0765808D02*
G03*
X0474517Y0765808I-0000800J0000000D01*
G01*
X0441817Y0765908D02*
G03*
X0441817Y0765908I-0000800J0000000D01*
G01*
X0419317Y0766008D02*
G03*
X0419317Y0766008I-0000800J0000000D01*
G01*
X0855417Y0811208D02*
G03*
X0855417Y0811208I-0000800J0000000D01*
G01*
X0848917Y0811408D02*
G03*
X0848917Y0811408I-0000800J0000000D01*
G01*
X0843717Y0812408D02*
G03*
X0843717Y0812408I-0000800J0000000D01*
G01*
X0841217Y0816308D02*
G03*
X0841217Y0816308I-0000800J0000000D01*
G01*
X0814117Y0810808D02*
G03*
X0814117Y0810808I-0000800J0000000D01*
G01*
X0808017Y0810708D02*
G03*
X0808017Y0810708I-0000800J0000000D01*
G01*
X0803117Y0812408D02*
G03*
X0803117Y0812408I-0000800J0000000D01*
G01*
X0800417Y0815508D02*
G03*
X0800417Y0815508I-0000800J0000000D01*
G01*
X0752617Y0812008D02*
G03*
X0752617Y0812008I-0000800J0000000D01*
G01*
X0746017Y0811808D02*
G03*
X0746017Y0811808I-0000800J0000000D01*
G01*
X0741017Y0813308D02*
G03*
X0741017Y0813308I-0000800J0000000D01*
G01*
X0738417Y0817308D02*
G03*
X0738417Y0817308I-0000800J0000000D01*
G01*
X0713117Y0811608D02*
G03*
X0713117Y0811608I-0000800J0000000D01*
G01*
X0706917Y0811408D02*
G03*
X0706917Y0811408I-0000800J0000000D01*
G01*
X0702317Y0814708D02*
G03*
X0702317Y0814708I-0000800J0000000D01*
G01*
X0656417Y0900008D02*
G03*
X0656417Y0900008I-0000800J0000000D01*
G01*
X0643617Y0884108D02*
G03*
X0643617Y0884108I-0000800J0000000D01*
G01*
X0601217Y0825208D02*
G03*
X0601217Y0825208I-0000800J0000000D01*
G01*
X0593031D02*
G03*
X0593031Y0825208I-0000800J0000000D01*
G01*
X0584846D02*
G03*
X0584846Y0825208I-0000800J0000000D01*
G01*
X0576660D02*
G03*
X0576660Y0825208I-0000800J0000000D01*
G01*
X0568474D02*
G03*
X0568474Y0825208I-0000800J0000000D01*
G01*
X0560289D02*
G03*
X0560289Y0825208I-0000800J0000000D01*
G01*
X0552103D02*
G03*
X0552103Y0825208I-0000800J0000000D01*
G01*
X0543917D02*
G03*
X0543917Y0825208I-0000800J0000000D01*
G01*
X0533817Y0880908D02*
G03*
X0533817Y0880908I-0000800J0000000D01*
G01*
X0602917Y0854308D02*
G03*
X0602917Y0854308I-0000800J0000000D01*
G01*
X0598817Y0866608D02*
G03*
X0598817Y0866608I-0000800J0000000D01*
G01*
X0593917Y0877808D02*
G03*
X0593917Y0877808I-0000800J0000000D01*
G01*
X0588817Y0880408D02*
G03*
X0588817Y0880408I-0000800J0000000D01*
G01*
X0583817Y0877908D02*
G03*
X0583817Y0877908I-0000800J0000000D01*
G01*
X0578617Y0880508D02*
G03*
X0578617Y0880508I-0000800J0000000D01*
G01*
X0564317Y0864608D02*
G03*
X0564317Y0864608I-0000800J0000000D01*
G01*
X0561617Y0877308D02*
G03*
X0561617Y0877308I-0000800J0000000D01*
G01*
X0557517Y0878508D02*
G03*
X0557517Y0878508I-0000800J0000000D01*
G01*
X0553917Y0879608D02*
G03*
X0553917Y0879608I-0000800J0000000D01*
G01*
X0553717Y0883908D02*
G03*
X0553717Y0883908I-0000800J0000000D01*
G01*
X0550417Y0886608D02*
G03*
X0550417Y0886608I-0000800J0000000D01*
G01*
X0546717Y0888308D02*
G03*
X0546717Y0888308I-0000800J0000000D01*
G01*
X0533717Y0876208D02*
G03*
X0533717Y0876208I-0000800J0000000D01*
G01*
X0777417Y0953708D02*
G03*
X0777417Y0953708I-0000800J0000000D01*
G01*
X0731617Y1002608D02*
G03*
X0731617Y1002608I-0000800J0000000D01*
G01*
X0685517Y0944208D02*
G03*
X0685517Y0944208I-0000800J0000000D01*
G01*
X0613117Y0919608D02*
G03*
X0613117Y0919608I-0000800J0000000D01*
G01*
X0599117D02*
G03*
X0599117Y0919608I-0000800J0000000D01*
G01*
X0532617Y0906108D02*
G03*
X0532617Y0906108I-0000800J0000000D01*
G01*
X0592417Y0939008D02*
G03*
X0592417Y0939008I-0000800J0000000D01*
G01*
X0661417Y0880008D02*
G03*
X0661417Y0880008I-0000800J0000000D01*
G01*
X0643017Y0877008D02*
G03*
X0643017Y0877008I-0000800J0000000D01*
G01*
X0620817Y0928508D02*
G03*
X0620817Y0928508I-0000800J0000000D01*
G01*
X0622817Y0920908D02*
G03*
X0622817Y0920908I-0000800J0000000D01*
G01*
X0539317Y0989308D02*
G03*
X0539317Y0989308I-0000800J0000000D01*
G01*
X0634817Y0924808D02*
G03*
X0634817Y0924808I-0000800J0000000D01*
G01*
X0623817Y0901008D02*
G03*
X0623817Y0901008I-0000800J0000000D01*
G01*
X0640017Y0909808D02*
G03*
X0640017Y0909808I-0000800J0000000D01*
G01*
X0622617Y0913208D02*
G03*
X0622617Y0913208I-0000800J0000000D01*
G01*
X0497317Y0991808D02*
G03*
X0497317Y0991808I-0000800J0000000D01*
G01*
X0500089Y0991816D02*
G03*
X0500089Y0991816I-0000800J0000000D01*
G01*
X0574717Y0900836D02*
G03*
X0574717Y0900836I-0000800J0000000D01*
G01*
Y0898080D02*
G03*
X0574717Y0898080I-0000800J0000000D01*
G01*
X0558917Y0900836D02*
G03*
X0558917Y0900836I-0000800J0000000D01*
G01*
Y0898080D02*
G03*
X0558917Y0898080I-0000800J0000000D01*
G01*
X0575517Y0984408D02*
G03*
X0575517Y0984408I-0000800J0000000D01*
G01*
Y0962208D02*
G03*
X0575517Y0962208I-0000800J0000000D01*
G01*
X0571217Y0965208D02*
G03*
X0571217Y0965208I-0000800J0000000D01*
G01*
X0554317Y0999208D02*
G03*
X0554317Y0999208I-0000800J0000000D01*
G01*
X0514268Y1004908D02*
G03*
X0514268Y1004908I-0000800J0000000D01*
G01*
X0503643Y1018557D02*
G03*
X0503643Y1018557I-0000800J0000000D01*
G01*
X0851817Y0850508D02*
G03*
X0851817Y0850508I-0000800J0000000D01*
G01*
X0852517Y0929008D02*
G03*
X0852517Y0929008I-0000800J0000000D01*
G01*
X0844617Y0925208D02*
G03*
X0844617Y0925208I-0000800J0000000D01*
G01*
X0863917Y0865208D02*
G03*
X0863917Y0865208I-0000800J0000000D01*
G01*
X0870917Y0868808D02*
G03*
X0870917Y0868808I-0000800J0000000D01*
G01*
X0842717Y0832108D02*
G03*
X0842717Y0832108I-0000800J0000000D01*
G01*
X0801817Y0832408D02*
G03*
X0801817Y0832408I-0000800J0000000D01*
G01*
X0739717Y0833457D02*
G03*
X0739717Y0833457I-0000800J0000000D01*
G01*
X0700717Y0833408D02*
G03*
X0700717Y0833408I-0000800J0000000D01*
G01*
X0625896Y0807408D02*
G03*
X0625896Y0807408I-0000800J0000000D01*
G01*
X0671117Y0797208D02*
G03*
X0671117Y0797208I-0000800J0000000D01*
G01*
X0670917Y0782108D02*
G03*
X0670917Y0782108I-0000800J0000000D01*
G01*
X0625817Y0797208D02*
G03*
X0625817Y0797208I-0000800J0000000D01*
G01*
Y0782108D02*
G03*
X0625817Y0782108I-0000800J0000000D01*
G01*
X0478017Y0876308D02*
G03*
X0478017Y0876308I-0000800J0000000D01*
G01*
X0474517Y0818208D02*
G03*
X0474517Y0818208I-0000800J0000000D01*
G01*
X0428217Y0814808D02*
G03*
X0428217Y0814808I-0000800J0000000D01*
G01*
X0424617D02*
G03*
X0424617Y0814808I-0000800J0000000D01*
G01*
X0427717Y0924608D02*
G03*
X0427717Y0924608I-0000800J0000000D01*
G01*
X0464017Y0895608D02*
G03*
X0464017Y0895608I-0000800J0000000D01*
G01*
X0471817Y0898908D02*
G03*
X0471817Y0898908I-0000800J0000000D01*
G01*
X0464617Y0817808D02*
G03*
X0464617Y0817808I-0000800J0000000D01*
G01*
X0461217D02*
G03*
X0461217Y0817808I-0000800J0000000D01*
G01*
X0433317Y0912108D02*
G03*
X0433317Y0912108I-0000800J0000000D01*
G01*
X0431117Y0773408D02*
G03*
X0431117Y0773408I-0000800J0000000D01*
G01*
X0485917D02*
G03*
X0485917Y0773408I-0000800J0000000D01*
G01*
X0573517D02*
G03*
X0573517Y0773408I-0000800J0000000D01*
G01*
X0680917Y0797608D02*
G03*
X0680917Y0797608I-0000800J0000000D01*
G01*
X0641617Y0797308D02*
G03*
X0641617Y0797308I-0000800J0000000D01*
G01*
X0616917Y0775508D02*
G03*
X0616917Y0775508I-0000800J0000000D01*
G01*
X0666517Y0772908D02*
G03*
X0666517Y0772908I-0000800J0000000D01*
G01*
X0660717Y0835508D02*
G03*
X0660717Y0835508I-0000800J0000000D01*
G01*
X0587417Y1009608D02*
G03*
X0587417Y1009608I-0000800J0000000D01*
G01*
X0654167Y0879808D02*
G03*
X0654167Y0879808I-0000800J0000000D01*
G01*
X0649078Y0890290D02*
G03*
X0649078Y0890290I-0000800J0000000D01*
G01*
X0648917Y0893046D02*
G03*
X0648917Y0893046I-0000800J0000000D01*
G01*
D107*
X0572017Y1003708D02*
G03*
X0572017Y1003708I-0000400J0000000D01*
G01*
X0649117Y0928808D02*
G03*
X0649117Y0928808I-0000400J0000000D01*
G01*
X0874416Y0992126D02*
G03*
X0874416Y0992126I-0000400J0000000D01*
G01*
Y0968504D02*
G03*
X0874416Y0968504I-0000400J0000000D01*
G01*
Y0944882D02*
G03*
X0874416Y0944882I-0000400J0000000D01*
G01*
Y0921260D02*
G03*
X0874416Y0921260I-0000400J0000000D01*
G01*
Y0897638D02*
G03*
X0874416Y0897638I-0000400J0000000D01*
G01*
Y0874016D02*
G03*
X0874416Y0874016I-0000400J0000000D01*
G01*
Y0755906D02*
G03*
X0874416Y0755906I-0000400J0000000D01*
G01*
X0850794Y1015748D02*
G03*
X0850794Y1015748I-0000400J0000000D01*
G01*
Y0944882D02*
G03*
X0850794Y0944882I-0000400J0000000D01*
G01*
Y0921260D02*
G03*
X0850794Y0921260I-0000400J0000000D01*
G01*
Y0897638D02*
G03*
X0850794Y0897638I-0000400J0000000D01*
G01*
Y0874016D02*
G03*
X0850794Y0874016I-0000400J0000000D01*
G01*
Y0826772D02*
G03*
X0850794Y0826772I-0000400J0000000D01*
G01*
X0827172D02*
G03*
X0827172Y0826772I-0000400J0000000D01*
G01*
X0803550Y1015748D02*
G03*
X0803550Y1015748I-0000400J0000000D01*
G01*
Y0897638D02*
G03*
X0803550Y0897638I-0000400J0000000D01*
G01*
Y0874016D02*
G03*
X0803550Y0874016I-0000400J0000000D01*
G01*
X0779928D02*
G03*
X0779928Y0874016I-0000400J0000000D01*
G01*
Y0826772D02*
G03*
X0779928Y0826772I-0000400J0000000D01*
G01*
X0756306Y1015748D02*
G03*
X0756306Y1015748I-0000400J0000000D01*
G01*
Y0992126D02*
G03*
X0756306Y0992126I-0000400J0000000D01*
G01*
Y0874016D02*
G03*
X0756306Y0874016I-0000400J0000000D01*
G01*
Y0826772D02*
G03*
X0756306Y0826772I-0000400J0000000D01*
G01*
X0732684Y0897638D02*
G03*
X0732684Y0897638I-0000400J0000000D01*
G01*
Y0826772D02*
G03*
X0732684Y0826772I-0000400J0000000D01*
G01*
X0709061Y1015748D02*
G03*
X0709061Y1015748I-0000400J0000000D01*
G01*
Y0921260D02*
G03*
X0709061Y0921260I-0000400J0000000D01*
G01*
Y0897638D02*
G03*
X0709061Y0897638I-0000400J0000000D01*
G01*
Y0826772D02*
G03*
X0709061Y0826772I-0000400J0000000D01*
G01*
X0685439Y1015748D02*
G03*
X0685439Y1015748I-0000400J0000000D01*
G01*
Y0921260D02*
G03*
X0685439Y0921260I-0000400J0000000D01*
G01*
Y0897638D02*
G03*
X0685439Y0897638I-0000400J0000000D01*
G01*
Y0826772D02*
G03*
X0685439Y0826772I-0000400J0000000D01*
G01*
Y0779528D02*
G03*
X0685439Y0779528I-0000400J0000000D01*
G01*
Y0755906D02*
G03*
X0685439Y0755906I-0000400J0000000D01*
G01*
Y0732284D02*
G03*
X0685439Y0732284I-0000400J0000000D01*
G01*
X0661817Y0992126D02*
G03*
X0661817Y0992126I-0000400J0000000D01*
G01*
Y0968504D02*
G03*
X0661817Y0968504I-0000400J0000000D01*
G01*
Y0944882D02*
G03*
X0661817Y0944882I-0000400J0000000D01*
G01*
Y0921260D02*
G03*
X0661817Y0921260I-0000400J0000000D01*
G01*
Y0826772D02*
G03*
X0661817Y0826772I-0000400J0000000D01*
G01*
Y0803150D02*
G03*
X0661817Y0803150I-0000400J0000000D01*
G01*
Y0779528D02*
G03*
X0661817Y0779528I-0000400J0000000D01*
G01*
Y0732284D02*
G03*
X0661817Y0732284I-0000400J0000000D01*
G01*
X0638195Y0968504D02*
G03*
X0638195Y0968504I-0000400J0000000D01*
G01*
Y0944882D02*
G03*
X0638195Y0944882I-0000400J0000000D01*
G01*
Y0897638D02*
G03*
X0638195Y0897638I-0000400J0000000D01*
G01*
Y0826772D02*
G03*
X0638195Y0826772I-0000400J0000000D01*
G01*
Y0755906D02*
G03*
X0638195Y0755906I-0000400J0000000D01*
G01*
Y0732284D02*
G03*
X0638195Y0732284I-0000400J0000000D01*
G01*
X0614573Y0992126D02*
G03*
X0614573Y0992126I-0000400J0000000D01*
G01*
Y0968504D02*
G03*
X0614573Y0968504I-0000400J0000000D01*
G01*
Y0944882D02*
G03*
X0614573Y0944882I-0000400J0000000D01*
G01*
Y0897638D02*
G03*
X0614573Y0897638I-0000400J0000000D01*
G01*
Y0850394D02*
G03*
X0614573Y0850394I-0000400J0000000D01*
G01*
Y0826772D02*
G03*
X0614573Y0826772I-0000400J0000000D01*
G01*
Y0803150D02*
G03*
X0614573Y0803150I-0000400J0000000D01*
G01*
Y0779528D02*
G03*
X0614573Y0779528I-0000400J0000000D01*
G01*
Y0732284D02*
G03*
X0614573Y0732284I-0000400J0000000D01*
G01*
X0590951Y0921260D02*
G03*
X0590951Y0921260I-0000400J0000000D01*
G01*
Y0897638D02*
G03*
X0590951Y0897638I-0000400J0000000D01*
G01*
Y0803150D02*
G03*
X0590951Y0803150I-0000400J0000000D01*
G01*
Y0779528D02*
G03*
X0590951Y0779528I-0000400J0000000D01*
G01*
Y0755906D02*
G03*
X0590951Y0755906I-0000400J0000000D01*
G01*
Y0732284D02*
G03*
X0590951Y0732284I-0000400J0000000D01*
G01*
X0567329Y1015748D02*
G03*
X0567329Y1015748I-0000400J0000000D01*
G01*
Y0803150D02*
G03*
X0567329Y0803150I-0000400J0000000D01*
G01*
Y0779528D02*
G03*
X0567329Y0779528I-0000400J0000000D01*
G01*
Y0732284D02*
G03*
X0567329Y0732284I-0000400J0000000D01*
G01*
X0543707Y1015748D02*
G03*
X0543707Y1015748I-0000400J0000000D01*
G01*
Y0803150D02*
G03*
X0543707Y0803150I-0000400J0000000D01*
G01*
Y0779528D02*
G03*
X0543707Y0779528I-0000400J0000000D01*
G01*
Y0755906D02*
G03*
X0543707Y0755906I-0000400J0000000D01*
G01*
Y0732284D02*
G03*
X0543707Y0732284I-0000400J0000000D01*
G01*
X0520085Y0850394D02*
G03*
X0520085Y0850394I-0000400J0000000D01*
G01*
Y0803150D02*
G03*
X0520085Y0803150I-0000400J0000000D01*
G01*
Y0779528D02*
G03*
X0520085Y0779528I-0000400J0000000D01*
G01*
Y0732284D02*
G03*
X0520085Y0732284I-0000400J0000000D01*
G01*
X0496463Y0803150D02*
G03*
X0496463Y0803150I-0000400J0000000D01*
G01*
Y0779528D02*
G03*
X0496463Y0779528I-0000400J0000000D01*
G01*
Y0732284D02*
G03*
X0496463Y0732284I-0000400J0000000D01*
G01*
X0472841Y0779528D02*
G03*
X0472841Y0779528I-0000400J0000000D01*
G01*
Y0755906D02*
G03*
X0472841Y0755906I-0000400J0000000D01*
G01*
Y0732284D02*
G03*
X0472841Y0732284I-0000400J0000000D01*
G01*
X0449219Y1015748D02*
G03*
X0449219Y1015748I-0000400J0000000D01*
G01*
Y0921260D02*
G03*
X0449219Y0921260I-0000400J0000000D01*
G01*
Y0850394D02*
G03*
X0449219Y0850394I-0000400J0000000D01*
G01*
Y0826772D02*
G03*
X0449219Y0826772I-0000400J0000000D01*
G01*
Y0803150D02*
G03*
X0449219Y0803150I-0000400J0000000D01*
G01*
Y0732284D02*
G03*
X0449219Y0732284I-0000400J0000000D01*
G01*
X0425597Y1015748D02*
G03*
X0425597Y1015748I-0000400J0000000D01*
G01*
Y0779528D02*
G03*
X0425597Y0779528I-0000400J0000000D01*
G01*
Y0755906D02*
G03*
X0425597Y0755906I-0000400J0000000D01*
G01*
X0401975Y0992126D02*
G03*
X0401975Y0992126I-0000400J0000000D01*
G01*
Y0968504D02*
G03*
X0401975Y0968504I-0000400J0000000D01*
G01*
Y0944882D02*
G03*
X0401975Y0944882I-0000400J0000000D01*
G01*
Y0921260D02*
G03*
X0401975Y0921260I-0000400J0000000D01*
G01*
Y0850394D02*
G03*
X0401975Y0850394I-0000400J0000000D01*
G01*
Y0826772D02*
G03*
X0401975Y0826772I-0000400J0000000D01*
G01*
Y0803150D02*
G03*
X0401975Y0803150I-0000400J0000000D01*
G01*
Y0779528D02*
G03*
X0401975Y0779528I-0000400J0000000D01*
G01*
Y0755906D02*
G03*
X0401975Y0755906I-0000400J0000000D01*
G01*
X0816317Y0856308D02*
G03*
X0816317Y0856308I-0000400J0000000D01*
G01*
X0647617Y0855789D02*
G03*
X0647617Y0855789I-0000400J0000000D01*
G01*
X0654217D02*
G03*
X0654217Y0855789I-0000400J0000000D01*
G01*
X0670817D02*
G03*
X0670817Y0855789I-0000400J0000000D01*
G01*
X0518517Y0847108D02*
G03*
X0518517Y0847108I-0000400J0000000D01*
G01*
X0826917Y0922708D02*
G03*
X0826917Y0922708I-0000400J0000000D01*
G01*
X0695717Y0994108D02*
G03*
X0695717Y0994108I-0000400J0000000D01*
G01*
X0685217Y0989208D02*
G03*
X0685217Y0989208I-0000400J0000000D01*
G01*
X0665217Y0922108D02*
G03*
X0665217Y0922108I-0000400J0000000D01*
G01*
X0671317D02*
G03*
X0671317Y0922108I-0000400J0000000D01*
G01*
X0538017Y1036708D02*
G03*
X0538017Y1036708I-0000400J0000000D01*
G01*
X0471517Y1023108D02*
G03*
X0471517Y1023108I-0000400J0000000D01*
G01*
X0723817Y1006308D02*
G03*
X0723817Y1006308I-0000400J0000000D01*
G01*
X0716617Y1007708D02*
G03*
X0716617Y1007708I-0000400J0000000D01*
G01*
X0699217Y1035208D02*
G03*
X0699217Y1035208I-0000400J0000000D01*
G01*
X0670917Y1009008D02*
G03*
X0670917Y1009008I-0000400J0000000D01*
G01*
X0613317Y1009208D02*
G03*
X0613317Y1009208I-0000400J0000000D01*
G01*
X0595517Y1015608D02*
G03*
X0595517Y1015608I-0000400J0000000D01*
G01*
X0598317Y1011808D02*
G03*
X0598317Y1011808I-0000400J0000000D01*
G01*
X0581117Y1012708D02*
G03*
X0581117Y1012708I-0000400J0000000D01*
G01*
X0560117Y1005808D02*
G03*
X0560117Y1005808I-0000400J0000000D01*
G01*
X0547017Y1011208D02*
G03*
X0547017Y1011208I-0000400J0000000D01*
G01*
X0521117Y1023308D02*
G03*
X0521117Y1023308I-0000400J0000000D01*
G01*
X0523917Y1001708D02*
G03*
X0523917Y1001708I-0000400J0000000D01*
G01*
X0521017Y0996308D02*
G03*
X0521017Y0996308I-0000400J0000000D01*
G01*
X0487717Y1001608D02*
G03*
X0487717Y1001608I-0000400J0000000D01*
G01*
X0506217Y0998408D02*
G03*
X0506217Y0998408I-0000400J0000000D01*
G01*
X0620917Y0789508D02*
G03*
X0620917Y0789508I-0000400J0000000D01*
G01*
X0665017Y0789308D02*
G03*
X0665017Y0789308I-0000400J0000000D01*
G01*
X0685917Y0783208D02*
G03*
X0685917Y0783208I-0000400J0000000D01*
G01*
X0645517Y0789308D02*
G03*
X0645517Y0789308I-0000400J0000000D01*
G01*
X0640417Y0763408D02*
G03*
X0640417Y0763408I-0000400J0000000D01*
G01*
X0593117Y0762208D02*
G03*
X0593117Y0762208I-0000400J0000000D01*
G01*
X0547217Y0762608D02*
G03*
X0547217Y0762608I-0000400J0000000D01*
G01*
X0496217Y0766208D02*
G03*
X0496217Y0766208I-0000400J0000000D01*
G01*
X0474117Y0765808D02*
G03*
X0474117Y0765808I-0000400J0000000D01*
G01*
X0441417Y0765908D02*
G03*
X0441417Y0765908I-0000400J0000000D01*
G01*
X0418917Y0766008D02*
G03*
X0418917Y0766008I-0000400J0000000D01*
G01*
X0855017Y0811208D02*
G03*
X0855017Y0811208I-0000400J0000000D01*
G01*
X0848517Y0811408D02*
G03*
X0848517Y0811408I-0000400J0000000D01*
G01*
X0843317Y0812408D02*
G03*
X0843317Y0812408I-0000400J0000000D01*
G01*
X0840817Y0816308D02*
G03*
X0840817Y0816308I-0000400J0000000D01*
G01*
X0813717Y0810808D02*
G03*
X0813717Y0810808I-0000400J0000000D01*
G01*
X0807617Y0810708D02*
G03*
X0807617Y0810708I-0000400J0000000D01*
G01*
X0802717Y0812408D02*
G03*
X0802717Y0812408I-0000400J0000000D01*
G01*
X0800017Y0815508D02*
G03*
X0800017Y0815508I-0000400J0000000D01*
G01*
X0752217Y0812008D02*
G03*
X0752217Y0812008I-0000400J0000000D01*
G01*
X0745617Y0811808D02*
G03*
X0745617Y0811808I-0000400J0000000D01*
G01*
X0740617Y0813308D02*
G03*
X0740617Y0813308I-0000400J0000000D01*
G01*
X0738017Y0817308D02*
G03*
X0738017Y0817308I-0000400J0000000D01*
G01*
X0712717Y0811608D02*
G03*
X0712717Y0811608I-0000400J0000000D01*
G01*
X0706517Y0811408D02*
G03*
X0706517Y0811408I-0000400J0000000D01*
G01*
X0701917Y0814708D02*
G03*
X0701917Y0814708I-0000400J0000000D01*
G01*
X0656017Y0900008D02*
G03*
X0656017Y0900008I-0000400J0000000D01*
G01*
X0643217Y0884108D02*
G03*
X0643217Y0884108I-0000400J0000000D01*
G01*
X0600817Y0825208D02*
G03*
X0600817Y0825208I-0000400J0000000D01*
G01*
X0592631D02*
G03*
X0592631Y0825208I-0000400J0000000D01*
G01*
X0584446D02*
G03*
X0584446Y0825208I-0000400J0000000D01*
G01*
X0576260D02*
G03*
X0576260Y0825208I-0000400J0000000D01*
G01*
X0568074D02*
G03*
X0568074Y0825208I-0000400J0000000D01*
G01*
X0559889D02*
G03*
X0559889Y0825208I-0000400J0000000D01*
G01*
X0551703D02*
G03*
X0551703Y0825208I-0000400J0000000D01*
G01*
X0543517D02*
G03*
X0543517Y0825208I-0000400J0000000D01*
G01*
X0533417Y0880908D02*
G03*
X0533417Y0880908I-0000400J0000000D01*
G01*
X0602517Y0854308D02*
G03*
X0602517Y0854308I-0000400J0000000D01*
G01*
X0598417Y0866608D02*
G03*
X0598417Y0866608I-0000400J0000000D01*
G01*
X0593517Y0877808D02*
G03*
X0593517Y0877808I-0000400J0000000D01*
G01*
X0588417Y0880408D02*
G03*
X0588417Y0880408I-0000400J0000000D01*
G01*
X0583417Y0877908D02*
G03*
X0583417Y0877908I-0000400J0000000D01*
G01*
X0578217Y0880508D02*
G03*
X0578217Y0880508I-0000400J0000000D01*
G01*
X0563917Y0864608D02*
G03*
X0563917Y0864608I-0000400J0000000D01*
G01*
X0561217Y0877308D02*
G03*
X0561217Y0877308I-0000400J0000000D01*
G01*
X0557117Y0878508D02*
G03*
X0557117Y0878508I-0000400J0000000D01*
G01*
X0553517Y0879608D02*
G03*
X0553517Y0879608I-0000400J0000000D01*
G01*
X0553317Y0883908D02*
G03*
X0553317Y0883908I-0000400J0000000D01*
G01*
X0550017Y0886608D02*
G03*
X0550017Y0886608I-0000400J0000000D01*
G01*
X0546317Y0888308D02*
G03*
X0546317Y0888308I-0000400J0000000D01*
G01*
X0533317Y0876208D02*
G03*
X0533317Y0876208I-0000400J0000000D01*
G01*
X0777017Y0953708D02*
G03*
X0777017Y0953708I-0000400J0000000D01*
G01*
X0731217Y1002608D02*
G03*
X0731217Y1002608I-0000400J0000000D01*
G01*
X0685117Y0944208D02*
G03*
X0685117Y0944208I-0000400J0000000D01*
G01*
X0612717Y0919608D02*
G03*
X0612717Y0919608I-0000400J0000000D01*
G01*
X0598717D02*
G03*
X0598717Y0919608I-0000400J0000000D01*
G01*
X0532217Y0906108D02*
G03*
X0532217Y0906108I-0000400J0000000D01*
G01*
X0592017Y0939008D02*
G03*
X0592017Y0939008I-0000400J0000000D01*
G01*
X0661017Y0880008D02*
G03*
X0661017Y0880008I-0000400J0000000D01*
G01*
X0642617Y0877008D02*
G03*
X0642617Y0877008I-0000400J0000000D01*
G01*
X0620417Y0928508D02*
G03*
X0620417Y0928508I-0000400J0000000D01*
G01*
X0622417Y0920908D02*
G03*
X0622417Y0920908I-0000400J0000000D01*
G01*
X0538917Y0989308D02*
G03*
X0538917Y0989308I-0000400J0000000D01*
G01*
X0634417Y0924808D02*
G03*
X0634417Y0924808I-0000400J0000000D01*
G01*
X0623417Y0901008D02*
G03*
X0623417Y0901008I-0000400J0000000D01*
G01*
X0639617Y0909808D02*
G03*
X0639617Y0909808I-0000400J0000000D01*
G01*
X0622217Y0913208D02*
G03*
X0622217Y0913208I-0000400J0000000D01*
G01*
X0496917Y0991808D02*
G03*
X0496917Y0991808I-0000400J0000000D01*
G01*
X0499689Y0991816D02*
G03*
X0499689Y0991816I-0000400J0000000D01*
G01*
X0574317Y0900836D02*
G03*
X0574317Y0900836I-0000400J0000000D01*
G01*
Y0898080D02*
G03*
X0574317Y0898080I-0000400J0000000D01*
G01*
X0558517Y0900836D02*
G03*
X0558517Y0900836I-0000400J0000000D01*
G01*
Y0898080D02*
G03*
X0558517Y0898080I-0000400J0000000D01*
G01*
X0575117Y0984408D02*
G03*
X0575117Y0984408I-0000400J0000000D01*
G01*
Y0962208D02*
G03*
X0575117Y0962208I-0000400J0000000D01*
G01*
X0570817Y0965208D02*
G03*
X0570817Y0965208I-0000400J0000000D01*
G01*
X0553917Y0999208D02*
G03*
X0553917Y0999208I-0000400J0000000D01*
G01*
X0513868Y1004908D02*
G03*
X0513868Y1004908I-0000400J0000000D01*
G01*
X0503243Y1018557D02*
G03*
X0503243Y1018557I-0000400J0000000D01*
G01*
X0851417Y0850508D02*
G03*
X0851417Y0850508I-0000400J0000000D01*
G01*
X0852117Y0929008D02*
G03*
X0852117Y0929008I-0000400J0000000D01*
G01*
X0844217Y0925208D02*
G03*
X0844217Y0925208I-0000400J0000000D01*
G01*
X0863517Y0865208D02*
G03*
X0863517Y0865208I-0000400J0000000D01*
G01*
X0870517Y0868808D02*
G03*
X0870517Y0868808I-0000400J0000000D01*
G01*
X0842317Y0832108D02*
G03*
X0842317Y0832108I-0000400J0000000D01*
G01*
X0801417Y0832408D02*
G03*
X0801417Y0832408I-0000400J0000000D01*
G01*
X0739317Y0833457D02*
G03*
X0739317Y0833457I-0000400J0000000D01*
G01*
X0700317Y0833408D02*
G03*
X0700317Y0833408I-0000400J0000000D01*
G01*
X0625496Y0807408D02*
G03*
X0625496Y0807408I-0000400J0000000D01*
G01*
X0670717Y0797208D02*
G03*
X0670717Y0797208I-0000400J0000000D01*
G01*
X0670517Y0782108D02*
G03*
X0670517Y0782108I-0000400J0000000D01*
G01*
X0625417Y0797208D02*
G03*
X0625417Y0797208I-0000400J0000000D01*
G01*
Y0782108D02*
G03*
X0625417Y0782108I-0000400J0000000D01*
G01*
X0477617Y0876308D02*
G03*
X0477617Y0876308I-0000400J0000000D01*
G01*
X0474117Y0818208D02*
G03*
X0474117Y0818208I-0000400J0000000D01*
G01*
X0427817Y0814808D02*
G03*
X0427817Y0814808I-0000400J0000000D01*
G01*
X0424217D02*
G03*
X0424217Y0814808I-0000400J0000000D01*
G01*
X0427317Y0924608D02*
G03*
X0427317Y0924608I-0000400J0000000D01*
G01*
X0463617Y0895608D02*
G03*
X0463617Y0895608I-0000400J0000000D01*
G01*
X0471417Y0898908D02*
G03*
X0471417Y0898908I-0000400J0000000D01*
G01*
X0464217Y0817808D02*
G03*
X0464217Y0817808I-0000400J0000000D01*
G01*
X0460817D02*
G03*
X0460817Y0817808I-0000400J0000000D01*
G01*
X0432917Y0912108D02*
G03*
X0432917Y0912108I-0000400J0000000D01*
G01*
X0430717Y0773408D02*
G03*
X0430717Y0773408I-0000400J0000000D01*
G01*
X0485517D02*
G03*
X0485517Y0773408I-0000400J0000000D01*
G01*
X0573117D02*
G03*
X0573117Y0773408I-0000400J0000000D01*
G01*
X0680517Y0797608D02*
G03*
X0680517Y0797608I-0000400J0000000D01*
G01*
X0641217Y0797308D02*
G03*
X0641217Y0797308I-0000400J0000000D01*
G01*
X0616517Y0775508D02*
G03*
X0616517Y0775508I-0000400J0000000D01*
G01*
X0666117Y0772908D02*
G03*
X0666117Y0772908I-0000400J0000000D01*
G01*
X0660317Y0835508D02*
G03*
X0660317Y0835508I-0000400J0000000D01*
G01*
X0587017Y1009608D02*
G03*
X0587017Y1009608I-0000400J0000000D01*
G01*
X0653767Y0879808D02*
G03*
X0653767Y0879808I-0000400J0000000D01*
G01*
X0648678Y0890290D02*
G03*
X0648678Y0890290I-0000400J0000000D01*
G01*
X0648517Y0893046D02*
G03*
X0648517Y0893046I-0000400J0000000D01*
G01*
D108*
X0626198Y0702255D02*
X0627510D01*
X0626854D01*
Y0706191D01*
X0626198Y0705535D01*
X0629478D02*
X0630134Y0706191D01*
X0631446D01*
X0632101Y0705535D01*
Y0704879D01*
X0631446Y0704223D01*
X0630790D01*
X0631446D01*
X0632101Y0703567D01*
Y0702911D01*
X0631446Y0702255D01*
X0630134D01*
X0629478Y0702911D01*
X0633414Y0705535D02*
X0634069Y0706191D01*
X0635381D01*
X0636037Y0705535D01*
Y0702911D01*
X0635381Y0702255D01*
X0634069D01*
X0633414Y0702911D01*
Y0705535D01*
X0637349Y0702255D02*
Y0702911D01*
X0638005D01*
Y0702255D01*
X0637349D01*
X0640629Y0705535D02*
X0641285Y0706191D01*
X0642597D01*
X0643253Y0705535D01*
Y0702911D01*
X0642597Y0702255D01*
X0641285D01*
X0640629Y0702911D01*
Y0705535D01*
X0644565D02*
X0645221Y0706191D01*
X0646533D01*
X0647189Y0705535D01*
Y0702911D01*
X0646533Y0702255D01*
X0645221D01*
X0644565Y0702911D01*
Y0705535D01*
X0648500Y0702255D02*
Y0704879D01*
X0649156D01*
X0649812Y0704223D01*
Y0702255D01*
Y0704223D01*
X0650468Y0704879D01*
X0651124Y0704223D01*
Y0702255D01*
X0652436D02*
Y0704879D01*
X0653092D01*
X0653748Y0704223D01*
Y0702255D01*
Y0704223D01*
X0654404Y0704879D01*
X0655060Y0704223D01*
Y0702255D01*
X0369257Y0868203D02*
X0368601Y0868859D01*
Y0870171D01*
X0369257Y0870827D01*
X0369913D01*
X0370569Y0870171D01*
X0371225Y0870827D01*
X0371881D01*
X0372537Y0870171D01*
Y0868859D01*
X0371881Y0868203D01*
X0371225D01*
X0370569Y0868859D01*
X0369913Y0868203D01*
X0369257D01*
X0370569Y0868859D02*
Y0870171D01*
X0369257Y0872139D02*
X0368601Y0872795D01*
Y0874107D01*
X0369257Y0874763D01*
X0371881D01*
X0372537Y0874107D01*
Y0872795D01*
X0371881Y0872139D01*
X0369257D01*
X0372537Y0876075D02*
X0371881D01*
Y0876731D01*
X0372537D01*
Y0876075D01*
X0369257Y0879354D02*
X0368601Y0880010D01*
Y0881322D01*
X0369257Y0881978D01*
X0371881D01*
X0372537Y0881322D01*
Y0880010D01*
X0371881Y0879354D01*
X0369257D01*
Y0883290D02*
X0368601Y0883946D01*
Y0885258D01*
X0369257Y0885914D01*
X0371881D01*
X0372537Y0885258D01*
Y0883946D01*
X0371881Y0883290D01*
X0369257D01*
X0372537Y0887226D02*
X0369913D01*
Y0887882D01*
X0370569Y0888538D01*
X0372537D01*
X0370569D01*
X0369913Y0889194D01*
X0370569Y0889850D01*
X0372537D01*
Y0891162D02*
X0369913D01*
Y0891818D01*
X0370569Y0892474D01*
X0372537D01*
X0370569D01*
X0369913Y0893130D01*
X0370569Y0893785D01*
X0372537D01*
M02*
