G04*
G04 #@! TF.GenerationSoftware,Altium Limited,Altium Designer,22.8.2 (66)*
G04*
G04 Layer_Color=8388736*
%FSAX25Y25*%
%MOIN*%
G70*
G04*
G04 #@! TF.SameCoordinates,CD0932C5-B174-4F7F-AF8C-C675B02BC22C*
G04*
G04*
G04 #@! TF.FilePolarity,Negative*
G04*
G01*
G75*
G04:AMPARAMS|DCode=44|XSize=51.24mil|YSize=25.65mil|CornerRadius=4.17mil|HoleSize=0mil|Usage=FLASHONLY|Rotation=0.000|XOffset=0mil|YOffset=0mil|HoleType=Round|Shape=RoundedRectangle|*
%AMROUNDEDRECTD44*
21,1,0.05124,0.01732,0,0,0.0*
21,1,0.04291,0.02565,0,0,0.0*
1,1,0.00833,0.02146,-0.00866*
1,1,0.00833,-0.02146,-0.00866*
1,1,0.00833,-0.02146,0.00866*
1,1,0.00833,0.02146,0.00866*
%
%ADD44ROUNDEDRECTD44*%
G04:AMPARAMS|DCode=45|XSize=59.12mil|YSize=88.65mil|CornerRadius=7.51mil|HoleSize=0mil|Usage=FLASHONLY|Rotation=0.000|XOffset=0mil|YOffset=0mil|HoleType=Round|Shape=RoundedRectangle|*
%AMROUNDEDRECTD45*
21,1,0.05912,0.07362,0,0,0.0*
21,1,0.04409,0.08865,0,0,0.0*
1,1,0.01502,0.02205,-0.03681*
1,1,0.01502,-0.02205,-0.03681*
1,1,0.01502,-0.02205,0.03681*
1,1,0.01502,0.02205,0.03681*
%
%ADD45ROUNDEDRECTD45*%
%ADD46R,0.14967X0.08865*%
G04:AMPARAMS|DCode=47|XSize=41.4mil|YSize=37.47mil|CornerRadius=5.35mil|HoleSize=0mil|Usage=FLASHONLY|Rotation=0.000|XOffset=0mil|YOffset=0mil|HoleType=Round|Shape=RoundedRectangle|*
%AMROUNDEDRECTD47*
21,1,0.04140,0.02677,0,0,0.0*
21,1,0.03071,0.03747,0,0,0.0*
1,1,0.01069,0.01535,-0.01339*
1,1,0.01069,-0.01535,-0.01339*
1,1,0.01069,-0.01535,0.01339*
1,1,0.01069,0.01535,0.01339*
%
%ADD47ROUNDEDRECTD47*%
G04:AMPARAMS|DCode=48|XSize=44.16mil|YSize=18.17mil|CornerRadius=3.42mil|HoleSize=0mil|Usage=FLASHONLY|Rotation=0.000|XOffset=0mil|YOffset=0mil|HoleType=Round|Shape=RoundedRectangle|*
%AMROUNDEDRECTD48*
21,1,0.04416,0.01134,0,0,0.0*
21,1,0.03732,0.01817,0,0,0.0*
1,1,0.00684,0.01866,-0.00567*
1,1,0.00684,-0.01866,-0.00567*
1,1,0.00684,-0.01866,0.00567*
1,1,0.00684,0.01866,0.00567*
%
%ADD48ROUNDEDRECTD48*%
G04:AMPARAMS|DCode=49|XSize=43.37mil|YSize=141.79mil|CornerRadius=5.94mil|HoleSize=0mil|Usage=FLASHONLY|Rotation=0.000|XOffset=0mil|YOffset=0mil|HoleType=Round|Shape=RoundedRectangle|*
%AMROUNDEDRECTD49*
21,1,0.04337,0.12992,0,0,0.0*
21,1,0.03150,0.14179,0,0,0.0*
1,1,0.01187,0.01575,-0.06496*
1,1,0.01187,-0.01575,-0.06496*
1,1,0.01187,-0.01575,0.06496*
1,1,0.01187,0.01575,0.06496*
%
%ADD49ROUNDEDRECTD49*%
%ADD50R,0.06306X0.13786*%
G04:AMPARAMS|DCode=51|XSize=43.37mil|YSize=110.3mil|CornerRadius=5.94mil|HoleSize=0mil|Usage=FLASHONLY|Rotation=180.000|XOffset=0mil|YOffset=0mil|HoleType=Round|Shape=RoundedRectangle|*
%AMROUNDEDRECTD51*
21,1,0.04337,0.09843,0,0,180.0*
21,1,0.03150,0.11030,0,0,180.0*
1,1,0.01187,-0.01575,0.04921*
1,1,0.01187,0.01575,0.04921*
1,1,0.01187,0.01575,-0.04921*
1,1,0.01187,-0.01575,-0.04921*
%
%ADD51ROUNDEDRECTD51*%
%ADD52R,0.07487X0.15361*%
G04:AMPARAMS|DCode=53|XSize=24mil|YSize=24mil|CornerRadius=4mil|HoleSize=0mil|Usage=FLASHONLY|Rotation=180.000|XOffset=0mil|YOffset=0mil|HoleType=Round|Shape=RoundedRectangle|*
%AMROUNDEDRECTD53*
21,1,0.02400,0.01600,0,0,180.0*
21,1,0.01600,0.02400,0,0,180.0*
1,1,0.00800,-0.00800,0.00800*
1,1,0.00800,0.00800,0.00800*
1,1,0.00800,0.00800,-0.00800*
1,1,0.00800,-0.00800,-0.00800*
%
%ADD53ROUNDEDRECTD53*%
G04:AMPARAMS|DCode=54|XSize=41.4mil|YSize=37.47mil|CornerRadius=5.35mil|HoleSize=0mil|Usage=FLASHONLY|Rotation=270.000|XOffset=0mil|YOffset=0mil|HoleType=Round|Shape=RoundedRectangle|*
%AMROUNDEDRECTD54*
21,1,0.04140,0.02677,0,0,270.0*
21,1,0.03071,0.03747,0,0,270.0*
1,1,0.01069,-0.01339,-0.01535*
1,1,0.01069,-0.01339,0.01535*
1,1,0.01069,0.01339,0.01535*
1,1,0.01069,0.01339,-0.01535*
%
%ADD54ROUNDEDRECTD54*%
G04:AMPARAMS|DCode=55|XSize=24.87mil|YSize=20.54mil|CornerRadius=3.65mil|HoleSize=0mil|Usage=FLASHONLY|Rotation=180.000|XOffset=0mil|YOffset=0mil|HoleType=Round|Shape=RoundedRectangle|*
%AMROUNDEDRECTD55*
21,1,0.02487,0.01323,0,0,180.0*
21,1,0.01756,0.02054,0,0,180.0*
1,1,0.00731,-0.00878,0.00661*
1,1,0.00731,0.00878,0.00661*
1,1,0.00731,0.00878,-0.00661*
1,1,0.00731,-0.00878,-0.00661*
%
%ADD55ROUNDEDRECTD55*%
G04:AMPARAMS|DCode=56|XSize=51.24mil|YSize=33.53mil|CornerRadius=4.95mil|HoleSize=0mil|Usage=FLASHONLY|Rotation=90.000|XOffset=0mil|YOffset=0mil|HoleType=Round|Shape=RoundedRectangle|*
%AMROUNDEDRECTD56*
21,1,0.05124,0.02362,0,0,90.0*
21,1,0.04134,0.03353,0,0,90.0*
1,1,0.00991,0.01181,0.02067*
1,1,0.00991,0.01181,-0.02067*
1,1,0.00991,-0.01181,-0.02067*
1,1,0.00991,-0.01181,0.02067*
%
%ADD56ROUNDEDRECTD56*%
G04:AMPARAMS|DCode=57|XSize=63.06mil|YSize=39.43mil|CornerRadius=5.54mil|HoleSize=0mil|Usage=FLASHONLY|Rotation=0.000|XOffset=0mil|YOffset=0mil|HoleType=Round|Shape=RoundedRectangle|*
%AMROUNDEDRECTD57*
21,1,0.06306,0.02835,0,0,0.0*
21,1,0.05197,0.03943,0,0,0.0*
1,1,0.01109,0.02598,-0.01417*
1,1,0.01109,-0.02598,-0.01417*
1,1,0.01109,-0.02598,0.01417*
1,1,0.01109,0.02598,0.01417*
%
%ADD57ROUNDEDRECTD57*%
%ADD58R,0.03550X0.03550*%
%ADD59C,0.06699*%
G04:AMPARAMS|DCode=60|XSize=24mil|YSize=24mil|CornerRadius=4mil|HoleSize=0mil|Usage=FLASHONLY|Rotation=90.000|XOffset=0mil|YOffset=0mil|HoleType=Round|Shape=RoundedRectangle|*
%AMROUNDEDRECTD60*
21,1,0.02400,0.01600,0,0,90.0*
21,1,0.01600,0.02400,0,0,90.0*
1,1,0.00800,0.00800,0.00800*
1,1,0.00800,0.00800,-0.00800*
1,1,0.00800,-0.00800,-0.00800*
1,1,0.00800,-0.00800,0.00800*
%
%ADD60ROUNDEDRECTD60*%
G04:AMPARAMS|DCode=61|XSize=35.5mil|YSize=35.5mil|CornerRadius=5.94mil|HoleSize=0mil|Usage=FLASHONLY|Rotation=90.000|XOffset=0mil|YOffset=0mil|HoleType=Round|Shape=RoundedRectangle|*
%AMROUNDEDRECTD61*
21,1,0.03550,0.02362,0,0,90.0*
21,1,0.02362,0.03550,0,0,90.0*
1,1,0.01187,0.01181,0.01181*
1,1,0.01187,0.01181,-0.01181*
1,1,0.01187,-0.01181,-0.01181*
1,1,0.01187,-0.01181,0.01181*
%
%ADD61ROUNDEDRECTD61*%
G04:AMPARAMS|DCode=62|XSize=111.09mil|YSize=53.61mil|CornerRadius=6.96mil|HoleSize=0mil|Usage=FLASHONLY|Rotation=0.000|XOffset=0mil|YOffset=0mil|HoleType=Round|Shape=RoundedRectangle|*
%AMROUNDEDRECTD62*
21,1,0.11109,0.03969,0,0,0.0*
21,1,0.09717,0.05361,0,0,0.0*
1,1,0.01392,0.04858,-0.01984*
1,1,0.01392,-0.04858,-0.01984*
1,1,0.01392,-0.04858,0.01984*
1,1,0.01392,0.04858,0.01984*
%
%ADD62ROUNDEDRECTD62*%
G04:AMPARAMS|DCode=63|XSize=43.37mil|YSize=15.81mil|CornerRadius=3.18mil|HoleSize=0mil|Usage=FLASHONLY|Rotation=0.000|XOffset=0mil|YOffset=0mil|HoleType=Round|Shape=RoundedRectangle|*
%AMROUNDEDRECTD63*
21,1,0.04337,0.00945,0,0,0.0*
21,1,0.03701,0.01581,0,0,0.0*
1,1,0.00636,0.01850,-0.00472*
1,1,0.00636,-0.01850,-0.00472*
1,1,0.00636,-0.01850,0.00472*
1,1,0.00636,0.01850,0.00472*
%
%ADD63ROUNDEDRECTD63*%
G04:AMPARAMS|DCode=64|XSize=43.37mil|YSize=15.81mil|CornerRadius=3.18mil|HoleSize=0mil|Usage=FLASHONLY|Rotation=90.000|XOffset=0mil|YOffset=0mil|HoleType=Round|Shape=RoundedRectangle|*
%AMROUNDEDRECTD64*
21,1,0.04337,0.00945,0,0,90.0*
21,1,0.03701,0.01581,0,0,90.0*
1,1,0.00636,0.00472,0.01850*
1,1,0.00636,0.00472,-0.01850*
1,1,0.00636,-0.00472,-0.01850*
1,1,0.00636,-0.00472,0.01850*
%
%ADD64ROUNDEDRECTD64*%
%ADD65R,0.13589X0.13589*%
G04:AMPARAMS|DCode=66|XSize=37.47mil|YSize=43.37mil|CornerRadius=5.35mil|HoleSize=0mil|Usage=FLASHONLY|Rotation=270.000|XOffset=0mil|YOffset=0mil|HoleType=Round|Shape=RoundedRectangle|*
%AMROUNDEDRECTD66*
21,1,0.03747,0.03268,0,0,270.0*
21,1,0.02677,0.04337,0,0,270.0*
1,1,0.01069,-0.01634,-0.01339*
1,1,0.01069,-0.01634,0.01339*
1,1,0.01069,0.01634,0.01339*
1,1,0.01069,0.01634,-0.01339*
%
%ADD66ROUNDEDRECTD66*%
G04:AMPARAMS|DCode=67|XSize=66.99mil|YSize=56.76mil|CornerRadius=7.28mil|HoleSize=0mil|Usage=FLASHONLY|Rotation=270.000|XOffset=0mil|YOffset=0mil|HoleType=Round|Shape=RoundedRectangle|*
%AMROUNDEDRECTD67*
21,1,0.06699,0.04221,0,0,270.0*
21,1,0.05244,0.05676,0,0,270.0*
1,1,0.01455,-0.02110,-0.02622*
1,1,0.01455,-0.02110,0.02622*
1,1,0.01455,0.02110,0.02622*
1,1,0.01455,0.02110,-0.02622*
%
%ADD67ROUNDEDRECTD67*%
G04:AMPARAMS|DCode=68|XSize=199.28mil|YSize=153.61mil|CornerRadius=16.96mil|HoleSize=0mil|Usage=FLASHONLY|Rotation=0.000|XOffset=0mil|YOffset=0mil|HoleType=Round|Shape=RoundedRectangle|*
%AMROUNDEDRECTD68*
21,1,0.19928,0.11969,0,0,0.0*
21,1,0.16535,0.15361,0,0,0.0*
1,1,0.03392,0.08268,-0.05984*
1,1,0.03392,-0.08268,-0.05984*
1,1,0.03392,-0.08268,0.05984*
1,1,0.03392,0.08268,0.05984*
%
%ADD68ROUNDEDRECTD68*%
G04:AMPARAMS|DCode=69|XSize=71.72mil|YSize=129.98mil|CornerRadius=8.77mil|HoleSize=0mil|Usage=FLASHONLY|Rotation=0.000|XOffset=0mil|YOffset=0mil|HoleType=Round|Shape=RoundedRectangle|*
%AMROUNDEDRECTD69*
21,1,0.07172,0.11244,0,0,0.0*
21,1,0.05417,0.12998,0,0,0.0*
1,1,0.01754,0.02709,-0.05622*
1,1,0.01754,-0.02709,-0.05622*
1,1,0.01754,-0.02709,0.05622*
1,1,0.01754,0.02709,0.05622*
%
%ADD69ROUNDEDRECTD69*%
G04:AMPARAMS|DCode=70|XSize=43.37mil|YSize=31.56mil|CornerRadius=4.76mil|HoleSize=0mil|Usage=FLASHONLY|Rotation=90.000|XOffset=0mil|YOffset=0mil|HoleType=Round|Shape=RoundedRectangle|*
%AMROUNDEDRECTD70*
21,1,0.04337,0.02205,0,0,90.0*
21,1,0.03386,0.03156,0,0,90.0*
1,1,0.00951,0.01102,0.01693*
1,1,0.00951,0.01102,-0.01693*
1,1,0.00951,-0.01102,-0.01693*
1,1,0.00951,-0.01102,0.01693*
%
%ADD70ROUNDEDRECTD70*%
%ADD71R,0.02762X0.04888*%
%ADD72R,0.01581X0.04888*%
%ADD73R,0.08372X0.08372*%
%ADD74C,0.08372*%
%ADD75R,0.06601X0.06601*%
%ADD76C,0.06601*%
%ADD77O,0.04534X0.08668*%
%ADD78O,0.03943X0.07487*%
%ADD79C,0.02959*%
%ADD80O,0.20085X0.10243*%
%ADD81O,0.18117X0.09258*%
%ADD82O,0.09258X0.18117*%
%ADD83C,0.06896*%
%ADD84C,0.20085*%
D44*
X0634938Y0793248D02*
D03*
Y0785768D02*
D03*
X0625096D02*
D03*
Y0789508D02*
D03*
Y0793248D02*
D03*
X0680038Y0793448D02*
D03*
Y0785968D02*
D03*
X0670196D02*
D03*
Y0789708D02*
D03*
Y0793448D02*
D03*
D45*
X0596072Y0858364D02*
D03*
X0587017D02*
D03*
X0577962D02*
D03*
X0544705Y0857465D02*
D03*
X0553760D02*
D03*
X0562815D02*
D03*
D46*
X0587017Y0835333D02*
D03*
X0553760Y0834433D02*
D03*
D47*
X0616917Y0919657D02*
D03*
Y0913358D02*
D03*
X0642317Y0920357D02*
D03*
Y0914058D02*
D03*
X0520517Y0985758D02*
D03*
Y0992057D02*
D03*
X0647354Y0871689D02*
D03*
Y0865390D02*
D03*
X0653754Y0871589D02*
D03*
Y0865290D02*
D03*
X0663654Y0865590D02*
D03*
Y0871889D02*
D03*
X0669954Y0865590D02*
D03*
Y0871889D02*
D03*
X0670854Y0911490D02*
D03*
Y0917789D02*
D03*
X0664754Y0911490D02*
D03*
Y0917789D02*
D03*
X0586717Y0997758D02*
D03*
Y1004057D02*
D03*
X0580717Y0997758D02*
D03*
Y1004057D02*
D03*
X0592617Y1004258D02*
D03*
Y1010557D02*
D03*
X0537717Y1019057D02*
D03*
Y1012758D02*
D03*
X0698717Y1018357D02*
D03*
Y1012058D02*
D03*
X0588217Y0869199D02*
D03*
Y0875498D02*
D03*
X0577917Y0869399D02*
D03*
Y0875698D02*
D03*
X0555660Y0868199D02*
D03*
Y0874498D02*
D03*
X0520617Y1012258D02*
D03*
Y1018557D02*
D03*
X0471217Y1012258D02*
D03*
Y1018557D02*
D03*
X0841917Y0821158D02*
D03*
Y0827457D02*
D03*
X0848317Y0821157D02*
D03*
Y0814858D02*
D03*
X0854617Y0821157D02*
D03*
Y0814858D02*
D03*
X0801017Y0820758D02*
D03*
Y0827057D02*
D03*
X0807317Y0820857D02*
D03*
Y0814558D02*
D03*
X0813517Y0820857D02*
D03*
Y0814558D02*
D03*
X0738917Y0821808D02*
D03*
Y0828107D02*
D03*
X0745217Y0821857D02*
D03*
Y0815558D02*
D03*
X0751617Y0821857D02*
D03*
Y0815558D02*
D03*
X0706217Y0821657D02*
D03*
Y0815358D02*
D03*
X0699917Y0821758D02*
D03*
Y0828057D02*
D03*
X0712617Y0821757D02*
D03*
Y0815458D02*
D03*
D48*
X0626657Y0908849D02*
D03*
Y0911408D02*
D03*
Y0913967D02*
D03*
X0634177D02*
D03*
Y0911408D02*
D03*
Y0908849D02*
D03*
D49*
X0488079Y0755807D02*
D03*
X0495953D02*
D03*
X0503827D02*
D03*
X0511701D02*
D03*
X0519575D02*
D03*
X0432961D02*
D03*
X0440835D02*
D03*
X0448709D02*
D03*
X0456583D02*
D03*
D50*
X0478827Y0733169D02*
D03*
X0528827D02*
D03*
X0465835D02*
D03*
X0423709D02*
D03*
D51*
X0566819Y0762697D02*
D03*
X0558946D02*
D03*
X0551072D02*
D03*
X0614064D02*
D03*
X0606190D02*
D03*
X0598316D02*
D03*
X0661308D02*
D03*
X0653434D02*
D03*
X0645560D02*
D03*
D52*
X0576072Y0745177D02*
D03*
X0541819D02*
D03*
X0623316D02*
D03*
X0589064D02*
D03*
X0670560D02*
D03*
X0636308D02*
D03*
D53*
X0685917Y0790998D02*
D03*
Y0787218D02*
D03*
X0640817Y0789418D02*
D03*
Y0793197D02*
D03*
X0597717Y1004218D02*
D03*
Y1007998D02*
D03*
X0593217Y0870459D02*
D03*
Y0874238D02*
D03*
X0583017Y0870559D02*
D03*
Y0874339D02*
D03*
X0560760Y0869459D02*
D03*
Y0873238D02*
D03*
X0536460Y0871459D02*
D03*
Y0875239D02*
D03*
D54*
X0579418Y0984208D02*
D03*
X0585717D02*
D03*
X0579418Y0978445D02*
D03*
X0585717D02*
D03*
X0641304Y0871539D02*
D03*
X0635005D02*
D03*
X0653367Y0884508D02*
D03*
X0647068D02*
D03*
X0627468Y0920708D02*
D03*
X0633767D02*
D03*
X0633517Y0901208D02*
D03*
X0627218D02*
D03*
X0585717Y0963681D02*
D03*
X0579418D02*
D03*
X0713768Y0785308D02*
D03*
X0720067D02*
D03*
X0752868D02*
D03*
X0759167D02*
D03*
X0807268Y0785608D02*
D03*
X0813567D02*
D03*
X0847168D02*
D03*
X0853467D02*
D03*
D55*
X0519767Y1002408D02*
D03*
X0513468D02*
D03*
X0490268Y1001508D02*
D03*
X0496567D02*
D03*
X0505767D02*
D03*
X0499468D02*
D03*
D56*
X0513317Y0996801D02*
D03*
Y0983415D02*
D03*
D57*
X0607174Y1008996D02*
D03*
Y1003996D02*
D03*
Y0998996D02*
D03*
Y0993996D02*
D03*
Y0988996D02*
D03*
Y0983996D02*
D03*
Y0978996D02*
D03*
Y0973996D02*
D03*
Y0968996D02*
D03*
Y0963996D02*
D03*
Y0958996D02*
D03*
Y0953996D02*
D03*
Y0948996D02*
D03*
Y0943996D02*
D03*
X0676072D02*
D03*
Y0948996D02*
D03*
Y0953996D02*
D03*
Y0958996D02*
D03*
Y0963996D02*
D03*
Y0968996D02*
D03*
Y0973996D02*
D03*
Y0978996D02*
D03*
Y0983996D02*
D03*
Y0988996D02*
D03*
Y0993996D02*
D03*
Y0998996D02*
D03*
Y1003996D02*
D03*
Y1008996D02*
D03*
D58*
X0635698Y0986476D02*
D03*
Y0991397D02*
D03*
X0630776D02*
D03*
Y0986476D02*
D03*
Y0981555D02*
D03*
X0635698D02*
D03*
X0640619D02*
D03*
Y0986476D02*
D03*
Y0991397D02*
D03*
D59*
X0469217Y0984608D02*
D03*
X0407017Y0976808D02*
D03*
X0412017Y0952308D02*
D03*
X0870517Y0952008D02*
D03*
D60*
X0477227Y0766008D02*
D03*
X0481007D02*
D03*
X0422127D02*
D03*
X0425907D02*
D03*
X0563227Y1005808D02*
D03*
X0567007D02*
D03*
X0727027Y1006308D02*
D03*
X0730807D02*
D03*
D61*
X0537617Y1025108D02*
D03*
Y1031407D02*
D03*
X0698717Y1024258D02*
D03*
Y1030557D02*
D03*
D62*
X0545260Y0879085D02*
D03*
Y0868612D02*
D03*
D63*
X0659602Y0899545D02*
D03*
Y0897576D02*
D03*
Y0895608D02*
D03*
Y0893639D02*
D03*
Y0891671D02*
D03*
Y0889702D02*
D03*
Y0887734D02*
D03*
X0678106D02*
D03*
Y0889702D02*
D03*
Y0891671D02*
D03*
Y0893639D02*
D03*
Y0895608D02*
D03*
Y0897576D02*
D03*
Y0899545D02*
D03*
D64*
X0662949Y0884387D02*
D03*
X0664917D02*
D03*
X0666886D02*
D03*
X0668854D02*
D03*
X0670823D02*
D03*
X0672791D02*
D03*
X0674760D02*
D03*
Y0902891D02*
D03*
X0672791D02*
D03*
X0670823D02*
D03*
X0668854D02*
D03*
X0666886D02*
D03*
X0664917D02*
D03*
X0662949D02*
D03*
D65*
X0668854Y0893639D02*
D03*
D66*
X0860983Y0813449D02*
D03*
Y0821166D02*
D03*
X0869251Y0817308D02*
D03*
X0819983Y0813050D02*
D03*
Y0820766D02*
D03*
X0828251Y0816908D02*
D03*
X0758083Y0814149D02*
D03*
Y0821866D02*
D03*
X0766351Y0818008D02*
D03*
X0719283Y0814050D02*
D03*
Y0821766D02*
D03*
X0727551Y0817908D02*
D03*
D67*
X0727717Y0802894D02*
D03*
Y0794508D02*
D03*
X0766517Y0802894D02*
D03*
Y0794508D02*
D03*
X0821317Y0802894D02*
D03*
Y0794508D02*
D03*
X0860617Y0802994D02*
D03*
Y0794608D02*
D03*
D68*
X0712953Y0798701D02*
D03*
X0751753D02*
D03*
X0806553D02*
D03*
X0845853Y0798801D02*
D03*
D69*
X0849835Y0982908D02*
D03*
X0824599D02*
D03*
X0800235Y0983308D02*
D03*
X0774999D02*
D03*
X0426499Y0966608D02*
D03*
X0451735D02*
D03*
D70*
X0730817Y1035730D02*
D03*
Y1012108D02*
D03*
X0716250Y1035730D02*
D03*
Y1012108D02*
D03*
X0567001Y1035019D02*
D03*
Y1011397D02*
D03*
X0552434Y1035019D02*
D03*
Y1011397D02*
D03*
D71*
X0508552Y1012894D02*
D03*
X0505402D02*
D03*
X0486505D02*
D03*
X0483355D02*
D03*
D72*
X0502843D02*
D03*
X0500875D02*
D03*
X0498906D02*
D03*
X0496938D02*
D03*
X0494969D02*
D03*
X0493001D02*
D03*
X0491032D02*
D03*
X0489064D02*
D03*
D73*
X0785678Y0896988D02*
D03*
X0497568Y0946988D02*
D03*
D74*
X0785678Y0886988D02*
D03*
Y0876988D02*
D03*
Y0866988D02*
D03*
X0497568Y0816988D02*
D03*
Y0826988D02*
D03*
Y0836988D02*
D03*
Y0846988D02*
D03*
Y0856988D02*
D03*
Y0866988D02*
D03*
Y0876988D02*
D03*
Y0886988D02*
D03*
Y0896988D02*
D03*
Y0906988D02*
D03*
Y0916988D02*
D03*
Y0926988D02*
D03*
Y0936988D02*
D03*
X0831583Y0766240D02*
D03*
X0845363Y0745768D02*
D03*
X0792213Y0766240D02*
D03*
X0805993Y0745768D02*
D03*
X0752843Y0766240D02*
D03*
X0766623Y0745768D02*
D03*
X0713473Y0766240D02*
D03*
X0727253Y0745768D02*
D03*
D75*
X0395560Y0951988D02*
D03*
X0887686D02*
D03*
D76*
X0395560Y0941988D02*
D03*
Y0931988D02*
D03*
Y0921988D02*
D03*
Y0911988D02*
D03*
Y0901988D02*
D03*
Y0891988D02*
D03*
Y0881988D02*
D03*
Y0871988D02*
D03*
Y0861988D02*
D03*
Y0851988D02*
D03*
Y0841988D02*
D03*
Y0831988D02*
D03*
Y0821988D02*
D03*
Y0811988D02*
D03*
X0887686Y0941988D02*
D03*
Y0931988D02*
D03*
Y0921988D02*
D03*
Y0911988D02*
D03*
Y0901988D02*
D03*
Y0891988D02*
D03*
Y0881988D02*
D03*
Y0871988D02*
D03*
Y0861988D02*
D03*
Y0851988D02*
D03*
Y0841988D02*
D03*
Y0831988D02*
D03*
Y0821988D02*
D03*
Y0811988D02*
D03*
D77*
X0512961Y1015138D02*
D03*
X0478945D02*
D03*
D78*
X0512961Y1031594D02*
D03*
X0478945D02*
D03*
D79*
X0484575Y1017106D02*
D03*
X0507331D02*
D03*
D80*
X0439851Y0987303D02*
D03*
D81*
Y1010925D02*
D03*
D82*
X0421347Y0999114D02*
D03*
D83*
X0779171Y1021887D02*
D03*
X0799171D02*
D03*
X0826415D02*
D03*
X0846415D02*
D03*
D84*
X0881780Y1023720D02*
D03*
X0401465D02*
D03*
Y0740256D02*
D03*
X0881780D02*
D03*
M02*
