G04*
G04 #@! TF.GenerationSoftware,Altium Limited,Altium Designer,22.8.2 (66)*
G04*
G04 Layer_Physical_Order=2*
G04 Layer_Color=16711680*
%FSAX25Y25*%
%MOIN*%
G70*
G04*
G04 #@! TF.SameCoordinates,48F98BF4-95A5-4A16-9148-CE3FBF4555CD*
G04*
G04*
G04 #@! TF.FilePolarity,Positive*
G04*
G01*
G75*
%ADD12C,0.01181*%
%ADD89C,0.01000*%
%ADD92C,0.02362*%
%ADD93C,0.01575*%
%ADD94C,0.01968*%
%ADD95C,0.05906*%
%ADD98R,0.06496X0.06496*%
%ADD99C,0.06496*%
%ADD100O,0.04134X0.08268*%
%ADD101O,0.03543X0.07087*%
%ADD102C,0.02559*%
%ADD103O,0.19685X0.09843*%
%ADD104O,0.17717X0.08858*%
%ADD105O,0.08858X0.17717*%
%ADD106C,0.19685*%
%ADD107C,0.07972*%
%ADD108R,0.07972X0.07972*%
%ADD109C,0.02362*%
%ADD110C,0.03150*%
G36*
X0613261Y1014862D02*
X0613322Y1014555D01*
X0613496Y1014294D01*
X0613757Y1014120D01*
X0614064Y1014059D01*
X0614841D01*
X0614918Y1013944D01*
X0615248Y1013723D01*
X0615638Y1013646D01*
X0667607D01*
X0667997Y1013723D01*
X0668328Y1013944D01*
X0668405Y1014059D01*
X0669182D01*
X0669489Y1014120D01*
X0669749Y1014294D01*
X0669923Y1014555D01*
X0669984Y1014862D01*
Y1038666D01*
X0877843Y1038666D01*
X0879081D01*
X0881535Y1038342D01*
X0883926Y1037702D01*
X0886213Y1036755D01*
X0888356Y1035517D01*
X0890320Y1034010D01*
X0892070Y1032260D01*
X0893577Y1030296D01*
X0894814Y1028153D01*
X0895762Y1025866D01*
X0896402Y1023475D01*
X0896725Y1021021D01*
X0896725Y1019783D01*
X0896725Y0744193D01*
Y0742955D01*
X0896402Y0740501D01*
X0895762Y0738110D01*
X0894814Y0735823D01*
X0893577Y0733680D01*
X0892070Y0731716D01*
X0890320Y0729966D01*
X0888356Y0728459D01*
X0886213Y0727221D01*
X0883926Y0726274D01*
X0881535Y0725634D01*
X0879081Y0725311D01*
X0877843D01*
X0405402Y0725311D01*
X0404165D01*
X0401711Y0725634D01*
X0399320Y0726274D01*
X0397033Y0727221D01*
X0394889Y0728459D01*
X0392926Y0729966D01*
X0391175Y0731716D01*
X0389668Y0733680D01*
X0388431Y0735823D01*
X0387484Y0738110D01*
X0386843Y0740501D01*
X0386520Y0742955D01*
X0386520Y0744193D01*
X0386520Y1019783D01*
Y1021021D01*
X0386843Y1023475D01*
X0387484Y1025866D01*
X0388431Y1028153D01*
X0389668Y1030296D01*
X0391175Y1032260D01*
X0392926Y1034010D01*
X0394889Y1035517D01*
X0397033Y1036755D01*
X0399320Y1037702D01*
X0401711Y1038342D01*
X0404165Y1038666D01*
X0405402Y1038666D01*
X0613261Y1038666D01*
Y1014862D01*
D02*
G37*
%LPC*%
G36*
X0512961Y1036162D02*
X0512238Y1036066D01*
X0511563Y1035787D01*
X0510985Y1035343D01*
X0510540Y1034764D01*
X0510261Y1034090D01*
X0510225Y1033818D01*
X0481682D01*
X0481646Y1034090D01*
X0481367Y1034764D01*
X0480922Y1035343D01*
X0480343Y1035787D01*
X0479669Y1036066D01*
X0478945Y1036162D01*
X0478222Y1036066D01*
X0477548Y1035787D01*
X0476969Y1035343D01*
X0476524Y1034764D01*
X0476245Y1034090D01*
X0476150Y1033366D01*
Y1029823D01*
X0476245Y1029099D01*
X0476524Y1028425D01*
X0476722Y1028168D01*
Y1019344D01*
X0476267Y1018751D01*
X0475957Y1018005D01*
X0475852Y1017205D01*
Y1013071D01*
X0475957Y1012270D01*
X0476267Y1011524D01*
X0476758Y1010883D01*
X0477399Y1010392D01*
X0478145Y1010083D01*
X0478945Y1009977D01*
X0479746Y1010083D01*
X0480492Y1010392D01*
X0481133Y1010883D01*
X0481625Y1011524D01*
X0481933Y1012270D01*
X0482039Y1013071D01*
Y1017205D01*
X0481933Y1018005D01*
X0481625Y1018751D01*
X0481169Y1019344D01*
Y1028168D01*
X0481367Y1028425D01*
X0481646Y1029099D01*
X0481682Y1029370D01*
X0510225D01*
X0510261Y1029099D01*
X0510540Y1028425D01*
X0510737Y1028168D01*
Y1019344D01*
X0510282Y1018751D01*
X0509973Y1018005D01*
X0509868Y1017205D01*
Y1013071D01*
X0509973Y1012270D01*
X0510282Y1011524D01*
X0510774Y1010883D01*
X0511415Y1010392D01*
X0512161Y1010083D01*
X0512961Y1009977D01*
X0513762Y1010083D01*
X0514508Y1010392D01*
X0515149Y1010883D01*
X0515640Y1011524D01*
X0515949Y1012270D01*
X0516055Y1013071D01*
Y1017205D01*
X0515949Y1018005D01*
X0515640Y1018751D01*
X0515185Y1019344D01*
Y1028168D01*
X0515382Y1028425D01*
X0515662Y1029099D01*
X0515757Y1029823D01*
Y1033366D01*
X0515662Y1034090D01*
X0515382Y1034764D01*
X0514938Y1035343D01*
X0514359Y1035787D01*
X0513685Y1036066D01*
X0512961Y1036162D01*
D02*
G37*
G36*
X0826974Y1026134D02*
X0825856D01*
X0824775Y1025845D01*
X0823806Y1025286D01*
X0823015Y1024495D01*
X0822456Y1023526D01*
X0822167Y1022446D01*
Y1021327D01*
X0822456Y1020247D01*
X0823015Y1019278D01*
X0823806Y1018487D01*
X0824775Y1017928D01*
X0825856Y1017638D01*
X0826974D01*
X0828055Y1017928D01*
X0829023Y1018487D01*
X0829814Y1019278D01*
X0830373Y1020247D01*
X0830663Y1021327D01*
Y1022446D01*
X0830373Y1023526D01*
X0829814Y1024495D01*
X0829023Y1025286D01*
X0828055Y1025845D01*
X0826974Y1026134D01*
D02*
G37*
G36*
X0779730D02*
X0778611D01*
X0777531Y1025845D01*
X0776562Y1025286D01*
X0775771Y1024495D01*
X0775212Y1023526D01*
X0774923Y1022446D01*
Y1021327D01*
X0775212Y1020247D01*
X0775771Y1019278D01*
X0776562Y1018487D01*
X0777531Y1017928D01*
X0778611Y1017638D01*
X0779730D01*
X0780810Y1017928D01*
X0781779Y1018487D01*
X0782570Y1019278D01*
X0783129Y1020247D01*
X0783419Y1021327D01*
Y1022446D01*
X0783129Y1023526D01*
X0782570Y1024495D01*
X0781779Y1025286D01*
X0780810Y1025845D01*
X0779730Y1026134D01*
D02*
G37*
G36*
X0495451Y1022289D02*
X0494583D01*
X0493782Y1021957D01*
X0493168Y1021343D01*
X0492836Y1020542D01*
Y1019674D01*
X0493168Y1018872D01*
X0493782Y1018259D01*
X0494583Y1017927D01*
X0495451D01*
X0496253Y1018259D01*
X0496570Y1018576D01*
X0496597Y1018578D01*
X0499015D01*
X0499210Y1018384D01*
X0499236Y1018350D01*
Y1018274D01*
X0499568Y1017472D01*
X0500182Y1016859D01*
X0500983Y1016527D01*
X0501851D01*
X0502653Y1016859D01*
X0503266Y1017472D01*
X0503598Y1018274D01*
Y1019142D01*
X0503266Y1019943D01*
X0502653Y1020557D01*
X0501851Y1020889D01*
X0501030D01*
X0500730Y1021189D01*
X0500234Y1021521D01*
X0499649Y1021637D01*
X0496597D01*
X0496570Y1021639D01*
X0496253Y1021957D01*
X0495451Y1022289D01*
D02*
G37*
G36*
X0507664Y1018779D02*
X0506998D01*
X0506384Y1018525D01*
X0505913Y1018054D01*
X0505658Y1017439D01*
Y1016773D01*
X0505913Y1016158D01*
X0506384Y1015688D01*
X0506998Y1015433D01*
X0507664D01*
X0508279Y1015688D01*
X0508750Y1016158D01*
X0509005Y1016773D01*
Y1017439D01*
X0508750Y1018054D01*
X0508279Y1018525D01*
X0507664Y1018779D01*
D02*
G37*
G36*
X0484908D02*
X0484243D01*
X0483628Y1018525D01*
X0483157Y1018054D01*
X0482902Y1017439D01*
Y1016773D01*
X0483157Y1016158D01*
X0483628Y1015688D01*
X0484243Y1015433D01*
X0484908D01*
X0485523Y1015688D01*
X0485994Y1016158D01*
X0486249Y1016773D01*
Y1017439D01*
X0485994Y1018054D01*
X0485523Y1018525D01*
X0484908Y1018779D01*
D02*
G37*
G36*
X0882633Y1034563D02*
X0880927D01*
X0879241Y1034296D01*
X0877618Y1033768D01*
X0876097Y1032994D01*
X0874717Y1031991D01*
X0873510Y1030784D01*
X0872507Y1029403D01*
X0871732Y1027882D01*
X0871205Y1026259D01*
X0870938Y1024574D01*
Y1022867D01*
X0871205Y1021181D01*
X0871732Y1019558D01*
X0872507Y1018038D01*
X0873510Y1016657D01*
X0874717Y1015450D01*
X0876097Y1014447D01*
X0877618Y1013672D01*
X0879241Y1013145D01*
X0880927Y1012878D01*
X0882633D01*
X0884319Y1013145D01*
X0885942Y1013672D01*
X0887463Y1014447D01*
X0888844Y1015450D01*
X0890050Y1016657D01*
X0891053Y1018038D01*
X0891828Y1019558D01*
X0892356Y1021181D01*
X0892623Y1022867D01*
Y1024574D01*
X0892356Y1026259D01*
X0891828Y1027882D01*
X0891053Y1029403D01*
X0890050Y1030784D01*
X0888844Y1031991D01*
X0887463Y1032994D01*
X0885942Y1033768D01*
X0884319Y1034296D01*
X0882633Y1034563D01*
D02*
G37*
G36*
X0402318D02*
X0400612D01*
X0398926Y1034296D01*
X0397303Y1033768D01*
X0395782Y1032994D01*
X0394402Y1031991D01*
X0393195Y1030784D01*
X0392192Y1029403D01*
X0391417Y1027882D01*
X0390890Y1026259D01*
X0390623Y1024574D01*
Y1022867D01*
X0390890Y1021181D01*
X0391417Y1019558D01*
X0392192Y1018038D01*
X0393195Y1016657D01*
X0394402Y1015450D01*
X0395782Y1014447D01*
X0397303Y1013672D01*
X0398926Y1013145D01*
X0400612Y1012878D01*
X0402318D01*
X0404004Y1013145D01*
X0405627Y1013672D01*
X0407148Y1014447D01*
X0408529Y1015450D01*
X0409735Y1016657D01*
X0410739Y1018038D01*
X0411513Y1019558D01*
X0412041Y1021181D01*
X0412308Y1022867D01*
Y1024574D01*
X0412041Y1026259D01*
X0411513Y1027882D01*
X0410739Y1029403D01*
X0409735Y1030784D01*
X0408529Y1031991D01*
X0407148Y1032994D01*
X0405627Y1033768D01*
X0404004Y1034296D01*
X0402318Y1034563D01*
D02*
G37*
G36*
X0582551Y1016089D02*
X0581683D01*
X0581302Y1015931D01*
X0551017D01*
X0550243Y1015777D01*
X0549587Y1015338D01*
X0547387Y1013138D01*
X0546948Y1012482D01*
X0546794Y1011708D01*
Y0975923D01*
X0546636Y0975542D01*
Y0974674D01*
X0546744Y0974413D01*
Y0863644D01*
X0546536Y0863142D01*
Y0862274D01*
X0546694Y0861893D01*
Y0856493D01*
X0546848Y0855719D01*
X0547287Y0855063D01*
X0547872Y0854477D01*
X0548529Y0854039D01*
X0549303Y0853885D01*
X0646917D01*
X0647691Y0854039D01*
X0648348Y0854477D01*
X0654355Y0860485D01*
X0722817D01*
X0723591Y0860639D01*
X0724248Y0861077D01*
X0727048Y0863877D01*
X0727486Y0864534D01*
X0727640Y0865308D01*
Y0987970D01*
X0732355Y0992685D01*
X0814079D01*
X0815694Y0991070D01*
Y0983123D01*
X0815536Y0982742D01*
Y0981874D01*
X0815868Y0981072D01*
X0816482Y0980459D01*
X0817283Y0980127D01*
X0818151D01*
X0818953Y0980459D01*
X0819566Y0981072D01*
X0819898Y0981874D01*
Y0982742D01*
X0819740Y0983123D01*
Y0991908D01*
X0819586Y0992682D01*
X0819148Y0993338D01*
X0816348Y0996138D01*
X0815691Y0996577D01*
X0814917Y0996731D01*
X0731517D01*
X0730743Y0996577D01*
X0730087Y0996138D01*
X0724187Y0990238D01*
X0723748Y0989582D01*
X0723594Y0988808D01*
Y0866146D01*
X0721979Y0864531D01*
X0653517D01*
X0652743Y0864377D01*
X0652087Y0863938D01*
X0646079Y0857931D01*
X0550740D01*
Y0861893D01*
X0550898Y0862274D01*
Y0863142D01*
X0550790Y0863402D01*
Y0974172D01*
X0550998Y0974674D01*
Y0975542D01*
X0550840Y0975923D01*
Y1010870D01*
X0551855Y1011885D01*
X0581302D01*
X0581683Y1011727D01*
X0582551D01*
X0583353Y1012059D01*
X0583966Y1012672D01*
X0584298Y1013474D01*
Y1014342D01*
X0583966Y1015143D01*
X0583353Y1015757D01*
X0582551Y1016089D01*
D02*
G37*
G36*
X0525451Y1014389D02*
X0524583D01*
X0523782Y1014057D01*
X0523168Y1013443D01*
X0522836Y1012642D01*
Y1011890D01*
X0520384Y1009437D01*
X0503697D01*
X0503670Y1009439D01*
X0503353Y1009757D01*
X0502551Y1010089D01*
X0501683D01*
X0500882Y1009757D01*
X0500268Y1009143D01*
X0499936Y1008342D01*
Y1007474D01*
X0500268Y1006672D01*
X0500882Y1006059D01*
X0501683Y1005727D01*
X0502551D01*
X0503353Y1006059D01*
X0503670Y1006376D01*
X0503697Y1006378D01*
X0521017D01*
X0521602Y1006495D01*
X0522099Y1006826D01*
X0525257Y1009984D01*
X0525307Y1010027D01*
X0525451D01*
X0526253Y1010359D01*
X0526866Y1010972D01*
X0527198Y1011774D01*
Y1012642D01*
X0526866Y1013443D01*
X0526253Y1014057D01*
X0525451Y1014389D01*
D02*
G37*
G36*
X0696617Y1021530D02*
X0696617Y1021530D01*
X0679417D01*
X0678720Y1021391D01*
X0678128Y1020996D01*
X0678128Y1020996D01*
X0669829Y1012696D01*
X0669433Y1012105D01*
X0669295Y1011408D01*
X0669295Y1011408D01*
Y0976063D01*
X0668262Y0975030D01*
X0619472D01*
X0617640Y0976863D01*
Y0996908D01*
X0617501Y0997605D01*
X0617106Y0998196D01*
X0617106Y0998196D01*
X0615406Y0999896D01*
X0614815Y1000292D01*
X0614117Y1000430D01*
X0614117Y1000430D01*
X0611179D01*
X0611153Y1000457D01*
X0610351Y1000789D01*
X0609483D01*
X0608682Y1000457D01*
X0608655Y1000430D01*
X0580617D01*
X0580617Y1000430D01*
X0579920Y1000292D01*
X0579328Y0999896D01*
X0579328Y0999896D01*
X0577328Y0997896D01*
X0576933Y0997305D01*
X0576795Y0996608D01*
X0576795Y0996608D01*
Y0948670D01*
X0576768Y0948643D01*
X0576436Y0947842D01*
Y0946974D01*
X0576768Y0946172D01*
X0577382Y0945559D01*
X0578183Y0945227D01*
X0579051D01*
X0579853Y0945559D01*
X0580466Y0946172D01*
X0580798Y0946974D01*
Y0947842D01*
X0580466Y0948643D01*
X0580440Y0948670D01*
Y0995853D01*
X0581372Y0996785D01*
X0608655D01*
X0608682Y0996759D01*
X0609483Y0996427D01*
X0610351D01*
X0611153Y0996759D01*
X0611179Y0996785D01*
X0613362D01*
X0613995Y0996153D01*
Y0991368D01*
X0613533Y0991177D01*
X0613453Y0991257D01*
X0612651Y0991589D01*
X0611783D01*
X0610982Y0991257D01*
X0610467Y0990742D01*
X0609953Y0991257D01*
X0609151Y0991589D01*
X0608283D01*
X0607482Y0991257D01*
X0606868Y0990643D01*
X0606536Y0989842D01*
Y0988974D01*
X0606868Y0988172D01*
X0607186Y0987854D01*
X0607188Y0987828D01*
Y0984987D01*
X0607186Y0984961D01*
X0606868Y0984643D01*
X0606536Y0983842D01*
Y0982974D01*
X0606868Y0982172D01*
X0607482Y0981559D01*
X0608283Y0981227D01*
X0609151D01*
X0609953Y0981559D01*
X0610417Y0982023D01*
X0610882Y0981559D01*
X0611683Y0981227D01*
X0612551D01*
X0613353Y0981559D01*
X0613495Y0981701D01*
X0613995Y0981494D01*
Y0976108D01*
X0613995Y0976108D01*
X0614134Y0975410D01*
X0614529Y0974819D01*
X0617428Y0971919D01*
X0618020Y0971524D01*
X0618717Y0971385D01*
X0618717Y0971385D01*
X0669017D01*
X0669017Y0971385D01*
X0669715Y0971524D01*
X0670306Y0971919D01*
X0672406Y0974019D01*
X0672406Y0974019D01*
X0672488Y0974142D01*
X0672988Y0973990D01*
Y0960887D01*
X0672986Y0960861D01*
X0672668Y0960543D01*
X0672336Y0959742D01*
Y0958874D01*
X0672668Y0958072D01*
X0673183Y0957558D01*
X0672701Y0957076D01*
X0670447D01*
Y0966308D01*
X0670330Y0966893D01*
X0669999Y0967389D01*
X0668199Y0969189D01*
X0667702Y0969521D01*
X0667117Y0969637D01*
X0636590D01*
X0636005Y0969521D01*
X0635509Y0969189D01*
X0635509Y0969189D01*
X0634890D01*
X0634088Y0968857D01*
X0633474Y0968243D01*
X0633142Y0967442D01*
Y0966574D01*
X0633474Y0965772D01*
X0634088Y0965159D01*
X0634890Y0964827D01*
X0635757D01*
X0636559Y0965159D01*
X0637173Y0965772D01*
X0637505Y0966574D01*
Y0966578D01*
X0655350D01*
X0655541Y0966078D01*
X0655236Y0965342D01*
Y0964474D01*
X0655568Y0963672D01*
X0656038Y0963203D01*
Y0957672D01*
X0656031Y0957606D01*
X0655868Y0957443D01*
X0655536Y0956642D01*
Y0955774D01*
X0655868Y0954972D01*
X0656188Y0954653D01*
Y0950908D01*
X0656304Y0950323D01*
X0656636Y0949826D01*
X0657636Y0948826D01*
X0658132Y0948495D01*
X0658717Y0948378D01*
X0714331D01*
X0714917Y0948495D01*
X0715413Y0948826D01*
X0715999Y0949412D01*
X0716330Y0949908D01*
X0716447Y0950494D01*
Y0976153D01*
X0716866Y0976572D01*
X0717198Y0977374D01*
Y0978242D01*
X0716866Y0979043D01*
X0716253Y0979657D01*
X0715451Y0979989D01*
X0714583D01*
X0713782Y0979657D01*
X0713168Y0979043D01*
X0712836Y0978242D01*
Y0977374D01*
X0713168Y0976572D01*
X0713388Y0976353D01*
Y0951437D01*
X0691284D01*
X0691035Y0951937D01*
X0691298Y0952574D01*
Y0953442D01*
X0690966Y0954243D01*
X0690649Y0954561D01*
X0690647Y0954587D01*
Y0995222D01*
X0690530Y0995807D01*
X0690199Y0996303D01*
X0689613Y0996889D01*
X0689117Y0997221D01*
X0688531Y0997337D01*
X0687097D01*
X0687070Y0997339D01*
X0686753Y0997657D01*
X0685951Y0997989D01*
X0685083D01*
X0684282Y0997657D01*
X0683668Y0997043D01*
X0683336Y0996242D01*
Y0995374D01*
X0683543Y0994873D01*
X0683120Y0994590D01*
X0683053Y0994657D01*
X0682251Y0994989D01*
X0681383D01*
X0680582Y0994657D01*
X0679968Y0994043D01*
X0679636Y0993242D01*
Y0992374D01*
X0679968Y0991572D01*
X0680582Y0990959D01*
X0681383Y0990627D01*
X0682251D01*
X0683053Y0990959D01*
X0683088Y0990994D01*
X0683588Y0990787D01*
Y0954687D01*
X0683586Y0954661D01*
X0683268Y0954343D01*
X0682936Y0953542D01*
Y0952674D01*
X0683241Y0951937D01*
X0683050Y0951437D01*
X0659351D01*
X0659247Y0951541D01*
Y0954653D01*
X0659566Y0954972D01*
X0659898Y0955774D01*
Y0956642D01*
X0659566Y0957443D01*
X0659097Y0957913D01*
Y0963443D01*
X0659103Y0963509D01*
X0659266Y0963672D01*
X0659598Y0964474D01*
Y0965342D01*
X0659293Y0966078D01*
X0659484Y0966578D01*
X0666484D01*
X0667388Y0965674D01*
Y0956133D01*
X0667504Y0955548D01*
X0667836Y0955052D01*
X0668422Y0954466D01*
X0668918Y0954134D01*
X0669503Y0954018D01*
X0673186D01*
X0673228Y0954013D01*
X0673282Y0953959D01*
X0674083Y0953627D01*
X0674951D01*
X0675753Y0953959D01*
X0676366Y0954572D01*
X0676698Y0955374D01*
Y0956242D01*
X0676366Y0957043D01*
X0675852Y0957558D01*
X0676366Y0958072D01*
X0676698Y0958874D01*
Y0959742D01*
X0676366Y0960543D01*
X0676049Y0960861D01*
X0676047Y0960887D01*
Y1010574D01*
X0678651Y1013178D01*
X0685362D01*
X0685782Y1012759D01*
X0686583Y1012427D01*
X0687451D01*
X0688253Y1012759D01*
X0688866Y1013372D01*
X0689198Y1014174D01*
Y1015042D01*
X0688866Y1015843D01*
X0688253Y1016457D01*
X0687451Y1016789D01*
X0686583D01*
X0685782Y1016457D01*
X0685570Y1016245D01*
X0685473Y1016237D01*
X0679177D01*
X0678986Y1016699D01*
X0680172Y1017885D01*
X0695862D01*
X0699995Y1013753D01*
Y1005970D01*
X0699968Y1005943D01*
X0699636Y1005142D01*
Y1004274D01*
X0699968Y1003472D01*
X0700582Y1002859D01*
X0701383Y1002527D01*
X0702251D01*
X0703053Y1002859D01*
X0703666Y1003472D01*
X0703998Y1004274D01*
Y1005142D01*
X0703666Y1005943D01*
X0703640Y1005970D01*
Y1014508D01*
X0703640Y1014508D01*
X0703501Y1015205D01*
X0703106Y1015796D01*
X0703106Y1015796D01*
X0697906Y1020996D01*
X0697315Y1021391D01*
X0696617Y1021530D01*
D02*
G37*
G36*
X0445756Y0996206D02*
X0435914D01*
X0434753Y0996091D01*
X0433637Y0995753D01*
X0432608Y0995203D01*
X0431707Y0994463D01*
X0430967Y0993561D01*
X0430417Y0992533D01*
X0430078Y0991417D01*
X0429964Y0990256D01*
X0430078Y0989095D01*
X0430417Y0987979D01*
X0430967Y0986950D01*
X0431707Y0986049D01*
X0432608Y0985309D01*
X0433637Y0984759D01*
X0434753Y0984420D01*
X0435914Y0984306D01*
X0445756D01*
X0446917Y0984420D01*
X0448034Y0984759D01*
X0449062Y0985309D01*
X0449964Y0986049D01*
X0450704Y0986950D01*
X0451254Y0987979D01*
X0451592Y0989095D01*
X0451707Y0990256D01*
X0451592Y0991417D01*
X0451254Y0992533D01*
X0450704Y0993561D01*
X0449964Y0994463D01*
X0449062Y0995203D01*
X0448034Y0995753D01*
X0446917Y0996091D01*
X0445756Y0996206D01*
D02*
G37*
G36*
X0593651Y0976689D02*
X0592783D01*
X0591982Y0976357D01*
X0591417Y0975792D01*
X0590953Y0976257D01*
X0590151Y0976589D01*
X0589283D01*
X0588482Y0976257D01*
X0587868Y0975643D01*
X0587536Y0974842D01*
Y0973974D01*
X0587868Y0973172D01*
X0588482Y0972559D01*
X0589262Y0972235D01*
Y0962646D01*
X0589288Y0962516D01*
Y0954449D01*
X0588582Y0954157D01*
X0587968Y0953543D01*
X0587636Y0952742D01*
Y0951874D01*
X0587968Y0951072D01*
X0588582Y0950459D01*
X0589383Y0950127D01*
X0590251D01*
X0591053Y0950459D01*
X0591567Y0950973D01*
X0592082Y0950459D01*
X0592883Y0950127D01*
X0593751D01*
X0594553Y0950459D01*
X0595166Y0951072D01*
X0595498Y0951874D01*
Y0952742D01*
X0595166Y0953543D01*
X0594553Y0954157D01*
X0593847Y0954449D01*
Y0963241D01*
X0593821Y0963371D01*
Y0972397D01*
X0594453Y0972659D01*
X0595066Y0973272D01*
X0595398Y0974074D01*
Y0974942D01*
X0595066Y0975743D01*
X0594453Y0976357D01*
X0593651Y0976689D01*
D02*
G37*
G36*
X0604851Y0988689D02*
X0603983D01*
X0603182Y0988357D01*
X0602568Y0987743D01*
X0602236Y0986942D01*
Y0986074D01*
X0602568Y0985272D01*
X0602886Y0984954D01*
X0602888Y0984928D01*
Y0937494D01*
X0603004Y0936908D01*
X0603336Y0936412D01*
X0603922Y0935826D01*
X0604418Y0935495D01*
X0605003Y0935378D01*
X0610338D01*
X0610364Y0935376D01*
X0610682Y0935059D01*
X0611483Y0934727D01*
X0612351D01*
X0613153Y0935059D01*
X0613766Y0935672D01*
X0614098Y0936474D01*
Y0937342D01*
X0613766Y0938143D01*
X0613153Y0938757D01*
X0612351Y0939089D01*
X0611483D01*
X0610682Y0938757D01*
X0610364Y0938439D01*
X0610338Y0938437D01*
X0605947D01*
Y0984928D01*
X0605948Y0984954D01*
X0606266Y0985272D01*
X0606598Y0986074D01*
Y0986942D01*
X0606266Y0987743D01*
X0605653Y0988357D01*
X0604851Y0988689D01*
D02*
G37*
G36*
X0651630Y0935183D02*
X0651004D01*
X0650425Y0934943D01*
X0649982Y0934500D01*
X0649742Y0933921D01*
Y0933490D01*
X0649722Y0933441D01*
X0649725Y0933432D01*
X0649722Y0933423D01*
X0649723Y0933413D01*
X0649722Y0933410D01*
X0649711Y0933385D01*
X0649690Y0933346D01*
X0649656Y0933295D01*
X0649614Y0933238D01*
X0649482Y0933085D01*
X0649400Y0933000D01*
X0649386Y0932965D01*
X0649118Y0932697D01*
X0648917Y0932737D01*
X0632997D01*
X0632970Y0932739D01*
X0632653Y0933057D01*
X0631851Y0933389D01*
X0630983D01*
X0630182Y0933057D01*
X0629568Y0932443D01*
X0629236Y0931642D01*
Y0930774D01*
X0629568Y0929972D01*
X0630182Y0929359D01*
X0630983Y0929027D01*
X0631851D01*
X0632653Y0929359D01*
X0632970Y0929676D01*
X0632997Y0929678D01*
X0648917D01*
X0649502Y0929795D01*
X0649999Y0930126D01*
X0650330Y0930622D01*
X0650447Y0931208D01*
X0650407Y0931409D01*
X0650675Y0931677D01*
X0650709Y0931690D01*
X0650794Y0931773D01*
X0650947Y0931905D01*
X0651004Y0931947D01*
X0651055Y0931980D01*
X0651095Y0932002D01*
X0651120Y0932012D01*
X0651122Y0932013D01*
X0651133Y0932013D01*
X0651141Y0932016D01*
X0651150Y0932012D01*
X0651200Y0932033D01*
X0651630D01*
X0652209Y0932273D01*
X0652652Y0932716D01*
X0652892Y0933294D01*
Y0933921D01*
X0652652Y0934500D01*
X0652209Y0934943D01*
X0651630Y0935183D01*
D02*
G37*
G36*
X0886276Y0931236D02*
X0885158D01*
X0884077Y0930947D01*
X0883109Y0930387D01*
X0882318Y0929596D01*
X0881759Y0928628D01*
X0881469Y0927547D01*
Y0926429D01*
X0881759Y0925348D01*
X0882318Y0924380D01*
X0883109Y0923589D01*
X0884077Y0923030D01*
X0885158Y0922740D01*
X0886276D01*
X0887357Y0923030D01*
X0888326Y0923589D01*
X0889116Y0924380D01*
X0889676Y0925348D01*
X0889965Y0926429D01*
Y0927547D01*
X0889676Y0928628D01*
X0889116Y0929596D01*
X0888326Y0930387D01*
X0887357Y0930947D01*
X0886276Y0931236D01*
D02*
G37*
G36*
X0502554Y0944100D02*
X0492581D01*
Y0934128D01*
X0502554D01*
Y0937492D01*
X0507739D01*
X0508795Y0936436D01*
Y0871480D01*
X0508052Y0870736D01*
X0503700D01*
X0503652Y0870738D01*
X0503413Y0870776D01*
X0503181Y0870838D01*
X0502952Y0870926D01*
X0502725Y0871041D01*
X0502497Y0871187D01*
X0502267Y0871366D01*
X0502036Y0871579D01*
X0501804Y0871830D01*
X0501638Y0872037D01*
X0501557Y0872176D01*
X0500629Y0873104D01*
X0499492Y0873761D01*
X0499138Y0873855D01*
Y0874373D01*
X0499492Y0874468D01*
X0500629Y0875124D01*
X0501557Y0876052D01*
X0502214Y0877190D01*
X0502554Y0878458D01*
Y0879770D01*
X0502214Y0881039D01*
X0501557Y0882176D01*
X0500629Y0883104D01*
X0499492Y0883761D01*
X0499138Y0883855D01*
Y0884373D01*
X0499492Y0884468D01*
X0500629Y0885124D01*
X0501557Y0886053D01*
X0502214Y0887189D01*
X0502554Y0888458D01*
Y0889771D01*
X0502214Y0891039D01*
X0501557Y0892176D01*
X0500629Y0893104D01*
X0499492Y0893760D01*
X0499138Y0893855D01*
Y0894373D01*
X0499492Y0894468D01*
X0500629Y0895124D01*
X0501557Y0896052D01*
X0502214Y0897190D01*
X0502554Y0898458D01*
Y0899771D01*
X0502214Y0901039D01*
X0501557Y0902176D01*
X0500629Y0903104D01*
X0499492Y0903761D01*
X0499138Y0903855D01*
Y0904373D01*
X0499492Y0904468D01*
X0500629Y0905124D01*
X0501557Y0906052D01*
X0502214Y0907189D01*
X0502554Y0908458D01*
Y0909770D01*
X0502214Y0911039D01*
X0501557Y0912176D01*
X0500629Y0913104D01*
X0499492Y0913760D01*
X0499138Y0913855D01*
Y0914373D01*
X0499492Y0914468D01*
X0500629Y0915124D01*
X0501557Y0916053D01*
X0502214Y0917190D01*
X0502554Y0918458D01*
Y0919771D01*
X0502214Y0921039D01*
X0501557Y0922176D01*
X0500629Y0923104D01*
X0499492Y0923761D01*
X0498224Y0924100D01*
X0496911D01*
X0495643Y0923761D01*
X0494506Y0923104D01*
X0493578Y0922176D01*
X0492921Y0921039D01*
X0492581Y0919771D01*
Y0918458D01*
X0492921Y0917190D01*
X0493578Y0916053D01*
X0494506Y0915124D01*
X0495643Y0914468D01*
X0495997Y0914373D01*
Y0913855D01*
X0495643Y0913760D01*
X0494506Y0913104D01*
X0493578Y0912176D01*
X0493496Y0912035D01*
X0493316Y0911809D01*
X0493070Y0911539D01*
X0492828Y0911310D01*
X0492589Y0911119D01*
X0492356Y0910963D01*
X0492127Y0910841D01*
X0491903Y0910750D01*
X0491679Y0910686D01*
X0491453Y0910648D01*
X0491371Y0910643D01*
X0406036D01*
X0402136Y0914543D01*
X0402125Y0914555D01*
X0402018Y0914701D01*
X0401929Y0914854D01*
X0401855Y0915018D01*
X0401795Y0915197D01*
X0401751Y0915393D01*
X0401723Y0915608D01*
X0401713Y0915845D01*
X0401723Y0916104D01*
X0401746Y0916316D01*
X0401776Y0916429D01*
Y0917547D01*
X0401487Y0918628D01*
X0400927Y0919596D01*
X0400137Y0920387D01*
X0399168Y0920947D01*
X0398087Y0921236D01*
X0396969D01*
X0395888Y0920947D01*
X0394920Y0920387D01*
X0394129Y0919596D01*
X0393570Y0918628D01*
X0393280Y0917547D01*
Y0916429D01*
X0393570Y0915348D01*
X0394129Y0914380D01*
X0394920Y0913589D01*
X0395888Y0913029D01*
X0396969Y0912740D01*
X0398087D01*
X0398200Y0912770D01*
X0398412Y0912793D01*
X0398672Y0912803D01*
X0398908Y0912793D01*
X0399124Y0912765D01*
X0399319Y0912721D01*
X0399498Y0912662D01*
X0399662Y0912588D01*
X0399815Y0912498D01*
X0399961Y0912391D01*
X0399973Y0912380D01*
X0404321Y0908033D01*
X0404817Y0907701D01*
X0405402Y0907585D01*
X0491371D01*
X0491453Y0907580D01*
X0491679Y0907542D01*
X0491903Y0907479D01*
X0492127Y0907387D01*
X0492356Y0907265D01*
X0492590Y0907110D01*
X0492828Y0906918D01*
X0493070Y0906689D01*
X0493316Y0906419D01*
X0493496Y0906193D01*
X0493578Y0906052D01*
X0494506Y0905124D01*
X0495643Y0904468D01*
X0495997Y0904373D01*
Y0903855D01*
X0495643Y0903761D01*
X0494506Y0903104D01*
X0493578Y0902176D01*
X0492921Y0901039D01*
X0492581Y0899771D01*
Y0898458D01*
X0492921Y0897190D01*
X0493578Y0896052D01*
X0494506Y0895124D01*
X0495643Y0894468D01*
X0495997Y0894373D01*
Y0893855D01*
X0495643Y0893760D01*
X0494506Y0893104D01*
X0493578Y0892176D01*
X0492921Y0891039D01*
X0492581Y0889771D01*
Y0888458D01*
X0492623Y0888301D01*
X0492656Y0888013D01*
X0492672Y0887649D01*
X0492663Y0887315D01*
X0492630Y0887011D01*
X0492575Y0886736D01*
X0492500Y0886489D01*
X0492405Y0886265D01*
X0492292Y0886061D01*
X0492159Y0885875D01*
X0492105Y0885814D01*
X0486428Y0880137D01*
X0480284D01*
X0480034Y0880637D01*
X0480298Y0881274D01*
Y0882142D01*
X0479966Y0882943D01*
X0479648Y0883261D01*
X0479647Y0883287D01*
Y0887408D01*
X0479530Y0887993D01*
X0479199Y0888489D01*
X0476699Y0890989D01*
X0476202Y0891321D01*
X0475617Y0891437D01*
X0417751D01*
X0402170Y0907018D01*
X0401776Y0907281D01*
Y0907547D01*
X0401487Y0908628D01*
X0400927Y0909596D01*
X0400137Y0910387D01*
X0399168Y0910947D01*
X0398087Y0911236D01*
X0396969D01*
X0395888Y0910947D01*
X0394920Y0910387D01*
X0394129Y0909596D01*
X0393570Y0908628D01*
X0393280Y0907547D01*
Y0906429D01*
X0393570Y0905348D01*
X0394129Y0904380D01*
X0394920Y0903589D01*
X0395888Y0903030D01*
X0396969Y0902740D01*
X0398087D01*
X0399168Y0903030D01*
X0400137Y0903589D01*
X0400705Y0904157D01*
X0416036Y0888826D01*
X0416532Y0888495D01*
X0417117Y0888378D01*
X0474984D01*
X0476588Y0886774D01*
Y0883287D01*
X0476586Y0883261D01*
X0476268Y0882943D01*
X0475936Y0882142D01*
Y0881274D01*
X0476200Y0880637D01*
X0475950Y0880137D01*
X0474984D01*
X0474793Y0880637D01*
X0475098Y0881374D01*
Y0882242D01*
X0474766Y0883043D01*
X0474448Y0883361D01*
X0474447Y0883387D01*
Y0884708D01*
X0474330Y0885293D01*
X0473999Y0885789D01*
X0472799Y0886989D01*
X0472302Y0887321D01*
X0471717Y0887437D01*
X0414951D01*
X0404318Y0898069D01*
X0403822Y0898401D01*
X0403237Y0898518D01*
X0402515D01*
X0402499Y0898518D01*
X0402320Y0898546D01*
X0402149Y0898591D01*
X0401980Y0898655D01*
X0401812Y0898739D01*
X0401643Y0898846D01*
X0401471Y0898979D01*
X0401296Y0899139D01*
X0401120Y0899329D01*
X0400986Y0899495D01*
X0400927Y0899596D01*
X0400137Y0900387D01*
X0399168Y0900947D01*
X0398087Y0901236D01*
X0396969D01*
X0395888Y0900947D01*
X0394920Y0900387D01*
X0394129Y0899596D01*
X0393570Y0898628D01*
X0393280Y0897547D01*
Y0896429D01*
X0393570Y0895348D01*
X0394011Y0894584D01*
X0393611Y0894277D01*
X0390947Y0896941D01*
Y0925459D01*
X0392541D01*
X0392558Y0925458D01*
X0392736Y0925430D01*
X0392908Y0925385D01*
X0393076Y0925321D01*
X0393244Y0925237D01*
X0393414Y0925130D01*
X0393586Y0924997D01*
X0393760Y0924837D01*
X0393937Y0924647D01*
X0394071Y0924481D01*
X0394129Y0924380D01*
X0394920Y0923589D01*
X0395888Y0923030D01*
X0396969Y0922740D01*
X0398087D01*
X0399168Y0923030D01*
X0400137Y0923589D01*
X0400927Y0924380D01*
X0401487Y0925348D01*
X0401776Y0926429D01*
Y0927547D01*
X0401487Y0928628D01*
X0400927Y0929596D01*
X0400137Y0930387D01*
X0399168Y0930947D01*
X0398087Y0931236D01*
X0396969D01*
X0395888Y0930947D01*
X0394920Y0930387D01*
X0394129Y0929596D01*
X0394071Y0929495D01*
X0393937Y0929329D01*
X0393760Y0929139D01*
X0393586Y0928979D01*
X0393414Y0928846D01*
X0393244Y0928739D01*
X0393076Y0928655D01*
X0392908Y0928591D01*
X0392736Y0928546D01*
X0392558Y0928518D01*
X0392541Y0928518D01*
X0390217D01*
X0389632Y0928401D01*
X0389136Y0928069D01*
X0388336Y0927269D01*
X0388004Y0926773D01*
X0387888Y0926188D01*
Y0896308D01*
X0388004Y0895722D01*
X0388336Y0895226D01*
X0392403Y0891159D01*
X0392900Y0890827D01*
X0393485Y0890711D01*
X0394536D01*
X0394743Y0890211D01*
X0394129Y0889596D01*
X0393570Y0888628D01*
X0393280Y0887547D01*
Y0886429D01*
X0393570Y0885348D01*
X0394129Y0884380D01*
X0394571Y0883937D01*
X0394364Y0883437D01*
X0393017D01*
X0392432Y0883321D01*
X0391936Y0882989D01*
X0388536Y0879589D01*
X0388204Y0879093D01*
X0388088Y0878508D01*
Y0858408D01*
X0388204Y0857823D01*
X0388536Y0857326D01*
X0389955Y0855907D01*
X0390452Y0855575D01*
X0391037Y0855459D01*
X0392541D01*
X0392558Y0855458D01*
X0392736Y0855431D01*
X0392908Y0855385D01*
X0393076Y0855321D01*
X0393244Y0855237D01*
X0393414Y0855130D01*
X0393586Y0854997D01*
X0393760Y0854837D01*
X0393937Y0854647D01*
X0394071Y0854481D01*
X0394129Y0854380D01*
X0394920Y0853589D01*
X0395888Y0853030D01*
X0396969Y0852740D01*
X0398087D01*
X0399168Y0853030D01*
X0400137Y0853589D01*
X0400927Y0854380D01*
X0401487Y0855348D01*
X0401776Y0856429D01*
Y0857547D01*
X0401487Y0858628D01*
X0400927Y0859596D01*
X0400137Y0860387D01*
X0399168Y0860947D01*
X0398087Y0861236D01*
X0396969D01*
X0395888Y0860947D01*
X0394920Y0860387D01*
X0394129Y0859596D01*
X0394071Y0859495D01*
X0393937Y0859329D01*
X0393760Y0859139D01*
X0393586Y0858979D01*
X0393414Y0858846D01*
X0393244Y0858739D01*
X0393076Y0858655D01*
X0392908Y0858591D01*
X0392736Y0858546D01*
X0392558Y0858518D01*
X0392541Y0858517D01*
X0391670D01*
X0391147Y0859041D01*
Y0877874D01*
X0393651Y0880378D01*
X0394258D01*
X0394449Y0879916D01*
X0394129Y0879596D01*
X0393570Y0878628D01*
X0393280Y0877547D01*
Y0876429D01*
X0393570Y0875348D01*
X0394129Y0874380D01*
X0394920Y0873589D01*
X0395888Y0873030D01*
X0396969Y0872740D01*
X0398087D01*
X0399168Y0873030D01*
X0400137Y0873589D01*
X0400454Y0873907D01*
X0400596Y0873878D01*
X0462417D01*
X0462517Y0873378D01*
X0461982Y0873157D01*
X0461368Y0872543D01*
X0461036Y0871742D01*
Y0870874D01*
X0461368Y0870072D01*
X0461982Y0869459D01*
X0462783Y0869127D01*
X0463651D01*
X0464453Y0869459D01*
X0465066Y0870072D01*
X0465398Y0870874D01*
Y0871742D01*
X0465066Y0872543D01*
X0464453Y0873157D01*
X0463918Y0873378D01*
X0464017Y0873878D01*
X0493861D01*
X0494447Y0873995D01*
X0494943Y0874326D01*
X0495083Y0874467D01*
X0495157Y0874526D01*
X0495241Y0874583D01*
X0495303Y0874616D01*
X0495339Y0874630D01*
X0495391Y0874609D01*
X0495403Y0874606D01*
X0495643Y0874468D01*
X0495997Y0874373D01*
Y0873855D01*
X0495643Y0873761D01*
X0494506Y0873104D01*
X0493578Y0872176D01*
X0492921Y0871039D01*
X0492581Y0869771D01*
Y0868458D01*
X0492921Y0867190D01*
X0493578Y0866053D01*
X0494506Y0865124D01*
X0495643Y0864468D01*
X0495997Y0864373D01*
Y0863855D01*
X0495643Y0863760D01*
X0494506Y0863104D01*
X0493578Y0862176D01*
X0493496Y0862035D01*
X0493316Y0861809D01*
X0493070Y0861539D01*
X0492828Y0861310D01*
X0492589Y0861119D01*
X0492356Y0860963D01*
X0492127Y0860841D01*
X0491903Y0860750D01*
X0491679Y0860686D01*
X0491453Y0860648D01*
X0491371Y0860643D01*
X0406544D01*
X0402329Y0864858D01*
X0402325Y0864863D01*
X0402213Y0865013D01*
X0402114Y0865176D01*
X0402028Y0865355D01*
X0401953Y0865552D01*
X0401891Y0865768D01*
X0401843Y0866007D01*
X0401810Y0866267D01*
X0401793Y0866551D01*
X0401794Y0866885D01*
X0401783Y0866942D01*
X0401788Y0867000D01*
X0401776Y0867038D01*
Y0867547D01*
X0401487Y0868628D01*
X0400927Y0869596D01*
X0400137Y0870387D01*
X0399168Y0870947D01*
X0398087Y0871236D01*
X0396969D01*
X0395888Y0870947D01*
X0394920Y0870387D01*
X0394129Y0869596D01*
X0393570Y0868628D01*
X0393280Y0867547D01*
Y0866429D01*
X0393570Y0865348D01*
X0394129Y0864380D01*
X0394920Y0863589D01*
X0395888Y0863029D01*
X0396969Y0862740D01*
X0398087D01*
X0398431Y0862832D01*
X0398454Y0862830D01*
X0398505Y0862846D01*
X0398558Y0862847D01*
X0398850Y0862911D01*
X0399082Y0862942D01*
X0399292Y0862950D01*
X0399481Y0862939D01*
X0399652Y0862910D01*
X0399809Y0862865D01*
X0399957Y0862803D01*
X0400099Y0862722D01*
X0400240Y0862621D01*
X0400257Y0862605D01*
X0404829Y0858033D01*
X0405326Y0857701D01*
X0405911Y0857585D01*
X0476750D01*
X0476849Y0857085D01*
X0476782Y0857057D01*
X0476168Y0856443D01*
X0475836Y0855642D01*
Y0854774D01*
X0476168Y0853972D01*
X0476486Y0853654D01*
X0476488Y0853628D01*
Y0801208D01*
X0476604Y0800622D01*
X0476936Y0800126D01*
X0478836Y0798226D01*
X0479332Y0797895D01*
X0479917Y0797778D01*
X0500884D01*
X0508136Y0790526D01*
X0508632Y0790195D01*
X0509217Y0790078D01*
X0525317D01*
X0525902Y0790195D01*
X0526399Y0790526D01*
X0528551Y0792678D01*
X0535387D01*
X0535388Y0792663D01*
Y0783008D01*
X0535504Y0782422D01*
X0535836Y0781926D01*
X0536636Y0781126D01*
X0537132Y0780795D01*
X0537717Y0780678D01*
X0544938D01*
X0544964Y0780677D01*
X0545282Y0780359D01*
X0546083Y0780027D01*
X0546951D01*
X0547753Y0780359D01*
X0548366Y0780972D01*
X0548698Y0781774D01*
Y0782642D01*
X0548366Y0783443D01*
X0547753Y0784057D01*
X0546951Y0784389D01*
X0546083D01*
X0545282Y0784057D01*
X0544964Y0783739D01*
X0544938Y0783737D01*
X0538447D01*
Y0792553D01*
X0538866Y0792972D01*
X0539198Y0793774D01*
Y0794642D01*
X0538866Y0795443D01*
X0538253Y0796057D01*
X0537451Y0796389D01*
X0536583D01*
X0535782Y0796057D01*
X0535464Y0795739D01*
X0535438Y0795737D01*
X0527917D01*
X0527332Y0795621D01*
X0526836Y0795289D01*
X0524684Y0793137D01*
X0509851D01*
X0502599Y0800389D01*
X0502102Y0800721D01*
X0501517Y0800837D01*
X0480551D01*
X0479547Y0801841D01*
Y0853628D01*
X0479549Y0853654D01*
X0479866Y0853972D01*
X0480198Y0854774D01*
Y0855642D01*
X0479866Y0856443D01*
X0479253Y0857057D01*
X0479185Y0857085D01*
X0479285Y0857585D01*
X0491371D01*
X0491453Y0857580D01*
X0491679Y0857542D01*
X0491903Y0857479D01*
X0492127Y0857387D01*
X0492356Y0857265D01*
X0492590Y0857110D01*
X0492828Y0856918D01*
X0493070Y0856689D01*
X0493316Y0856419D01*
X0493496Y0856193D01*
X0493578Y0856052D01*
X0494506Y0855124D01*
X0495643Y0854468D01*
X0495997Y0854373D01*
Y0853855D01*
X0495643Y0853761D01*
X0494506Y0853104D01*
X0493578Y0852176D01*
X0492921Y0851039D01*
X0492581Y0849771D01*
Y0848458D01*
X0492921Y0847190D01*
X0493578Y0846052D01*
X0494506Y0845124D01*
X0495643Y0844468D01*
X0495997Y0844373D01*
Y0843855D01*
X0495643Y0843760D01*
X0494506Y0843104D01*
X0493578Y0842176D01*
X0492921Y0841039D01*
X0492581Y0839771D01*
Y0838458D01*
X0492921Y0837189D01*
X0493578Y0836053D01*
X0494506Y0835124D01*
X0495643Y0834468D01*
X0495997Y0834373D01*
Y0833855D01*
X0495643Y0833761D01*
X0494506Y0833104D01*
X0493578Y0832176D01*
X0492921Y0831039D01*
X0492581Y0829770D01*
Y0828458D01*
X0492921Y0827190D01*
X0493578Y0826052D01*
X0494506Y0825124D01*
X0495643Y0824468D01*
X0495997Y0824373D01*
Y0823855D01*
X0495643Y0823761D01*
X0494506Y0823104D01*
X0493578Y0822176D01*
X0492921Y0821039D01*
X0492581Y0819771D01*
Y0818458D01*
X0492921Y0817190D01*
X0493578Y0816053D01*
X0494506Y0815124D01*
X0495643Y0814468D01*
X0495997Y0814373D01*
Y0813855D01*
X0495643Y0813760D01*
X0494506Y0813104D01*
X0493578Y0812176D01*
X0492921Y0811039D01*
X0492581Y0809770D01*
Y0808458D01*
X0492921Y0807189D01*
X0493578Y0806052D01*
X0494506Y0805124D01*
X0495643Y0804468D01*
X0496911Y0804128D01*
X0498224D01*
X0499492Y0804468D01*
X0500629Y0805124D01*
X0501557Y0806052D01*
X0502214Y0807189D01*
X0502554Y0808458D01*
Y0809770D01*
X0502214Y0811039D01*
X0501557Y0812176D01*
X0500629Y0813104D01*
X0499492Y0813760D01*
X0499138Y0813855D01*
Y0814373D01*
X0499492Y0814468D01*
X0500629Y0815124D01*
X0501557Y0816053D01*
X0502214Y0817190D01*
X0502554Y0818458D01*
Y0819771D01*
X0502214Y0821039D01*
X0501557Y0822176D01*
X0500629Y0823104D01*
X0499492Y0823761D01*
X0499138Y0823855D01*
Y0824373D01*
X0499492Y0824468D01*
X0500629Y0825124D01*
X0501557Y0826052D01*
X0502214Y0827190D01*
X0502554Y0828458D01*
Y0829770D01*
X0502214Y0831039D01*
X0501557Y0832176D01*
X0500629Y0833104D01*
X0499492Y0833761D01*
X0499138Y0833855D01*
Y0834373D01*
X0499492Y0834468D01*
X0500629Y0835124D01*
X0501557Y0836053D01*
X0502214Y0837189D01*
X0502554Y0838458D01*
Y0839771D01*
X0502214Y0841039D01*
X0501557Y0842176D01*
X0500629Y0843104D01*
X0499492Y0843760D01*
X0499138Y0843855D01*
Y0844373D01*
X0499492Y0844468D01*
X0500629Y0845124D01*
X0501557Y0846052D01*
X0502214Y0847190D01*
X0502554Y0848458D01*
Y0849771D01*
X0502214Y0851039D01*
X0501557Y0852176D01*
X0500629Y0853104D01*
X0499492Y0853761D01*
X0499138Y0853855D01*
Y0854373D01*
X0499492Y0854468D01*
X0500629Y0855124D01*
X0501557Y0856052D01*
X0502214Y0857189D01*
X0502554Y0858458D01*
Y0859770D01*
X0502214Y0861039D01*
X0501557Y0862176D01*
X0500629Y0863104D01*
X0499492Y0863760D01*
X0499138Y0863855D01*
Y0864373D01*
X0499492Y0864468D01*
X0500629Y0865124D01*
X0501557Y0866053D01*
X0501638Y0866191D01*
X0501804Y0866398D01*
X0502036Y0866649D01*
X0502267Y0866863D01*
X0502497Y0867041D01*
X0502725Y0867187D01*
X0502952Y0867303D01*
X0503181Y0867390D01*
X0503413Y0867453D01*
X0503652Y0867490D01*
X0503700Y0867492D01*
X0508723D01*
X0509344Y0867616D01*
X0509870Y0867967D01*
X0511564Y0869661D01*
X0511915Y0870187D01*
X0512039Y0870808D01*
Y0937108D01*
X0511915Y0937728D01*
X0511564Y0938255D01*
X0509558Y0940261D01*
X0509031Y0940612D01*
X0508411Y0940736D01*
X0502554D01*
Y0944100D01*
D02*
G37*
G36*
X0747717Y0986395D02*
X0746685Y0986259D01*
X0745724Y0985861D01*
X0744898Y0985227D01*
X0741198Y0981527D01*
X0740564Y0980701D01*
X0740166Y0979740D01*
X0740030Y0978708D01*
X0740030Y0978708D01*
Y0860159D01*
X0738466Y0858595D01*
X0701177D01*
X0700417Y0858695D01*
X0655917D01*
X0655917Y0858695D01*
X0654885Y0858559D01*
X0653924Y0858160D01*
X0653098Y0857527D01*
X0653098Y0857527D01*
X0647630Y0852059D01*
X0647286Y0851739D01*
X0646637Y0851219D01*
X0645967Y0850764D01*
X0645274Y0850371D01*
X0644558Y0850039D01*
X0643816Y0849767D01*
X0643048Y0849555D01*
X0642252Y0849403D01*
X0641426Y0849312D01*
X0640956Y0849295D01*
X0524069D01*
X0522904Y0850459D01*
Y0885808D01*
Y0919321D01*
X0528258D01*
X0528258Y0919321D01*
X0529290Y0919457D01*
X0530251Y0919855D01*
X0531077Y0920489D01*
X0534536Y0923948D01*
X0534536Y0923948D01*
X0535170Y0924774D01*
X0535568Y0925735D01*
X0535704Y0926767D01*
X0535704Y0926767D01*
Y0961848D01*
X0535704Y0961848D01*
X0535568Y0962880D01*
X0535170Y0963842D01*
X0534536Y0964668D01*
X0534536Y0964668D01*
X0531077Y0968127D01*
X0530251Y0968760D01*
X0529290Y0969159D01*
X0528258Y0969295D01*
X0528258Y0969295D01*
X0473417D01*
X0472385Y0969159D01*
X0471424Y0968760D01*
X0470598Y0968127D01*
X0469965Y0967301D01*
X0469566Y0966340D01*
X0469430Y0965308D01*
X0469566Y0964276D01*
X0469965Y0963314D01*
X0470598Y0962489D01*
X0471424Y0961855D01*
X0472385Y0961457D01*
X0473417Y0961321D01*
X0526606D01*
X0527730Y0960197D01*
Y0928419D01*
X0526606Y0927295D01*
X0519840D01*
X0518808Y0927159D01*
X0517846Y0926760D01*
X0517021Y0926127D01*
X0517021Y0926127D01*
X0516098Y0925204D01*
X0515464Y0924379D01*
X0515066Y0923417D01*
X0514930Y0922385D01*
X0514930Y0922385D01*
Y0885808D01*
Y0848808D01*
X0514930Y0848808D01*
X0515066Y0847776D01*
X0515464Y0846814D01*
X0516098Y0845989D01*
X0519598Y0842489D01*
X0519598Y0842489D01*
X0520424Y0841855D01*
X0521385Y0841457D01*
X0522417Y0841321D01*
X0522417Y0841321D01*
X0639089D01*
X0639622Y0841293D01*
X0640290Y0841175D01*
X0640843Y0840990D01*
X0641294Y0840748D01*
X0641659Y0840449D01*
X0641957Y0840084D01*
X0642200Y0839634D01*
X0642384Y0839080D01*
X0642502Y0838412D01*
X0642530Y0837880D01*
Y0770408D01*
X0642530Y0770408D01*
X0642666Y0769376D01*
X0643064Y0768414D01*
X0643698Y0767589D01*
X0647866Y0763421D01*
X0647866Y0763421D01*
X0648692Y0762787D01*
X0649653Y0762389D01*
X0650685Y0762253D01*
X0650685Y0762253D01*
X0710408D01*
X0710412Y0762250D01*
X0711549Y0761594D01*
X0712817Y0761254D01*
X0714129D01*
X0715398Y0761594D01*
X0716535Y0762250D01*
X0716538Y0762253D01*
X0749778D01*
X0749782Y0762250D01*
X0750918Y0761594D01*
X0752187Y0761254D01*
X0753500D01*
X0754768Y0761594D01*
X0755905Y0762250D01*
X0755908Y0762253D01*
X0789149D01*
X0789152Y0762250D01*
X0790289Y0761594D01*
X0791557Y0761254D01*
X0792870D01*
X0794138Y0761594D01*
X0795275Y0762250D01*
X0795278Y0762253D01*
X0828519D01*
X0828522Y0762250D01*
X0829659Y0761594D01*
X0830927Y0761254D01*
X0832240D01*
X0833508Y0761594D01*
X0834645Y0762250D01*
X0835573Y0763178D01*
X0836230Y0764315D01*
X0836569Y0765584D01*
Y0766896D01*
X0836230Y0768165D01*
X0835573Y0769302D01*
X0834645Y0770230D01*
X0833508Y0770887D01*
X0832240Y0771226D01*
X0830927D01*
X0829659Y0770887D01*
X0828522Y0770230D01*
X0828519Y0770227D01*
X0795278D01*
X0795275Y0770230D01*
X0794138Y0770887D01*
X0792870Y0771226D01*
X0791557D01*
X0790289Y0770887D01*
X0789152Y0770230D01*
X0789149Y0770227D01*
X0755908D01*
X0755905Y0770230D01*
X0754768Y0770887D01*
X0753500Y0771226D01*
X0752187D01*
X0750918Y0770887D01*
X0749782Y0770230D01*
X0749778Y0770227D01*
X0716538D01*
X0716535Y0770230D01*
X0715398Y0770887D01*
X0714129Y0771226D01*
X0712817D01*
X0711549Y0770887D01*
X0710412Y0770230D01*
X0710408Y0770227D01*
X0652336D01*
X0650504Y0772059D01*
Y0839747D01*
X0650521Y0840217D01*
X0650612Y0841043D01*
X0650764Y0841839D01*
X0650976Y0842607D01*
X0651248Y0843348D01*
X0651580Y0844065D01*
X0651973Y0844757D01*
X0652429Y0845428D01*
X0652948Y0846077D01*
X0653269Y0846421D01*
X0657569Y0850721D01*
X0699458D01*
X0700217Y0850621D01*
X0740117D01*
X0740117Y0850621D01*
X0741149Y0850757D01*
X0742111Y0851155D01*
X0742936Y0851789D01*
X0746836Y0855689D01*
X0746836Y0855689D01*
X0747470Y0856514D01*
X0747868Y0857476D01*
X0748004Y0858508D01*
Y0977056D01*
X0749369Y0978421D01*
X0766117D01*
X0767149Y0978557D01*
X0768111Y0978955D01*
X0768936Y0979589D01*
X0769570Y0980414D01*
X0769968Y0981376D01*
X0770104Y0982408D01*
X0769968Y0983440D01*
X0769570Y0984401D01*
X0768936Y0985227D01*
X0768111Y0985861D01*
X0767149Y0986259D01*
X0766117Y0986395D01*
X0747717D01*
X0747717Y0986395D01*
D02*
G37*
G36*
X0886276Y0921236D02*
X0885158D01*
X0884077Y0920947D01*
X0883109Y0920387D01*
X0882318Y0919596D01*
X0881759Y0918628D01*
X0881469Y0917547D01*
Y0916429D01*
X0881759Y0915348D01*
X0882318Y0914380D01*
X0883109Y0913589D01*
X0884077Y0913029D01*
X0885158Y0912740D01*
X0886276D01*
X0887357Y0913029D01*
X0888326Y0913589D01*
X0889116Y0914380D01*
X0889676Y0915348D01*
X0889965Y0916429D01*
Y0917547D01*
X0889676Y0918628D01*
X0889116Y0919596D01*
X0888326Y0920387D01*
X0887357Y0920947D01*
X0886276Y0921236D01*
D02*
G37*
G36*
Y0911236D02*
X0885158D01*
X0884077Y0910947D01*
X0883109Y0910387D01*
X0882318Y0909596D01*
X0882260Y0909495D01*
X0882126Y0909329D01*
X0881949Y0909139D01*
X0881775Y0908979D01*
X0881603Y0908846D01*
X0881433Y0908739D01*
X0881265Y0908655D01*
X0881097Y0908591D01*
X0880925Y0908546D01*
X0880747Y0908518D01*
X0880730Y0908517D01*
X0813692D01*
X0813353Y0908857D01*
X0812551Y0909189D01*
X0811683D01*
X0810882Y0908857D01*
X0810268Y0908243D01*
X0809936Y0907442D01*
Y0906574D01*
X0810268Y0905772D01*
X0810882Y0905159D01*
X0811683Y0904827D01*
X0812551D01*
X0813353Y0905159D01*
X0813650Y0905456D01*
X0813684Y0905459D01*
X0880730D01*
X0880747Y0905458D01*
X0880925Y0905431D01*
X0881097Y0905385D01*
X0881265Y0905321D01*
X0881433Y0905237D01*
X0881603Y0905130D01*
X0881775Y0904997D01*
X0881949Y0904837D01*
X0882126Y0904647D01*
X0882260Y0904481D01*
X0882318Y0904380D01*
X0883109Y0903589D01*
X0884077Y0903030D01*
X0885158Y0902740D01*
X0886276D01*
X0887357Y0903030D01*
X0888326Y0903589D01*
X0889116Y0904380D01*
X0889676Y0905348D01*
X0889965Y0906429D01*
Y0907547D01*
X0889676Y0908628D01*
X0889116Y0909596D01*
X0888326Y0910387D01*
X0887357Y0910947D01*
X0886276Y0911236D01*
D02*
G37*
G36*
Y0901236D02*
X0885158D01*
X0884077Y0900947D01*
X0883109Y0900387D01*
X0882318Y0899596D01*
X0882243Y0899466D01*
X0882065Y0899233D01*
X0881898Y0899044D01*
X0881731Y0898884D01*
X0881567Y0898753D01*
X0881404Y0898647D01*
X0881242Y0898564D01*
X0881079Y0898501D01*
X0880911Y0898456D01*
X0880734Y0898428D01*
X0880716Y0898427D01*
X0820231D01*
X0820188Y0898430D01*
X0820178Y0898431D01*
X0819953Y0898657D01*
X0819151Y0898989D01*
X0818283D01*
X0817482Y0898657D01*
X0816868Y0898043D01*
X0816536Y0897242D01*
Y0896374D01*
X0816868Y0895572D01*
X0817482Y0894959D01*
X0818283Y0894627D01*
X0819151D01*
X0819953Y0894959D01*
X0820362Y0895368D01*
X0880748D01*
X0880762Y0895368D01*
X0880942Y0895341D01*
X0881117Y0895295D01*
X0881291Y0895231D01*
X0881465Y0895146D01*
X0881641Y0895038D01*
X0881821Y0894904D01*
X0882003Y0894743D01*
X0882189Y0894553D01*
X0882280Y0894446D01*
X0882318Y0894380D01*
X0883109Y0893589D01*
X0884077Y0893029D01*
X0885158Y0892740D01*
X0886276D01*
X0887357Y0893029D01*
X0888326Y0893589D01*
X0889116Y0894380D01*
X0889676Y0895348D01*
X0889965Y0896429D01*
Y0897547D01*
X0889676Y0898628D01*
X0889116Y0899596D01*
X0888326Y0900387D01*
X0887357Y0900947D01*
X0886276Y0901236D01*
D02*
G37*
G36*
X0567851Y0977389D02*
X0566983D01*
X0566182Y0977057D01*
X0565568Y0976443D01*
X0565236Y0975642D01*
Y0974774D01*
X0565394Y0974393D01*
Y0914608D01*
X0565548Y0913834D01*
X0565987Y0913177D01*
X0567687Y0911477D01*
X0568343Y0911039D01*
X0569117Y0910885D01*
X0604294D01*
Y0898823D01*
X0604136Y0898442D01*
Y0897574D01*
X0604468Y0896772D01*
X0605082Y0896159D01*
X0605883Y0895827D01*
X0606751D01*
X0607553Y0896159D01*
X0608166Y0896772D01*
X0608498Y0897574D01*
Y0898442D01*
X0608340Y0898823D01*
Y0911808D01*
X0608186Y0912582D01*
X0607748Y0913238D01*
X0606648Y0914338D01*
X0605991Y0914777D01*
X0605217Y0914931D01*
X0569955D01*
X0569440Y0915446D01*
Y0974393D01*
X0569598Y0974774D01*
Y0975642D01*
X0569266Y0976443D01*
X0568653Y0977057D01*
X0567851Y0977389D01*
D02*
G37*
G36*
X0886276Y0891236D02*
X0885158D01*
X0884077Y0890947D01*
X0883109Y0890387D01*
X0882318Y0889596D01*
X0881759Y0888628D01*
X0881469Y0887547D01*
Y0886429D01*
X0881499Y0886316D01*
X0881522Y0886104D01*
X0881532Y0885845D01*
X0881522Y0885608D01*
X0881494Y0885393D01*
X0881450Y0885197D01*
X0881391Y0885019D01*
X0881317Y0884854D01*
X0881227Y0884701D01*
X0881120Y0884556D01*
X0881110Y0884543D01*
X0881003Y0884437D01*
X0836917D01*
X0836332Y0884321D01*
X0835836Y0883989D01*
X0828736Y0876889D01*
X0828404Y0876393D01*
X0828288Y0875808D01*
Y0853253D01*
X0823072Y0848037D01*
X0670606Y0848037D01*
X0670021Y0847921D01*
X0669524Y0847589D01*
X0654836Y0832901D01*
X0654504Y0832404D01*
X0654388Y0831819D01*
Y0776425D01*
X0653982Y0776257D01*
X0653368Y0775643D01*
X0653036Y0774842D01*
Y0773974D01*
X0653368Y0773172D01*
X0653982Y0772559D01*
X0654783Y0772227D01*
X0655651D01*
X0656453Y0772559D01*
X0656967Y0773073D01*
X0657482Y0772559D01*
X0658283Y0772227D01*
X0659151D01*
X0659953Y0772559D01*
X0660566Y0773172D01*
X0660898Y0773974D01*
Y0774842D01*
X0660566Y0775643D01*
X0659953Y0776257D01*
X0659447Y0776466D01*
Y0830074D01*
X0672151Y0842778D01*
X0824617Y0842778D01*
X0825202Y0842895D01*
X0825699Y0843226D01*
X0833099Y0850626D01*
X0833430Y0851122D01*
X0833547Y0851708D01*
Y0874263D01*
X0838462Y0879178D01*
X0881284D01*
X0881317Y0879122D01*
X0881391Y0878958D01*
X0881450Y0878779D01*
X0881494Y0878584D01*
X0881522Y0878368D01*
X0881532Y0878131D01*
X0881522Y0877872D01*
X0881499Y0877660D01*
X0881469Y0877547D01*
Y0876429D01*
X0881759Y0875348D01*
X0882318Y0874380D01*
X0883109Y0873589D01*
X0884077Y0873030D01*
X0885158Y0872740D01*
X0886276D01*
X0887357Y0873030D01*
X0888326Y0873589D01*
X0889116Y0874380D01*
X0889676Y0875348D01*
X0889965Y0876429D01*
Y0877547D01*
X0889676Y0878628D01*
X0889116Y0879596D01*
X0888326Y0880387D01*
X0887357Y0880947D01*
X0886276Y0881236D01*
X0885158D01*
X0885045Y0881206D01*
X0884833Y0881183D01*
X0884574Y0881173D01*
X0884337Y0881183D01*
X0884122Y0881211D01*
X0883926Y0881255D01*
X0883748Y0881315D01*
X0883583Y0881388D01*
X0883430Y0881478D01*
X0883285Y0881585D01*
X0883272Y0881596D01*
X0883079Y0881789D01*
X0883043Y0882151D01*
X0883272Y0882380D01*
X0883285Y0882391D01*
X0883430Y0882498D01*
X0883583Y0882588D01*
X0883748Y0882662D01*
X0883926Y0882721D01*
X0884122Y0882765D01*
X0884337Y0882793D01*
X0884574Y0882803D01*
X0884833Y0882793D01*
X0885045Y0882770D01*
X0885158Y0882740D01*
X0886276D01*
X0887357Y0883029D01*
X0888326Y0883589D01*
X0889116Y0884380D01*
X0889676Y0885348D01*
X0889965Y0886429D01*
Y0887547D01*
X0889676Y0888628D01*
X0889116Y0889596D01*
X0888326Y0890387D01*
X0887357Y0890947D01*
X0886276Y0891236D01*
D02*
G37*
G36*
X0733251Y0874589D02*
X0732383D01*
X0731582Y0874257D01*
X0730968Y0873643D01*
X0730636Y0872842D01*
Y0871974D01*
X0730968Y0871172D01*
X0731286Y0870854D01*
X0731288Y0870828D01*
Y0866687D01*
X0731286Y0866661D01*
X0730968Y0866343D01*
X0730636Y0865542D01*
Y0864674D01*
X0730968Y0863872D01*
X0731582Y0863259D01*
X0732383Y0862927D01*
X0733251D01*
X0734053Y0863259D01*
X0734666Y0863872D01*
X0734998Y0864674D01*
Y0865542D01*
X0734666Y0866343D01*
X0734348Y0866661D01*
X0734347Y0866687D01*
Y0870828D01*
X0734348Y0870854D01*
X0734666Y0871172D01*
X0734998Y0871974D01*
Y0872842D01*
X0734666Y0873643D01*
X0734053Y0874257D01*
X0733251Y0874589D01*
D02*
G37*
G36*
X0790664Y0894100D02*
X0780692D01*
Y0884128D01*
X0783390D01*
X0783524Y0883628D01*
X0782616Y0883104D01*
X0781688Y0882176D01*
X0781031Y0881039D01*
X0780692Y0879770D01*
Y0878458D01*
X0781031Y0877190D01*
X0781688Y0876052D01*
X0782616Y0875124D01*
X0783753Y0874468D01*
X0784107Y0874373D01*
Y0873855D01*
X0783753Y0873761D01*
X0782616Y0873104D01*
X0781688Y0872176D01*
X0781031Y0871039D01*
X0780692Y0869771D01*
Y0868458D01*
X0781031Y0867190D01*
X0781688Y0866052D01*
X0782616Y0865124D01*
X0783753Y0864468D01*
X0784107Y0864373D01*
Y0863855D01*
X0783753Y0863760D01*
X0782616Y0863104D01*
X0781688Y0862176D01*
X0781031Y0861039D01*
X0780692Y0859770D01*
Y0858458D01*
X0781031Y0857189D01*
X0781688Y0856052D01*
X0782616Y0855124D01*
X0783753Y0854468D01*
X0785021Y0854128D01*
X0786334D01*
X0787602Y0854468D01*
X0788739Y0855124D01*
X0789668Y0856052D01*
X0790324Y0857189D01*
X0790664Y0858458D01*
Y0859770D01*
X0790324Y0861039D01*
X0789668Y0862176D01*
X0788739Y0863104D01*
X0787602Y0863760D01*
X0787249Y0863855D01*
Y0864373D01*
X0787602Y0864468D01*
X0788739Y0865124D01*
X0789668Y0866052D01*
X0790324Y0867190D01*
X0790664Y0868458D01*
Y0869771D01*
X0790324Y0871039D01*
X0789668Y0872176D01*
X0788739Y0873104D01*
X0787602Y0873761D01*
X0787249Y0873855D01*
Y0874373D01*
X0787602Y0874468D01*
X0788739Y0875124D01*
X0789668Y0876052D01*
X0790324Y0877190D01*
X0790664Y0878458D01*
Y0879770D01*
X0790324Y0881039D01*
X0789668Y0882176D01*
X0788739Y0883104D01*
X0787832Y0883628D01*
X0787966Y0884128D01*
X0790664D01*
Y0894100D01*
D02*
G37*
G36*
X0398087Y0851236D02*
X0396969D01*
X0395888Y0850947D01*
X0394920Y0850387D01*
X0394129Y0849596D01*
X0393570Y0848628D01*
X0393280Y0847547D01*
Y0846429D01*
X0393570Y0845348D01*
X0394129Y0844380D01*
X0394920Y0843589D01*
X0395888Y0843029D01*
X0396969Y0842740D01*
X0398087D01*
X0399168Y0843029D01*
X0400137Y0843589D01*
X0400927Y0844380D01*
X0401487Y0845348D01*
X0401776Y0846429D01*
Y0847547D01*
X0401487Y0848628D01*
X0400927Y0849596D01*
X0400137Y0850387D01*
X0399168Y0850947D01*
X0398087Y0851236D01*
D02*
G37*
G36*
X0889965Y0841236D02*
X0881469D01*
Y0838610D01*
X0672197D01*
X0671577Y0838486D01*
X0671051Y0838135D01*
X0667570Y0834655D01*
X0667219Y0834128D01*
X0667096Y0833508D01*
Y0784279D01*
X0665905Y0783089D01*
X0665483D01*
X0664682Y0782757D01*
X0664068Y0782143D01*
X0663736Y0781342D01*
Y0780474D01*
X0664068Y0779672D01*
X0664682Y0779059D01*
X0665483Y0778727D01*
X0666351D01*
X0667153Y0779059D01*
X0667766Y0779672D01*
X0668098Y0780474D01*
Y0780689D01*
X0668139Y0780736D01*
X0669864Y0782461D01*
X0670215Y0782987D01*
X0670339Y0783608D01*
Y0832836D01*
X0672869Y0835366D01*
X0881469D01*
Y0832740D01*
X0889965D01*
Y0841236D01*
D02*
G37*
G36*
X0490251Y0796389D02*
X0489383D01*
X0488582Y0796057D01*
X0487968Y0795443D01*
X0487636Y0794642D01*
Y0793774D01*
X0487968Y0792972D01*
X0488179Y0792761D01*
X0488188Y0792663D01*
Y0783008D01*
X0488304Y0782422D01*
X0488636Y0781926D01*
X0489436Y0781126D01*
X0489932Y0780795D01*
X0490517Y0780678D01*
X0497738D01*
X0497764Y0780677D01*
X0498082Y0780359D01*
X0498883Y0780027D01*
X0499751D01*
X0500553Y0780359D01*
X0501166Y0780972D01*
X0501498Y0781774D01*
Y0782642D01*
X0501166Y0783443D01*
X0500553Y0784057D01*
X0499751Y0784389D01*
X0498883D01*
X0498082Y0784057D01*
X0497764Y0783739D01*
X0497738Y0783737D01*
X0491247D01*
Y0792553D01*
X0491666Y0792972D01*
X0491998Y0793774D01*
Y0794642D01*
X0491666Y0795443D01*
X0491053Y0796057D01*
X0490251Y0796389D01*
D02*
G37*
G36*
X0442551D02*
X0441683D01*
X0440882Y0796057D01*
X0440268Y0795443D01*
X0439936Y0794642D01*
Y0793774D01*
X0440268Y0792972D01*
X0440480Y0792761D01*
X0440488Y0792663D01*
Y0783808D01*
X0440604Y0783222D01*
X0440936Y0782726D01*
X0442636Y0781026D01*
X0443132Y0780695D01*
X0443717Y0780578D01*
X0450838D01*
X0450864Y0780577D01*
X0451182Y0780259D01*
X0451983Y0779927D01*
X0452851D01*
X0453653Y0780259D01*
X0454266Y0780872D01*
X0454598Y0781674D01*
Y0782542D01*
X0454266Y0783343D01*
X0453653Y0783957D01*
X0452851Y0784289D01*
X0451983D01*
X0451182Y0783957D01*
X0450864Y0783639D01*
X0450838Y0783637D01*
X0444351D01*
X0443547Y0784441D01*
Y0792553D01*
X0443966Y0792972D01*
X0444298Y0793774D01*
Y0794642D01*
X0443966Y0795443D01*
X0443353Y0796057D01*
X0442551Y0796389D01*
D02*
G37*
G36*
X0401776Y0841236D02*
X0393280D01*
Y0832740D01*
X0394985D01*
X0394994Y0832621D01*
Y0776908D01*
X0395148Y0776134D01*
X0395587Y0775477D01*
X0400287Y0770777D01*
X0400943Y0770339D01*
X0401717Y0770185D01*
X0561917D01*
X0562691Y0770339D01*
X0563348Y0770777D01*
X0566748Y0774177D01*
X0567186Y0774833D01*
X0567340Y0775608D01*
Y0832708D01*
X0567186Y0833482D01*
X0566748Y0834138D01*
X0563048Y0837838D01*
X0562391Y0838277D01*
X0561617Y0838431D01*
X0535032D01*
X0534651Y0838589D01*
X0533783D01*
X0532982Y0838257D01*
X0532368Y0837643D01*
X0532036Y0836842D01*
Y0835974D01*
X0532368Y0835172D01*
X0532982Y0834559D01*
X0533783Y0834227D01*
X0534651D01*
X0535032Y0834385D01*
X0560779D01*
X0563294Y0831870D01*
Y0776446D01*
X0561079Y0774231D01*
X0505044D01*
X0504944Y0774731D01*
X0505253Y0774859D01*
X0505866Y0775472D01*
X0506198Y0776274D01*
Y0777142D01*
X0505866Y0777943D01*
X0505253Y0778557D01*
X0504451Y0778889D01*
X0503583D01*
X0502782Y0778557D01*
X0502454Y0778230D01*
X0493680D01*
X0493453Y0778457D01*
X0492651Y0778789D01*
X0491783D01*
X0490982Y0778457D01*
X0490368Y0777843D01*
X0490036Y0777042D01*
Y0776174D01*
X0490368Y0775372D01*
X0490982Y0774759D01*
X0491049Y0774731D01*
X0490949Y0774231D01*
X0459544D01*
X0459444Y0774731D01*
X0459753Y0774859D01*
X0460080Y0775186D01*
X0464217D01*
X0464838Y0775310D01*
X0465364Y0775661D01*
X0468564Y0778861D01*
X0468915Y0779387D01*
X0469039Y0780008D01*
Y0792845D01*
X0469266Y0793072D01*
X0469598Y0793874D01*
Y0794193D01*
X0469612Y0794209D01*
X0471730Y0796327D01*
X0472051D01*
X0472853Y0796659D01*
X0473466Y0797272D01*
X0473798Y0798074D01*
Y0798942D01*
X0473466Y0799743D01*
X0472853Y0800357D01*
X0472051Y0800689D01*
X0471183D01*
X0470382Y0800357D01*
X0469768Y0799743D01*
X0469436Y0798942D01*
Y0798622D01*
X0469423Y0798607D01*
X0467305Y0796489D01*
X0466983D01*
X0466182Y0796157D01*
X0465568Y0795543D01*
X0465236Y0794742D01*
Y0793874D01*
X0465568Y0793072D01*
X0465794Y0792846D01*
X0465796Y0792826D01*
Y0780680D01*
X0463545Y0778430D01*
X0459880D01*
X0459753Y0778557D01*
X0458951Y0778889D01*
X0458083D01*
X0457282Y0778557D01*
X0456668Y0777943D01*
X0456336Y0777142D01*
Y0776274D01*
X0456668Y0775472D01*
X0457282Y0774859D01*
X0457590Y0774731D01*
X0457491Y0774231D01*
X0402555D01*
X0399040Y0777746D01*
Y0832687D01*
X0399046Y0832740D01*
X0401776D01*
Y0841236D01*
D02*
G37*
G36*
X0846019Y0750754D02*
X0844706D01*
X0843438Y0750414D01*
X0842301Y0749758D01*
X0841373Y0748829D01*
X0840716Y0747692D01*
X0840377Y0746424D01*
Y0745111D01*
X0840716Y0743843D01*
X0841373Y0742706D01*
X0842301Y0741778D01*
X0843438Y0741121D01*
X0844706Y0740781D01*
X0846019D01*
X0847287Y0741121D01*
X0848425Y0741778D01*
X0849353Y0742706D01*
X0850009Y0743843D01*
X0850349Y0745111D01*
Y0746424D01*
X0850009Y0747692D01*
X0849353Y0748829D01*
X0848425Y0749758D01*
X0847287Y0750414D01*
X0846019Y0750754D01*
D02*
G37*
G36*
X0806649D02*
X0805336D01*
X0804068Y0750414D01*
X0802931Y0749758D01*
X0802003Y0748829D01*
X0801346Y0747692D01*
X0801007Y0746424D01*
Y0745111D01*
X0801346Y0743843D01*
X0802003Y0742706D01*
X0802931Y0741778D01*
X0804068Y0741121D01*
X0805336Y0740781D01*
X0806649D01*
X0807917Y0741121D01*
X0809054Y0741778D01*
X0809983Y0742706D01*
X0810639Y0743843D01*
X0810979Y0745111D01*
Y0746424D01*
X0810639Y0747692D01*
X0809983Y0748829D01*
X0809054Y0749758D01*
X0807917Y0750414D01*
X0806649Y0750754D01*
D02*
G37*
G36*
X0767279D02*
X0765966D01*
X0764698Y0750414D01*
X0763561Y0749758D01*
X0762633Y0748829D01*
X0761976Y0747692D01*
X0761636Y0746424D01*
Y0745111D01*
X0761976Y0743843D01*
X0762633Y0742706D01*
X0763561Y0741778D01*
X0764698Y0741121D01*
X0765966Y0740781D01*
X0767279D01*
X0768547Y0741121D01*
X0769684Y0741778D01*
X0770613Y0742706D01*
X0771269Y0743843D01*
X0771609Y0745111D01*
Y0746424D01*
X0771269Y0747692D01*
X0770613Y0748829D01*
X0769684Y0749758D01*
X0768547Y0750414D01*
X0767279Y0750754D01*
D02*
G37*
G36*
X0727909D02*
X0726596D01*
X0725328Y0750414D01*
X0724191Y0749758D01*
X0723263Y0748829D01*
X0722606Y0747692D01*
X0722266Y0746424D01*
Y0745111D01*
X0722606Y0743843D01*
X0723263Y0742706D01*
X0724191Y0741778D01*
X0725328Y0741121D01*
X0726596Y0740781D01*
X0727909D01*
X0729177Y0741121D01*
X0730314Y0741778D01*
X0731243Y0742706D01*
X0731899Y0743843D01*
X0732239Y0745111D01*
Y0746424D01*
X0731899Y0747692D01*
X0731243Y0748829D01*
X0730314Y0749758D01*
X0729177Y0750414D01*
X0727909Y0750754D01*
D02*
G37*
G36*
X0882633Y0751098D02*
X0880927D01*
X0879241Y0750831D01*
X0877618Y0750304D01*
X0876097Y0749529D01*
X0874717Y0748526D01*
X0873510Y0747319D01*
X0872507Y0745938D01*
X0871732Y0744418D01*
X0871205Y0742795D01*
X0870938Y0741109D01*
Y0739402D01*
X0871205Y0737717D01*
X0871732Y0736094D01*
X0872507Y0734573D01*
X0873510Y0733192D01*
X0874717Y0731986D01*
X0876097Y0730982D01*
X0877618Y0730208D01*
X0879241Y0729680D01*
X0880927Y0729413D01*
X0882633D01*
X0884319Y0729680D01*
X0885942Y0730208D01*
X0887463Y0730982D01*
X0888844Y0731986D01*
X0890050Y0733192D01*
X0891053Y0734573D01*
X0891828Y0736094D01*
X0892356Y0737717D01*
X0892623Y0739402D01*
Y0741109D01*
X0892356Y0742795D01*
X0891828Y0744418D01*
X0891053Y0745938D01*
X0890050Y0747319D01*
X0888844Y0748526D01*
X0887463Y0749529D01*
X0885942Y0750304D01*
X0884319Y0750831D01*
X0882633Y0751098D01*
D02*
G37*
G36*
X0402318D02*
X0400612D01*
X0398926Y0750831D01*
X0397303Y0750304D01*
X0395782Y0749529D01*
X0394402Y0748526D01*
X0393195Y0747319D01*
X0392192Y0745938D01*
X0391417Y0744418D01*
X0390890Y0742795D01*
X0390623Y0741109D01*
Y0739402D01*
X0390890Y0737717D01*
X0391417Y0736094D01*
X0392192Y0734573D01*
X0393195Y0733192D01*
X0394402Y0731986D01*
X0395782Y0730982D01*
X0397303Y0730208D01*
X0398926Y0729680D01*
X0400612Y0729413D01*
X0402318D01*
X0404004Y0729680D01*
X0405627Y0730208D01*
X0407148Y0730982D01*
X0408529Y0731986D01*
X0409735Y0733192D01*
X0410739Y0734573D01*
X0411513Y0736094D01*
X0412041Y0737717D01*
X0412308Y0739402D01*
Y0741109D01*
X0412041Y0742795D01*
X0411513Y0744418D01*
X0410739Y0745938D01*
X0409735Y0747319D01*
X0408529Y0748526D01*
X0407148Y0749529D01*
X0405627Y0750304D01*
X0404004Y0750831D01*
X0402318Y0751098D01*
D02*
G37*
%LPD*%
G36*
X0495999Y1020777D02*
X0496045Y1020741D01*
X0496103Y1020710D01*
X0496171Y1020683D01*
X0496249Y1020660D01*
X0496337Y1020641D01*
X0496436Y1020627D01*
X0496666Y1020610D01*
X0496796Y1020608D01*
Y1019608D01*
X0496666Y1019606D01*
X0496436Y1019589D01*
X0496337Y1019574D01*
X0496249Y1019556D01*
X0496171Y1019533D01*
X0496103Y1019506D01*
X0496045Y1019474D01*
X0495999Y1019439D01*
X0495962Y1019399D01*
Y1020816D01*
X0495999Y1020777D01*
D02*
G37*
G36*
X0500361Y1020106D02*
X0500534Y1019960D01*
X0500614Y1019904D01*
X0500690Y1019860D01*
X0500760Y1019827D01*
X0500826Y1019806D01*
X0500887Y1019796D01*
X0500944Y1019798D01*
X0500996Y1019811D01*
X0500240Y1018613D01*
X0500232Y1018658D01*
X0500214Y1018709D01*
X0500188Y1018765D01*
X0500151Y1018827D01*
X0500106Y1018894D01*
X0499987Y1019044D01*
X0499914Y1019127D01*
X0499739Y1019310D01*
X0500268Y1020196D01*
X0500361Y1020106D01*
D02*
G37*
G36*
X0525063Y1011028D02*
X0525015Y1011021D01*
X0524962Y1011005D01*
X0524903Y1010980D01*
X0524840Y1010945D01*
X0524772Y1010900D01*
X0524698Y1010847D01*
X0524536Y1010711D01*
X0524353Y1010537D01*
X0523502Y1011100D01*
X0523593Y1011194D01*
X0523739Y1011368D01*
X0523796Y1011448D01*
X0523841Y1011523D01*
X0523875Y1011594D01*
X0523897Y1011661D01*
X0523908Y1011723D01*
X0523908Y1011780D01*
X0523897Y1011833D01*
X0525063Y1011028D01*
D02*
G37*
G36*
X0503099Y1008577D02*
X0503146Y1008541D01*
X0503203Y1008510D01*
X0503271Y1008483D01*
X0503349Y1008460D01*
X0503437Y1008441D01*
X0503536Y1008426D01*
X0503766Y1008410D01*
X0503896Y1008408D01*
Y1007408D01*
X0503766Y1007406D01*
X0503536Y1007389D01*
X0503437Y1007374D01*
X0503349Y1007356D01*
X0503271Y1007333D01*
X0503203Y1007306D01*
X0503146Y1007274D01*
X0503099Y1007239D01*
X0503062Y1007199D01*
Y1008616D01*
X0503099Y1008577D01*
D02*
G37*
G36*
X0686016Y1013982D02*
X0685982Y1014025D01*
X0685938Y1014063D01*
X0685883Y1014097D01*
X0685817Y1014126D01*
X0685740Y1014151D01*
X0685653Y1014172D01*
X0685555Y1014187D01*
X0685447Y1014199D01*
X0685197Y1014208D01*
X0685291Y1015208D01*
X0685422Y1015210D01*
X0685752Y1015238D01*
X0685842Y1015254D01*
X0685921Y1015275D01*
X0685990Y1015299D01*
X0686049Y1015327D01*
X0686097Y1015359D01*
X0686136Y1015394D01*
X0686016Y1013982D01*
D02*
G37*
G36*
X0686499Y0996477D02*
X0686546Y0996441D01*
X0686603Y0996410D01*
X0686671Y0996383D01*
X0686749Y0996360D01*
X0686837Y0996341D01*
X0686936Y0996327D01*
X0687166Y0996310D01*
X0687296Y0996308D01*
Y0995308D01*
X0687166Y0995306D01*
X0686936Y0995289D01*
X0686837Y0995274D01*
X0686749Y0995256D01*
X0686671Y0995233D01*
X0686603Y0995205D01*
X0686546Y0995174D01*
X0686499Y0995139D01*
X0686462Y0995099D01*
Y0996516D01*
X0686499Y0996477D01*
D02*
G37*
G36*
X0682799Y0993477D02*
X0682845Y0993441D01*
X0682903Y0993410D01*
X0682971Y0993383D01*
X0683049Y0993360D01*
X0683137Y0993341D01*
X0683236Y0993326D01*
X0683466Y0993310D01*
X0683596Y0993308D01*
Y0992308D01*
X0683466Y0992306D01*
X0683236Y0992289D01*
X0683137Y0992274D01*
X0683049Y0992256D01*
X0682971Y0992233D01*
X0682903Y0992206D01*
X0682845Y0992174D01*
X0682799Y0992139D01*
X0682762Y0992099D01*
Y0993516D01*
X0682799Y0993477D01*
D02*
G37*
G36*
X0609386Y0988426D02*
X0609351Y0988379D01*
X0609319Y0988322D01*
X0609292Y0988254D01*
X0609269Y0988176D01*
X0609251Y0988088D01*
X0609236Y0987989D01*
X0609219Y0987759D01*
X0609217Y0987629D01*
X0608217D01*
X0608215Y0987759D01*
X0608198Y0987989D01*
X0608184Y0988088D01*
X0608165Y0988176D01*
X0608142Y0988254D01*
X0608115Y0988322D01*
X0608084Y0988379D01*
X0608048Y0988426D01*
X0608008Y0988463D01*
X0609426D01*
X0609386Y0988426D01*
D02*
G37*
G36*
X0612885Y0988434D02*
X0612844Y0988399D01*
X0612807Y0988353D01*
X0612774Y0988297D01*
X0612746Y0988230D01*
X0612722Y0988152D01*
X0612702Y0988064D01*
X0612687Y0987966D01*
X0612676Y0987857D01*
X0612667Y0987607D01*
X0611667Y0987654D01*
X0611665Y0987784D01*
X0611649Y0988014D01*
X0611635Y0988114D01*
X0611618Y0988203D01*
X0611596Y0988282D01*
X0611570Y0988350D01*
X0611540Y0988408D01*
X0611507Y0988456D01*
X0611469Y0988494D01*
X0612885Y0988434D01*
D02*
G37*
G36*
X0609219Y0985056D02*
X0609236Y0984827D01*
X0609251Y0984728D01*
X0609269Y0984639D01*
X0609292Y0984561D01*
X0609319Y0984493D01*
X0609351Y0984436D01*
X0609386Y0984389D01*
X0609426Y0984353D01*
X0608008D01*
X0608048Y0984389D01*
X0608084Y0984436D01*
X0608115Y0984493D01*
X0608142Y0984561D01*
X0608165Y0984639D01*
X0608184Y0984728D01*
X0608198Y0984827D01*
X0608215Y0985056D01*
X0608217Y0985186D01*
X0609217D01*
X0609219Y0985056D01*
D02*
G37*
G36*
X0612667Y0985162D02*
X0612669Y0985031D01*
X0612685Y0984801D01*
X0612699Y0984702D01*
X0612717Y0984613D01*
X0612739Y0984534D01*
X0612764Y0984465D01*
X0612794Y0984407D01*
X0612828Y0984359D01*
X0612865Y0984322D01*
X0611449Y0984382D01*
X0611491Y0984417D01*
X0611528Y0984463D01*
X0611560Y0984519D01*
X0611589Y0984586D01*
X0611613Y0984663D01*
X0611632Y0984751D01*
X0611648Y0984850D01*
X0611658Y0984959D01*
X0611667Y0985208D01*
X0612667Y0985162D01*
D02*
G37*
G36*
X0658207Y0964022D02*
X0658178Y0963973D01*
X0658152Y0963914D01*
X0658129Y0963844D01*
X0658110Y0963765D01*
X0658095Y0963675D01*
X0658074Y0963464D01*
X0658069Y0963344D01*
X0658067Y0963213D01*
X0657067Y0963071D01*
X0657065Y0963201D01*
X0657046Y0963428D01*
X0657030Y0963526D01*
X0657009Y0963612D01*
X0656983Y0963688D01*
X0656953Y0963752D01*
X0656918Y0963806D01*
X0656879Y0963849D01*
X0656834Y0963881D01*
X0658240Y0964060D01*
X0658207Y0964022D01*
D02*
G37*
G36*
X0675019Y0960956D02*
X0675036Y0960727D01*
X0675051Y0960628D01*
X0675069Y0960539D01*
X0675092Y0960461D01*
X0675119Y0960393D01*
X0675151Y0960336D01*
X0675186Y0960289D01*
X0675226Y0960253D01*
X0673808D01*
X0673848Y0960289D01*
X0673884Y0960336D01*
X0673915Y0960393D01*
X0673942Y0960461D01*
X0673965Y0960539D01*
X0673984Y0960628D01*
X0673998Y0960727D01*
X0674015Y0960956D01*
X0674017Y0961086D01*
X0675017D01*
X0675019Y0960956D01*
D02*
G37*
G36*
X0658070Y0957915D02*
X0658088Y0957687D01*
X0658104Y0957590D01*
X0658125Y0957503D01*
X0658151Y0957428D01*
X0658181Y0957363D01*
X0658216Y0957310D01*
X0658256Y0957267D01*
X0658300Y0957235D01*
X0656894Y0957055D01*
X0656927Y0957094D01*
X0656956Y0957143D01*
X0656982Y0957202D01*
X0657005Y0957271D01*
X0657024Y0957351D01*
X0657039Y0957441D01*
X0657060Y0957651D01*
X0657065Y0957772D01*
X0657067Y0957903D01*
X0658067Y0958045D01*
X0658070Y0957915D01*
D02*
G37*
G36*
X0673752Y0954908D02*
X0673714Y0954935D01*
X0673666Y0954958D01*
X0673607Y0954979D01*
X0673538Y0954997D01*
X0673458Y0955012D01*
X0673268Y0955035D01*
X0673158Y0955042D01*
X0672905Y0955047D01*
X0672652Y0956047D01*
X0672782Y0956050D01*
X0673008Y0956069D01*
X0673104Y0956086D01*
X0673188Y0956108D01*
X0673261Y0956135D01*
X0673323Y0956166D01*
X0673373Y0956203D01*
X0673412Y0956244D01*
X0673439Y0956290D01*
X0673752Y0954908D01*
D02*
G37*
G36*
X0687588Y0954587D02*
X0687586Y0954561D01*
X0687467Y0954442D01*
X0687048Y0954359D01*
X0686840Y0954469D01*
X0686649Y0954661D01*
X0686647Y0954687D01*
Y0992008D01*
X0686530Y0992593D01*
X0686199Y0993089D01*
X0686123Y0993165D01*
X0686246Y0993749D01*
X0686753Y0993959D01*
X0687070Y0994276D01*
X0687097Y0994278D01*
X0687588D01*
Y0954587D01*
D02*
G37*
G36*
X0685619Y0954756D02*
X0685636Y0954527D01*
X0685651Y0954428D01*
X0685669Y0954339D01*
X0685692Y0954261D01*
X0685719Y0954193D01*
X0685751Y0954136D01*
X0685786Y0954089D01*
X0685826Y0954053D01*
X0684409D01*
X0684448Y0954089D01*
X0684484Y0954136D01*
X0684515Y0954193D01*
X0684542Y0954261D01*
X0684565Y0954339D01*
X0684584Y0954428D01*
X0684598Y0954527D01*
X0684615Y0954756D01*
X0684617Y0954887D01*
X0685617D01*
X0685619Y0954756D01*
D02*
G37*
G36*
X0689619Y0954656D02*
X0689636Y0954427D01*
X0689651Y0954328D01*
X0689669Y0954239D01*
X0689692Y0954161D01*
X0689719Y0954093D01*
X0689751Y0954036D01*
X0689786Y0953989D01*
X0689826Y0953953D01*
X0688409D01*
X0688448Y0953989D01*
X0688484Y0954036D01*
X0688515Y0954093D01*
X0688542Y0954161D01*
X0688565Y0954239D01*
X0688584Y0954328D01*
X0688598Y0954427D01*
X0688615Y0954656D01*
X0688617Y0954786D01*
X0689617D01*
X0689619Y0954656D01*
D02*
G37*
G36*
X0605086Y0985526D02*
X0605051Y0985479D01*
X0605019Y0985422D01*
X0604992Y0985354D01*
X0604969Y0985276D01*
X0604951Y0985188D01*
X0604936Y0985089D01*
X0604919Y0984859D01*
X0604917Y0984729D01*
X0603917D01*
X0603915Y0984859D01*
X0603898Y0985089D01*
X0603884Y0985188D01*
X0603865Y0985276D01*
X0603842Y0985354D01*
X0603815Y0985422D01*
X0603784Y0985479D01*
X0603748Y0985526D01*
X0603709Y0985563D01*
X0605126D01*
X0605086Y0985526D01*
D02*
G37*
G36*
X0610972Y0936199D02*
X0610936Y0936239D01*
X0610889Y0936274D01*
X0610831Y0936306D01*
X0610764Y0936333D01*
X0610686Y0936356D01*
X0610597Y0936374D01*
X0610498Y0936389D01*
X0610269Y0936406D01*
X0610139Y0936408D01*
Y0937408D01*
X0610269Y0937410D01*
X0610498Y0937426D01*
X0610597Y0937441D01*
X0610686Y0937460D01*
X0610764Y0937483D01*
X0610831Y0937510D01*
X0610889Y0937541D01*
X0610936Y0937577D01*
X0610972Y0937616D01*
Y0936199D01*
D02*
G37*
G36*
X0651150Y0932438D02*
X0651096Y0932441D01*
X0651038Y0932433D01*
X0650975Y0932414D01*
X0650908Y0932386D01*
X0650837Y0932347D01*
X0650761Y0932297D01*
X0650680Y0932237D01*
X0650507Y0932087D01*
X0650413Y0931997D01*
X0649706Y0932704D01*
X0649796Y0932797D01*
X0649947Y0932971D01*
X0650006Y0933051D01*
X0650056Y0933127D01*
X0650095Y0933199D01*
X0650124Y0933266D01*
X0650142Y0933329D01*
X0650150Y0933387D01*
X0650148Y0933441D01*
X0651150Y0932438D01*
D02*
G37*
G36*
X0632399Y0931877D02*
X0632445Y0931841D01*
X0632503Y0931810D01*
X0632571Y0931783D01*
X0632649Y0931760D01*
X0632737Y0931741D01*
X0632836Y0931726D01*
X0633066Y0931710D01*
X0633196Y0931708D01*
Y0930708D01*
X0633066Y0930706D01*
X0632836Y0930689D01*
X0632737Y0930674D01*
X0632649Y0930656D01*
X0632571Y0930633D01*
X0632503Y0930606D01*
X0632445Y0930574D01*
X0632399Y0930539D01*
X0632362Y0930499D01*
Y0931916D01*
X0632399Y0931877D01*
D02*
G37*
G36*
X0501539Y0939944D02*
X0501568Y0939894D01*
X0501616Y0939849D01*
X0501683Y0939811D01*
X0501769Y0939778D01*
X0501874Y0939752D01*
X0501999Y0939731D01*
X0502142Y0939716D01*
X0502487Y0939705D01*
Y0938523D01*
X0502305Y0938521D01*
X0501999Y0938497D01*
X0501874Y0938476D01*
X0501769Y0938450D01*
X0501683Y0938417D01*
X0501616Y0938379D01*
X0501568Y0938334D01*
X0501539Y0938284D01*
X0501530Y0938228D01*
Y0940000D01*
X0501539Y0939944D01*
D02*
G37*
G36*
X0394930Y0925039D02*
X0394709Y0925315D01*
X0394480Y0925561D01*
X0394243Y0925778D01*
X0393999Y0925966D01*
X0393746Y0926126D01*
X0393487Y0926256D01*
X0393219Y0926358D01*
X0392944Y0926430D01*
X0392661Y0926474D01*
X0392370Y0926488D01*
Y0927488D01*
X0392661Y0927503D01*
X0392944Y0927546D01*
X0393219Y0927619D01*
X0393487Y0927720D01*
X0393746Y0927850D01*
X0393999Y0928010D01*
X0394243Y0928198D01*
X0394480Y0928415D01*
X0394709Y0928662D01*
X0394930Y0928937D01*
Y0925039D01*
D02*
G37*
G36*
X0400705Y0916178D02*
X0400693Y0915842D01*
X0400707Y0915521D01*
X0400746Y0915215D01*
X0400812Y0914924D01*
X0400903Y0914648D01*
X0401021Y0914387D01*
X0401164Y0914141D01*
X0401334Y0913910D01*
X0401529Y0913694D01*
X0400822Y0912987D01*
X0400606Y0913183D01*
X0400375Y0913352D01*
X0400129Y0913495D01*
X0399868Y0913613D01*
X0399593Y0913704D01*
X0399302Y0913770D01*
X0398996Y0913810D01*
X0398675Y0913823D01*
X0398339Y0913811D01*
X0397988Y0913773D01*
X0400744Y0916529D01*
X0400705Y0916178D01*
D02*
G37*
G36*
X0494379Y0906722D02*
X0494092Y0907082D01*
X0493798Y0907403D01*
X0493499Y0907687D01*
X0493192Y0907933D01*
X0492880Y0908141D01*
X0492561Y0908311D01*
X0492236Y0908444D01*
X0491904Y0908538D01*
X0491566Y0908595D01*
X0491221Y0908614D01*
Y0909614D01*
X0491566Y0909633D01*
X0491904Y0909690D01*
X0492236Y0909784D01*
X0492561Y0909917D01*
X0492880Y0910087D01*
X0493192Y0910295D01*
X0493499Y0910541D01*
X0493798Y0910825D01*
X0494092Y0911146D01*
X0494379Y0911506D01*
Y0906722D01*
D02*
G37*
G36*
X0400348Y0898662D02*
X0400577Y0898415D01*
X0400813Y0898198D01*
X0401058Y0898010D01*
X0401310Y0897850D01*
X0401570Y0897720D01*
X0401837Y0897618D01*
X0402112Y0897546D01*
X0402396Y0897503D01*
X0402686Y0897488D01*
Y0896488D01*
X0402396Y0896474D01*
X0402112Y0896430D01*
X0401837Y0896358D01*
X0401570Y0896256D01*
X0401310Y0896126D01*
X0401058Y0895967D01*
X0400813Y0895778D01*
X0400577Y0895561D01*
X0400348Y0895315D01*
X0400127Y0895039D01*
Y0898937D01*
X0400348Y0898662D01*
D02*
G37*
G36*
X0497004Y0885168D02*
X0496547Y0885219D01*
X0496112Y0885239D01*
X0495699Y0885228D01*
X0495309Y0885185D01*
X0494941Y0885111D01*
X0494595Y0885006D01*
X0494271Y0884870D01*
X0493970Y0884702D01*
X0493690Y0884503D01*
X0493434Y0884273D01*
X0492726Y0884980D01*
X0492957Y0885237D01*
X0493156Y0885516D01*
X0493323Y0885818D01*
X0493460Y0886141D01*
X0493565Y0886487D01*
X0493639Y0886856D01*
X0493681Y0887246D01*
X0493693Y0887658D01*
X0493673Y0888093D01*
X0493621Y0888550D01*
X0497004Y0885168D01*
D02*
G37*
G36*
X0413236Y0884826D02*
X0413732Y0884495D01*
X0414317Y0884378D01*
X0471084D01*
X0471388Y0884074D01*
Y0883387D01*
X0471386Y0883361D01*
X0471068Y0883043D01*
X0470900Y0883010D01*
X0470453Y0883457D01*
X0469651Y0883789D01*
X0468783D01*
X0467982Y0883457D01*
X0467664Y0883139D01*
X0467638Y0883137D01*
X0413251D01*
X0403066Y0893322D01*
X0402570Y0893653D01*
X0401985Y0893769D01*
X0400971D01*
X0400779Y0894231D01*
X0400927Y0894380D01*
X0400986Y0894481D01*
X0401120Y0894647D01*
X0401296Y0894837D01*
X0401471Y0894998D01*
X0401643Y0895130D01*
X0401812Y0895237D01*
X0401980Y0895321D01*
X0402149Y0895385D01*
X0402320Y0895430D01*
X0402499Y0895458D01*
X0402515Y0895459D01*
X0402603D01*
X0413236Y0884826D01*
D02*
G37*
G36*
X0473419Y0883456D02*
X0473436Y0883227D01*
X0473451Y0883128D01*
X0473469Y0883039D01*
X0473492Y0882961D01*
X0473519Y0882893D01*
X0473551Y0882836D01*
X0473586Y0882789D01*
X0473626Y0882753D01*
X0472208D01*
X0472248Y0882789D01*
X0472284Y0882836D01*
X0472315Y0882893D01*
X0472342Y0882961D01*
X0472365Y0883039D01*
X0472384Y0883128D01*
X0472398Y0883227D01*
X0472415Y0883456D01*
X0472417Y0883587D01*
X0473417D01*
X0473419Y0883456D01*
D02*
G37*
G36*
X0478619Y0883356D02*
X0478636Y0883127D01*
X0478651Y0883028D01*
X0478669Y0882939D01*
X0478692Y0882861D01*
X0478719Y0882793D01*
X0478751Y0882736D01*
X0478786Y0882689D01*
X0478826Y0882653D01*
X0477409D01*
X0477448Y0882689D01*
X0477484Y0882736D01*
X0477515Y0882793D01*
X0477542Y0882861D01*
X0477565Y0882939D01*
X0477584Y0883028D01*
X0477598Y0883127D01*
X0477615Y0883356D01*
X0477617Y0883486D01*
X0478617D01*
X0478619Y0883356D01*
D02*
G37*
G36*
X0468272Y0880899D02*
X0468236Y0880939D01*
X0468189Y0880974D01*
X0468131Y0881005D01*
X0468064Y0881033D01*
X0467986Y0881056D01*
X0467897Y0881074D01*
X0467798Y0881089D01*
X0467569Y0881106D01*
X0467439Y0881108D01*
Y0882108D01*
X0467569Y0882110D01*
X0467798Y0882127D01*
X0467897Y0882141D01*
X0467986Y0882160D01*
X0468064Y0882183D01*
X0468131Y0882210D01*
X0468189Y0882241D01*
X0468236Y0882277D01*
X0468272Y0882316D01*
Y0880899D01*
D02*
G37*
G36*
X0411425Y0880637D02*
X0411288Y0880200D01*
X0411240Y0880137D01*
X0409451D01*
X0406599Y0882989D01*
X0406102Y0883321D01*
X0405517Y0883437D01*
X0400692D01*
X0400485Y0883937D01*
X0400927Y0884380D01*
X0401487Y0885348D01*
X0401776Y0886429D01*
Y0887547D01*
X0401487Y0888628D01*
X0400927Y0889596D01*
X0400313Y0890211D01*
X0400520Y0890711D01*
X0401351D01*
X0411425Y0880637D01*
D02*
G37*
G36*
X0495780Y0875551D02*
X0495636Y0875610D01*
X0495490Y0875646D01*
X0495340Y0875656D01*
X0495188Y0875643D01*
X0495033Y0875605D01*
X0494875Y0875544D01*
X0494714Y0875457D01*
X0494551Y0875347D01*
X0494384Y0875213D01*
X0494215Y0875054D01*
X0493508Y0875761D01*
X0493666Y0875931D01*
X0493801Y0876097D01*
X0493911Y0876261D01*
X0493997Y0876422D01*
X0494059Y0876579D01*
X0494097Y0876735D01*
X0494110Y0876887D01*
X0494099Y0877036D01*
X0494064Y0877183D01*
X0494005Y0877326D01*
X0495780Y0875551D01*
D02*
G37*
G36*
X0501031Y0871164D02*
X0501315Y0870857D01*
X0501607Y0870587D01*
X0501908Y0870353D01*
X0502218Y0870155D01*
X0502537Y0869993D01*
X0502865Y0869867D01*
X0503202Y0869777D01*
X0503547Y0869723D01*
X0503901Y0869705D01*
Y0868524D01*
X0503547Y0868505D01*
X0503202Y0868451D01*
X0502865Y0868361D01*
X0502537Y0868235D01*
X0502218Y0868073D01*
X0501908Y0867875D01*
X0501607Y0867641D01*
X0501315Y0867371D01*
X0501031Y0867065D01*
X0500757Y0866722D01*
Y0871506D01*
X0501031Y0871164D01*
D02*
G37*
G36*
X0400774Y0866522D02*
X0400794Y0866173D01*
X0400836Y0865842D01*
X0400900Y0865527D01*
X0400984Y0865230D01*
X0401090Y0864950D01*
X0401218Y0864688D01*
X0401367Y0864442D01*
X0401537Y0864214D01*
X0401729Y0864003D01*
X0401102Y0863216D01*
X0400882Y0863414D01*
X0400650Y0863582D01*
X0400406Y0863720D01*
X0400148Y0863828D01*
X0399879Y0863906D01*
X0399596Y0863953D01*
X0399301Y0863971D01*
X0398994Y0863958D01*
X0398674Y0863916D01*
X0398341Y0863843D01*
X0400775Y0866888D01*
X0400774Y0866522D01*
D02*
G37*
G36*
X0494379Y0856722D02*
X0494092Y0857082D01*
X0493798Y0857403D01*
X0493499Y0857687D01*
X0493192Y0857933D01*
X0492880Y0858141D01*
X0492561Y0858311D01*
X0492236Y0858444D01*
X0491904Y0858538D01*
X0491566Y0858595D01*
X0491221Y0858614D01*
Y0859614D01*
X0491566Y0859633D01*
X0491904Y0859690D01*
X0492236Y0859784D01*
X0492561Y0859917D01*
X0492880Y0860087D01*
X0493192Y0860295D01*
X0493499Y0860541D01*
X0493798Y0860825D01*
X0494092Y0861146D01*
X0494379Y0861506D01*
Y0856722D01*
D02*
G37*
G36*
X0394930Y0855039D02*
X0394709Y0855315D01*
X0394480Y0855561D01*
X0394243Y0855778D01*
X0393999Y0855966D01*
X0393746Y0856126D01*
X0393487Y0856256D01*
X0393219Y0856358D01*
X0392944Y0856430D01*
X0392661Y0856474D01*
X0392370Y0856488D01*
Y0857488D01*
X0392661Y0857503D01*
X0392944Y0857546D01*
X0393219Y0857619D01*
X0393487Y0857720D01*
X0393746Y0857850D01*
X0393999Y0858010D01*
X0394243Y0858198D01*
X0394480Y0858415D01*
X0394709Y0858662D01*
X0394930Y0858937D01*
Y0855039D01*
D02*
G37*
G36*
X0478686Y0854226D02*
X0478651Y0854179D01*
X0478619Y0854122D01*
X0478592Y0854054D01*
X0478569Y0853976D01*
X0478551Y0853888D01*
X0478536Y0853789D01*
X0478519Y0853559D01*
X0478517Y0853429D01*
X0477517D01*
X0477515Y0853559D01*
X0477498Y0853789D01*
X0477484Y0853888D01*
X0477465Y0853976D01*
X0477442Y0854054D01*
X0477415Y0854122D01*
X0477384Y0854179D01*
X0477348Y0854226D01*
X0477309Y0854263D01*
X0478726D01*
X0478686Y0854226D01*
D02*
G37*
G36*
X0536072Y0793499D02*
X0536036Y0793539D01*
X0535989Y0793574D01*
X0535931Y0793606D01*
X0535864Y0793633D01*
X0535786Y0793656D01*
X0535697Y0793674D01*
X0535598Y0793689D01*
X0535369Y0793706D01*
X0535239Y0793708D01*
Y0794708D01*
X0535369Y0794710D01*
X0535598Y0794727D01*
X0535697Y0794741D01*
X0535786Y0794760D01*
X0535864Y0794783D01*
X0535931Y0794810D01*
X0535989Y0794841D01*
X0536036Y0794877D01*
X0536072Y0794916D01*
Y0793499D01*
D02*
G37*
G36*
X0537643Y0793206D02*
X0537600Y0793173D01*
X0537562Y0793128D01*
X0537528Y0793073D01*
X0537499Y0793008D01*
X0537474Y0792931D01*
X0537453Y0792844D01*
X0537437Y0792746D01*
X0537426Y0792637D01*
X0537417Y0792388D01*
X0536417Y0792482D01*
X0536415Y0792612D01*
X0536387Y0792943D01*
X0536371Y0793032D01*
X0536350Y0793112D01*
X0536326Y0793181D01*
X0536298Y0793239D01*
X0536266Y0793288D01*
X0536231Y0793326D01*
X0537643Y0793206D01*
D02*
G37*
G36*
X0545572Y0781499D02*
X0545536Y0781539D01*
X0545489Y0781574D01*
X0545432Y0781605D01*
X0545364Y0781633D01*
X0545286Y0781656D01*
X0545197Y0781674D01*
X0545098Y0781689D01*
X0544869Y0781706D01*
X0544738Y0781708D01*
Y0782708D01*
X0544869Y0782710D01*
X0545098Y0782726D01*
X0545197Y0782741D01*
X0545286Y0782760D01*
X0545364Y0782783D01*
X0545432Y0782810D01*
X0545489Y0782841D01*
X0545536Y0782877D01*
X0545572Y0782916D01*
Y0781499D01*
D02*
G37*
G36*
X0652811Y0847425D02*
X0652176Y0846743D01*
X0651608Y0846034D01*
X0651107Y0845296D01*
X0650673Y0844531D01*
X0650305Y0843739D01*
X0650004Y0842918D01*
X0649771Y0842070D01*
X0649604Y0841195D01*
X0649503Y0840291D01*
X0649470Y0839360D01*
X0643564Y0837631D01*
X0643517Y0838528D01*
X0643375Y0839331D01*
X0643139Y0840040D01*
X0642808Y0840654D01*
X0642383Y0841174D01*
X0641864Y0841599D01*
X0641250Y0841930D01*
X0640541Y0842166D01*
X0639738Y0842308D01*
X0638840Y0842355D01*
X0640570Y0848260D01*
X0641501Y0848294D01*
X0642404Y0848394D01*
X0643280Y0848561D01*
X0644128Y0848795D01*
X0644948Y0849096D01*
X0645741Y0849463D01*
X0646506Y0849897D01*
X0647243Y0850399D01*
X0647953Y0850966D01*
X0648635Y0851601D01*
X0652811Y0847425D01*
D02*
G37*
G36*
X0813110Y0907660D02*
X0813156Y0907624D01*
X0813213Y0907592D01*
X0813281Y0907565D01*
X0813358Y0907541D01*
X0813447Y0907522D01*
X0813546Y0907507D01*
X0813655Y0907497D01*
X0813905Y0907488D01*
X0813886Y0906488D01*
X0813756Y0906486D01*
X0813527Y0906470D01*
X0813428Y0906455D01*
X0813339Y0906437D01*
X0813260Y0906414D01*
X0813192Y0906388D01*
X0813134Y0906357D01*
X0813087Y0906322D01*
X0813050Y0906283D01*
X0813074Y0907701D01*
X0813110Y0907660D01*
D02*
G37*
G36*
X0883119Y0905039D02*
X0882898Y0905315D01*
X0882669Y0905561D01*
X0882432Y0905778D01*
X0882188Y0905966D01*
X0881936Y0906126D01*
X0881676Y0906256D01*
X0881408Y0906358D01*
X0881133Y0906430D01*
X0880850Y0906474D01*
X0880559Y0906488D01*
Y0907488D01*
X0880850Y0907503D01*
X0881133Y0907546D01*
X0881408Y0907619D01*
X0881676Y0907720D01*
X0881936Y0907850D01*
X0882188Y0908010D01*
X0882432Y0908198D01*
X0882669Y0908415D01*
X0882898Y0908662D01*
X0883119Y0908937D01*
Y0905039D01*
D02*
G37*
G36*
X0819643Y0897551D02*
X0819692Y0897519D01*
X0819751Y0897490D01*
X0819820Y0897466D01*
X0819899Y0897445D01*
X0819988Y0897428D01*
X0820088Y0897415D01*
X0820318Y0897400D01*
X0820449Y0897398D01*
X0820533Y0896398D01*
X0820403Y0896396D01*
X0820175Y0896378D01*
X0820077Y0896362D01*
X0819990Y0896342D01*
X0819913Y0896317D01*
X0819847Y0896288D01*
X0819792Y0896254D01*
X0819747Y0896216D01*
X0819713Y0896173D01*
X0819605Y0897587D01*
X0819643Y0897551D01*
D02*
G37*
G36*
X0883174Y0894968D02*
X0882943Y0895240D01*
X0882706Y0895483D01*
X0882463Y0895697D01*
X0882213Y0895883D01*
X0881956Y0896040D01*
X0881693Y0896169D01*
X0881423Y0896269D01*
X0881147Y0896341D01*
X0880864Y0896384D01*
X0880574Y0896398D01*
X0880546Y0897398D01*
X0880838Y0897413D01*
X0881121Y0897457D01*
X0881396Y0897530D01*
X0881661Y0897633D01*
X0881917Y0897764D01*
X0882165Y0897926D01*
X0882403Y0898116D01*
X0882633Y0898336D01*
X0882854Y0898585D01*
X0883066Y0898864D01*
X0883174Y0894968D01*
D02*
G37*
G36*
X0885258Y0883773D02*
X0884907Y0883811D01*
X0884571Y0883823D01*
X0884250Y0883810D01*
X0883944Y0883770D01*
X0883653Y0883704D01*
X0883377Y0883613D01*
X0883116Y0883495D01*
X0882870Y0883352D01*
X0882639Y0883183D01*
X0882423Y0882987D01*
X0881716Y0883694D01*
X0881912Y0883910D01*
X0882081Y0884141D01*
X0882224Y0884387D01*
X0882342Y0884648D01*
X0882434Y0884924D01*
X0882499Y0885215D01*
X0882539Y0885521D01*
X0882552Y0885842D01*
X0882540Y0886178D01*
X0882502Y0886529D01*
X0885258Y0883773D01*
D02*
G37*
G36*
X0882639Y0880794D02*
X0882870Y0880624D01*
X0883116Y0880481D01*
X0883377Y0880363D01*
X0883653Y0880272D01*
X0883944Y0880206D01*
X0884250Y0880167D01*
X0884571Y0880153D01*
X0884907Y0880165D01*
X0885258Y0880204D01*
X0882502Y0877447D01*
X0882540Y0877798D01*
X0882552Y0878135D01*
X0882539Y0878456D01*
X0882499Y0878761D01*
X0882434Y0879052D01*
X0882342Y0879328D01*
X0882224Y0879589D01*
X0882081Y0879835D01*
X0881912Y0880066D01*
X0881716Y0880282D01*
X0882423Y0880989D01*
X0882639Y0880794D01*
D02*
G37*
G36*
X0733486Y0871426D02*
X0733451Y0871379D01*
X0733419Y0871322D01*
X0733392Y0871254D01*
X0733369Y0871176D01*
X0733351Y0871088D01*
X0733336Y0870989D01*
X0733319Y0870759D01*
X0733317Y0870629D01*
X0732317D01*
X0732315Y0870759D01*
X0732298Y0870989D01*
X0732284Y0871088D01*
X0732265Y0871176D01*
X0732242Y0871254D01*
X0732215Y0871322D01*
X0732184Y0871379D01*
X0732148Y0871426D01*
X0732108Y0871463D01*
X0733526D01*
X0733486Y0871426D01*
D02*
G37*
G36*
X0733319Y0866756D02*
X0733336Y0866527D01*
X0733351Y0866428D01*
X0733369Y0866339D01*
X0733392Y0866261D01*
X0733419Y0866193D01*
X0733451Y0866136D01*
X0733486Y0866089D01*
X0733526Y0866053D01*
X0732108D01*
X0732148Y0866089D01*
X0732184Y0866136D01*
X0732215Y0866193D01*
X0732242Y0866261D01*
X0732265Y0866339D01*
X0732284Y0866428D01*
X0732298Y0866527D01*
X0732315Y0866756D01*
X0732317Y0866887D01*
X0733317D01*
X0733319Y0866756D01*
D02*
G37*
G36*
X0882493Y0836102D02*
X0882484Y0836158D01*
X0882455Y0836209D01*
X0882407Y0836253D01*
X0882340Y0836291D01*
X0882254Y0836324D01*
X0882149Y0836350D01*
X0882024Y0836371D01*
X0881881Y0836386D01*
X0881536Y0836397D01*
Y0837579D01*
X0881718Y0837582D01*
X0882024Y0837605D01*
X0882149Y0837626D01*
X0882254Y0837652D01*
X0882340Y0837685D01*
X0882407Y0837723D01*
X0882455Y0837768D01*
X0882484Y0837818D01*
X0882493Y0837874D01*
Y0836102D01*
D02*
G37*
G36*
X0667578Y0781633D02*
X0667484Y0781538D01*
X0667166Y0781170D01*
X0667133Y0781117D01*
X0667110Y0781073D01*
X0667097Y0781035D01*
X0667094Y0781004D01*
X0666154Y0782065D01*
X0666188Y0782064D01*
X0666229Y0782073D01*
X0666277Y0782093D01*
X0666331Y0782124D01*
X0666393Y0782164D01*
X0666461Y0782216D01*
X0666617Y0782350D01*
X0666801Y0782526D01*
X0667578Y0781633D01*
D02*
G37*
G36*
X0490443Y0793206D02*
X0490400Y0793173D01*
X0490362Y0793128D01*
X0490328Y0793073D01*
X0490299Y0793008D01*
X0490274Y0792931D01*
X0490253Y0792844D01*
X0490238Y0792746D01*
X0490226Y0792637D01*
X0490217Y0792388D01*
X0489217Y0792482D01*
X0489215Y0792612D01*
X0489187Y0792943D01*
X0489171Y0793032D01*
X0489150Y0793112D01*
X0489126Y0793181D01*
X0489098Y0793239D01*
X0489066Y0793288D01*
X0489031Y0793326D01*
X0490443Y0793206D01*
D02*
G37*
G36*
X0498372Y0781499D02*
X0498336Y0781539D01*
X0498289Y0781574D01*
X0498232Y0781605D01*
X0498164Y0781633D01*
X0498086Y0781656D01*
X0497997Y0781674D01*
X0497898Y0781689D01*
X0497669Y0781706D01*
X0497539Y0781708D01*
Y0782708D01*
X0497669Y0782710D01*
X0497898Y0782726D01*
X0497997Y0782741D01*
X0498086Y0782760D01*
X0498164Y0782783D01*
X0498232Y0782810D01*
X0498289Y0782841D01*
X0498336Y0782877D01*
X0498372Y0782916D01*
Y0781499D01*
D02*
G37*
G36*
X0442743Y0793206D02*
X0442700Y0793173D01*
X0442662Y0793128D01*
X0442628Y0793073D01*
X0442599Y0793008D01*
X0442574Y0792931D01*
X0442553Y0792844D01*
X0442537Y0792746D01*
X0442526Y0792637D01*
X0442517Y0792388D01*
X0441517Y0792482D01*
X0441515Y0792612D01*
X0441487Y0792943D01*
X0441471Y0793032D01*
X0441450Y0793112D01*
X0441426Y0793181D01*
X0441398Y0793239D01*
X0441366Y0793288D01*
X0441331Y0793326D01*
X0442743Y0793206D01*
D02*
G37*
G36*
X0451472Y0781399D02*
X0451436Y0781439D01*
X0451389Y0781474D01*
X0451332Y0781505D01*
X0451264Y0781533D01*
X0451186Y0781556D01*
X0451097Y0781574D01*
X0450998Y0781589D01*
X0450769Y0781606D01*
X0450638Y0781608D01*
Y0782608D01*
X0450769Y0782610D01*
X0450998Y0782626D01*
X0451097Y0782641D01*
X0451186Y0782660D01*
X0451264Y0782683D01*
X0451332Y0782710D01*
X0451389Y0782741D01*
X0451436Y0782777D01*
X0451472Y0782816D01*
Y0781399D01*
D02*
G37*
G36*
X0398400Y0833736D02*
X0398316Y0833689D01*
X0398243Y0833610D01*
X0398179Y0833500D01*
X0398124Y0833358D01*
X0398080Y0833185D01*
X0398046Y0832980D01*
X0398021Y0832744D01*
X0398001Y0832177D01*
X0396033D01*
X0396028Y0832476D01*
X0395989Y0832980D01*
X0395954Y0833185D01*
X0395910Y0833358D01*
X0395856Y0833500D01*
X0395792Y0833610D01*
X0395718Y0833689D01*
X0395634Y0833736D01*
X0395541Y0833752D01*
X0398494D01*
X0398400Y0833736D01*
D02*
G37*
G36*
X0471450Y0797338D02*
X0471417Y0797338D01*
X0471378Y0797326D01*
X0471331Y0797305D01*
X0471278Y0797273D01*
X0471217Y0797231D01*
X0471150Y0797178D01*
X0470994Y0797043D01*
X0470810Y0796866D01*
X0469975Y0797701D01*
X0470069Y0797796D01*
X0470340Y0798108D01*
X0470382Y0798168D01*
X0470414Y0798222D01*
X0470436Y0798268D01*
X0470447Y0798308D01*
X0470448Y0798341D01*
X0471450Y0797338D01*
D02*
G37*
G36*
X0469059Y0795115D02*
X0468965Y0795019D01*
X0468694Y0794708D01*
X0468652Y0794647D01*
X0468620Y0794594D01*
X0468599Y0794547D01*
X0468587Y0794508D01*
X0468586Y0794475D01*
X0467584Y0795477D01*
X0467617Y0795478D01*
X0467657Y0795489D01*
X0467703Y0795511D01*
X0467757Y0795543D01*
X0467817Y0795585D01*
X0467885Y0795637D01*
X0468040Y0795773D01*
X0468224Y0795950D01*
X0469059Y0795115D01*
D02*
G37*
G36*
X0468103Y0793339D02*
X0468083Y0793303D01*
X0468066Y0793255D01*
X0468050Y0793194D01*
X0468037Y0793122D01*
X0468027Y0793037D01*
X0468012Y0792831D01*
X0468008Y0792576D01*
X0466827D01*
X0466825Y0792710D01*
X0466797Y0793122D01*
X0466784Y0793194D01*
X0466769Y0793255D01*
X0466751Y0793303D01*
X0466731Y0793339D01*
X0466709Y0793363D01*
X0468126D01*
X0468103Y0793339D01*
D02*
G37*
G36*
X0459422Y0777476D02*
X0459457Y0777459D01*
X0459505Y0777445D01*
X0459565Y0777433D01*
X0459638Y0777422D01*
X0459819Y0777407D01*
X0460184Y0777398D01*
X0460300Y0776217D01*
X0460167Y0776216D01*
X0459756Y0776183D01*
X0459684Y0776168D01*
X0459625Y0776151D01*
X0459577Y0776130D01*
X0459542Y0776107D01*
X0459519Y0776082D01*
X0459399Y0777494D01*
X0459422Y0777476D01*
D02*
G37*
G36*
X0503136Y0775922D02*
X0503113Y0775940D01*
X0503077Y0775956D01*
X0503029Y0775970D01*
X0502969Y0775983D01*
X0502897Y0775993D01*
X0502715Y0776009D01*
X0502350Y0776017D01*
X0502234Y0777198D01*
X0502367Y0777200D01*
X0502778Y0777232D01*
X0502850Y0777247D01*
X0502910Y0777265D01*
X0502957Y0777285D01*
X0502993Y0777308D01*
X0503016Y0777334D01*
X0503136Y0775922D01*
D02*
G37*
G36*
X0493186Y0777294D02*
X0493222Y0777274D01*
X0493270Y0777256D01*
X0493330Y0777241D01*
X0493403Y0777228D01*
X0493488Y0777217D01*
X0493694Y0777203D01*
X0493949Y0777198D01*
Y0776017D01*
X0493815Y0776016D01*
X0493403Y0775988D01*
X0493330Y0775975D01*
X0493270Y0775959D01*
X0493222Y0775942D01*
X0493186Y0775921D01*
X0493162Y0775899D01*
Y0777316D01*
X0493186Y0777294D01*
D02*
G37*
D12*
X0512617Y1014808D02*
X0512961Y1015152D01*
X0478617Y1031808D02*
X0478945Y1031479D01*
X0512204Y1031594D02*
X0512417Y1031808D01*
X0510417Y0870808D02*
Y0937108D01*
X0497568Y0869114D02*
X0508723D01*
X0510417Y0870808D01*
X0497568Y0939114D02*
X0508411D01*
X0510417Y0937108D01*
X0668717Y0833508D02*
X0672197Y0836988D01*
X0668717Y0783608D02*
Y0833508D01*
X0672197Y0836988D02*
X0885717D01*
X0666017Y0780908D02*
X0668717Y0783608D01*
X0492217Y0776608D02*
X0504017D01*
X0458417Y0776808D02*
X0464217D01*
X0467617Y0794208D02*
Y0794508D01*
X0467417Y0780008D02*
Y0794308D01*
X0464217Y0776808D02*
X0467417Y0780008D01*
X0467617Y0794508D02*
X0471617Y0798508D01*
D89*
X0657717Y0950908D02*
X0658717Y0949908D01*
X0714917Y0950494D02*
Y0977708D01*
X0658717Y0949908D02*
X0714331D01*
X0714917Y0950494D01*
X0657717Y0950908D02*
Y0956208D01*
X0657567Y0956358D02*
X0657717Y0956208D01*
X0732817Y0865108D02*
Y0872082D01*
X0606317Y0897508D02*
Y0898008D01*
X0442067Y0794258D02*
X0442117Y0794208D01*
X0443717Y0782108D02*
X0452417D01*
X0442017Y0783808D02*
X0443717Y0782108D01*
X0442017Y0783808D02*
Y0794108D01*
X0604417Y0937494D02*
X0605003Y0936908D01*
X0611917D01*
X0604417Y0937494D02*
Y0986508D01*
X0635490Y0967008D02*
X0636590Y0968108D01*
X0635323Y0967008D02*
X0635490D01*
X0636590Y0968108D02*
X0667117D01*
X0668917Y0966308D01*
Y0956133D02*
Y0966308D01*
X0669503Y0955547D02*
X0674478D01*
X0668917Y0956133D02*
X0669503Y0955547D01*
X0678017Y1014708D02*
X0687217D01*
X0674517Y1011208D02*
X0678017Y1014708D01*
X0674517Y0959308D02*
Y1011208D01*
X0657567Y0956358D02*
Y0964658D01*
X0657417Y0964808D02*
X0657567Y0964658D01*
X0631417Y0931208D02*
X0648917D01*
X0651217Y0933508D01*
X0689117Y0953008D02*
Y0995222D01*
X0688531Y0995808D02*
X0689117Y0995222D01*
X0685517Y0995808D02*
X0688531D01*
X0685117Y0953108D02*
Y0992008D01*
X0684317Y0992808D02*
X0685117Y0992008D01*
X0681817Y0992808D02*
X0684317D01*
X0589717Y0974215D02*
Y0974408D01*
X0593317Y0952308D02*
Y0952599D01*
X0592317Y0953599D02*
X0593317Y0952599D01*
X0589817D02*
X0590817Y0953599D01*
X0590791Y0962646D02*
X0590817Y0962620D01*
X0592317Y0953599D02*
Y0963241D01*
X0589717Y0974215D02*
X0590791Y0973141D01*
X0592291Y0973213D02*
X0593217Y0974139D01*
X0592291Y0963267D02*
Y0973213D01*
X0589817Y0952308D02*
Y0952599D01*
X0590791Y0962646D02*
Y0973141D01*
X0592291Y0963267D02*
X0592317Y0963241D01*
X0590817Y0953599D02*
Y0962620D01*
X0500949Y1018808D02*
X0501517D01*
X0499649Y1020108D02*
X0500949Y1018808D01*
X0495017Y1020108D02*
X0499649D01*
X0593217Y0974139D02*
Y0974508D01*
X0521017Y1007908D02*
X0525017Y1011908D01*
Y1012208D01*
X0502117Y1007908D02*
X0521017D01*
X0657917Y0775576D02*
X0658717Y0774776D01*
X0657917Y0775576D02*
Y0830708D01*
X0658717Y0774408D02*
Y0774776D01*
X0655217Y0774408D02*
Y0774776D01*
X0655917Y0775476D02*
Y0831819D01*
X0657917Y0830708D02*
X0671517Y0844308D01*
X0655917Y0831819D02*
X0670606Y0846508D01*
X0655217Y0774776D02*
X0655917Y0775476D01*
X0670606Y0846508D02*
X0823706Y0846508D01*
X0671517Y0844308D02*
X0824617Y0844308D01*
X0823706Y0846508D02*
X0829817Y0852619D01*
X0824617Y0844308D02*
X0832017Y0851708D01*
X0829817Y0852619D02*
Y0875808D01*
X0836917Y0882908D01*
X0832017Y0874897D02*
X0837828Y0880708D01*
X0832017Y0851708D02*
Y0874897D01*
X0837828Y0880708D02*
X0881997D01*
X0885717Y0876988D01*
X0836917Y0882908D02*
X0881637D01*
X0885717Y0886988D01*
X0812137Y0906988D02*
X0885717D01*
X0818807Y0896898D02*
X0885627D01*
X0818717Y0896808D02*
X0818807Y0896898D01*
X0885627D02*
X0885717Y0896988D01*
X0478017Y0801208D02*
Y0855208D01*
Y0801208D02*
X0479917Y0799308D01*
X0398580Y0905936D02*
X0401088D01*
X0417117Y0889908D01*
X0397528Y0906988D02*
X0398580Y0905936D01*
X0417117Y0889908D02*
X0475617D01*
X0414317Y0885908D02*
X0471717D01*
X0472917Y0884708D01*
X0403237Y0896988D02*
X0414317Y0885908D01*
X0472917Y0881808D02*
Y0884708D01*
X0478117Y0881708D02*
Y0887408D01*
X0475617Y0889908D02*
X0478117Y0887408D01*
X0393485Y0892240D02*
X0401985D01*
X0412617Y0881608D01*
X0397528Y0896988D02*
X0403237D01*
X0405911Y0859114D02*
X0497568D01*
X0398037Y0866988D02*
X0405911Y0859114D01*
X0390217Y0926988D02*
X0397528D01*
X0389417Y0926188D02*
X0390217Y0926988D01*
X0389417Y0896308D02*
X0393485Y0892240D01*
X0389417Y0896308D02*
Y0926188D01*
X0412617Y0881608D02*
X0469217D01*
X0463017Y0871308D02*
X0463117Y0871208D01*
X0442017Y0794108D02*
X0442117Y0794208D01*
X0479917Y0799308D02*
X0501517D01*
X0509217Y0791608D01*
X0536917Y0783008D02*
Y0794208D01*
X0537017D01*
X0527917D02*
X0536917D01*
X0509217Y0791608D02*
X0525317D01*
X0527917Y0794208D01*
X0536917Y0783008D02*
X0537717Y0782208D01*
X0546517D01*
X0489717Y0783008D02*
Y0794208D01*
X0489817D01*
X0489717Y0783008D02*
X0490517Y0782208D01*
X0499317D01*
X0397528Y0916988D02*
X0405402Y0909114D01*
X0497568D01*
X0391037Y0856988D02*
X0397528D01*
X0389617Y0858408D02*
X0391037Y0856988D01*
X0389617Y0858408D02*
Y0878508D01*
X0393017Y0881908D01*
X0405517D01*
X0408817Y0878608D01*
X0487061D01*
X0497568Y0889114D01*
X0397528Y0866988D02*
X0398037D01*
X0400596Y0875408D02*
X0493861D01*
X0497568Y0879114D01*
X0399015Y0876988D02*
X0400596Y0875408D01*
X0397528Y0876988D02*
X0399015D01*
X0608717Y0983408D02*
Y0989408D01*
X0612167Y0983458D02*
Y0989358D01*
X0612117Y0983408D02*
X0612167Y0983458D01*
Y0989358D02*
X0612217Y0989408D01*
D92*
X0512961Y1015152D02*
Y1031594D01*
X0478945D02*
X0512204D01*
X0478945Y1015138D02*
Y1031479D01*
D93*
X0578617Y0947408D02*
Y0996608D01*
X0580617Y0998608D02*
X0609917D01*
X0614117D01*
X0578617Y0996608D02*
X0580617Y0998608D01*
X0679417Y1019708D02*
X0696617D01*
X0701817Y1004708D02*
Y1014508D01*
X0696617Y1019708D02*
X0701817Y1014508D01*
X0671117Y0975308D02*
Y1011408D01*
X0679417Y1019708D01*
X0669017Y0973208D02*
X0671117Y0975308D01*
X0618717Y0973208D02*
X0669017D01*
X0615817Y0976108D02*
Y0996908D01*
Y0976108D02*
X0618717Y0973208D01*
X0614117Y0998608D02*
X0615817Y0996908D01*
D94*
X0731517Y0994708D02*
X0814917D01*
X0725617Y0865308D02*
Y0988808D01*
X0731517Y0994708D01*
X0722817Y0862508D02*
X0725617Y0865308D01*
X0646917Y0855908D02*
X0653517Y0862508D01*
X0722817D01*
X0548717Y0856493D02*
Y0862708D01*
Y0856493D02*
X0549303Y0855908D01*
X0646917D01*
X0534217Y0836408D02*
X0561617D01*
X0565317Y0775608D02*
Y0832708D01*
X0561617Y0836408D02*
X0565317Y0832708D01*
X0569117Y0912908D02*
X0605217D01*
X0567417Y0914608D02*
X0569117Y0912908D01*
X0567417Y0914608D02*
Y0975208D01*
X0606317Y0898008D02*
Y0911808D01*
X0605217Y0912908D02*
X0606317Y0911808D01*
X0548717Y0862708D02*
X0548767Y0862758D01*
Y0975058D02*
X0548817Y0975108D01*
X0548767Y0862758D02*
Y0975058D01*
X0548817Y0975108D02*
Y1011708D01*
X0551017Y1013908D02*
X0582117D01*
X0548817Y1011708D02*
X0551017Y1013908D01*
X0401717Y0772208D02*
X0561917D01*
X0565317Y0775608D01*
X0397017Y0776908D02*
Y0837508D01*
Y0776908D02*
X0401717Y0772208D01*
X0817717Y0982308D02*
Y0991908D01*
X0814917Y0994708D02*
X0817717Y0991908D01*
D95*
X0473417Y0965308D02*
X0528258D01*
Y0923308D02*
X0531717Y0926767D01*
X0528258Y0965308D02*
X0531717Y0961848D01*
Y0926767D02*
Y0961848D01*
X0519840Y0923308D02*
X0528258D01*
X0646517Y0770408D02*
X0650685Y0766240D01*
X0712885D01*
X0646517Y0770408D02*
Y0845308D01*
X0518917Y0885808D02*
Y0922385D01*
Y0848808D02*
Y0885808D01*
X0522417Y0845308D02*
X0646517D01*
X0518917Y0848808D02*
X0522417Y0845308D01*
X0518917Y0922385D02*
X0519840Y0923308D01*
X0700217Y0854608D02*
X0740117D01*
X0744017Y0858508D01*
Y0978708D01*
X0747717Y0982408D02*
X0766117D01*
X0744017Y0978708D02*
X0747717Y0982408D01*
X0646517Y0845308D02*
X0655917Y0854708D01*
X0831583Y0766240D02*
X0832185D01*
X0792213D02*
X0831583D01*
X0832185D02*
X0832417Y0766008D01*
X0752249Y0766240D02*
X0752617Y0766608D01*
X0791749Y0766240D02*
X0791817Y0766308D01*
X0752843Y0766240D02*
X0791749D01*
X0712885D02*
X0713417Y0765708D01*
X0713473Y0766240D02*
X0752249D01*
X0655917Y0854708D02*
X0700417D01*
D98*
X0397528Y0836988D02*
D03*
X0885717D02*
D03*
D99*
X0397528Y0846988D02*
D03*
Y0856988D02*
D03*
Y0866988D02*
D03*
Y0876988D02*
D03*
Y0886988D02*
D03*
Y0896988D02*
D03*
Y0906988D02*
D03*
Y0916988D02*
D03*
Y0926988D02*
D03*
X0885717Y0846988D02*
D03*
Y0856988D02*
D03*
Y0866988D02*
D03*
Y0876988D02*
D03*
Y0886988D02*
D03*
Y0896988D02*
D03*
Y0906988D02*
D03*
Y0916988D02*
D03*
Y0926988D02*
D03*
X0779171Y1021887D02*
D03*
X0799171D02*
D03*
X0826415D02*
D03*
X0846415D02*
D03*
D100*
X0512961Y1015138D02*
D03*
X0478945D02*
D03*
D101*
X0512961Y1031594D02*
D03*
X0478945D02*
D03*
D102*
X0484575Y1017106D02*
D03*
X0507331D02*
D03*
D103*
X0440835Y0990256D02*
D03*
D104*
Y1013878D02*
D03*
D105*
X0422331Y1002067D02*
D03*
D106*
X0881780Y1023720D02*
D03*
X0401465D02*
D03*
Y0740256D02*
D03*
X0881780D02*
D03*
D107*
X0831583Y0766240D02*
D03*
X0845363Y0745768D02*
D03*
X0792213Y0766240D02*
D03*
X0805993Y0745768D02*
D03*
X0752843Y0766240D02*
D03*
X0766623Y0745768D02*
D03*
X0713473Y0766240D02*
D03*
X0727253Y0745768D02*
D03*
X0497568Y0929114D02*
D03*
Y0919114D02*
D03*
Y0909114D02*
D03*
Y0899114D02*
D03*
Y0889114D02*
D03*
Y0879114D02*
D03*
Y0869114D02*
D03*
Y0859114D02*
D03*
Y0849114D02*
D03*
Y0839114D02*
D03*
Y0829114D02*
D03*
Y0819114D02*
D03*
Y0809114D02*
D03*
X0785678Y0859114D02*
D03*
Y0869114D02*
D03*
Y0879114D02*
D03*
D108*
X0497568Y0939114D02*
D03*
X0785678Y0889114D02*
D03*
D109*
X0874016Y0992126D02*
D03*
Y0968504D02*
D03*
Y0944882D02*
D03*
Y0874016D02*
D03*
Y0850394D02*
D03*
Y0826772D02*
D03*
Y0755906D02*
D03*
X0850394Y1015748D02*
D03*
Y0968504D02*
D03*
Y0944882D02*
D03*
Y0921260D02*
D03*
Y0874016D02*
D03*
Y0850394D02*
D03*
Y0826772D02*
D03*
X0826772Y0992126D02*
D03*
Y0968504D02*
D03*
Y0944882D02*
D03*
Y0921260D02*
D03*
Y0874016D02*
D03*
Y0826772D02*
D03*
X0803150Y1015748D02*
D03*
Y0968504D02*
D03*
Y0944882D02*
D03*
Y0897638D02*
D03*
Y0874016D02*
D03*
X0779528Y0968504D02*
D03*
Y0944882D02*
D03*
Y0897638D02*
D03*
Y0874016D02*
D03*
Y0850394D02*
D03*
Y0826772D02*
D03*
Y0803150D02*
D03*
Y0779528D02*
D03*
X0755906Y1015748D02*
D03*
Y0968504D02*
D03*
Y0921260D02*
D03*
Y0897638D02*
D03*
Y0874016D02*
D03*
Y0850394D02*
D03*
Y0826772D02*
D03*
X0732284D02*
D03*
X0708662Y1015748D02*
D03*
Y0944882D02*
D03*
Y0921260D02*
D03*
Y0897638D02*
D03*
Y0874016D02*
D03*
Y0826772D02*
D03*
X0685040Y0921260D02*
D03*
Y0897638D02*
D03*
Y0874016D02*
D03*
Y0826772D02*
D03*
Y0803150D02*
D03*
Y0779528D02*
D03*
Y0755906D02*
D03*
X0661417Y0921260D02*
D03*
Y0897638D02*
D03*
Y0874016D02*
D03*
Y0826772D02*
D03*
Y0803150D02*
D03*
Y0732284D02*
D03*
X0637795D02*
D03*
X0614173Y0874016D02*
D03*
Y0826772D02*
D03*
Y0803150D02*
D03*
Y0779528D02*
D03*
Y0755906D02*
D03*
X0590551Y1015748D02*
D03*
Y0826772D02*
D03*
Y0803150D02*
D03*
Y0779528D02*
D03*
Y0732284D02*
D03*
X0566929Y0755906D02*
D03*
Y0732284D02*
D03*
X0543307Y1015748D02*
D03*
Y0992126D02*
D03*
Y0944882D02*
D03*
Y0921260D02*
D03*
Y0803150D02*
D03*
Y0732284D02*
D03*
X0519685Y0944882D02*
D03*
Y0803150D02*
D03*
Y0779528D02*
D03*
Y0755906D02*
D03*
Y0732284D02*
D03*
X0496063D02*
D03*
X0472441Y0897638D02*
D03*
Y0850394D02*
D03*
Y0826772D02*
D03*
Y0755906D02*
D03*
Y0732284D02*
D03*
X0448819Y0921260D02*
D03*
Y0897638D02*
D03*
Y0850394D02*
D03*
Y0826772D02*
D03*
Y0803150D02*
D03*
Y0732284D02*
D03*
X0425197Y1015748D02*
D03*
Y0921260D02*
D03*
Y0826772D02*
D03*
Y0803150D02*
D03*
Y0779528D02*
D03*
Y0755906D02*
D03*
Y0732284D02*
D03*
X0401575Y0992126D02*
D03*
Y0968504D02*
D03*
Y0944882D02*
D03*
Y0826772D02*
D03*
Y0803150D02*
D03*
Y0779528D02*
D03*
Y0755906D02*
D03*
X0552253Y0889862D02*
D03*
Y0880807D02*
D03*
Y0893799D02*
D03*
X0606583Y0887894D02*
D03*
X0605009Y0881201D02*
D03*
X0602646Y0891831D02*
D03*
X0572725Y0907972D02*
D03*
X0568394D02*
D03*
X0564457D02*
D03*
X0560127D02*
D03*
Y0903642D02*
D03*
X0564457D02*
D03*
X0569182D02*
D03*
X0573512D02*
D03*
X0545560Y0899705D02*
D03*
Y0904429D02*
D03*
X0544772Y0909153D02*
D03*
X0541623Y0912697D02*
D03*
X0536505Y0913090D02*
D03*
X0531780D02*
D03*
X0436898Y0789862D02*
D03*
X0464457Y0785925D02*
D03*
X0432961Y0766634D02*
D03*
X0482174Y0764271D02*
D03*
X0511701Y0783957D02*
D03*
X0535323Y0776083D02*
D03*
X0533749Y0789862D02*
D03*
X0559339Y0787106D02*
D03*
X0571938Y0767028D02*
D03*
X0622331Y0743799D02*
D03*
X0623512Y0766634D02*
D03*
X0685717Y0731988D02*
D03*
X0668788Y0773327D02*
D03*
X0701465Y0812697D02*
D03*
X0699497Y0816240D02*
D03*
X0741229Y0811909D02*
D03*
X0739260Y0816240D02*
D03*
X0841623Y0811909D02*
D03*
Y0815846D02*
D03*
X0797922Y0814272D02*
D03*
X0801859D02*
D03*
X0559339Y1005610D02*
D03*
X0552646Y1007185D02*
D03*
X0585323Y0987106D02*
D03*
X0599890Y0978839D02*
D03*
X0629024Y0967027D02*
D03*
X0670363Y0970177D02*
D03*
X0723512Y1006004D02*
D03*
X0716032Y1007579D02*
D03*
X0692016Y1037500D02*
D03*
X0586505Y1037106D02*
D03*
X0597134Y1003642D02*
D03*
X0604221Y1011516D02*
D03*
X0609733Y1013090D02*
D03*
X0660127Y1007185D02*
D03*
X0622725Y1007972D02*
D03*
X0659733Y0978051D02*
D03*
X0623512D02*
D03*
X0630599Y0923327D02*
D03*
X0618788Y0912303D02*
D03*
X0645953Y0887500D02*
D03*
X0629812D02*
D03*
X0623512Y0887106D02*
D03*
X0602646Y0885531D02*
D03*
X0597922Y0893012D02*
D03*
X0593197Y0905610D02*
D03*
X0588079Y0907579D02*
D03*
X0582961Y0905610D02*
D03*
X0577843Y0908366D02*
D03*
X0545166Y0893012D02*
D03*
X0552253Y0885138D02*
D03*
X0513276Y0903642D02*
D03*
X0541229Y0905610D02*
D03*
X0536505Y0907579D02*
D03*
X0526662Y0913090D02*
D03*
X0538079Y0985925D02*
D03*
X0524693Y1019390D02*
D03*
Y1024901D02*
D03*
X0509339Y1022146D02*
D03*
X0482568Y1021752D02*
D03*
X0471150Y1023327D02*
D03*
X0505796Y0993012D02*
D03*
X0500284D02*
D03*
X0491623Y0993405D02*
D03*
X0732817Y0872408D02*
D03*
Y0865108D02*
D03*
X0665917Y0780908D02*
D03*
X0606317Y0898008D02*
D03*
X0567417Y0975208D02*
D03*
X0548717Y0862708D02*
D03*
X0701817Y1004708D02*
D03*
X0609917Y0998608D02*
D03*
X0578617Y0947408D02*
D03*
X0504017Y0776708D02*
D03*
X0492217Y0776608D02*
D03*
X0458517Y0776708D02*
D03*
X0471617Y0798508D02*
D03*
X0467417Y0794308D02*
D03*
X0582117Y1013908D02*
D03*
X0534217Y0836408D02*
D03*
X0817717Y0982308D02*
D03*
X0548817Y0975108D02*
D03*
X0604417Y0986508D02*
D03*
X0687017Y1014608D02*
D03*
X0657717Y0956208D02*
D03*
X0674517Y0959308D02*
D03*
X0651317Y0933608D02*
D03*
X0685517Y0995808D02*
D03*
X0681817Y0992808D02*
D03*
X0689117Y0953008D02*
D03*
X0685117Y0953108D02*
D03*
X0657417Y0964908D02*
D03*
X0611917Y0936908D02*
D03*
X0631417Y0931208D02*
D03*
X0593317Y0952308D02*
D03*
X0589817D02*
D03*
X0589717Y0974408D02*
D03*
X0501417Y1018708D02*
D03*
X0495017Y1020108D02*
D03*
X0593217Y0974508D02*
D03*
X0525017Y1012208D02*
D03*
X0502117Y1007908D02*
D03*
X0715017Y0977808D02*
D03*
X0635323Y0967008D02*
D03*
X0674517Y0955808D02*
D03*
X0658717Y0774408D02*
D03*
X0655217D02*
D03*
X0812117Y0907008D02*
D03*
X0818717Y0896808D02*
D03*
X0478017Y0855208D02*
D03*
X0478117Y0881708D02*
D03*
X0472917Y0881808D02*
D03*
X0469217Y0881608D02*
D03*
X0463217Y0871308D02*
D03*
X0546517Y0782208D02*
D03*
X0537017Y0794208D02*
D03*
X0489817D02*
D03*
X0499317Y0782208D02*
D03*
X0442117Y0794208D02*
D03*
X0452417Y0782108D02*
D03*
X0608717Y0983408D02*
D03*
X0612117D02*
D03*
X0612217Y0989408D02*
D03*
X0608717D02*
D03*
D110*
X0766117Y0982408D02*
D03*
X0518917Y0885808D02*
D03*
X0473417Y0965308D02*
D03*
M02*
