G04*
G04 #@! TF.GenerationSoftware,Altium Limited,Altium Designer,22.8.2 (66)*
G04*
G04 Layer_Color=16711935*
%FSAX25Y25*%
%MOIN*%
G70*
G04*
G04 #@! TF.SameCoordinates,48F98BF4-95A5-4A16-9148-CE3FBF4555CD*
G04*
G04*
G04 #@! TF.FilePolarity,Negative*
G04*
G01*
G75*
%ADD78R,0.06896X0.06896*%
%ADD79C,0.06896*%
%ADD80O,0.04534X0.08668*%
%ADD81O,0.03943X0.07487*%
%ADD82C,0.02959*%
%ADD83O,0.20085X0.10243*%
%ADD84O,0.18117X0.09258*%
%ADD85O,0.09258X0.18117*%
%ADD86C,0.20085*%
%ADD87C,0.08372*%
%ADD88R,0.08372X0.08372*%
D78*
X0397528Y0836988D02*
D03*
X0885717D02*
D03*
D79*
X0397528Y0846988D02*
D03*
Y0856988D02*
D03*
Y0866988D02*
D03*
Y0876988D02*
D03*
Y0886988D02*
D03*
Y0896988D02*
D03*
Y0906988D02*
D03*
Y0916988D02*
D03*
Y0926988D02*
D03*
X0885717Y0846988D02*
D03*
Y0856988D02*
D03*
Y0866988D02*
D03*
Y0876988D02*
D03*
Y0886988D02*
D03*
Y0896988D02*
D03*
Y0906988D02*
D03*
Y0916988D02*
D03*
Y0926988D02*
D03*
X0779171Y1021887D02*
D03*
X0799171D02*
D03*
X0826415D02*
D03*
X0846415D02*
D03*
D80*
X0512961Y1015138D02*
D03*
X0478945D02*
D03*
D81*
X0512961Y1031594D02*
D03*
X0478945D02*
D03*
D82*
X0484575Y1017106D02*
D03*
X0507331D02*
D03*
D83*
X0440835Y0990256D02*
D03*
D84*
Y1013878D02*
D03*
D85*
X0422331Y1002067D02*
D03*
D86*
X0881780Y1023720D02*
D03*
X0401465D02*
D03*
Y0740256D02*
D03*
X0881780D02*
D03*
D87*
X0831583Y0766240D02*
D03*
X0845363Y0745768D02*
D03*
X0792213Y0766240D02*
D03*
X0805993Y0745768D02*
D03*
X0752843Y0766240D02*
D03*
X0766623Y0745768D02*
D03*
X0713473Y0766240D02*
D03*
X0727253Y0745768D02*
D03*
X0497568Y0929114D02*
D03*
Y0919114D02*
D03*
Y0909114D02*
D03*
Y0899114D02*
D03*
Y0889114D02*
D03*
Y0879114D02*
D03*
Y0869114D02*
D03*
Y0859114D02*
D03*
Y0849114D02*
D03*
Y0839114D02*
D03*
Y0829114D02*
D03*
Y0819114D02*
D03*
Y0809114D02*
D03*
X0785678Y0859114D02*
D03*
Y0869114D02*
D03*
Y0879114D02*
D03*
D88*
X0497568Y0939114D02*
D03*
X0785678Y0889114D02*
D03*
M02*
