M48
;Layer_Color=9474304
;FILE_FORMAT=2:4
INCH
;TYPE=PLATED
T1F00S00C0.0118
T2F00S00C0.0157
T5F00S00C0.0413
T6F00S00C0.0433
T7F00S00C0.0531
T8F00S00C0.1260
;TYPE=NON_PLATED
T9F00S00C0.0256
%
T01
X040157Y075591
X042520
X041852Y076601
X043032Y077341
X042520Y077953
X040157
X044102Y076591
X044882Y073228
X047244
X049606
X051969
X054331
X056693
X059055
X061417
X061612Y077551
X061417Y077953
X059055
X059272Y076221
X059055Y075591
X057272Y077341
X056693Y077953
X054331
X054682Y076261
X054331Y075591
X051969Y077953
X049606
X049582Y076621
X048512Y077341
X047244Y077953
X047372Y076581
X047244Y075591
X063780
X064002Y076341
X063780Y073228
X066142
X068504
Y075591
Y077953
X066142
X066572Y077291
X087402Y075591
X085462Y081121
X084812Y081141
X084292Y081241
X084042Y081631
X084192Y083211
X085039Y082677
X082677
X081332Y081081
X080722Y081071
X080232Y081241
X079962Y081551
X080102Y083241
X081592Y085631
X080315Y087402
Y089764
X085039
X087402
Y092126
X085039
X085172Y092901
X084382Y092521
X082652Y092271
X085039Y087402
X086312Y086521
X087012Y086881
X087402Y087402
X085102Y085051
X077953Y087402
X075591
Y082677
X075182Y081201
X074522Y081181
X074022Y081331
X073762Y081731
X073228Y082677
X073892Y083346
X070866Y082677
X069992Y083341
X070152Y081471
X070612Y081141
X071232Y081161
X068504Y082677
X066142
X065992Y083551
X065382Y085579
X064722
X067042
X066062Y088001
X065337Y087981
X064222Y087701
X064282Y088411
X064828Y089029
X064812Y089305
X065562Y090001
X063780Y089764
X063922Y090981
X063402Y092481
X064872Y092881
X066142Y092126
X066482Y092211
X067092
X068504Y092126
X070866
Y089764
X073228
X068504
X068012Y079761
X067032Y079721
X066462Y078931
X067012Y078211
X068552Y078321
X066142Y080315
X064082Y079731
X064512Y078931
X062502Y078211
Y079721
X062510Y080741
X063780Y082677
X077953
X061417
X060042Y082521
X059223
X058405
X057586
X056767
X055949
X055130
X054312
X054331Y080315
X056693
X059055
X061417
X062052Y078951
X061417Y085039
X060212Y085431
X059802Y086661
X059312Y087781
X058802Y088041
X058302Y087791
X057782Y088051
X056082Y087731
X055672Y087851
X055312Y087961
X055292Y088391
X054962Y088661
X054592Y088831
X053302Y088091
X053292Y087621
X053182Y090611
X055812Y090084
Y089808
X057392
Y090084
X059055Y089764
X061417
X062302Y090101
X062182Y091321
X062202Y092091
X062002Y092851
X061232Y091961
X059832
X059055Y092126
X056352Y086461
X051969Y085039
X051812Y084711
X051969Y080315
X049606
X047372Y081821
X047722Y087631
X047102Y089891
X046322Y089561
X044882Y092126
X042692Y092461
X043252Y091211
X040157Y092126
Y085039
Y082677
Y080315
X042382Y081481
X042742
X044882Y080315
Y082677
X046042Y081781
X046382
X044882Y085039
X040157Y094488
Y096850
Y099213
X042520Y101575
X044882
X047112Y102311
X050284Y101856
X052072Y102331
X052352Y100171
X052062Y099631
X051347Y100491
X050582Y099841
X049929Y099182
X049652Y099181
X048732Y100161
X053852Y098931
X055352Y099921
X055972Y100581
X057162Y100371
X056693Y101575
X058072Y101271
X058662Y100961
X059792Y101181
X059512Y101561
X061292Y100921
X061417Y099213
Y096850
Y094488
X059162Y093901
X057472Y096221
X057042Y096521
X057472Y098441
X054662Y101121
X054331Y101575
X053762Y103671
X067052Y100901
X068504Y101575
X070866
X071622Y100771
X072342Y100631
X073082Y100261
X075591Y099213
Y101575
X069882Y103521
X069532Y099411
X068482Y098921
X066142Y099213
Y096850
Y094488
X063780
Y096850
X068472Y094421
X077662Y095371
X085039Y094488
X087402
Y096850
Y099213
X085039Y101575
X080315
T02
X068782Y080671
X057092Y084651
X056932Y088161
X053132Y085271
X052822Y098561
X046922Y097761
X076372Y098321
X081332Y098281
T05
X088769Y081199
Y082199
Y083199
Y084199
Y085199
Y086199
Y087199
Y088199
Y089199
Y090199
Y091199
Y092199
Y093199
X039556
Y092199
Y091199
Y090199
Y089199
Y088199
Y087199
Y086199
Y085199
Y084199
Y083199
Y082199
Y081199
Y094199
Y095199
X088769
Y094199
T06
X077917Y102189
X079917
X082641
X084641
T07
X072725Y074577
X071347Y076624
X075284
X076662Y074577
X080599
X079221Y076624
X083158
X084536Y074577
X078568Y086699
Y087699
Y088699
Y089699
X049757
Y088699
Y087699
Y086699
Y085699
Y084699
Y083699
Y082699
Y081699
Y090699
Y091699
Y092699
Y093699
Y094699
T08
X040147Y074026
X088178
X040147Y102372
X088178
T09
X048458Y101711
X050733
M30
